*
*
G04 PADS9.1 Build Number: 384028 generated Gerber (RS-274-X) file*
G04 PC Version=2.1*
*
%IN "PLC_Eval_MotherBoard_CJ"*%
*
%MOIN*%
*
%FSLAX35Y35*%
*
*
*
*
G04 PC Standard Apertures*
*
*
G04 Thermal Relief Aperture macro.*
%AMTER*
1,1,$1,0,0*
1,0,$1-$2,0,0*
21,0,$3,$4,0,0,45*
21,0,$3,$4,0,0,135*
%
*
*
G04 Annular Aperture macro.*
%AMANN*
1,1,$1,0,0*
1,0,$2,0,0*
%
*
*
G04 Odd Aperture macro.*
%AMODD*
1,1,$1,0,0*
1,0,$1-0.005,0,0*
%
*
*
G04 PC Custom Aperture Macros*
*
*
*
*
*
*
G04 PC Aperture Table*
*
%ADD082C,0.01*%
%ADD088C,0.001*%
%ADD142C,0.03937*%
%ADD200R,0.03937X0.02756*%
%ADD297R,0.08661X0.02362*%
%ADD345R,0.0315X0.0315*%
%ADD372R,0.01181X0.04724*%
%ADD373R,0.04724X0.01181*%
%ADD383R,0.036X0.047*%
%ADD384R,0.06299X0.05512*%
%ADD386C,0.06693*%
%ADD444R,0.047X0.036*%
%ADD454R,0.05512X0.03543*%
%ADD506R,0.05906X0.09449*%
%ADD507R,0.05X0.05*%
%ADD515R,0.02362X0.08661*%
%ADD517O,0.02953X0.01181*%
%ADD518R,0.02953X0.01181*%
%ADD519O,0.01181X0.02953*%
%ADD520R,0.01181X0.02953*%
%ADD521R,0.1063X0.1063*%
%ADD522R,0.04528X0.05512*%
%ADD528R,0.05512X0.01969*%
%ADD585R,0.03937X0.01181*%
%ADD593R,0.02165X0.01969*%
%ADD598R,0.07087X0.03937*%
%ADD599R,0.01181X0.05709*%
*
*
*
*
G04 PC Circuitry*
G04 Layer Name PLC_Eval_MotherBoard_CJ - circuitry*
%LPD*%
*
*
G04 PC Custom Flashes*
G04 Layer Name PLC_Eval_MotherBoard_CJ - flashes*
%LPD*%
*
*
G04 PC Circuitry*
G04 Layer Name PLC_Eval_MotherBoard_CJ - circuitry*
%LPD*%
*
G54D82*
G01X1160662Y552900D02*
X1160208Y553525D01*
X1159526Y553837*
X1158617*
X1157935Y553525*
X1157480Y552900*
Y552275*
X1157708Y551650*
X1157935Y551337*
X1158389Y551025*
X1159753Y550400*
X1160208Y550087*
X1160435Y549775*
X1160662Y549150*
Y548212*
X1160208Y547587*
X1159526Y547275*
X1158617*
X1157935Y547587*
X1157480Y548212*
X1164071Y553837D02*
X1163617Y553525D01*
X1163162Y552900*
X1162935Y552275*
X1162708Y551337*
Y549775*
X1162935Y548837*
X1163162Y548212*
X1163617Y547587*
X1164071Y547275*
X1164980*
X1165435Y547587*
X1165889Y548212*
X1166117Y548837*
X1166344Y549775*
Y551337*
X1166117Y552275*
X1165889Y552900*
X1165435Y553525*
X1164980Y553837*
X1164071*
X1168389D02*
Y547275D01*
X1171117*
X1173162Y553837D02*
Y547275D01*
Y553837D02*
X1174753D01*
X1175435Y553525*
X1175889Y552900*
X1176117Y552275*
X1176344Y551337*
Y549775*
X1176117Y548837*
X1175889Y548212*
X1175435Y547587*
X1174753Y547275*
X1173162*
X1178389Y553837D02*
Y547275D01*
Y553837D02*
X1181344D01*
X1178389Y550712D02*
X1180208D01*
X1178389Y547275D02*
X1181344D01*
X1183389Y553837D02*
Y547275D01*
Y553837D02*
X1185435D01*
X1186117Y553525*
X1186344Y553212*
X1186571Y552587*
Y551962*
X1186344Y551337*
X1186117Y551025*
X1185435Y550712*
X1183389*
X1184980D02*
X1186571Y547275D01*
X1193844Y553837D02*
Y547275D01*
Y553837D02*
X1195889D01*
X1196571Y553525*
X1196798Y553212*
X1197026Y552587*
Y551650*
X1196798Y551025*
X1196571Y550712*
X1195889Y550400*
X1193844*
X1200889Y553837D02*
X1199071Y547275D01*
X1200889Y553837D02*
X1202708Y547275D01*
X1199753Y549462D02*
X1202026D01*
X1207935Y552900D02*
X1207480Y553525D01*
X1206798Y553837*
X1205889*
X1205208Y553525*
X1204753Y552900*
Y552275*
X1204980Y551650*
X1205208Y551337*
X1205662Y551025*
X1207026Y550400*
X1207480Y550087*
X1207708Y549775*
X1207935Y549150*
Y548212*
X1207480Y547587*
X1206798Y547275*
X1205889*
X1205208Y547587*
X1204753Y548212*
X1211571Y553837D02*
Y547275D01*
X1209980Y553837D02*
X1213162D01*
X1215208D02*
Y547275D01*
Y553837D02*
X1218162D01*
X1215208Y550712D02*
X1217026D01*
X1215208Y547275D02*
X1218162D01*
X1227026Y553837D02*
Y547275D01*
X1225435Y553837D02*
X1228617D01*
X1232026D02*
X1231571Y553525D01*
X1231117Y552900*
X1230889Y552275*
X1230662Y551337*
Y549775*
X1230889Y548837*
X1231117Y548212*
X1231571Y547587*
X1232026Y547275*
X1232935*
X1233389Y547587*
X1233844Y548212*
X1234071Y548837*
X1234298Y549775*
Y551337*
X1234071Y552275*
X1233844Y552900*
X1233389Y553525*
X1232935Y553837*
X1232026*
X1236344D02*
Y547275D01*
Y553837D02*
X1238389D01*
X1239071Y553525*
X1239298Y553212*
X1239526Y552587*
Y551650*
X1239298Y551025*
X1239071Y550712*
X1238389Y550400*
X1236344*
X687021Y378641D02*
Y372078D01*
Y378641D02*
X689975D01*
X687021Y375516D02*
X688839D01*
X687021Y372078D02*
X689975D01*
X692021Y378641D02*
X693839Y372078D01*
X695657Y378641D02*
X693839Y372078D01*
X699521Y378641D02*
X697703Y372078D01*
X699521Y378641D02*
X701339Y372078D01*
X698384Y374266D02*
X700657D01*
X703384Y378641D02*
Y372078D01*
X706112*
X711339Y377703D02*
X710884Y378328D01*
X710203Y378641*
X709293*
X708612Y378328*
X708157Y377703*
Y377078*
X708384Y376453*
X708612Y376141*
X709066Y375828*
X710430Y375203*
X710884Y374891*
X710884D02*
X711112Y374578D01*
X711339Y373953*
Y373016*
X711339D02*
X710884Y372391D01*
X710884D02*
X710203Y372078D01*
X709293*
X708612Y372391*
X708612D02*
X708157Y373016D01*
X714975Y378641D02*
Y372078D01*
X713384Y378641D02*
X716566D01*
X718612Y374891D02*
X722703D01*
X724748Y378641D02*
Y372078D01*
Y378641D02*
X726793D01*
X727475Y378328*
X727703Y378016*
X727930Y377391*
Y376453*
X727703Y375828*
X727475Y375516*
X727475D02*
X726793Y375203D01*
X724748*
X729975Y378641D02*
Y372078D01*
X732703*
X738157Y377078D02*
X737930Y377703D01*
X737475Y378328*
X737021Y378641*
X736112*
X735657Y378328*
X735203Y377703*
X734975Y377078*
X734748Y376141*
Y374578*
X734975Y373641*
X734975D02*
X735203Y373016D01*
X735203D02*
X735657Y372391D01*
X735657D02*
X736112Y372078D01*
X737021*
X737475Y372391*
X737475D02*
X737930Y373016D01*
X737930D02*
X738157Y373641D01*
X740203Y378641D02*
Y372078D01*
Y378641D02*
X742021Y372078D01*
X743839Y378641D02*
X742021Y372078D01*
X743839Y378641D02*
Y372078D01*
X745884Y378641D02*
Y372078D01*
Y378641D02*
X747930D01*
X748612Y378328*
X748839Y378016*
X749066Y377391*
Y376766*
X748839Y376141*
X748612Y375828*
X747930Y375516*
X745884D02*
X747930D01*
X747930D02*
X748612Y375203D01*
X748839Y374891*
X748839D02*
X749066Y374266D01*
X749066D02*
Y373328D01*
X748839Y372703*
X748612Y372391*
X748612D02*
X747930Y372078D01*
X745884*
X751112Y377391D02*
X751566Y377703D01*
X752248Y378641*
Y372078*
X759521Y374891D02*
X763612D01*
X774293Y377078D02*
X774066Y377703D01*
X773612Y378328*
X773157Y378641*
X772248*
X771793Y378328*
X771339Y377703*
X771112Y377078*
X770884Y376141*
Y374578*
X771112Y373641*
X771112D02*
X771339Y373016D01*
X771339D02*
X771793Y372391D01*
X771793D02*
X772248Y372078D01*
X773157*
X773612Y372391*
X773612D02*
X774066Y373016D01*
X774066D02*
X774293Y373641D01*
X778612Y378641D02*
Y373641D01*
X778612D02*
X778384Y372703D01*
X778157Y372391*
X778157D02*
X777703Y372078D01*
X777248*
X776793Y372391*
X776793D02*
X776566Y372703D01*
X776339Y373641*
X776339D02*
Y374266D01*
X785884Y374891D02*
X789975D01*
X797248Y376453D02*
Y372078D01*
Y374578D02*
X797475Y375516D01*
X797475D02*
X797930Y376141D01*
X798384Y376453*
X799066*
X801112Y374578D02*
X803839D01*
Y375203*
X803612Y375828*
X803384Y376141*
X802930Y376453*
X802248*
X801793Y376141*
X801339Y375516*
X801339D02*
X801112Y374578D01*
Y373953*
X801339Y373016*
X801339D02*
X801793Y372391D01*
X801793D02*
X802248Y372078D01*
X802930*
X803384Y372391*
X803384D02*
X803839Y373016D01*
X805884Y376453D02*
X807248Y372078D01*
X808612Y376453D02*
X807248Y372078D01*
X810884Y377078D02*
Y377391D01*
X811112Y378016*
X811339Y378328*
X811793Y378641*
X812703*
X813157Y378328*
X813384Y378016*
X813612Y377391*
Y376766*
X813384Y376141*
X812930Y375203*
X810657Y372078*
X813839*
G54D88*
G54D142*
X1046260Y403543D03*
X433071D03*
X403543Y588583D03*
G54D200*
X1042126Y510630D03*
Y506890D03*
Y503150D03*
X1052362D03*
Y510630D03*
G54D297*
X1027953Y588957D03*
Y593957D03*
Y598957D03*
Y603957D03*
X1007480D03*
Y598957D03*
Y593957D03*
Y588957D03*
G54D345*
X967572Y563976D03*
X973372D03*
X973425Y551234D03*
Y557034D03*
X942966Y555118D03*
X948766D03*
X942966Y563976D03*
X948766D03*
X942966Y549213D03*
X948766D03*
X942966Y573819D03*
X948766D03*
X975341Y572835D03*
X969541D03*
X700840Y451772D03*
X706640D03*
X733268Y574750D03*
Y568950D03*
X751969Y606352D03*
Y612152D03*
X737152Y545276D03*
X731352D03*
X718557D03*
X724357D03*
X699803Y551234D03*
Y557034D03*
X664317Y451772D03*
X658517D03*
X646706D03*
X652506D03*
X683018D03*
X677218D03*
X972494Y530512D03*
X978294D03*
Y536417D03*
X972494D03*
X978294Y542323D03*
X972494D03*
X1035433Y503006D03*
Y508806D03*
X1052165Y517769D03*
Y523569D03*
X1036470Y517717D03*
X1042270D03*
X1005958Y582677D03*
X1011758D03*
X1040354Y572782D03*
Y566982D03*
X1070813Y474409D03*
X1065013D03*
X1027559Y503006D03*
Y508806D03*
X1020669D03*
Y503006D03*
X947782Y451772D03*
X941982D03*
X947782Y461614D03*
X941982D03*
X1006890Y486168D03*
Y480368D03*
X996994Y514764D03*
X991194D03*
X996994Y520669D03*
X991194D03*
X941982Y511811D03*
X947782D03*
Y521654D03*
X941982D03*
X947782Y502953D03*
X941982D03*
Y497047D03*
X947782D03*
X997979Y594488D03*
X992179D03*
X1037454Y492126D03*
X1043254D03*
X1019685Y401628D03*
Y407428D03*
X1029528Y401628D03*
Y407428D03*
X1001969Y401628D03*
Y407428D03*
X992126Y401628D03*
Y407428D03*
X1058018Y590551D03*
X1052218D03*
X1058018Y557087D03*
X1052218D03*
X941982Y467520D03*
X947782D03*
X953793Y461614D03*
X959593D03*
X947782Y473425D03*
X941982D03*
Y479331D03*
X947782D03*
Y485236D03*
X941982D03*
X997979Y588583D03*
X992179D03*
X1055118Y610183D03*
Y604383D03*
Y615210D03*
Y621010D03*
X1018754Y611220D03*
X1024554D03*
X1042270Y598425D03*
X1036470D03*
X992179Y582677D03*
X997979D03*
X1020669Y521601D03*
Y515801D03*
X1026575Y521601D03*
Y515801D03*
X797244Y451824D03*
Y457624D03*
X1069882Y589514D03*
Y583714D03*
X1096457Y492179D03*
Y497979D03*
Y507927D03*
Y513727D03*
Y523675D03*
Y529475D03*
Y539423D03*
Y545223D03*
X1054187Y457677D03*
X1059987D03*
X941982Y537402D03*
X947782D03*
X1070813Y482283D03*
X1065013D03*
Y457677D03*
X1070813D03*
X1049160Y414961D03*
X1043360D03*
X1049160Y423228D03*
X1043360D03*
G54D372*
X994094Y528543D03*
X996063D03*
X998031D03*
X1000000D03*
X1001969D03*
X1003937D03*
X1005906D03*
X1007874D03*
X1009843D03*
X1011811D03*
X1013780D03*
X1015748D03*
X1017717D03*
X1019685D03*
X1021654D03*
X1023622D03*
Y573819D03*
X1021654D03*
X1019685D03*
X1017717D03*
X1015748D03*
X1013780D03*
X1011811D03*
X1009843D03*
X1007874D03*
X1005906D03*
X1003937D03*
X1001969D03*
X1000000D03*
X998031D03*
X996063D03*
X994094D03*
G54D373*
X986220Y565945D03*
Y563976D03*
Y562008D03*
Y560039D03*
Y558071D03*
Y556102D03*
Y554134D03*
Y552165D03*
Y550197D03*
Y548228D03*
Y546260D03*
Y544291D03*
Y542323D03*
Y540354D03*
Y538386D03*
Y536417D03*
X1031496D03*
Y538386D03*
Y540354D03*
Y542323D03*
Y544291D03*
Y546260D03*
Y548228D03*
Y550197D03*
Y552165D03*
Y554134D03*
Y556102D03*
Y558071D03*
Y560039D03*
Y562008D03*
Y563976D03*
Y565945D03*
G54D383*
X726315Y611742D03*
X734315D03*
X730315Y620542D03*
G54D384*
X1094488Y603346D03*
Y621063D03*
X1062992Y603346D03*
Y621063D03*
G54D386*
X900591Y557087D03*
X987205Y620079D03*
X1000984D03*
X1066929Y560039D03*
X892717Y438976D03*
X900591Y446850D03*
Y456693D03*
X1023622Y468504D03*
X900591Y547244D03*
Y537402D03*
G54D444*
X1061545Y533528D03*
Y525528D03*
X1070345Y529528D03*
X1061545Y517780D03*
Y509780D03*
X1070345Y513780D03*
X1061545Y502031D03*
Y494031D03*
X1070345Y498031D03*
X1061545Y549276D03*
Y541276D03*
X1070345Y545276D03*
G54D454*
X704724Y506102D03*
Y493110D03*
X454724Y468110D03*
Y455118D03*
Y447441D03*
Y434449D03*
G54D506*
X688534Y505906D03*
X669734D03*
G54D507*
X743898Y621063D03*
X752165D03*
X1019685Y423425D03*
Y415157D03*
X1029528Y423425D03*
Y415157D03*
X1001969Y423425D03*
Y415157D03*
X992126Y423425D03*
Y415157D03*
X1080512Y545276D03*
X1088780D03*
X1080512Y529528D03*
X1088780D03*
X1080512Y513780D03*
X1088780D03*
X1080512Y498031D03*
X1088780D03*
G54D515*
X724035Y577165D03*
X719035D03*
X714035D03*
X709035D03*
Y556693D03*
X714035D03*
X719035D03*
X724035D03*
G54D517*
X1030512Y483268D03*
Y493110D03*
X1014764D03*
Y483268D03*
G54D518*
X1030512Y485236D03*
Y487205D03*
Y489173D03*
Y491142D03*
X1014764D03*
Y489173D03*
Y487205D03*
Y485236D03*
G54D519*
X1027559Y496063D03*
X1017716D03*
Y480315D03*
X1027559D03*
G54D520*
X1025591Y496063D03*
X1023622D03*
X1021654D03*
X1019685D03*
Y480315D03*
X1021654D03*
X1023622D03*
X1025591D03*
G54D521*
X1022638Y488189D03*
G54D522*
X963780Y544882D03*
Y553543D03*
X957480D03*
Y544882D03*
G54D528*
X1078346Y568504D03*
Y571654D03*
Y574803D03*
Y577953D03*
Y581102D03*
Y462205D03*
Y465354D03*
Y468504D03*
Y471654D03*
Y474803D03*
G54D585*
X1068130Y464567D03*
Y466535D03*
Y468504D03*
X1061791D03*
Y466535D03*
Y464567D03*
G54D593*
X730217Y603346D03*
X726476D03*
G54D598*
X958661Y563976D03*
Y573819D03*
G54D599*
X1058071Y582480D03*
X1056102D03*
X1054134D03*
X1052165D03*
X1050197D03*
Y565157D03*
X1052165D03*
X1054134D03*
X1056102D03*
X1058071D03*
X0Y0D02*
M02*
