*
*
G04 PADS9.1 Build Number: 384028 generated Gerber (RS-274-X) file*
G04 PC Version=2.1*
*
%IN "PLC_Eval_MotherBoard_CJ"*%
*
%MOIN*%
*
%FSLAX35Y35*%
*
*
*
*
G04 PC Standard Apertures*
*
*
G04 Thermal Relief Aperture macro.*
%AMTER*
1,1,$1,0,0*
1,0,$1-$2,0,0*
21,0,$3,$4,0,0,45*
21,0,$3,$4,0,0,135*
%
*
*
G04 Annular Aperture macro.*
%AMANN*
1,1,$1,0,0*
1,0,$2,0,0*
%
*
*
G04 Odd Aperture macro.*
%AMODD*
1,1,$1,0,0*
1,0,$1-0.005,0,0*
%
*
*
G04 PC Custom Aperture Macros*
*
*
*
*
*
*
G04 PC Aperture Table*
*
%ADD082C,0.01*%
%ADD088C,0.001*%
%ADD134R,0.05118X0.05118*%
%ADD161R,0.05512X0.05512*%
%ADD162C,0.07874*%
%ADD231R,0.07874X0.07874*%
%ADD237R,0.06693X0.06693*%
%ADD346C,0.05512*%
%ADD361C,0.09843*%
%ADD366R,0.07087X0.07087*%
%ADD367C,0.07087*%
%ADD386C,0.06693*%
%ADD512C,0.05118*%
%ADD521R,0.1063X0.1063*%
%ADD532C,0.0748*%
%ADD541O,0.1811X0.08268*%
%ADD542O,0.16142X0.08268*%
%ADD543O,0.08268X0.16142*%
%ADD544C,0.1063*%
%ADD547C,0.24016*%
%ADD548C,0.08268*%
%ADD551C,0.06496*%
%ADD575R,0.0748X0.0748*%
%ADD582O,0.14567X0.04724*%
%ADD597C,0.12992*%
%ADD602R,0.08268X0.08268*%
*
*
*
*
G04 PC Circuitry*
G04 Layer Name PLC_Eval_MotherBoard_CJ - circuitry*
%LPD*%
*
*
G04 PC Custom Flashes*
G04 Layer Name PLC_Eval_MotherBoard_CJ - flashes*
%LPD*%
*
*
G04 PC Circuitry*
G04 Layer Name PLC_Eval_MotherBoard_CJ - circuitry*
%LPD*%
*
G54D82*
G01X1247361Y482034D02*
X1247816Y482659D01*
X1248498Y482971*
X1249407*
X1250089Y482659*
X1250543Y482034*
Y481409*
X1250316Y480784*
X1250089Y480471*
X1249634Y480159*
X1248271Y479534*
X1247816Y479221*
X1247589Y478909*
X1247361Y478284*
Y477346*
X1247816Y476721*
X1248498Y476409*
X1249407*
X1250089Y476721*
X1250543Y477346*
X1243952Y482971D02*
X1244407Y482659D01*
X1244861Y482034*
X1245089Y481409*
X1245316Y480471*
Y478909*
X1245089Y477971*
X1244861Y477346*
X1244407Y476721*
X1243952Y476409*
X1243043*
X1242589Y476721*
X1242134Y477346*
X1241907Y477971*
X1241680Y478909*
Y480471*
X1241907Y481409*
X1242134Y482034*
X1242589Y482659*
X1243043Y482971*
X1243952*
X1239634D02*
Y476409D01*
X1236907*
X1234861Y482971D02*
Y476409D01*
Y482971D02*
X1233271D01*
X1232589Y482659*
X1232134Y482034*
X1231907Y481409*
X1231680Y480471*
Y478909*
X1231907Y477971*
X1232134Y477346*
X1232589Y476721*
X1233271Y476409*
X1234861*
X1229634Y482971D02*
Y476409D01*
Y482971D02*
X1226680D01*
X1229634Y479846D02*
X1227816D01*
X1229634Y476409D02*
X1226680D01*
X1224634Y482971D02*
Y476409D01*
Y482971D02*
X1222589D01*
X1221907Y482659*
X1221680Y482346*
X1221452Y481721*
Y481096*
X1221680Y480471*
X1221907Y480159*
X1222589Y479846*
X1224634*
X1223043D02*
X1221452Y476409D01*
X1214180Y482971D02*
Y476409D01*
Y482971D02*
X1212361Y476409D01*
X1210543Y482971D02*
X1212361Y476409D01*
X1210543Y482971D02*
Y476409D01*
X1206680Y482971D02*
X1208498Y476409D01*
X1206680Y482971D02*
X1204861Y476409D01*
X1207816Y478596D02*
X1205543D01*
X1199634Y482034D02*
X1200089Y482659D01*
X1200771Y482971*
X1201680*
X1202361Y482659*
X1202816Y482034*
Y481409*
X1202589Y480784*
X1202361Y480471*
X1201907Y480159*
X1200543Y479534*
X1200089Y479221*
X1199861Y478909*
X1199634Y478284*
Y477346*
X1200089Y476721*
X1200771Y476409*
X1201680*
X1202361Y476721*
X1202816Y477346*
X1197589Y482971D02*
Y476409D01*
X1194407Y482971D02*
X1197589Y478596D01*
X1196452Y480159D02*
X1194407Y476409D01*
X1187134Y482971D02*
Y476409D01*
Y482971D02*
X1185089D01*
X1184407Y482659*
X1184180Y482346*
X1183952Y481721*
Y481096*
X1184180Y480471*
X1184407Y480159*
X1185089Y479846*
X1187134D02*
X1185089D01*
X1184407Y479534*
X1184180Y479221*
X1183952Y478596*
Y477659*
X1184180Y477034*
X1184407Y476721*
X1185089Y476409*
X1187134*
X1180543Y482971D02*
X1180998Y482659D01*
X1181452Y482034*
X1181680Y481409*
X1181907Y480471*
Y478909*
X1181680Y477971*
X1181452Y477346*
X1180998Y476721*
X1180543Y476409*
X1179634*
X1179180Y476721*
X1178725Y477346*
X1178498Y477971*
X1178271Y478909*
Y480471*
X1178498Y481409*
X1178725Y482034*
X1179180Y482659*
X1179634Y482971*
X1180543*
X1174634D02*
Y476409D01*
X1176225Y482971D02*
X1173043D01*
X1169407D02*
Y476409D01*
X1170998Y482971D02*
X1167816D01*
X1164407D02*
X1164861Y482659D01*
X1165316Y482034*
X1165543Y481409*
X1165771Y480471*
Y478909*
X1165543Y477971*
X1165316Y477346*
X1164861Y476721*
X1164407Y476409*
X1163498*
X1163043Y476721*
X1162589Y477346*
X1162361Y477971*
X1162134Y478909*
Y480471*
X1162361Y481409*
X1162589Y482034*
X1163043Y482659*
X1163498Y482971*
X1164407*
X1160089D02*
Y476409D01*
Y482971D02*
X1158271Y476409D01*
X1156452Y482971D02*
X1158271Y476409D01*
X1156452Y482971D02*
Y476409D01*
X687021Y378641D02*
Y372078D01*
Y378641D02*
X689975D01*
X687021Y375516D02*
X688839D01*
X687021Y372078D02*
X689975D01*
X692021Y378641D02*
X693839Y372078D01*
X695657Y378641D02*
X693839Y372078D01*
X699521Y378641D02*
X697703Y372078D01*
X699521Y378641D02*
X701339Y372078D01*
X698384Y374266D02*
X700657D01*
X703384Y378641D02*
Y372078D01*
X706112*
X711339Y377703D02*
X710884Y378328D01*
X710203Y378641*
X709293*
X708612Y378328*
X708157Y377703*
Y377078*
X708384Y376453*
X708612Y376141*
X709066Y375828*
X710430Y375203*
X710884Y374891*
X710884D02*
X711112Y374578D01*
X711339Y373953*
Y373016*
X711339D02*
X710884Y372391D01*
X710884D02*
X710203Y372078D01*
X709293*
X708612Y372391*
X708612D02*
X708157Y373016D01*
X714975Y378641D02*
Y372078D01*
X713384Y378641D02*
X716566D01*
X718612Y374891D02*
X722703D01*
X724748Y378641D02*
Y372078D01*
Y378641D02*
X726793D01*
X727475Y378328*
X727703Y378016*
X727930Y377391*
Y376453*
X727703Y375828*
X727475Y375516*
X727475D02*
X726793Y375203D01*
X724748*
X729975Y378641D02*
Y372078D01*
X732703*
X738157Y377078D02*
X737930Y377703D01*
X737475Y378328*
X737021Y378641*
X736112*
X735657Y378328*
X735203Y377703*
X734975Y377078*
X734748Y376141*
Y374578*
X734975Y373641*
X734975D02*
X735203Y373016D01*
X735203D02*
X735657Y372391D01*
X735657D02*
X736112Y372078D01*
X737021*
X737475Y372391*
X737475D02*
X737930Y373016D01*
X737930D02*
X738157Y373641D01*
X740203Y378641D02*
Y372078D01*
Y378641D02*
X742021Y372078D01*
X743839Y378641D02*
X742021Y372078D01*
X743839Y378641D02*
Y372078D01*
X745884Y378641D02*
Y372078D01*
Y378641D02*
X747930D01*
X748612Y378328*
X748839Y378016*
X749066Y377391*
Y376766*
X748839Y376141*
X748612Y375828*
X747930Y375516*
X745884D02*
X747930D01*
X747930D02*
X748612Y375203D01*
X748839Y374891*
X748839D02*
X749066Y374266D01*
X749066D02*
Y373328D01*
X748839Y372703*
X748612Y372391*
X748612D02*
X747930Y372078D01*
X745884*
X751112Y377391D02*
X751566Y377703D01*
X752248Y378641*
Y372078*
X759521Y374891D02*
X763612D01*
X774293Y377078D02*
X774066Y377703D01*
X773612Y378328*
X773157Y378641*
X772248*
X771793Y378328*
X771339Y377703*
X771112Y377078*
X770884Y376141*
Y374578*
X771112Y373641*
X771112D02*
X771339Y373016D01*
X771339D02*
X771793Y372391D01*
X771793D02*
X772248Y372078D01*
X773157*
X773612Y372391*
X773612D02*
X774066Y373016D01*
X774066D02*
X774293Y373641D01*
X778612Y378641D02*
Y373641D01*
X778612D02*
X778384Y372703D01*
X778157Y372391*
X778157D02*
X777703Y372078D01*
X777248*
X776793Y372391*
X776793D02*
X776566Y372703D01*
X776339Y373641*
X776339D02*
Y374266D01*
X785884Y374891D02*
X789975D01*
X797248Y376453D02*
Y372078D01*
Y374578D02*
X797475Y375516D01*
X797475D02*
X797930Y376141D01*
X798384Y376453*
X799066*
X801112Y374578D02*
X803839D01*
Y375203*
X803612Y375828*
X803384Y376141*
X802930Y376453*
X802248*
X801793Y376141*
X801339Y375516*
X801339D02*
X801112Y374578D01*
Y373953*
X801339Y373016*
X801339D02*
X801793Y372391D01*
X801793D02*
X802248Y372078D01*
X802930*
X803384Y372391*
X803384D02*
X803839Y373016D01*
X805884Y376453D02*
X807248Y372078D01*
X808612Y376453D02*
X807248Y372078D01*
X810884Y377078D02*
Y377391D01*
X811112Y378016*
X811339Y378328*
X811793Y378641*
X812703*
X813157Y378328*
X813384Y378016*
X813612Y377391*
Y376766*
X813384Y376141*
X812930Y375203*
X810657Y372078*
X813839*
G54D88*
G54D134*
X1020827Y449350D03*
G54D161*
X444803Y419291D03*
G54D162*
X866850Y432008D03*
X856850Y442008D03*
Y432008D03*
X846850Y442008D03*
Y432008D03*
X836850Y442008D03*
Y432008D03*
X826850Y442008D03*
Y432008D03*
X816850Y442008D03*
Y432008D03*
X806850Y442008D03*
Y432008D03*
X796850Y442008D03*
Y432008D03*
X786850Y442008D03*
Y432008D03*
X776850Y442008D03*
Y432008D03*
X717047Y431811D03*
X707047Y441811D03*
Y431811D03*
X697047Y441811D03*
Y431811D03*
X687047Y441811D03*
Y431811D03*
X677047Y441811D03*
Y431811D03*
X667047Y441811D03*
Y431811D03*
X657047Y441811D03*
Y431811D03*
X647047Y441811D03*
Y431811D03*
X637047Y441811D03*
Y431811D03*
X627047Y441811D03*
Y431811D03*
G54D231*
X866850Y442008D03*
X717047Y441811D03*
G54D237*
X928228Y557126D03*
G54D346*
X454803Y419291D03*
G54D361*
X410433Y542323D03*
X439961D03*
G54D366*
X716535Y592520D03*
X1018701Y621063D03*
X716535Y533465D03*
X700039Y609055D03*
X462756D03*
G54D367*
X726535Y592520D03*
X736535D03*
X1028701Y621063D03*
X726535Y533465D03*
X736535D03*
X690039Y609055D03*
X680039D03*
X670039D03*
X452756D03*
X442756D03*
G54D386*
X918228Y557126D03*
X928228Y547126D03*
X918228D03*
X928228Y537126D03*
X918228D03*
X928228Y527126D03*
X918228D03*
X928228Y517126D03*
X918228D03*
X928228Y507126D03*
X918228D03*
X928228Y497126D03*
X918228D03*
X928228Y487126D03*
X918228D03*
X928228Y477126D03*
X918228D03*
X928228Y467126D03*
X918228D03*
X928228Y457126D03*
X918228D03*
X928228Y447126D03*
X918228D03*
X928228Y437126D03*
X918228D03*
X928228Y427126D03*
X918228D03*
G54D512*
X1020827Y444350D03*
X1015827Y449350D03*
Y444350D03*
X1010827Y449350D03*
Y444350D03*
X1005827Y449350D03*
Y444350D03*
X1000827Y449350D03*
Y444350D03*
G54D521*
X412598Y443937D03*
G54D532*
X491220Y507126D03*
X481220Y497126D03*
X491220D03*
X481220Y487126D03*
X491220D03*
X481220Y477126D03*
X491220D03*
G54D541*
X799213Y575197D03*
G54D542*
Y598819D03*
G54D543*
X780709Y587008D03*
G54D544*
X412598Y463937D03*
G54D547*
X413386Y413386D03*
Y610236D03*
X964567D03*
Y413386D03*
G54D548*
X1046260Y403543D03*
X881496Y590630D03*
X891496Y580630D03*
Y590630D03*
X901496Y580630D03*
Y590630D03*
X911496Y580630D03*
Y590630D03*
X921496Y580630D03*
Y590630D03*
X931496Y580630D03*
Y590630D03*
X433071Y403543D03*
X403543Y588583D03*
X414370Y493937D03*
Y513937D03*
X924213Y406496D03*
X542913Y618898D03*
X847441Y606299D03*
X1038780Y435630D03*
X1045276Y621063D03*
X699803Y567913D03*
G54D551*
X1089606Y407874D03*
X1059606D03*
X1089606Y434252D03*
X1059606D03*
G54D575*
X481220Y507126D03*
G54D582*
X1087795Y560433D03*
Y589173D03*
Y454134D03*
Y482874D03*
G54D597*
X753937Y470472D03*
Y501969D03*
X726378D03*
Y470472D03*
G54D602*
X881496Y580630D03*
X0Y0D02*
M02*
