*
*
G04 PADS9.1 Build Number: 384028 generated Gerber (RS-274-X) file*
G04 PC Version=2.1*
*
%IN "PLC_Eval_MotherBoard_CJ"*%
*
%MOIN*%
*
%FSLAX35Y35*%
*
*
*
*
G04 PC Standard Apertures*
*
*
G04 Thermal Relief Aperture macro.*
%AMTER*
1,1,$1,0,0*
1,0,$1-$2,0,0*
21,0,$3,$4,0,0,45*
21,0,$3,$4,0,0,135*
%
*
*
G04 Annular Aperture macro.*
%AMANN*
1,1,$1,0,0*
1,0,$2,0,0*
%
*
*
G04 Odd Aperture macro.*
%AMODD*
1,1,$1,0,0*
1,0,$1-0.005,0,0*
%
*
*
G04 PC Custom Aperture Macros*
*
*
*
*
*
*
G04 PC Aperture Table*
*
%ADD082C,0.01*%
%ADD088C,0.001*%
%ADD131C,0.01181*%
%ADD132C,0.01969*%
%ADD134R,0.05118X0.05118*%
%ADD144R,0.04331X0.04331*%
%ADD151C,0.02756*%
%ADD153C,0.00984*%
%ADD155C,0.04331*%
%ADD159C,0.11811*%
%ADD162C,0.07874*%
%ADD227C,0.05906*%
%ADD235R,0.06299X0.06299*%
%ADD237R,0.06693X0.06693*%
%ADD238C,0.06299*%
%ADD328C,0.23622*%
%ADD353O,0.07874X0.15748*%
%ADD354O,0.15748X0.07874*%
%ADD361C,0.09843*%
%ADD366R,0.07087X0.07087*%
%ADD367C,0.07087*%
%ADD386C,0.06693*%
%ADD509O,0.17717X0.07874*%
%ADD512C,0.05118*%
%ADD513C,0.06102*%
%ADD526C,0.09449*%
%ADD529O,0.14173X0.04331*%
*
*
*
*
G04 PC Circuitry*
G04 Layer Name PLC_Eval_MotherBoard_CJ - circuitry*
%LPD*%
*
*
G04 PC Custom Flashes*
G04 Layer Name PLC_Eval_MotherBoard_CJ - flashes*
%LPD*%
*
*
G04 PC Circuitry*
G04 Layer Name PLC_Eval_MotherBoard_CJ - circuitry*
%LPD*%
*
G54D82*
G01X687021Y378641D02*
Y372078D01*
Y378641D02*
X689975D01*
X687021Y375516D02*
X688839D01*
X687021Y372078D02*
X689975D01*
X692021Y378641D02*
X693839Y372078D01*
X695657Y378641D02*
X693839Y372078D01*
X699521Y378641D02*
X697703Y372078D01*
X699521Y378641D02*
X701339Y372078D01*
X698384Y374266D02*
X700657D01*
X703384Y378641D02*
Y372078D01*
X706112*
X711339Y377703D02*
X710884Y378328D01*
X710203Y378641*
X709293*
X708612Y378328*
X708157Y377703*
Y377078*
X708384Y376453*
X708612Y376141*
X709066Y375828*
X710430Y375203*
X710884Y374891*
X710884D02*
X711112Y374578D01*
X711339Y373953*
Y373016*
X711339D02*
X710884Y372391D01*
X710884D02*
X710203Y372078D01*
X709293*
X708612Y372391*
X708612D02*
X708157Y373016D01*
X714975Y378641D02*
Y372078D01*
X713384Y378641D02*
X716566D01*
X718612Y374891D02*
X722703D01*
X724748Y378641D02*
Y372078D01*
Y378641D02*
X726793D01*
X727475Y378328*
X727703Y378016*
X727930Y377391*
Y376453*
X727703Y375828*
X727475Y375516*
X727475D02*
X726793Y375203D01*
X724748*
X729975Y378641D02*
Y372078D01*
X732703*
X738157Y377078D02*
X737930Y377703D01*
X737475Y378328*
X737021Y378641*
X736112*
X735657Y378328*
X735203Y377703*
X734975Y377078*
X734748Y376141*
Y374578*
X734975Y373641*
X734975D02*
X735203Y373016D01*
X735203D02*
X735657Y372391D01*
X735657D02*
X736112Y372078D01*
X737021*
X737475Y372391*
X737475D02*
X737930Y373016D01*
X737930D02*
X738157Y373641D01*
X740203Y378641D02*
Y372078D01*
Y378641D02*
X742021Y372078D01*
X743839Y378641D02*
X742021Y372078D01*
X743839Y378641D02*
Y372078D01*
X745884Y378641D02*
Y372078D01*
Y378641D02*
X747930D01*
X748612Y378328*
X748839Y378016*
X749066Y377391*
Y376766*
X748839Y376141*
X748612Y375828*
X747930Y375516*
X745884D02*
X747930D01*
X747930D02*
X748612Y375203D01*
X748839Y374891*
X748839D02*
X749066Y374266D01*
X749066D02*
Y373328D01*
X748839Y372703*
X748612Y372391*
X748612D02*
X747930Y372078D01*
X745884*
X751112Y377391D02*
X751566Y377703D01*
X752248Y378641*
Y372078*
X759521Y374891D02*
X763612D01*
X774293Y377078D02*
X774066Y377703D01*
X773612Y378328*
X773157Y378641*
X772248*
X771793Y378328*
X771339Y377703*
X771112Y377078*
X770884Y376141*
Y374578*
X771112Y373641*
X771112D02*
X771339Y373016D01*
X771339D02*
X771793Y372391D01*
X771793D02*
X772248Y372078D01*
X773157*
X773612Y372391*
X773612D02*
X774066Y373016D01*
X774066D02*
X774293Y373641D01*
X778612Y378641D02*
Y373641D01*
X778612D02*
X778384Y372703D01*
X778157Y372391*
X778157D02*
X777703Y372078D01*
X777248*
X776793Y372391*
X776793D02*
X776566Y372703D01*
X776339Y373641*
X776339D02*
Y374266D01*
X785884Y374891D02*
X789975D01*
X797248Y376453D02*
Y372078D01*
Y374578D02*
X797475Y375516D01*
X797475D02*
X797930Y376141D01*
X798384Y376453*
X799066*
X801112Y374578D02*
X803839D01*
Y375203*
X803612Y375828*
X803384Y376141*
X802930Y376453*
X802248*
X801793Y376141*
X801339Y375516*
X801339D02*
X801112Y374578D01*
Y373953*
X801339Y373016*
X801339D02*
X801793Y372391D01*
X801793D02*
X802248Y372078D01*
X802930*
X803384Y372391*
X803384D02*
X803839Y373016D01*
X805884Y376453D02*
X807248Y372078D01*
X808612Y376453D02*
X807248Y372078D01*
X810884Y377078D02*
Y377391D01*
X811112Y378016*
X811339Y378328*
X811793Y378641*
X812703*
X813157Y378328*
X813384Y378016*
X813612Y377391*
Y376766*
X813384Y376141*
X812930Y375203*
X810657Y372078*
X813839*
X1157480Y506593D02*
Y500031D01*
X1160208*
X1164071Y506593D02*
X1162253Y500031D01*
X1164071Y506593D02*
X1165889Y500031D01*
X1162935Y502218D02*
X1165208D01*
X1167935Y506593D02*
X1169753Y503468D01*
Y500031*
X1171571Y506593D02*
X1169753Y503468D01*
X1173617Y506593D02*
Y500031D01*
Y506593D02*
X1176571D01*
X1173617Y503468D02*
X1175435D01*
X1173617Y500031D02*
X1176571D01*
X1178617Y506593D02*
Y500031D01*
Y506593D02*
X1180662D01*
X1181344Y506281*
X1181571Y505968*
X1181798Y505343*
Y504718*
X1181571Y504093*
X1181344Y503781*
X1180662Y503468*
X1178617*
X1180208D02*
X1181798Y500031D01*
X1189071Y506593D02*
Y500031D01*
X1191117Y506593D02*
Y500031D01*
Y506593D02*
X1194298Y500031D01*
Y506593D02*
Y500031D01*
X1197935Y506593D02*
Y500031D01*
X1196344Y506593D02*
X1199526D01*
X1201798Y505031D02*
Y505343D01*
X1202026Y505968*
X1202253Y506281*
X1202708Y506593*
X1203617*
X1204071Y506281*
X1204298Y505968*
X1204526Y505343*
Y504718*
X1204298Y504093*
X1203844Y503156*
X1201571Y500031*
X1204753*
X1093945Y407874D02*
G75*
G03X1093945I-4339J0D01*
G01X1097154Y421260D02*
G03X1097154I-2666J0D01*
G01X1085343Y425197D02*
G03X1085343I-2666J0D01*
G01X1093945Y434252D02*
G03X1093945I-4339J0D01*
G01X1085343Y440945D02*
G03X1085343I-2666J0D01*
G01X1086720Y581102D02*
G03X1086720I-2665J0D01*
G01X1091051Y603543D02*
G03X1091051I-2665J0D01*
G01X1089280Y614173D02*
G03X1089280I-2666J0D01*
G01X1075106Y466535D02*
G03X1075106I-2665J0D01*
G01X1069595Y425197D02*
G03X1069595I-2666J0D01*
G01Y440945D02*
G03X1069595I-2666J0D01*
G01X1063945Y407874D02*
G03X1063945I-4339J0D01*
G01Y434252D02*
G03X1063945I-4339J0D01*
G01X1065658Y448819D02*
G03X1065658I-2666J0D01*
G01X1059949Y464567D02*
G03X1059949I-2666J0D01*
G01X1069004Y494094D02*
G03X1069004I-2665J0D01*
G01Y509646D02*
G03X1069004I-2665J0D01*
G01Y525591D02*
G03X1069004I-2665J0D01*
G01Y541339D02*
G03X1069004I-2665J0D01*
G01X1072547Y579724D02*
G03X1072547I-2665J0D01*
G01X1071563Y603543D02*
G03X1071563I-2665J0D01*
G01X1073532Y614173D02*
G03X1073532I-2666J0D01*
G01X1063492Y482283D02*
G03X1063492I-2665J0D01*
G01X1064870Y590551D02*
G03X1064870I-2665J0D01*
G01X1050894Y557087D02*
G03X1050894I-2666J0D01*
G01X1053846Y570669D02*
G03X1053846I-2665J0D01*
G01X1056799Y577165D02*
G03X1056799I-2665J0D01*
G01X1047154Y566929D02*
G03X1047154I-2666J0D01*
G01X1049713Y582480D02*
G03X1049713I-2666J0D01*
G01X1050894Y590551D02*
G03X1050894I-2666J0D01*
G01X1050106Y621063D02*
G03X1050106I-4830J0D01*
G01X1039476Y538386D02*
G03X1039476I-2665J0D01*
G01X1039673Y555118D02*
G03X1039673I-2665J0D01*
G01X1028059Y533465D02*
G03X1028059I-2665J0D01*
G01X1029240Y539567D02*
G03X1029240I-2665J0D01*
G01Y565157D02*
G03X1029240I-2665J0D01*
G01X1034161Y574803D02*
G03X1034161I-2665J0D01*
G01X1031406Y611220D02*
G03X1031406I-2666J0D01*
G01X1032941Y621063D02*
G03X1032941I-4240J0D01*
G01X1010539Y506102D02*
G03X1010539I-2665J0D01*
G01X1011720Y536417D02*
G03X1011720I-2665J0D01*
G01X1020382Y568504D02*
G03X1020382I-2665J0D01*
G01X1023728Y589567D02*
G03X1023728I-2665J0D01*
G01X1023925Y603937D02*
G03X1023925I-2665J0D01*
G01X1017035Y599016D02*
G03X1017035I-2665J0D01*
G01X986917Y433071D02*
G03X986917I-2665J0D01*
G01Y452756D02*
G03X986917I-2665J0D01*
G01X977665Y413386D02*
G03X977665I-13098J0D01*
G01X979043Y440945D02*
G03X979043I-2665J0D01*
G01X989673Y514764D02*
G03X989673I-2665J0D01*
G01X989870Y520669D02*
G03X989870I-2665J0D01*
G01X992823Y533071D02*
G03X992823I-2666J0D01*
G01X996366Y550984D02*
G03X996366I-2665J0D01*
G01X984555Y573228D02*
G03X984555I-2665J0D01*
G01X970972Y536417D02*
G03X970972I-2665J0D01*
G01X975106Y546457D02*
G03X975106I-2665J0D01*
G01X978059Y580512D02*
G03X978059I-2665J0D01*
G01X971169Y553543D02*
G03X971169I-2665J0D01*
G01X972154Y577165D02*
G03X972154I-2666J0D01*
G01X963295Y536417D02*
G03X963295I-2665J0D01*
G01X956602Y466142D02*
G03X956602I-2665J0D01*
G01X959555Y559055D02*
G03X959555I-2665J0D01*
G01X977665Y610236D02*
G03X977665I-13098J0D01*
G01X982980Y618110D02*
G03X982980I-2665J0D01*
G01X947547Y413386D02*
G03X947547I-2665J0D01*
G01Y433071D02*
G03X947547I-2665J0D01*
G01X939673Y492126D02*
G03X939673I-2665J0D01*
G01Y527559D02*
G03X939673I-2665J0D01*
G01X941642Y549213D02*
G03X941642I-2666J0D01*
G01Y554921D02*
G03X941642I-2666J0D01*
G01Y562795D02*
G03X941642I-2666J0D01*
G01X942232Y576969D02*
G03X942232I-2665J0D01*
G01X947547Y598425D02*
G03X947547I-2665J0D01*
G01Y610236D02*
G03X947547I-2665J0D01*
G01X929043Y406496D02*
G03X929043I-4830J0D01*
G01X908177Y413386D02*
G03X908177I-2665J0D01*
G01X888492D02*
G03X888492I-2665J0D01*
G01X868807D02*
G03X868807I-2665J0D01*
G01X871484Y432008D02*
G03X871484I-4634J0D01*
G01X861484D02*
G03X861484I-4634J0D01*
G01Y442008D02*
G03X861484I-4634J0D01*
G01X849122Y413386D02*
G03X849122I-2665J0D01*
G01X851484Y432008D02*
G03X851484I-4634J0D01*
G01Y442008D02*
G03X851484I-4634J0D01*
G01X841484Y432008D02*
G03X841484I-4634J0D01*
G01Y442008D02*
G03X841484I-4634J0D01*
G01X829437Y413386D02*
G03X829437I-2665J0D01*
G01X831484Y432008D02*
G03X831484I-4634J0D01*
G01Y442008D02*
G03X831484I-4634J0D01*
G01X821484Y432008D02*
G03X821484I-4634J0D01*
G01Y442008D02*
G03X821484I-4634J0D01*
G01X809752Y413386D02*
G03X809752I-2665J0D01*
G01X811484Y432008D02*
G03X811484I-4634J0D01*
G01Y442008D02*
G03X811484I-4634J0D01*
G01X801484Y432008D02*
G03X801484I-4634J0D01*
G01Y442008D02*
G03X801484I-4634J0D01*
G01X790067Y413386D02*
G03X790067I-2665J0D01*
G01X791484Y432008D02*
G03X791484I-4634J0D01*
G01Y442008D02*
G03X791484I-4634J0D01*
G01X781484Y432008D02*
G03X781484I-4634J0D01*
G01Y442008D02*
G03X781484I-4634J0D01*
G01X932665Y447126D02*
G03X932665I-4437J0D01*
G01Y457126D02*
G03X932665I-4437J0D01*
G01Y467126D02*
G03X932665I-4437J0D01*
G01Y477126D02*
G03X932665I-4437J0D01*
G01Y487126D02*
G03X932665I-4437J0D01*
G01Y497126D02*
G03X932665I-4437J0D01*
G01Y507126D02*
G03X932665I-4437J0D01*
G01Y517126D02*
G03X932665I-4437J0D01*
G01Y527126D02*
G03X932665I-4437J0D01*
G01Y537126D02*
G03X932665I-4437J0D01*
G01Y547126D02*
G03X932665I-4437J0D01*
G01X936327Y580630D02*
G03X936327I-4831J0D01*
G01Y590630D02*
G03X936327I-4831J0D01*
G01X922665Y457126D02*
G03X922665I-4437J0D01*
G01Y467126D02*
G03X922665I-4437J0D01*
G01Y477126D02*
G03X922665I-4437J0D01*
G01Y487126D02*
G03X922665I-4437J0D01*
G01Y497126D02*
G03X922665I-4437J0D01*
G01Y507126D02*
G03X922665I-4437J0D01*
G01Y517126D02*
G03X922665I-4437J0D01*
G01Y527126D02*
G03X922665I-4437J0D01*
G01Y537126D02*
G03X922665I-4437J0D01*
G01Y547126D02*
G03X922665I-4437J0D01*
G01Y557126D02*
G03X922665I-4437J0D01*
G01X926327Y580630D02*
G03X926327I-4831J0D01*
G01Y590630D02*
G03X926327I-4831J0D01*
G01X927862Y610236D02*
G03X927862I-2665J0D01*
G01X908177Y476378D02*
G03X908177I-2665J0D01*
G01Y496063D02*
G03X908177I-2665J0D01*
G01X916327Y580630D02*
G03X916327I-4831J0D01*
G01Y590630D02*
G03X916327I-4831J0D01*
G01X906327Y580630D02*
G03X906327I-4831J0D01*
G01Y590630D02*
G03X906327I-4831J0D01*
G01X908177Y610236D02*
G03X908177I-2665J0D01*
G01X888492Y476378D02*
G03X888492I-2665J0D01*
G01Y496063D02*
G03X888492I-2665J0D01*
G01Y551181D02*
G03X888492I-2665J0D01*
G01Y570866D02*
G03X888492I-2665J0D01*
G01X896327Y580630D02*
G03X896327I-4831J0D01*
G01Y590630D02*
G03X896327I-4831J0D01*
G01X886327D02*
G03X886327I-4831J0D01*
G01X888492Y610236D02*
G03X888492I-2665J0D01*
G01X868807Y496063D02*
G03X868807I-2665J0D01*
G01Y539370D02*
G03X868807I-2665J0D01*
G01Y551181D02*
G03X868807I-2665J0D01*
G01Y570866D02*
G03X868807I-2665J0D01*
G01Y610236D02*
G03X868807I-2665J0D01*
G01X849122Y539370D02*
G03X849122I-2665J0D01*
G01Y551181D02*
G03X849122I-2665J0D01*
G01Y570866D02*
G03X849122I-2665J0D01*
G01Y590551D02*
G03X849122I-2665J0D01*
G01X852272Y606299D02*
G03X852272I-4831J0D01*
G01X829437Y531496D02*
G03X829437I-2665J0D01*
G01Y551181D02*
G03X829437I-2665J0D01*
G01Y570866D02*
G03X829437I-2665J0D01*
G01Y590551D02*
G03X829437I-2665J0D01*
G01Y610236D02*
G03X829437I-2665J0D01*
G01X809752Y511811D02*
G03X809752I-2665J0D01*
G01Y531496D02*
G03X809752I-2665J0D01*
G01Y551181D02*
G03X809752I-2665J0D01*
G01X790067Y511811D02*
G03X790067I-2665J0D01*
G01Y523622D02*
G03X790067I-2665J0D01*
G01Y551181D02*
G03X790067I-2665J0D01*
G01Y570866D02*
G03X790067I-2665J0D01*
G01X809752Y590551D02*
G03X809752I-2665J0D01*
G01Y610236D02*
G03X809752I-2665J0D01*
G01X790067D02*
G03X790067I-2665J0D01*
G01X770382Y511811D02*
G03X770382I-2665J0D01*
G01Y523622D02*
G03X770382I-2665J0D01*
G01Y551181D02*
G03X770382I-2665J0D01*
G01Y570866D02*
G03X770382I-2665J0D01*
G01Y590551D02*
G03X770382I-2665J0D01*
G01Y610236D02*
G03X770382I-2665J0D01*
G01X740776Y533465D02*
G03X740776I-4241J0D01*
G01X743807Y545276D02*
G03X743807I-2665J0D01*
G01X739870Y568898D02*
G03X739870I-2665J0D01*
G01X740776Y592520D02*
G03X740776I-4241J0D01*
G01X736720Y603543D02*
G03X736720I-2665J0D01*
G01X741642Y611811D02*
G03X741642I-2666J0D01*
G01X730776Y533465D02*
G03X730776I-4241J0D01*
G01Y592520D02*
G03X730776I-4241J0D01*
G01X721169Y549606D02*
G03X721169I-2665J0D01*
G01X702469Y546260D02*
G03X702469I-2666J0D01*
G01X704634Y567913D02*
G03X704634I-4831J0D01*
G01X703453Y578740D02*
G03X703453I-2666J0D01*
G01X691642Y531496D02*
G03X691642I-2666J0D01*
G01X694673Y609055D02*
G03X694673I-4634J0D01*
G01X681681Y431811D02*
G03X681681I-4634J0D01*
G01Y441811D02*
G03X681681I-4634J0D01*
G01X678650Y505906D02*
G03X678650I-2666J0D01*
G01X684673Y609055D02*
G03X684673I-4634J0D01*
G01X671957Y413386D02*
G03X671957I-2666J0D01*
G01X671681Y431811D02*
G03X671681I-4634J0D01*
G01Y441811D02*
G03X671681I-4634J0D01*
G01X670579Y451575D02*
G03X670579I-2666J0D01*
G01X671957Y472441D02*
G03X671957I-2666J0D01*
G01X672547Y514370D02*
G03X672547I-2665J0D01*
G01X661681Y431811D02*
G03X661681I-4634J0D01*
G01Y441811D02*
G03X661681I-4634J0D01*
G01X666642Y506102D02*
G03X666642I-2666J0D01*
G01X671957Y531496D02*
G03X671957I-2666J0D01*
G01Y551181D02*
G03X671957I-2666J0D01*
G01Y570866D02*
G03X671957I-2666J0D01*
G01X674673Y609055D02*
G03X674673I-4634J0D01*
G01X652272Y413386D02*
G03X652272I-2666J0D01*
G01X651681Y431811D02*
G03X651681I-4634J0D01*
G01Y441811D02*
G03X651681I-4634J0D01*
G01X652272Y472441D02*
G03X652272I-2666J0D01*
G01Y492126D02*
G03X652272I-2666J0D01*
G01Y511811D02*
G03X652272I-2666J0D01*
G01Y531496D02*
G03X652272I-2666J0D01*
G01Y551181D02*
G03X652272I-2666J0D01*
G01Y570866D02*
G03X652272I-2666J0D01*
G01Y590551D02*
G03X652272I-2666J0D01*
G01Y610236D02*
G03X652272I-2666J0D01*
G01X632587Y413386D02*
G03X632587I-2666J0D01*
G01X641681Y431811D02*
G03X641681I-4634J0D01*
G01Y441811D02*
G03X641681I-4634J0D01*
G01X631681Y431811D02*
G03X631681I-4634J0D01*
G01Y441811D02*
G03X631681I-4634J0D01*
G01X632587Y452756D02*
G03X632587I-2666J0D01*
G01Y472441D02*
G03X632587I-2666J0D01*
G01Y492126D02*
G03X632587I-2666J0D01*
G01Y511811D02*
G03X632587I-2666J0D01*
G01Y531496D02*
G03X632587I-2666J0D01*
G01Y551181D02*
G03X632587I-2666J0D01*
G01Y570866D02*
G03X632587I-2666J0D01*
G01Y590551D02*
G03X632587I-2666J0D01*
G01Y610236D02*
G03X632587I-2666J0D01*
G01X612902Y413386D02*
G03X612902I-2666J0D01*
G01Y433071D02*
G03X612902I-2666J0D01*
G01Y452756D02*
G03X612902I-2666J0D01*
G01Y472441D02*
G03X612902I-2666J0D01*
G01Y511811D02*
G03X612902I-2666J0D01*
G01Y531496D02*
G03X612902I-2666J0D01*
G01Y570866D02*
G03X612902I-2666J0D01*
G01Y590551D02*
G03X612902I-2666J0D01*
G01X770382Y413386D02*
G03X770382I-2665J0D01*
G01X750697D02*
G03X750697I-2666J0D01*
G01X731012D02*
G03X731012I-2666J0D01*
G01X721681Y431811D02*
G03X721681I-4634J0D01*
G01X711327Y413386D02*
G03X711327I-2666J0D01*
G01X711681Y431811D02*
G03X711681I-4634J0D01*
G01Y441811D02*
G03X711681I-4634J0D01*
G01X701681Y431811D02*
G03X701681I-4634J0D01*
G01Y441811D02*
G03X701681I-4634J0D01*
G01X691642Y413386D02*
G03X691642I-2666J0D01*
G01X691681Y431811D02*
G03X691681I-4634J0D01*
G01Y441811D02*
G03X691681I-4634J0D01*
G01X982980Y500000D02*
G03X982980I-2665J0D01*
G01Y511811D02*
G03X982980I-2665J0D01*
G01X967232Y433071D02*
G03X967232I-2665J0D01*
G01Y448819D02*
G03X967232I-2665J0D01*
G01X966248Y469488D02*
G03X966248I-2665J0D01*
G01X971169Y492126D02*
G03X971169I-2665J0D01*
G01Y515748D02*
G03X971169I-2665J0D01*
G01X976091Y524606D02*
G03X976091I-2666J0D01*
G01X980618Y559646D02*
G03X980618I-2665J0D01*
G01X990854Y588583D02*
G03X990854I-2665J0D01*
G01X994791Y598819D02*
G03X994791I-2665J0D01*
G01X1002665Y535433D02*
G03X1002665I-2665J0D01*
G01X1009555Y475984D02*
G03X1009555I-2665J0D01*
G01X1014476Y405512D02*
G03X1014476I-2665J0D01*
G01Y425197D02*
G03X1014476I-2665J0D01*
G01X1025303Y488189D02*
G03X1025303I-2665J0D01*
G01X1012508Y493898D02*
G03X1012508I-2665J0D01*
G01X1042035Y409449D02*
G03X1042035I-2665J0D01*
G01X1043610Y435630D02*
G03X1043610I-4830J0D01*
G01X1042035Y452756D02*
G03X1042035I-2665J0D01*
G01Y464567D02*
G03X1042035I-2665J0D01*
G01X1099894Y590986D02*
Y627353D01*
G03X1099794Y627453I-100J-0*
G01X947285*
G03X947198Y627303I-0J-100*
G01X942566D02*
G03X947198I2316J-1319D01*
G01X942566D02*
G03X942479Y627453I-87J50D01*
G01X927600*
G03X927513Y627303I-0J-100*
G01X922881D02*
G03X927513I2316J-1319D01*
G01X922881D02*
G03X922794Y627453I-87J50D01*
G01X907915*
G03X907828Y627303I-0J-100*
G01X903196D02*
G03X907828I2316J-1319D01*
G01X903196D02*
G03X903109Y627453I-87J50D01*
G01X888230*
G03X888143Y627303I-0J-100*
G01X883511D02*
G03X888143I2316J-1319D01*
G01X883511D02*
G03X883424Y627453I-87J50D01*
G01X868545*
G03X868458Y627303I-0J-100*
G01X863826D02*
G03X868458I2316J-1319D01*
G01X863826D02*
G03X863739Y627453I-87J50D01*
G01X848860*
G03X848773Y627303I-0J-100*
G01X844141D02*
G03X848773I2316J-1319D01*
G01X844141D02*
G03X844054Y627453I-87J50D01*
G01X829175*
G03X829088Y627303I-0J-100*
G01X824456D02*
G03X829088I2316J-1319D01*
G01X824456D02*
G03X824369Y627453I-87J50D01*
G01X809490*
G03X809403Y627303I-0J-100*
G01X804770D02*
G03X809403I2317J-1319D01*
G01X804770D02*
G03X804684Y627453I-86J50D01*
G01X789805*
G03X789718Y627303I-0J-100*
G01X785085D02*
G03X789718I2317J-1319D01*
G01X785085D02*
G03X784999Y627453I-86J50D01*
G01X770120*
G03X770033Y627303I-0J-100*
G01X765400D02*
G03X770033I2317J-1319D01*
G01X765400D02*
G03X765314Y627453I-86J50D01*
G01X711064*
G03X710978Y627303I0J-100*
G01X706345D02*
G03X710978I2316J-1319D01*
G01X706345D02*
G03X706258Y627453I-87J50D01*
G01X691379*
G03X691293Y627303I0J-100*
G01X686660D02*
G03X691293I2316J-1319D01*
G01X686660D02*
G03X686573Y627453I-87J50D01*
G01X671694*
G03X671607Y627303I0J-100*
G01X666975D02*
G03X671607I2316J-1319D01*
G01X666975D02*
G03X666888Y627453I-87J50D01*
G01X652009*
G03X651922Y627303I0J-100*
G01X647290D02*
G03X651922I2316J-1319D01*
G01X647290D02*
G03X647203Y627453I-87J50D01*
G01X632324*
G03X632237Y627303I0J-100*
G01X627605D02*
G03X632237I2316J-1319D01*
G01X627605D02*
G03X627518Y627453I-87J50D01*
G01X604931*
G03X604831Y627353I-0J-100*
G01Y396269*
G03X604931Y396169I100J0*
G01X607833*
G03X607920Y396319I0J100*
G01X612552D02*
G03X607920I-2316J1319D01*
G01X612552D02*
G03X612639Y396169I87J-50D01*
G01X627518*
G03X627605Y396319I0J100*
G01X632237D02*
G03X627605I-2316J1319D01*
G01X632237D02*
G03X632324Y396169I87J-50D01*
G01X647203*
G03X647290Y396319I0J100*
G01X651922D02*
G03X647290I-2316J1319D01*
G01X651922D02*
G03X652009Y396169I87J-50D01*
G01X666888*
G03X666975Y396319I0J100*
G01X671607D02*
G03X666975I-2316J1319D01*
G01X671607D02*
G03X671694Y396169I87J-50D01*
G01X686573*
G03X686660Y396319I0J100*
G01X691293D02*
G03X686660I-2317J1319D01*
G01X691293D02*
G03X691379Y396169I86J-50D01*
G01X706258*
G03X706345Y396319I0J100*
G01X710978D02*
G03X706345I-2317J1319D01*
G01X710978D02*
G03X711064Y396169I86J-50D01*
G01X725943*
G03X726030Y396319I0J100*
G01X730663D02*
G03X726030I-2317J1319D01*
G01X730663D02*
G03X730749Y396169I86J-50D01*
G01X765314*
G03X765400Y396319I-0J100*
G01X770033D02*
G03X765400I-2316J1319D01*
G01X770033D02*
G03X770120Y396169I87J-50D01*
G01X784999*
G03X785085Y396319I-0J100*
G01X789718D02*
G03X785085I-2316J1319D01*
G01X789718D02*
G03X789805Y396169I87J-50D01*
G01X804684*
G03X804770Y396319I-0J100*
G01X809403D02*
G03X804770I-2316J1319D01*
G01X809403D02*
G03X809490Y396169I87J-50D01*
G01X824369*
G03X824456Y396319I-0J100*
G01X829088D02*
G03X824456I-2316J1319D01*
G01X829088D02*
G03X829175Y396169I87J-50D01*
G01X844054*
G03X844141Y396319I-0J100*
G01X848773D02*
G03X844141I-2316J1319D01*
G01X848773D02*
G03X848860Y396169I87J-50D01*
G01X863739*
G03X863826Y396319I-0J100*
G01X868458D02*
G03X863826I-2316J1319D01*
G01X868458D02*
G03X868545Y396169I87J-50D01*
G01X883424*
G03X883511Y396319I-0J100*
G01X888143D02*
G03X883511I-2316J1319D01*
G01X888143D02*
G03X888230Y396169I87J-50D01*
G01X903109*
G03X903196Y396319I-0J100*
G01X907828D02*
G03X903196I-2316J1319D01*
G01X907828D02*
G03X907915Y396169I87J-50D01*
G01X942479*
G03X942566Y396319I-0J100*
G01X947198D02*
G03X942566I-2316J1319D01*
G01X947198D02*
G03X947285Y396169I87J-50D01*
G01X1064526*
G03X1064613Y396319I0J100*
G01X1069245D02*
G03X1064613I-2316J1319D01*
G01X1069245D02*
G03X1069332Y396169I87J-50D01*
G01X1080274*
G03X1080361Y396319I0J100*
G01X1084993D02*
G03X1080361I-2316J1319D01*
G01X1084993D02*
G03X1085080Y396169I87J-50D01*
G01X1099794*
G03X1099894Y396269I-0J100*
G01Y452321*
G03X1099744Y452408I-100J0*
G01X1096219Y453228D02*
G03X1099744Y452408I2206J1496D01*
G01X1096219Y453228D02*
G03X1096040Y453199I-82J-56D01*
G01X1092717Y450681D02*
G03X1096040Y453199I-0J3453D01*
G01X1092717Y450681D02*
X1082874D01*
Y457587D02*
G03Y450681I0J-3453D01*
G01Y457587D02*
X1092717D01*
X1095779Y455729D02*
G03X1092717Y457587I-3062J-1595D01*
G01X1095779Y455729D02*
G03X1095960Y455737I88J46D01*
G01X1099744Y457041D02*
G03X1095960Y455737I-1319J-2317D01*
G01X1099744Y457041D02*
G03X1099894Y457127I50J86D01*
G01Y480865*
G03X1099744Y480952I-100J-0*
G01X1096180Y481831D02*
G03X1099744Y480952I2245J1437D01*
G01X1096180Y481831D02*
G03X1096001Y481808I-84J-54D01*
G01X1092717Y479421D02*
G03X1096001Y481808I-0J3453D01*
G01X1092717Y479421D02*
X1082874D01*
X1080667Y480219D02*
G03X1082874Y479421I2207J2655D01*
G01X1080667Y480219D02*
G03X1080521Y480084I-64J-77D01*
G01X1079982Y480648D02*
G03X1080521Y480084I-1636J-2105D01*
G01X1079982Y480648D02*
G03X1080123Y480787I62J79D01*
G01X1082874Y486327D02*
G03X1080123Y480787I0J-3453D01*
G01X1082874Y486327D02*
X1092717D01*
X1095823Y484381D02*
G03X1092717Y486327I-3106J-1507D01*
G01X1095823Y484381D02*
G03X1096004Y484382I90J43D01*
G01X1099744Y485584D02*
G03X1096004Y484382I-1319J-2316D01*
G01X1099744Y485584D02*
G03X1099894Y485671I50J87D01*
G01Y548778*
G03X1099744Y548865I-100J0*
G01Y553497D02*
G03Y548865I-1319J-2316D01*
G01Y553497D02*
G03X1099894Y553584I50J87D01*
G01Y558621*
G03X1099744Y558707I-100J-0*
G01X1096219Y559527D02*
G03X1099744Y558707I2206J1497D01*
G01X1096219Y559527D02*
G03X1096040Y559498I-82J-56D01*
G01X1092717Y556980D02*
G03X1096040Y559498I-0J3453D01*
G01X1092717Y556980D02*
X1082874D01*
Y563886D02*
G03Y556980I0J-3453D01*
G01Y563886D02*
X1092717D01*
X1095779Y562028D02*
G03X1092717Y563886I-3062J-1595D01*
G01X1095779Y562028D02*
G03X1095960Y562037I88J47D01*
G01X1099744Y563340D02*
G03X1095960Y562037I-1319J-2316D01*
G01X1099744Y563340D02*
G03X1099894Y563427I50J87D01*
G01Y586180*
G03X1099744Y586267I-100J-0*
G01X1095960Y587570D02*
G03X1099744Y586267I2465J1013D01*
G01X1095960Y587570D02*
G03X1095779Y587578I-93J-38D01*
G01X1092717Y585720D02*
G03X1095779Y587578I-0J3453D01*
G01X1092717Y585720D02*
X1082874D01*
Y592626D02*
G03Y585720I0J-3453D01*
G01Y592626D02*
X1092717D01*
X1096040Y590108D02*
G03X1092717Y592626I-3323J-935D01*
G01X1096040Y590108D02*
G03X1096219Y590079I97J27D01*
G01X1099744Y590899D02*
G03X1096219Y590079I-1319J-2316D01*
G01X1099744Y590899D02*
G03X1099894Y590986I50J87D01*
G01X1093945Y407874D02*
G03X1093945I-4339J0D01*
G01X1097154Y421260D02*
G03X1097154I-2666J0D01*
G01X1085343Y425197D02*
G03X1085343I-2666J0D01*
G01X1093945Y434252D02*
G03X1093945I-4339J0D01*
G01X1085343Y440945D02*
G03X1085343I-2666J0D01*
G01X1086720Y581102D02*
G03X1086720I-2665J0D01*
G01X1091051Y603543D02*
G03X1091051I-2665J0D01*
G01X1089280Y614173D02*
G03X1089280I-2666J0D01*
G01X1075106Y466535D02*
G03X1075106I-2665J0D01*
G01X1069595Y425197D02*
G03X1069595I-2666J0D01*
G01Y440945D02*
G03X1069595I-2666J0D01*
G01X1063945Y407874D02*
G03X1063945I-4339J0D01*
G01Y434252D02*
G03X1063945I-4339J0D01*
G01X1065658Y448819D02*
G03X1065658I-2666J0D01*
G01X1057257Y452896D02*
G03X1060490Y456129I2586J647D01*
G01X1057257Y452896D02*
G03X1057231Y452943I-97J-24D01*
G01X1052977Y457196*
G03X1052809Y457145I-70J-71*
G01X1049665Y460289D02*
G03X1052809Y457145I532J-2612D01*
G01X1049665Y460289D02*
G03X1049716Y460458I-20J98D01*
G01X1029890Y480283*
X1029224Y481890D02*
G03X1029890Y480283I2272J-0D01*
G01X1029224Y481890D02*
Y501531D01*
G03X1029210Y501582I-100J-0*
G01X1028890Y503513D02*
G03X1029210Y501582I2606J-560D01*
G01X1028890Y503513D02*
G03X1028792Y503634I-98J21D01*
G01X1017803*
G03X1017765Y503442I0J-100*
G01X1017369Y498396D02*
G03X1017764Y503442I-637J2588D01*
G01X1017369Y498396D02*
G03X1017298Y498268I24J-97D01*
G01X1014127Y500029D02*
G03X1017298Y498268I637J-2588D01*
G01X1014127Y500029D02*
G03X1014198Y500157I-24J97D01*
G01X1015831Y503493D02*
G03X1014198Y500157I901J-2509D01*
G01X1015831Y503493D02*
G03X1015821Y503684I-34J94D01*
G01X1014461Y505413D02*
G03X1015821Y503684I1779J0D01*
G01X1014461Y505413D02*
Y518209D01*
X1016240Y519988D02*
G03X1014461Y518209I0J-1779D01*
G01X1016240Y519988D02*
X1034138D01*
G03X1034220Y520145I-0J100*
G01X1038615D02*
G03X1034220I-2198J1509D01*
G01X1038615D02*
G03X1038697Y519988I82J-57D01*
G01X1042732*
G03X1042803Y520018I0J100*
G01Y520017D02*
X1048158Y525373D01*
X1049416Y525894D02*
G03X1048158Y525373I0J-1780D01*
G01X1049416Y525894D02*
X1049886D01*
G03X1049968Y526050I-0J100*
G01X1054363D02*
G03X1049968I-2198J1509D01*
G01X1054363D02*
G03X1054445Y525894I82J-56D01*
G01X1057579*
X1059358Y524114D02*
G03X1057579Y525894I-1779J0D01*
G01X1059358Y524114D02*
Y487697D01*
X1057579Y485917D02*
G03X1059358Y487697I-0J1780D01*
G01X1057579Y485917D02*
X1053461D01*
G03X1053378Y485761I-0J-100*
G01X1048984D02*
G03X1053378I2197J-1509D01*
G01X1048984D02*
G03X1048901Y485917I-83J56D01*
G01X1037171*
G03X1037094Y485754I-0J-100*
G01X1035409Y481416D02*
G03X1037093Y485754I-370J2639D01*
G01X1035409Y481416D02*
G03X1035353Y481246I14J-99D01*
G01X1060443Y456155*
G03X1060490Y456129I71J71*
G01X1059949Y464567D02*
G03X1059949I-2666J0D01*
G01X1060060Y471925D02*
G03X1058383Y474048I964J2484D01*
G01X1060060Y471925D02*
G03X1059924Y471818I-37J-94D01*
G01X1058248Y473942D02*
G03X1059924Y471818I-965J-2485D01*
G01X1058248Y473942D02*
G03X1058383Y474048I36J93D01*
G01X1069004Y494094D02*
G03X1069004I-2665J0D01*
G01Y509646D02*
G03X1069004I-2665J0D01*
G01Y525591D02*
G03X1069004I-2665J0D01*
G01Y541339D02*
G03X1069004I-2665J0D01*
G01X1072547Y579724D02*
G03X1072547I-2665J0D01*
G01X1071563Y603543D02*
G03X1071563I-2665J0D01*
G01X1073532Y614173D02*
G03X1073532I-2666J0D01*
G01X1063492Y482283D02*
G03X1063492I-2665J0D01*
G01X1064870Y590551D02*
G03X1064870I-2665J0D01*
G01X1050894Y557087D02*
G03X1050894I-2666J0D01*
G01X1053846Y570669D02*
G03X1053846I-2665J0D01*
G01X1056799Y577165D02*
G03X1056799I-2665J0D01*
G01X1047154Y566929D02*
G03X1047154I-2666J0D01*
G01X1049713Y582480D02*
G03X1049713I-2666J0D01*
G01X1050894Y590551D02*
G03X1050894I-2666J0D01*
G01X1050106Y621063D02*
G03X1050106I-4830J0D01*
G01X1039476Y538386D02*
G03X1039476I-2665J0D01*
G01X1039673Y555118D02*
G03X1039673I-2665J0D01*
G01X1028059Y533465D02*
G03X1028059I-2665J0D01*
G01X1029240Y539567D02*
G03X1029240I-2665J0D01*
G01X1026388Y551475D02*
G03X1023916Y553947I187J2659D01*
G01X1026388Y551475D02*
G03X1026281Y551368I-7J-100D01*
G01X1023809Y553840D02*
G03X1026281Y551368I-187J-2659D01*
G01X1023809Y553840D02*
G03X1023916Y553947I7J100D01*
G01X1029240Y565157D02*
G03X1029240I-2665J0D01*
G01X1034161Y574803D02*
G03X1034161I-2665J0D01*
G01X1031406Y611220D02*
G03X1031406I-2666J0D01*
G01X1032941Y621063D02*
G03X1032941I-4240J0D01*
G01X1010539Y506102D02*
G03X1010539I-2665J0D01*
G01X1011720Y536417D02*
G03X1011720I-2665J0D01*
G01X1014899Y550710D02*
G03X1014513Y554895I1440J2243D01*
G01X1014899Y550710D02*
G03X1014750Y550596I-54J-85D01*
G01X1010158Y551511D02*
G03X1014750Y550596I2047J-1708D01*
G01X1010158Y551511D02*
G03Y551639I-77J64D01*
G01X1014364Y554909D02*
G03X1010158Y551639I-2159J-1563D01*
G01X1014364Y554909D02*
G03X1014513Y554895I81J59D01*
G01X1020382Y568504D02*
G03X1020382I-2665J0D01*
G01X1023728Y589567D02*
G03X1023728I-2665J0D01*
G01X1023925Y603937D02*
G03X1023925I-2665J0D01*
G01X1004130Y543872D02*
G03X1008072Y544314I2169J-1549D01*
G01X1004130Y543872D02*
G03X1003995Y544014I-81J58D01*
G01X999894Y546251D02*
G03X1003995Y544014I2665J9D01*
G01X999894Y546251D02*
G03X999794Y546350I-100J-1D01*
G01X1002469Y549025D02*
G03X999794Y546350I-2666J-9D01*
G01X1002469Y549025D02*
G03X1002568Y548925I100J0D01*
G01X1004267Y548306D02*
G03X1002568Y548925I-1708J-2046D01*
G01X1004267Y548306D02*
G03X1004395I64J77D01*
G01X1008064Y544456D02*
G03X1004395Y548306I-1962J1804D01*
G01X1008064Y544456D02*
G03X1008072Y544314I74J-68D01*
G01X1008455Y560398D02*
G03Y562831I2372J1216D01*
G01Y560398D02*
G03X1008277I-89J-46D01*
G01Y562831D02*
G03Y560398I-2371J-1217D01*
G01Y562831D02*
G03X1008455I89J45D01*
G01X1017035Y599016D02*
G03X1017035I-2665J0D01*
G01X1023138Y624213D02*
Y617913D01*
X1021850Y616626D02*
G03X1023138Y617913I0J1287D01*
G01X1021850Y616626D02*
X1015551D01*
X1014264Y617913D02*
G03X1015551Y616626I1287J0D01*
G01X1014264Y617913D02*
Y624213D01*
X1015551Y625500D02*
G03X1014264Y624213I0J-1287D01*
G01X1015551Y625500D02*
X1021850D01*
X1023138Y624213D02*
G03X1021850Y625500I-1288J-0D01*
G01X986917Y433071D02*
G03X986917I-2665J0D01*
G01Y452756D02*
G03X986917I-2665J0D01*
G01X977665Y413386D02*
G03X977665I-13098J0D01*
G01X979043Y440945D02*
G03X979043I-2665J0D01*
G01X984792Y470760D02*
G03X982237Y472865I51J2665D01*
G01X984792Y470760D02*
G03X984692Y470639I-2J-100D01*
G01X982225Y467417D02*
G03X984692Y470639I-138J2662D01*
G01X982225Y467417D02*
G03X982133Y467296I5J-100D01*
G01X979700Y464072D02*
G03X982133Y467296I-172J2660D01*
G01X979700Y464072D02*
G03X979607Y463959I6J-99D01*
G01X976796Y466242D02*
G03X979607Y463959I173J-2659D01*
G01X976796Y466242D02*
G03X976889Y466356I-6J100D01*
G01X979389Y469394D02*
G03X976889Y466356I139J-2662D01*
G01X979389Y469394D02*
G03X979482Y469515I-5J100D01*
G01X982137Y472744D02*
G03X979482Y469515I-50J-2665D01*
G01X982137Y472744D02*
G03X982237Y472865I2J100D01*
G01X989673Y514764D02*
G03X989673I-2665J0D01*
G01X989870Y520669D02*
G03X989870I-2665J0D01*
G01X992823Y533071D02*
G03X992823I-2666J0D01*
G01X996366Y550984D02*
G03X996366I-2665J0D01*
G01X995935Y561437D02*
G03X997296Y565292I2293J1358D01*
G01X995935Y561437D02*
G03X995814Y561479I-86J-51D01*
G01X993174Y561930D02*
G03X995814Y561479I1708J2046D01*
G01X993174Y561930D02*
G03X993046I-64J-77D01*
G01Y566023D02*
G03Y561930I-1707J-2047D01*
G01Y566023D02*
G03X993174I64J77D01*
G01X997175Y565335D02*
G03X993174Y566023I-2293J-1359D01*
G01X997175Y565335D02*
G03X997296Y565292I86J51D01*
G01X1003632Y580595D02*
G03X999926Y580965I-1663J2082D01*
G01X1003632Y580595D02*
G03X1003618Y580452I62J-79D01*
G01X999867Y576694D02*
G03X1003618Y580452I1708J2046D01*
G01X999867Y576694D02*
G03X999739I-64J-77D01*
G01Y580787D02*
G03Y576694I-1708J-2047D01*
G01Y580787D02*
G03X999867I64J76D01*
G01X999911Y580823D02*
G03X999867Y580787I1664J-2083D01*
G01X999911Y580823D02*
G03X999926Y580965I-62J78D01*
G01X996150Y603463D02*
G03X998015Y604240I1881J-1888D01*
G01X996150Y603463D02*
G03X996079Y603634I-70J71D01*
G01X997944Y604411D02*
G03X996079Y603634I-1881J1888D01*
G01X997944Y604411D02*
G03X998015Y604240I71J-71D01*
G01X984555Y573228D02*
G03X984555I-2665J0D01*
G01X970972Y536417D02*
G03X970972I-2665J0D01*
G01X975106Y546457D02*
G03X975106I-2665J0D01*
G01X978059Y580512D02*
G03X978059I-2665J0D01*
G01X971169Y553543D02*
G03X971169I-2665J0D01*
G01X972154Y577165D02*
G03X972154I-2666J0D01*
G01X963295Y536417D02*
G03X963295I-2665J0D01*
G01X956602Y466142D02*
G03X956602I-2665J0D01*
G01X953666Y542574D02*
G03X951656Y542651I-910J2505D01*
G01X953666Y542574D02*
G03X953659Y542388I34J-94D01*
G01X951649Y542466D02*
G03X953659Y542388I910J-2505D01*
G01X951649Y542466D02*
G03X951656Y542651I-34J94D01*
G01X959555Y559055D02*
G03X959555I-2665J0D01*
G01X977665Y610236D02*
G03X977665I-13098J0D01*
G01X982980Y618110D02*
G03X982980I-2665J0D01*
G01X947547Y413386D02*
G03X947547I-2665J0D01*
G01Y433071D02*
G03X947547I-2665J0D01*
G01X939673Y492126D02*
G03X939673I-2665J0D01*
G01Y527559D02*
G03X939673I-2665J0D01*
G01X941642Y549213D02*
G03X941642I-2666J0D01*
G01Y554921D02*
G03X941642I-2666J0D01*
G01Y562795D02*
G03X941642I-2666J0D01*
G01X942232Y576969D02*
G03X942232I-2665J0D01*
G01X947547Y598425D02*
G03X947547I-2665J0D01*
G01Y610236D02*
G03X947547I-2665J0D01*
G01X929043Y406496D02*
G03X929043I-4830J0D01*
G01X908177Y413386D02*
G03X908177I-2665J0D01*
G01X888492D02*
G03X888492I-2665J0D01*
G01X868807D02*
G03X868807I-2665J0D01*
G01X871484Y432008D02*
G03X871484I-4634J0D01*
G01Y445354D02*
Y438661D01*
X870197Y437374D02*
G03X871484Y438661I-0J1287D01*
G01X870197Y437374D02*
X863504D01*
X862217Y438661D02*
G03X863504Y437374I1287J0D01*
G01X862217Y438661D02*
Y445354D01*
X863504Y446642D02*
G03X862217Y445354I-0J-1288D01*
G01X863504Y446642D02*
X870197D01*
X871484Y445354D02*
G03X870197Y446642I-1287J0D01*
G01X861484Y432008D02*
G03X861484I-4634J0D01*
G01Y442008D02*
G03X861484I-4634J0D01*
G01X849122Y413386D02*
G03X849122I-2665J0D01*
G01X851484Y432008D02*
G03X851484I-4634J0D01*
G01Y442008D02*
G03X851484I-4634J0D01*
G01X841484Y432008D02*
G03X841484I-4634J0D01*
G01Y442008D02*
G03X841484I-4634J0D01*
G01X829437Y413386D02*
G03X829437I-2665J0D01*
G01X831484Y432008D02*
G03X831484I-4634J0D01*
G01Y442008D02*
G03X831484I-4634J0D01*
G01X821484Y432008D02*
G03X821484I-4634J0D01*
G01Y442008D02*
G03X821484I-4634J0D01*
G01X809752Y413386D02*
G03X809752I-2665J0D01*
G01X811484Y432008D02*
G03X811484I-4634J0D01*
G01Y442008D02*
G03X811484I-4634J0D01*
G01X801484Y432008D02*
G03X801484I-4634J0D01*
G01Y442008D02*
G03X801484I-4634J0D01*
G01X790067Y413386D02*
G03X790067I-2665J0D01*
G01X791484Y432008D02*
G03X791484I-4634J0D01*
G01Y442008D02*
G03X791484I-4634J0D01*
G01X781484Y432008D02*
G03X781484I-4634J0D01*
G01Y442008D02*
G03X781484I-4634J0D01*
G01X924695Y434442D02*
G03Y439810I3533J2684D01*
G01Y434442D02*
G03X924516Y434381I-79J-61D01*
G01Y429871*
G03X924695Y429810I100J-0*
G01Y424442D02*
G03Y429810I3533J2684D01*
G01Y424442D02*
G03X924516Y424381I-79J-61D01*
G01Y419783*
X922736Y418004D02*
G03X924516Y419783I0J1779D01*
G01X922736Y418004D02*
X902763D01*
X901505Y418525D02*
G03X902763Y418004I1258J1258D01*
G01X901505Y418525D02*
X861701Y458329D01*
G03X861630Y458358I-71J-71*
G01X780599*
X780599D02*
G03X780560Y458166I-0J-100D01*
G01X778495D02*
G03X780560I1033J-2457D01*
G01X778495D02*
G03X778457Y458358I-38J92D01*
G01X685531*
X683752Y460138D02*
G03X685531Y458358I1779J-0D01*
G01X683752Y460138D02*
Y493602D01*
X685531Y495382D02*
G03X683752Y493602I0J-1780D01*
G01X685531Y495382D02*
X723045D01*
G03X723090Y495571I-0J100*
G01X729666D02*
G03X723090I-3288J6398D01*
G01X729666D02*
G03X729711Y495382I45J-89D01*
G01X750604*
G03X750649Y495571I-0J100*
G01X757225D02*
G03X750649I-3288J6398D01*
G01X757225D02*
G03X757270Y495382I45J-89D01*
G01X765013*
G03X765111Y495503I-0J100*
G01X770322D02*
G03X765111I-2605J560D01*
G01X770322D02*
G03X770420Y495382I98J-21D01*
G01X784698*
G03X784796Y495503I-0J100*
G01X790007D02*
G03X784796I-2605J560D01*
G01X790007D02*
G03X790105Y495382I98J-21D01*
G01X824068*
G03X824166Y495503I0J100*
G01X829378D02*
G03X824166I-2606J560D01*
G01X829378D02*
G03X829475Y495382I97J-21D01*
G01X843753*
G03X843851Y495503I0J100*
G01X849063D02*
G03X843851I-2606J560D01*
G01X849063D02*
G03X849160Y495382I97J-21D01*
G01X859048*
X860306Y494861D02*
G03X859048Y495382I-1258J-1259D01*
G01X860306Y494861D02*
X911921Y443246D01*
G03X911992Y443217I71J71*
G01X915764*
G03X915818Y443401I0J100*
G01X920638D02*
G03X915818I-2410J3725D01*
G01X920638D02*
G03X920693Y443217I55J-84D01*
G01X922736*
X924516Y441437D02*
G03X922736Y443217I-1780J0D01*
G01X924516Y441437D02*
Y439871D01*
G03X924695Y439810I100J-0*
G01X932665Y447126D02*
G03X932665I-4437J0D01*
G01Y457126D02*
G03X932665I-4437J0D01*
G01Y467126D02*
G03X932665I-4437J0D01*
G01Y477126D02*
G03X932665I-4437J0D01*
G01Y487126D02*
G03X932665I-4437J0D01*
G01Y497126D02*
G03X932665I-4437J0D01*
G01Y507126D02*
G03X932665I-4437J0D01*
G01Y517126D02*
G03X932665I-4437J0D01*
G01Y527126D02*
G03X932665I-4437J0D01*
G01Y537126D02*
G03X932665I-4437J0D01*
G01Y547126D02*
G03X932665I-4437J0D01*
G01Y560276D02*
Y553976D01*
X931378Y552689D02*
G03X932665Y553976I-0J1287D01*
G01X931378Y552689D02*
X925079D01*
X923791Y553976D02*
G03X925079Y552689I1288J0D01*
G01X923791Y553976D02*
Y560276D01*
X925079Y561563D02*
G03X923791Y560276I-0J-1287D01*
G01X925079Y561563D02*
X931378D01*
X932665Y560276D02*
G03X931378Y561563I-1287J-0D01*
G01X936327Y580630D02*
G03X936327I-4831J0D01*
G01Y590630D02*
G03X936327I-4831J0D01*
G01X922665Y457126D02*
G03X922665I-4437J0D01*
G01Y467126D02*
G03X922665I-4437J0D01*
G01Y477126D02*
G03X922665I-4437J0D01*
G01Y487126D02*
G03X922665I-4437J0D01*
G01Y497126D02*
G03X922665I-4437J0D01*
G01Y507126D02*
G03X922665I-4437J0D01*
G01Y517126D02*
G03X922665I-4437J0D01*
G01Y527126D02*
G03X922665I-4437J0D01*
G01Y537126D02*
G03X922665I-4437J0D01*
G01Y547126D02*
G03X922665I-4437J0D01*
G01Y557126D02*
G03X922665I-4437J0D01*
G01X926327Y580630D02*
G03X926327I-4831J0D01*
G01Y590630D02*
G03X926327I-4831J0D01*
G01X927862Y610236D02*
G03X927862I-2665J0D01*
G01X908177Y476378D02*
G03X908177I-2665J0D01*
G01Y496063D02*
G03X908177I-2665J0D01*
G01X916327Y580630D02*
G03X916327I-4831J0D01*
G01Y590630D02*
G03X916327I-4831J0D01*
G01X906327Y580630D02*
G03X906327I-4831J0D01*
G01Y590630D02*
G03X906327I-4831J0D01*
G01X908177Y610236D02*
G03X908177I-2665J0D01*
G01X888492Y476378D02*
G03X888492I-2665J0D01*
G01Y496063D02*
G03X888492I-2665J0D01*
G01Y551181D02*
G03X888492I-2665J0D01*
G01Y570866D02*
G03X888492I-2665J0D01*
G01X896327Y580630D02*
G03X896327I-4831J0D01*
G01Y590630D02*
G03X896327I-4831J0D01*
G01X886327Y584173D02*
Y577087D01*
X885039Y575799D02*
G03X886327Y577087I0J1288D01*
G01X885039Y575799D02*
X877953D01*
X876665Y577087D02*
G03X877953Y575799I1288J-0D01*
G01X876665Y577087D02*
Y584173D01*
X877953Y585461D02*
G03X876665Y584173I-0J-1288D01*
G01X877953Y585461D02*
X885039D01*
X886327Y584173D02*
G03X885039Y585461I-1288J0D01*
G01X886327Y590630D02*
G03X886327I-4831J0D01*
G01X888492Y610236D02*
G03X888492I-2665J0D01*
G01X868807Y496063D02*
G03X868807I-2665J0D01*
G01Y539370D02*
G03X868807I-2665J0D01*
G01Y551181D02*
G03X868807I-2665J0D01*
G01Y570866D02*
G03X868807I-2665J0D01*
G01Y610236D02*
G03X868807I-2665J0D01*
G01X849122Y539370D02*
G03X849122I-2665J0D01*
G01Y551181D02*
G03X849122I-2665J0D01*
G01Y570866D02*
G03X849122I-2665J0D01*
G01Y590551D02*
G03X849122I-2665J0D01*
G01X852272Y606299D02*
G03X852272I-4831J0D01*
G01X829437Y531496D02*
G03X829437I-2665J0D01*
G01Y551181D02*
G03X829437I-2665J0D01*
G01Y570866D02*
G03X829437I-2665J0D01*
G01Y590551D02*
G03X829437I-2665J0D01*
G01Y610236D02*
G03X829437I-2665J0D01*
G01X809752Y511811D02*
G03X809752I-2665J0D01*
G01Y531496D02*
G03X809752I-2665J0D01*
G01Y551181D02*
G03X809752I-2665J0D01*
G01X790067Y511811D02*
G03X790067I-2665J0D01*
G01Y523622D02*
G03X790067I-2665J0D01*
G01Y551181D02*
G03X790067I-2665J0D01*
G01Y570866D02*
G03X790067I-2665J0D01*
G01X804134Y569972D02*
G03Y580421I-0J5225D01*
G01Y569972D02*
X794291D01*
Y580421D02*
G03Y569972I0J-5224D01*
G01Y580421D02*
X804134D01*
X809752Y590551D02*
G03X809752I-2665J0D01*
G01X803150Y593594D02*
G03Y604043I-0J5225D01*
G01Y593594D02*
X795276D01*
Y604043D02*
G03Y593594I-0J-5224D01*
G01Y604043D02*
X803150D01*
X809752Y610236D02*
G03X809752I-2665J0D01*
G01X785933Y590945D02*
Y583071D01*
X775484D02*
G03X785933I5225J-0D01*
G01X775484D02*
Y590945D01*
X785933D02*
G03X775484I-5224J-0D01*
G01X790067Y610236D02*
G03X790067I-2665J0D01*
G01X770382Y511811D02*
G03X770382I-2665J0D01*
G01Y523622D02*
G03X770382I-2665J0D01*
G01Y551181D02*
G03X770382I-2665J0D01*
G01Y570866D02*
G03X770382I-2665J0D01*
G01Y590551D02*
G03X770382I-2665J0D01*
G01Y610236D02*
G03X770382I-2665J0D01*
G01X740776Y533465D02*
G03X740776I-4241J0D01*
G01X743807Y545276D02*
G03X743807I-2665J0D01*
G01X739870Y568898D02*
G03X739870I-2665J0D01*
G01X740776Y592520D02*
G03X740776I-4241J0D01*
G01X736720Y603543D02*
G03X736720I-2665J0D01*
G01X741642Y611811D02*
G03X741642I-2666J0D01*
G01X730776Y533465D02*
G03X730776I-4241J0D01*
G01Y592520D02*
G03X730776I-4241J0D01*
G01X720972Y536614D02*
Y530315D01*
X719685Y529028D02*
G03X720972Y530315I0J1287D01*
G01X719685Y529028D02*
X713386D01*
X712098Y530315D02*
G03X713386Y529028I1288J-0D01*
G01X712098Y530315D02*
Y536614D01*
X713386Y537902D02*
G03X712098Y536614I-0J-1288D01*
G01X713386Y537902D02*
X719685D01*
X720972Y536614D02*
G03X719685Y537902I-1287J0D01*
G01X721169Y549606D02*
G03X721169I-2665J0D01*
G01X716526Y562366D02*
G03Y564799I2372J1217D01*
G01Y562366D02*
G03X716348I-89J-45D01*
G01Y564799D02*
G03Y562366I-2372J-1216D01*
G01Y564799D02*
G03X716526I89J46D01*
G01X716533Y569735D02*
G03Y571210I2561J737D01*
G01Y569735D02*
G03X716341I-96J-27D01*
G01Y571210D02*
G03Y569735I-2561J-738D01*
G01Y571210D02*
G03X716533I96J27D01*
G01X720972Y595669D02*
Y589370D01*
X719685Y588083D02*
G03X720972Y589370I0J1287D01*
G01X719685Y588083D02*
X713386D01*
X712098Y589370D02*
G03X713386Y588083I1288J0D01*
G01X712098Y589370D02*
Y595669D01*
X713386Y596957D02*
G03X712098Y595669I-0J-1288D01*
G01X713386Y596957D02*
X719685D01*
X720972Y595669D02*
G03X719685Y596957I-1287J0D01*
G01X702469Y546260D02*
G03X702469I-2666J0D01*
G01X704634Y567913D02*
G03X704634I-4831J0D01*
G01X703453Y578740D02*
G03X703453I-2666J0D01*
G01X704673Y612402D02*
Y605709D01*
X703386Y604421D02*
G03X704673Y605709I-0J1288D01*
G01X703386Y604421D02*
X696693D01*
X695405Y605709D02*
G03X696693Y604421I1288J-0D01*
G01X695405Y605709D02*
Y612402D01*
X696693Y613689D02*
G03X695405Y612402I-0J-1287D01*
G01X696693Y613689D02*
X703386D01*
X704673Y612402D02*
G03X703386Y613689I-1287J-0D01*
G01X691642Y531496D02*
G03X691642I-2666J0D01*
G01X694673Y609055D02*
G03X694673I-4634J0D01*
G01X681681Y431811D02*
G03X681681I-4634J0D01*
G01Y441811D02*
G03X681681I-4634J0D01*
G01X678650Y505906D02*
G03X678650I-2666J0D01*
G01X684673Y609055D02*
G03X684673I-4634J0D01*
G01X671957Y413386D02*
G03X671957I-2666J0D01*
G01X671681Y431811D02*
G03X671681I-4634J0D01*
G01Y441811D02*
G03X671681I-4634J0D01*
G01X670579Y451575D02*
G03X670579I-2666J0D01*
G01X671957Y472441D02*
G03X671957I-2666J0D01*
G01X670206Y494827D02*
G03X668785Y494932I-521J2614D01*
G01X670206Y494827D02*
G03X670192Y494635I19J-98D01*
G01X668771Y494740D02*
G03X670192Y494635I520J-2614D01*
G01X668771Y494740D02*
G03X668785Y494932I-20J98D01*
G01X672547Y514370D02*
G03X672547I-2665J0D01*
G01X661681Y431811D02*
G03X661681I-4634J0D01*
G01Y441811D02*
G03X661681I-4634J0D01*
G01X666642Y506102D02*
G03X666642I-2666J0D01*
G01X671957Y531496D02*
G03X671957I-2666J0D01*
G01Y551181D02*
G03X671957I-2666J0D01*
G01Y570866D02*
G03X671957I-2666J0D01*
G01X674673Y609055D02*
G03X674673I-4634J0D01*
G01X652272Y413386D02*
G03X652272I-2666J0D01*
G01X651681Y431811D02*
G03X651681I-4634J0D01*
G01Y441811D02*
G03X651681I-4634J0D01*
G01X652272Y472441D02*
G03X652272I-2666J0D01*
G01Y492126D02*
G03X652272I-2666J0D01*
G01Y511811D02*
G03X652272I-2666J0D01*
G01Y531496D02*
G03X652272I-2666J0D01*
G01Y551181D02*
G03X652272I-2666J0D01*
G01Y570866D02*
G03X652272I-2666J0D01*
G01Y590551D02*
G03X652272I-2666J0D01*
G01Y610236D02*
G03X652272I-2666J0D01*
G01X632587Y413386D02*
G03X632587I-2666J0D01*
G01X641681Y431811D02*
G03X641681I-4634J0D01*
G01Y441811D02*
G03X641681I-4634J0D01*
G01X631681Y431811D02*
G03X631681I-4634J0D01*
G01Y441811D02*
G03X631681I-4634J0D01*
G01X632587Y452756D02*
G03X632587I-2666J0D01*
G01Y472441D02*
G03X632587I-2666J0D01*
G01Y492126D02*
G03X632587I-2666J0D01*
G01Y511811D02*
G03X632587I-2666J0D01*
G01Y531496D02*
G03X632587I-2666J0D01*
G01Y551181D02*
G03X632587I-2666J0D01*
G01Y570866D02*
G03X632587I-2666J0D01*
G01Y590551D02*
G03X632587I-2666J0D01*
G01Y610236D02*
G03X632587I-2666J0D01*
G01X612902Y413386D02*
G03X612902I-2666J0D01*
G01Y433071D02*
G03X612902I-2666J0D01*
G01Y452756D02*
G03X612902I-2666J0D01*
G01Y472441D02*
G03X612902I-2666J0D01*
G01Y511811D02*
G03X612902I-2666J0D01*
G01Y531496D02*
G03X612902I-2666J0D01*
G01Y570866D02*
G03X612902I-2666J0D01*
G01Y590551D02*
G03X612902I-2666J0D01*
G01X770382Y413386D02*
G03X770382I-2665J0D01*
G01X750697D02*
G03X750697I-2666J0D01*
G01X731012D02*
G03X731012I-2666J0D01*
G01X721681Y431811D02*
G03X721681I-4634J0D01*
G01Y445157D02*
Y438465D01*
X720394Y437177D02*
G03X721681Y438465I-0J1288D01*
G01X720394Y437177D02*
X713701D01*
X712413Y438465D02*
G03X713701Y437177I1288J-0D01*
G01X712413Y438465D02*
Y445157D01*
X713701Y446445D02*
G03X712413Y445157I-0J-1288D01*
G01X713701Y446445D02*
X720394D01*
X721681Y445157D02*
G03X720394Y446445I-1287J0D01*
G01X711327Y413386D02*
G03X711327I-2666J0D01*
G01X711681Y431811D02*
G03X711681I-4634J0D01*
G01Y441811D02*
G03X711681I-4634J0D01*
G01X701681Y431811D02*
G03X701681I-4634J0D01*
G01Y441811D02*
G03X701681I-4634J0D01*
G01X691642Y413386D02*
G03X691642I-2666J0D01*
G01X691681Y431811D02*
G03X691681I-4634J0D01*
G01Y441811D02*
G03X691681I-4634J0D01*
G01X982980Y500000D02*
G03X982980I-2665J0D01*
G01Y511811D02*
G03X982980I-2665J0D01*
G01X982012Y548479D02*
G03X978674Y549885I-910J2505D01*
G01X982012Y548479D02*
G03X981955Y548344I35J-94D01*
G01X978617Y549749D02*
G03X981955Y548344I911J-2505D01*
G01X978617Y549749D02*
G03X978674Y549885I-34J94D01*
G01X967232Y433071D02*
G03X967232I-2665J0D01*
G01Y448819D02*
G03X967232I-2665J0D01*
G01X966248Y469488D02*
G03X966248I-2665J0D01*
G01X971169Y492126D02*
G03X971169I-2665J0D01*
G01Y515748D02*
G03X971169I-2665J0D01*
G01X976091Y524606D02*
G03X976091I-2666J0D01*
G01X980618Y559646D02*
G03X980618I-2665J0D01*
G01X984171Y566784D02*
G03X983702Y567392I1853J1917D01*
G01X984171Y566784D02*
G03X984015Y566663I-69J-72D01*
G01X979524Y566903D02*
G03X984015Y566663I2169J-1549D01*
G01X979524Y566903D02*
G03X979389Y567046I-81J59D01*
G01X980122Y567742D02*
G03X979389Y567046I-2169J1549D01*
G01X980122Y567742D02*
G03X980257Y567600I81J-58D01*
G01X983545Y567271D02*
G03X980257Y567600I-1852J-1917D01*
G01X983545Y567271D02*
G03X983702Y567392I70J72D01*
G01X990854Y588583D02*
G03X990854I-2665J0D01*
G01X994791Y598819D02*
G03X994791I-2665J0D01*
G01X1002665Y535433D02*
G03X1002665I-2665J0D01*
G01X1009555Y475984D02*
G03X1009555I-2665J0D01*
G01X1014476Y405512D02*
G03X1014476I-2665J0D01*
G01Y425197D02*
G03X1014476I-2665J0D01*
G01X1023658Y455514D02*
G03X1021746Y457972I751J2557D01*
G01X1023658Y455514D02*
G03X1023530Y455414I-28J-96D01*
G01X1022170Y452990D02*
G03X1023530Y455414I-1304J2325D01*
G01X1022170Y452990D02*
G03X1022219Y452803I49J-87D01*
G01X1022992*
X1024280Y451516D02*
G03X1022992Y452803I-1288J-0D01*
G01X1024280Y451516D02*
Y447185D01*
X1023834Y446211D02*
G03X1024280Y447185I-842J974D01*
G01X1023834Y446211D02*
G03X1023812Y446085I65J-76D01*
G01X1018397Y441897D02*
G03X1023812Y446085I2430J2453D01*
G01X1018397Y441897D02*
G03X1018256I-70J-71D01*
G01X1013397D02*
G03X1018256I2430J2453D01*
G01X1013397D02*
G03X1013256I-70J-71D01*
G01X1008397D02*
G03X1013256I2430J2453D01*
G01X1008397D02*
G03X1008256I-70J-71D01*
G01X1007622Y441401D02*
G03X1008256Y441897I-1795J2949D01*
G01X1007622Y441401D02*
G03X1007603Y441245I52J-85D01*
G01X1003905Y441333D02*
G03X1007603Y441245I1804J-1963D01*
G01X1003905Y441333D02*
G03X1003894Y441489I-67J74D01*
G01X1003397Y441897D02*
G03X1003894Y441489I2430J2453D01*
G01X1003397Y441897D02*
G03X1003256I-70J-71D01*
G01X998374Y446780D02*
G03X1003256Y441897I2453J-2430D01*
G01X998373Y446780D02*
G03Y446921I-71J70D01*
G01X1000131Y452732D02*
G03X998374Y446921I696J-3382D01*
G01X1000131Y452732D02*
G03X1000136Y452927I-20J98D01*
G01X1003293Y456422D02*
G03X1000136Y452927I-2506J-910D01*
G01X1003293Y456422D02*
G03X1003478Y456415I94J34D01*
G01X1006868Y452829D02*
G03X1003478Y456415I-962J2486D01*
G01X1006868Y452829D02*
G03X1006873Y452641I36J-93D01*
G01X1008256Y451804D02*
G03X1006873Y452641I-2429J-2454D01*
G01X1008256Y451804D02*
G03X1008397I71J71D01*
G01X1013256D02*
G03X1008397I-2429J-2454D01*
G01X1013256D02*
G03X1013397I71J71D01*
G01X1014780Y452641D02*
G03X1013397Y451804I1047J-3291D01*
G01X1014780Y452641D02*
G03X1014786Y452829I-30J95D01*
G01X1018215Y456325D02*
G03X1014786Y452829I-2467J-1010D01*
G01X1018215Y456325D02*
G03X1018400I92J38D01*
G01X1021618Y457872D02*
G03X1018400Y456325I-752J-2557D01*
G01X1021618Y457872D02*
G03X1021746Y457972I28J96D01*
G01X1018221Y474671D02*
G03X1019147Y477037I2645J329D01*
G01X1018221Y474671D02*
G03X1018057Y474735I-99J-13D01*
G01X1013754Y477422D02*
G03X1018057Y474735I2585J-650D01*
G01X1013754Y477422D02*
G03X1013683Y477543I-97J24D01*
G01X1011797Y480815D02*
G03X1013683Y477543I2573J-697D01*
G01X1011797Y480815D02*
G03X1011669Y480936I-96J26D01*
G01X1013399Y482768D02*
G03X1011669Y480936I-2572J697D01*
G01X1013399Y482768D02*
G03X1013528Y482647I97J-26D01*
G01X1016955Y479468D02*
G03X1013528Y482647I-2585J650D01*
G01X1016955Y479468D02*
G03X1017026Y479347I97J-25D01*
G01X1018984Y477101D02*
G03X1017026Y479347I-2645J-329D01*
G01X1018984Y477101D02*
G03X1019147Y477037I99J12D01*
G01X1025303Y488189D02*
G03X1025303I-2665J0D01*
G01X1012508Y493898D02*
G03X1012508I-2665J0D01*
G01X1042035Y409449D02*
G03X1042035I-2665J0D01*
G01X1043610Y435630D02*
G03X1043610I-4830J0D01*
G01X1042035Y452756D02*
G03X1042035I-2665J0D01*
G01Y464567D02*
G03X1042035I-2665J0D01*
G01X947361Y626962D02*
X1099894D01*
X947546Y626062D02*
X1099894D01*
X1047831Y625162D02*
X1099894D01*
X1048895Y624262D02*
X1099894D01*
X1049524Y623362D02*
X1099894D01*
X1049899Y622462D02*
X1099894D01*
X1050080Y621562D02*
X1099894D01*
X1050090Y620662D02*
X1099894D01*
X1049928Y619762D02*
X1099894D01*
X1049576Y618862D02*
X1099894D01*
X1048980Y617962D02*
X1099894D01*
X1047983Y617062D02*
X1099894D01*
X1088388Y616162D02*
X1099894D01*
X1089047Y615262D02*
X1099894D01*
X1089273Y614362D02*
X1099894D01*
X1089183Y613462D02*
X1099894D01*
X1088738Y612562D02*
X1099894D01*
X1087509Y611662D02*
X1099894D01*
X1031366Y610762D02*
X1099894D01*
X1031034Y609862D02*
X1099894D01*
X1030156Y608962D02*
X1099894D01*
X998062Y608062D02*
X1099894D01*
X998585Y607162D02*
X1099894D01*
X1022562Y606262D02*
X1099894D01*
X1090334Y605362D02*
X1099894D01*
X1090888Y604462D02*
X1099894D01*
X1091051Y603562D02*
X1099894D01*
X1090901Y602662D02*
X1099894D01*
X1090369Y601762D02*
X1099894D01*
X1016292Y600862D02*
X1099894D01*
X1016862Y599962D02*
X1099894D01*
X1017035Y599062D02*
X1099894D01*
X1016895Y598162D02*
X1099894D01*
X1016378Y597262D02*
X1099894D01*
X1014624Y596362D02*
X1099894D01*
X807153Y595462D02*
X1099894D01*
X934302Y594562D02*
X1099894D01*
X935256Y593662D02*
X1099894D01*
X1063693Y592762D02*
X1099894D01*
X1094882Y591862D02*
X1099894D01*
X785933Y585562D02*
X1099894D01*
X1048578Y584662D02*
X1099894D01*
X1084223Y583762D02*
X1099894D01*
X1086057Y582862D02*
X1099894D01*
X1086578Y581962D02*
X1099894D01*
X1086720Y581062D02*
X1099894D01*
X1086549Y580162D02*
X1099894D01*
X1085984Y579262D02*
X1099894D01*
X1072173Y578362D02*
X1099894D01*
X1071292Y577462D02*
X1099894D01*
X1056730Y576562D02*
X1099894D01*
X1056335Y575662D02*
X1099894D01*
X1055287Y574762D02*
X1099894D01*
X1033990Y573862D02*
X1099894D01*
X1052540Y572962D02*
X1099894D01*
X1053453Y572062D02*
X1099894D01*
X1053800Y571162D02*
X1099894D01*
X1053815Y570262D02*
X1099894D01*
X1053504Y569362D02*
X1099894D01*
X1052676Y568462D02*
X1099894D01*
X1047077Y567562D02*
X1099894D01*
X1047140Y566662D02*
X1099894D01*
X1046885Y565762D02*
X1099894D01*
X1046171Y564862D02*
X1099894D01*
X1028957Y563962D02*
X1099894D01*
X1099448Y558562D02*
X1099894D01*
X1094777Y557662D02*
X1099894D01*
X1050874Y556762D02*
X1099894D01*
X1050596Y555862D02*
X1099894D01*
X1049838Y554962D02*
X1099894D01*
X1039455Y554062D02*
X1099894D01*
X1099297Y548662D02*
X1099894D01*
X1013919Y547762D02*
X1099894D01*
X1008699Y546862D02*
X1099894D01*
X1008751Y545962D02*
X1099894D01*
X1008484Y545062D02*
X1099894D01*
X1008228Y544162D02*
X1099894D01*
X1068183Y543262D02*
X1099894D01*
X1068799Y542362D02*
X1099894D01*
X1069001Y541462D02*
X1099894D01*
X1068888Y540562D02*
X1099894D01*
X1068411Y539662D02*
X1099894D01*
X1067023Y538762D02*
X1099894D01*
X1039425Y537862D02*
X1099894D01*
X1039065Y536962D02*
X1099894D01*
X1038117Y536062D02*
X1099894D01*
X1027448Y535162D02*
X1099894D01*
X1027937Y534262D02*
X1099894D01*
X1028057Y533362D02*
X1099894D01*
X1027864Y532462D02*
X1099894D01*
X1027261Y531562D02*
X1099894D01*
X991299Y530662D02*
X1099894D01*
X1053665Y529762D02*
X1099894D01*
X1054490Y528862D02*
X1099894D01*
X1067554Y527962D02*
X1099894D01*
X1068561Y527062D02*
X1099894D01*
X1068942Y526162D02*
X1099894D01*
X1068984Y525262D02*
X1099894D01*
X1068704Y524362D02*
X1099894D01*
X1067943Y523462D02*
X1099894D01*
X1059358Y522562D02*
X1099894D01*
X1059358Y521662D02*
X1099894D01*
X1059358Y520762D02*
X1099894D01*
X1059358Y519862D02*
X1099894D01*
X1059358Y518962D02*
X1099894D01*
X1059358Y518062D02*
X1099894D01*
X1059358Y517162D02*
X1099894D01*
X1059358Y516262D02*
X1099894D01*
X1059358Y515362D02*
X1099894D01*
X1059358Y514462D02*
X1099894D01*
X1059358Y513562D02*
X1099894D01*
X1059358Y512662D02*
X1099894D01*
X1067958Y511762D02*
X1099894D01*
X1068710Y510862D02*
X1099894D01*
X1068985Y509962D02*
X1099894D01*
X1068939Y509062D02*
X1099894D01*
X1068553Y508162D02*
X1099894D01*
X1067532Y507262D02*
X1099894D01*
X1059358Y506362D02*
X1099894D01*
X1059358Y505462D02*
X1099894D01*
X1059358Y504562D02*
X1099894D01*
X1059358Y503662D02*
X1099894D01*
X1059358Y502762D02*
X1099894D01*
X1059358Y501862D02*
X1099894D01*
X1059358Y500962D02*
X1099894D01*
X1059358Y500062D02*
X1099894D01*
X1059358Y499162D02*
X1099894D01*
X1059358Y498262D02*
X1099894D01*
X1059358Y497362D02*
X1099894D01*
X1067562Y496462D02*
X1099894D01*
X1068563Y495562D02*
X1099894D01*
X1068943Y494662D02*
X1099894D01*
X1068983Y493762D02*
X1099894D01*
X1068702Y492862D02*
X1099894D01*
X1067938Y491962D02*
X1099894D01*
X1059358Y491062D02*
X1099894D01*
X1059358Y490162D02*
X1099894D01*
X1059358Y489262D02*
X1099894D01*
X1059358Y488362D02*
X1099894D01*
X1059343Y487462D02*
X1099894D01*
X1058950Y486562D02*
X1099894D01*
X1094975Y480262D02*
X1099894D01*
X1080883Y479362D02*
X1099894D01*
X1081011Y478462D02*
X1099894D01*
X1080825Y477562D02*
X1099894D01*
X1080235Y476662D02*
X1099894D01*
X1063320Y475762D02*
X1099894D01*
X1063650Y474862D02*
X1099894D01*
X1063651Y473962D02*
X1099894D01*
X1063324Y473062D02*
X1099894D01*
X1062457Y472162D02*
X1099894D01*
X1059942Y471262D02*
X1099894D01*
X1059714Y470362D02*
X1099894D01*
X1059052Y469462D02*
X1099894D01*
X1074172Y468562D02*
X1099894D01*
X1074856Y467662D02*
X1099894D01*
X1075097Y466762D02*
X1099894D01*
X1075020Y465862D02*
X1099894D01*
X1074593Y464962D02*
X1099894D01*
X1073435Y464062D02*
X1099894D01*
X1059549Y463162D02*
X1099894D01*
X1058623Y462262D02*
X1099894D01*
X1055236Y461362D02*
X1099894D01*
X1056136Y460462D02*
X1099894D01*
X1057036Y459562D02*
X1099894D01*
X1057936Y458662D02*
X1099894D01*
X1058836Y457762D02*
X1099894D01*
X1094904Y451462D02*
X1099894D01*
X1065008Y450562D02*
X1099894D01*
X1065520Y449662D02*
X1099894D01*
X1065657Y448762D02*
X1099894D01*
X1065480Y447862D02*
X1099894D01*
X1064905Y446962D02*
X1099894D01*
X1023825Y446062D02*
X1099894D01*
X1024183Y445162D02*
X1099894D01*
X1024278Y444262D02*
X1099894D01*
X1083799Y443362D02*
X1099894D01*
X1084868Y442462D02*
X1099894D01*
X1085270Y441562D02*
X1099894D01*
X1085328Y440662D02*
X1099894D01*
X1085066Y439762D02*
X1099894D01*
X1084341Y438862D02*
X1099894D01*
X1091855Y437962D02*
X1099894D01*
X1092912Y437062D02*
X1099894D01*
X1093502Y436162D02*
X1099894D01*
X1093826Y435262D02*
X1099894D01*
X1093943Y434362D02*
X1099894D01*
X1093872Y433462D02*
X1099894D01*
X1093602Y432562D02*
X1099894D01*
X1093087Y431662D02*
X1099894D01*
X1092184Y430762D02*
X1099894D01*
X931721Y429862D02*
X1099894D01*
X932267Y428962D02*
X1099894D01*
X932565Y428062D02*
X1099894D01*
X1084477Y427162D02*
X1099894D01*
X1085120Y426262D02*
X1099894D01*
X1085337Y425362D02*
X1099894D01*
X1085239Y424462D02*
X1099894D01*
X1095831Y423562D02*
X1099894D01*
X1096755Y422662D02*
X1099894D01*
X1097106Y421762D02*
X1099894D01*
X1097124Y420862D02*
X1099894D01*
X1096817Y419962D02*
X1099894D01*
X1095997Y419062D02*
X1099894D01*
X976763Y418162D02*
X1099894D01*
X977079Y417262D02*
X1099894D01*
X977323Y416362D02*
X1099894D01*
X977500Y415462D02*
X1099894D01*
X977612Y414562D02*
X1099894D01*
X977662Y413662D02*
X1099894D01*
X977651Y412762D02*
X1099894D01*
X1091314Y411862D02*
X1099894D01*
X1092653Y410962D02*
X1099894D01*
X1093353Y410062D02*
X1099894D01*
X1093749Y409162D02*
X1099894D01*
X1093927Y408262D02*
X1099894D01*
X1093915Y407362D02*
X1099894D01*
X1093709Y406462D02*
X1099894D01*
X1093278Y405562D02*
X1099894D01*
X1092523Y404662D02*
X1099894D01*
X1090991Y403762D02*
X1099894D01*
X1012103Y402862D02*
X1099894D01*
X970976Y401962D02*
X1099894D01*
X969006Y401062D02*
X1099894D01*
X1083532Y400162D02*
X1099894D01*
X1084790Y399262D02*
X1099894D01*
X1085242Y398362D02*
X1099894D01*
X1085337Y397462D02*
X1099894D01*
X1085116Y396562D02*
X1099894D01*
X1099595Y485662D02*
X1099893D01*
X1099626Y590962D02*
X1099891D01*
X1099660Y452362D02*
X1099885D01*
X1024494Y548662D02*
X1097553D01*
X1095619Y558562D02*
X1097402D01*
X1094753Y485662D02*
X1097255D01*
X1095670Y590962D02*
X1097225D01*
X1095680Y452362D02*
X1097190D01*
X1094832Y456862D02*
X1096834D01*
X1094855Y586462D02*
X1096810D01*
X1095715Y481162D02*
X1096791D01*
X1094954Y563062D02*
X1096708D01*
X1038819Y553162D02*
X1096642D01*
X1025740Y549562D02*
X1096308D01*
X1096030Y559462D02*
X1096265D01*
X1095607Y484762D02*
X1096218D01*
X1096068Y590062D02*
X1096205D01*
X1096094Y453262D02*
X1096179D01*
X1095645Y455962D02*
X1096065D01*
X1095656Y587362D02*
X1096056D01*
X1095705Y562162D02*
X1096015D01*
X1028473Y552262D02*
X1095989D01*
X1026189Y550462D02*
X1095859D01*
X1026281Y551362D02*
X1095766D01*
X1084783Y423562D02*
X1093146D01*
X976371Y419062D02*
X1092980D01*
X1083502Y422662D02*
X1092222D01*
X975895Y419962D02*
X1092160D01*
X974637Y421762D02*
X1091871D01*
X975322Y420862D02*
X1091853D01*
X1060991Y403762D02*
X1088221D01*
X1061314Y411862D02*
X1087899D01*
X1061855Y437962D02*
X1087358D01*
X1062184Y430762D02*
X1087028D01*
X1062523Y404662D02*
X1086689D01*
X1062653Y410962D02*
X1086559D01*
X1070846Y605362D02*
X1086438D01*
X1070881Y601762D02*
X1086403D01*
X1062912Y437062D02*
X1086301D01*
X1063087Y431662D02*
X1086125D01*
X1063278Y405562D02*
X1085935D01*
X1071400Y604462D02*
X1085884D01*
X1071413Y602662D02*
X1085870D01*
X1063353Y410062D02*
X1085860D01*
X1071563Y603562D02*
X1085721D01*
X1071761Y611662D02*
X1085720D01*
X1063502Y436162D02*
X1085711D01*
X1063602Y432562D02*
X1085610D01*
X1063709Y406462D02*
X1085504D01*
X1063749Y409162D02*
X1085463D01*
X1063826Y435262D02*
X1085387D01*
X1063872Y433462D02*
X1085340D01*
X1063915Y407362D02*
X1085298D01*
X1063927Y408262D02*
X1085285D01*
X1063943Y434362D02*
X1085269D01*
X1072640Y616162D02*
X1084840D01*
X1072990Y612562D02*
X1084491D01*
X1073299Y615262D02*
X1084182D01*
X1073435Y613462D02*
X1084045D01*
X1073525Y614362D02*
X1083956D01*
X1049384Y583762D02*
X1083888D01*
X1072507Y579262D02*
X1082127D01*
X1049685Y582862D02*
X1082054D01*
X1067754Y422662D02*
X1081852D01*
X1067784Y400162D02*
X1081823D01*
X1072511Y580162D02*
X1081561D01*
X1068051Y443362D02*
X1081555D01*
X1071329Y581962D02*
X1081532D01*
X1072187Y581062D02*
X1081390D01*
X1068593Y438862D02*
X1081014D01*
X1068729Y427162D02*
X1080877D01*
X1053443Y485662D02*
X1080838D01*
X1050831Y557662D02*
X1080814D01*
X1059736Y456862D02*
X1080758D01*
X989804Y586462D02*
X1080735D01*
X1064525Y591862D02*
X1080708D01*
X1063332Y451462D02*
X1080686D01*
X1028223Y563062D02*
X1080636D01*
X1069035Y423562D02*
X1080572D01*
X1069042Y399262D02*
X1080564D01*
X1069120Y442462D02*
X1080486D01*
X1069318Y439762D02*
X1080288D01*
X1069368Y396562D02*
X1080238D01*
X1069372Y426262D02*
X1080234D01*
X1069491Y424462D02*
X1080115D01*
X1069494Y398362D02*
X1080112D01*
X1069522Y441562D02*
X1080084D01*
X1069580Y440662D02*
X1080027D01*
X1069589Y397462D02*
X1080018D01*
X1069589Y425362D02*
X1080017D01*
X1061806Y484762D02*
X1079983D01*
X1050448Y558562D02*
X1079972D01*
X1060961Y455962D02*
X1079945D01*
X1022561Y587362D02*
X1079934D01*
X1064838Y590962D02*
X1079921D01*
X1062232Y452362D02*
X1079910D01*
X1013435Y562162D02*
X1079886D01*
X1078841Y481162D02*
X1079875D01*
X1062974Y483862D02*
X1079566D01*
X1049436Y559462D02*
X1079560D01*
X1062033Y455062D02*
X1079548D01*
X1063571Y588262D02*
X1079544D01*
X1064825Y590062D02*
X1079538D01*
X1062493Y453262D02*
X1079533D01*
X1013469Y561262D02*
X1079522D01*
X1063483Y482062D02*
X1079518D01*
X1063404Y482962D02*
X1079422D01*
X1013180Y560362D02*
X1079422D01*
X1062435Y454162D02*
X1079421D01*
X1064480Y589162D02*
X1079421D01*
X1063245Y481162D02*
X1077852D01*
X1062448Y476662D02*
X1076458D01*
X1062565Y480262D02*
X1076310D01*
X1039036Y477562D02*
X1075868D01*
X1037236Y479362D02*
X1075810D01*
X1038136Y478462D02*
X1075682D01*
X1059901Y464062D02*
X1071447D01*
X1048036Y468562D02*
X1070710D01*
X1059919Y464962D02*
X1070289D01*
X1048936Y467662D02*
X1070026D01*
X1031369Y611662D02*
X1069972D01*
X1059613Y465862D02*
X1069862D01*
X1058795Y466762D02*
X1069785D01*
X982134Y616162D02*
X1069092D01*
X1031043Y612562D02*
X1068743D01*
X1056783Y577462D02*
X1068472D01*
X1049662Y581962D02*
X1068434D01*
X976663Y615262D02*
X1068433D01*
X1030182Y613462D02*
X1068297D01*
X976998Y614362D02*
X1068207D01*
X1056515Y578362D02*
X1067591D01*
X1049304Y581062D02*
X1067577D01*
X1055779Y579262D02*
X1067257D01*
X1048363Y580162D02*
X1067253D01*
X1023512Y605362D02*
X1066950D01*
X1022801Y601762D02*
X1066915D01*
X1023873Y604462D02*
X1066396D01*
X1023601Y602662D02*
X1066382D01*
X1023899Y603562D02*
X1066232D01*
X1012636Y422662D02*
X1066104D01*
X945736Y400162D02*
X1066075D01*
X1024135Y443362D02*
X1065807D01*
X1039450Y538762D02*
X1065655D01*
X1042369Y438862D02*
X1065265D01*
X1059358Y507262D02*
X1065145D01*
X1013611Y427162D02*
X1065129D01*
X1054800Y527962D02*
X1065123D01*
X1059358Y496462D02*
X1065115D01*
X1013916Y423562D02*
X1064824D01*
X946995Y399262D02*
X1064816D01*
X1059358Y491962D02*
X1064739D01*
X1023718Y442462D02*
X1064738D01*
X1059358Y523462D02*
X1064734D01*
X1059358Y511762D02*
X1064719D01*
X1041281Y439762D02*
X1064540D01*
X1008793Y543262D02*
X1064494D01*
X947321Y396562D02*
X1064490D01*
X1014254Y426262D02*
X1064486D01*
X1014373Y424462D02*
X1064367D01*
X947447Y398362D02*
X1064364D01*
X1022864Y441562D02*
X1064336D01*
X1008040Y440662D02*
X1064279D01*
X947541Y397462D02*
X1064270D01*
X1014471Y425362D02*
X1064269D01*
X1039151Y539662D02*
X1064266D01*
X1059358Y508162D02*
X1064124D01*
X1054784Y527062D02*
X1064116D01*
X1059358Y495562D02*
X1064114D01*
X1059358Y492862D02*
X1063975D01*
X1059341Y524362D02*
X1063973D01*
X1059358Y510862D02*
X1063967D01*
X1008964Y542362D02*
X1063878D01*
X1038349Y540562D02*
X1063789D01*
X1059358Y509062D02*
X1063738D01*
X1054436Y526162D02*
X1063735D01*
X1059358Y494662D02*
X1063734D01*
X1059358Y493762D02*
X1063694D01*
X1058938Y525262D02*
X1063693D01*
X1059358Y509962D02*
X1063692D01*
X1028449Y541462D02*
X1063676D01*
X1061508Y451462D02*
X1062652D01*
X1024260Y446962D02*
X1061080D01*
X1040884Y450562D02*
X1060976D01*
X1049594Y588262D02*
X1060839D01*
X1049716Y592762D02*
X1060717D01*
X1024280Y447862D02*
X1060504D01*
X1024280Y449662D02*
X1060464D01*
X1024280Y448762D02*
X1060327D01*
X1050503Y589162D02*
X1059930D01*
X1050549Y591862D02*
X1059884D01*
X1053797Y484762D02*
X1059848D01*
X1039936Y476662D02*
X1059599D01*
X1050849Y590062D02*
X1059585D01*
X1050862Y590962D02*
X1059571D01*
X1036336Y480262D02*
X1059089D01*
X1040836Y475762D02*
X1058727D01*
X1053818Y483862D02*
X1058679D01*
X1035436Y481162D02*
X1058409D01*
X1041736Y474862D02*
X1058397D01*
X1058192Y473962D02*
X1058353D01*
X1053514Y482962D02*
X1058249D01*
X1013822Y403762D02*
X1058221D01*
X1041701Y451462D02*
X1058177D01*
X1052701Y482062D02*
X1058171D01*
X1040501Y411862D02*
X1057899D01*
X1042006Y452362D02*
X1057453D01*
X1043010Y437962D02*
X1057358D01*
X985584Y430762D02*
X1057028D01*
X1041987Y453262D02*
X1056911D01*
X1014337Y404662D02*
X1056689D01*
X1041564Y410962D02*
X1056559D01*
X1042636Y473962D02*
X1056375D01*
X1043393Y437062D02*
X1056301D01*
X1041535Y431662D02*
X1056125D01*
X1041634Y454162D02*
X1056011D01*
X1054336Y462262D02*
X1055944D01*
X1014476Y405562D02*
X1055935D01*
X1041964Y410062D02*
X1055860D01*
X1049836Y466762D02*
X1055772D01*
X1043581Y436162D02*
X1055711D01*
X1042511Y432562D02*
X1055610D01*
X1047136Y469462D02*
X1055515D01*
X1014301Y406462D02*
X1055504D01*
X1042020Y409162D02*
X1055463D01*
X1043596Y435262D02*
X1055387D01*
X1043097Y433462D02*
X1055340D01*
X1041029Y407362D02*
X1055298D01*
X1041757Y408262D02*
X1055285D01*
X1043441Y434362D02*
X1055269D01*
X1043536Y473062D02*
X1055156D01*
X1050714Y455062D02*
X1055111D01*
X1053436Y463162D02*
X1055018D01*
X1050736Y465862D02*
X1054954D01*
X1046236Y470362D02*
X1054853D01*
X1044436Y472162D02*
X1054713D01*
X1052536Y464062D02*
X1054666D01*
X1051636Y464962D02*
X1054648D01*
X1045336Y471262D02*
X1054625D01*
X1052237Y455962D02*
X1054211D01*
X1052735Y456862D02*
X1053311D01*
X1034161Y574762D02*
X1052980D01*
X1004189Y579262D02*
X1052489D01*
X1034019Y575662D02*
X1051933D01*
X1004213Y578362D02*
X1051752D01*
X1033498Y576562D02*
X1051538D01*
X1031676Y577462D02*
X1051485D01*
X938508Y529762D02*
X1050666D01*
X975589Y526162D02*
X1049895D01*
X939333Y528862D02*
X1049840D01*
X1033424Y572962D02*
X1049823D01*
X1025586Y460462D02*
X1049711D01*
X1046668Y568462D02*
X1049686D01*
X1040706Y455062D02*
X1049680D01*
X1036810Y482062D02*
X1049661D01*
X974460Y527062D02*
X1049547D01*
X939643Y527962D02*
X1049531D01*
X1037166Y485662D02*
X1048920D01*
X984287Y572062D02*
X1048909D01*
X1045576Y569362D02*
X1048858D01*
X1037470Y482962D02*
X1048848D01*
X978443Y461362D02*
X1048811D01*
X1037609Y484762D02*
X1048565D01*
X1017907Y571162D02*
X1048562D01*
X1019719Y570262D02*
X1048547D01*
X1037698Y483862D02*
X1048544D01*
X1026618Y459562D02*
X1048313D01*
X1026040Y455962D02*
X1048156D01*
X976009Y525262D02*
X1048048D01*
X1040709Y462262D02*
X1047911D01*
X1027008Y458662D02*
X1047720D01*
X1026785Y456862D02*
X1047659D01*
X1027057Y457762D02*
X1047533D01*
X976079Y524362D02*
X1047148D01*
X1012400Y559462D02*
X1047020D01*
X1041635Y463162D02*
X1047011D01*
X1023387Y588262D02*
X1046862D01*
X935831Y592762D02*
X1046740D01*
X1039669Y554962D02*
X1046618D01*
X1038375Y523462D02*
X1046248D01*
X1041987Y464062D02*
X1046111D01*
X980388Y558562D02*
X1046009D01*
X1023698Y589162D02*
X1045953D01*
X1022418Y591862D02*
X1045908D01*
X1039567Y555862D02*
X1045861D01*
X1003829Y580162D02*
X1045731D01*
X1037802Y557662D02*
X1045626D01*
X1023682Y590062D02*
X1045608D01*
X1023334Y590962D02*
X1045595D01*
X1039106Y556762D02*
X1045583D01*
X1003747Y584662D02*
X1045517D01*
X1038923Y522562D02*
X1045348D01*
X1042006Y464962D02*
X1045211D01*
X1004089Y581062D02*
X1044790D01*
X1004403Y583762D02*
X1044711D01*
X1039083Y521662D02*
X1044448D01*
X1004536Y581962D02*
X1044433D01*
X1004627Y582862D02*
X1044409D01*
X1041699Y465862D02*
X1044311D01*
X1038929Y520762D02*
X1043548D01*
X1040881Y466762D02*
X1043411D01*
X1020240Y569362D02*
X1043400D01*
X1029224Y564862D02*
X1042805D01*
X1029784Y625162D02*
X1042720D01*
X1030106Y617062D02*
X1042568D01*
X983212Y467662D02*
X1042511D01*
X1020382Y568462D02*
X1042308D01*
X1029171Y565762D02*
X1042092D01*
X1027724Y567562D02*
X1041899D01*
X1028775Y566662D02*
X1041836D01*
X1031483Y624262D02*
X1041656D01*
X984279Y468562D02*
X1041611D01*
X1031593Y617962D02*
X1041571D01*
X1032263Y623362D02*
X1041027D01*
X1032325Y618862D02*
X1040975D01*
X984680Y469462D02*
X1040711D01*
X1032703Y622462D02*
X1040652D01*
X1032737Y619762D02*
X1040623D01*
X1032911Y621562D02*
X1040471D01*
X1032922Y620662D02*
X1040461D01*
X984737Y470362D02*
X1039811D01*
X986400Y471262D02*
X1038911D01*
X977576Y411862D02*
X1038239D01*
X1023520Y455062D02*
X1038034D01*
X979284Y462262D02*
X1038031D01*
X987190Y472162D02*
X1038011D01*
X982193Y466762D02*
X1037859D01*
X1024280Y450562D02*
X1037856D01*
X1013729Y407362D02*
X1037711D01*
X977439Y410962D02*
X1037176D01*
X1022696Y473062D02*
X1037111D01*
X1023269Y454162D02*
X1037106D01*
X979601Y463162D02*
X1037105D01*
X982047Y465862D02*
X1037041D01*
X1024280Y451462D02*
X1037040D01*
X976622Y408262D02*
X1036983D01*
X977237Y410062D02*
X1036776D01*
X1022567Y453262D02*
X1036753D01*
X979662Y464062D02*
X1036753D01*
X981521Y464962D02*
X1036734D01*
X1023962Y452362D02*
X1036734D01*
X976966Y409162D02*
X1036720D01*
X1008345Y439762D02*
X1036278D01*
X979734Y557662D02*
X1036214D01*
X1023321Y473962D02*
X1036211D01*
X986515Y431662D02*
X1036024D01*
X1025990Y536062D02*
X1035505D01*
X1023528Y474862D02*
X1035311D01*
X1029047Y540562D02*
X1035273D01*
X1029057Y553162D02*
X1035197D01*
X1008325Y438862D02*
X1035190D01*
X986868Y432562D02*
X1035048D01*
X1027016Y556762D02*
X1034910D01*
X1029239Y554062D02*
X1034560D01*
X1027141Y536962D02*
X1034558D01*
X1007972Y437962D02*
X1034549D01*
X1029238Y539662D02*
X1034471D01*
X986888Y433462D02*
X1034462D01*
X975833Y523462D02*
X1034460D01*
X1028604Y555862D02*
X1034449D01*
X1023420Y475762D02*
X1034411D01*
X1029108Y554962D02*
X1034347D01*
X1028624Y537862D02*
X1034198D01*
X1029116Y538762D02*
X1034172D01*
X1007043Y437062D02*
X1034166D01*
X986583Y434362D02*
X1034118D01*
X932559Y436162D02*
X1033978D01*
X985769Y435262D02*
X1033963D01*
X989081Y522562D02*
X1033912D01*
X989868Y520762D02*
X1033905D01*
X989678Y521662D02*
X1033752D01*
X1022950Y476662D02*
X1033511D01*
X1021600Y477562D02*
X1032611D01*
X1018399Y478462D02*
X1031711D01*
X1003914Y577462D02*
X1031316D01*
X1016993Y479362D02*
X1030811D01*
X1017032Y480262D02*
X1029911D01*
X984542Y572962D02*
X1029568D01*
X1003112Y576562D02*
X1029494D01*
X1016822Y481162D02*
X1029344D01*
X1019398Y500962D02*
X1029224D01*
X1019233Y500062D02*
X1029224D01*
X1018678Y499162D02*
X1029224D01*
X1017299Y498262D02*
X1029224D01*
X1017428Y497362D02*
X1029224D01*
X1017243Y496462D02*
X1029224D01*
X1016655Y495562D02*
X1029224D01*
X1012396Y494662D02*
X1029224D01*
X1012504Y493762D02*
X1029224D01*
X1012299Y492862D02*
X1029224D01*
X1011675Y491962D02*
X1029224D01*
X970948Y491062D02*
X1029224D01*
X1024429Y490162D02*
X1029224D01*
X1025077Y489262D02*
X1029224D01*
X1025298Y488362D02*
X1029224D01*
X1025202Y487462D02*
X1029224D01*
X1024749Y486562D02*
X1029224D01*
X1023487Y485662D02*
X1029224D01*
X1013155Y484762D02*
X1029224D01*
X1013462Y483862D02*
X1029224D01*
X1013444Y482962D02*
X1029224D01*
X1016193Y482062D02*
X1029224D01*
X1019249Y501862D02*
X1029064D01*
X984479Y573862D02*
X1029002D01*
X982976Y575662D02*
X1028973D01*
X1018718Y502762D02*
X1028837D01*
X984069Y574762D02*
X1028831D01*
X1022719Y625162D02*
X1027618D01*
X996169Y608962D02*
X1027324D01*
X977262Y613462D02*
X1027299D01*
X1022817Y617062D02*
X1027295D01*
X977660Y609862D02*
X1026447D01*
X977457Y612562D02*
X1026437D01*
X958249Y556762D02*
X1026134D01*
X977655Y610762D02*
X1026114D01*
X977587Y611662D02*
X1026112D01*
X1011664Y536962D02*
X1026008D01*
X1023137Y624262D02*
X1025918D01*
X1023138Y617962D02*
X1025808D01*
X1020210Y567562D02*
X1025426D01*
X1023138Y623362D02*
X1025138D01*
X1023138Y618862D02*
X1025076D01*
X1013064Y563062D02*
X1024927D01*
X1011697Y536062D02*
X1024798D01*
X1008822Y541462D02*
X1024701D01*
X1023138Y622462D02*
X1024698D01*
X1023138Y619762D02*
X1024665D01*
X1013084Y555862D02*
X1024546D01*
X1011295Y537862D02*
X1024526D01*
X1023138Y621562D02*
X1024490D01*
X1023138Y620662D02*
X1024480D01*
X1019644Y566662D02*
X1024375D01*
X1012088Y563962D02*
X1024192D01*
X1008301Y540562D02*
X1024102D01*
X1018089Y554962D02*
X1024041D01*
X1010322Y538762D02*
X1024034D01*
X996860Y565762D02*
X1023979D01*
X999911Y564862D02*
X1023926D01*
X1006463Y539662D02*
X1023911D01*
X1018762Y554062D02*
X1023910D01*
X992355Y531562D02*
X1023527D01*
X1011407Y535162D02*
X1023339D01*
X931153Y460462D02*
X1023233D01*
X992752Y532462D02*
X1022924D01*
X1010624Y534262D02*
X1022851D01*
X1014614Y548662D02*
X1022750D01*
X1001678Y533362D02*
X1022730D01*
X931937Y459562D02*
X1022201D01*
X1018996Y553162D02*
X1021839D01*
X932391Y458662D02*
X1021811D01*
X1012335Y485662D02*
X1021789D01*
X1014859Y549562D02*
X1021504D01*
X1018913Y552262D02*
X1021186D01*
X1017289Y550462D02*
X1021055D01*
X1018478Y551362D02*
X1020963D01*
X970306Y490162D02*
X1020846D01*
X932629Y486562D02*
X1020526D01*
X932117Y489262D02*
X1020198D01*
X1018884Y477562D02*
X1020133D01*
X932653Y487462D02*
X1020073D01*
X932490Y488362D02*
X1019978D01*
X998728Y606262D02*
X1019957D01*
X1016803Y457762D02*
X1019811D01*
X1000690Y601762D02*
X1019719D01*
X936167Y591862D02*
X1019708D01*
X990559Y587362D02*
X1019565D01*
X987483Y473062D02*
X1019036D01*
X998558Y605362D02*
X1019008D01*
X1000465Y602662D02*
X1018919D01*
X989389Y590962D02*
X1018792D01*
X1017864Y441562D02*
X1018790D01*
X990835Y588262D02*
X1018739D01*
X1017918Y456862D02*
X1018696D01*
X997994Y604462D02*
X1018647D01*
X999807Y603562D02*
X1018621D01*
X990406Y590062D02*
X1018444D01*
X990791Y589162D02*
X1018428D01*
X1008627Y473962D02*
X1018411D01*
X987046Y571162D02*
X1017526D01*
X1008947Y503662D02*
X1015863D01*
X987741Y566662D02*
X1015790D01*
X988184Y570262D02*
X1015714D01*
X989745Y519862D02*
X1015583D01*
X1014787Y550462D02*
X1015388D01*
X988434Y567562D02*
X1015223D01*
X988606Y569362D02*
X1015193D01*
X988678Y568462D02*
X1015051D01*
X929033Y502762D02*
X1014747D01*
X1006961Y457762D02*
X1014693D01*
X947417Y625162D02*
X1014682D01*
X1010050Y504562D02*
X1014677D01*
X989252Y518962D02*
X1014628D01*
X1014324Y554962D02*
X1014588D01*
X982766Y617062D02*
X1014585D01*
X1009308Y474862D02*
X1014479D01*
X987760Y518062D02*
X1014461D01*
X988170Y517162D02*
X1014461D01*
X989212Y516262D02*
X1014461D01*
X989605Y515362D02*
X1014461D01*
X989656Y514462D02*
X1014461D01*
X989387Y513562D02*
X1014461D01*
X988648Y512662D02*
X1014461D01*
X982980Y511762D02*
X1014461D01*
X982806Y510862D02*
X1014461D01*
X982235Y509962D02*
X1014461D01*
X932220Y509062D02*
X1014461D01*
X1009565Y508162D02*
X1014461D01*
X1010274Y507262D02*
X1014461D01*
X1010527Y506362D02*
X1014461D01*
X1010461Y505462D02*
X1014461D01*
X946917Y624262D02*
X1014265D01*
X945362Y623362D02*
X1014264D01*
X969267Y622462D02*
X1014264D01*
X971146Y621562D02*
X1014264D01*
X981083Y620662D02*
X1014264D01*
X982406Y619762D02*
X1014264D01*
X982872Y618862D02*
X1014264D01*
X982976Y617962D02*
X1014264D01*
X982222Y501862D02*
X1014216D01*
X982980Y500062D02*
X1014180D01*
X1012515Y452362D02*
X1014139D01*
X993160Y596362D02*
X1014116D01*
X982800Y500962D02*
X1014067D01*
X1007606Y453262D02*
X1014048D01*
X1009546Y475762D02*
X1013872D01*
X1012864Y441562D02*
X1013790D01*
X1009467Y476662D02*
X1013675D01*
X1009038Y477562D02*
X1013613D01*
X1008076Y456862D02*
X1013578D01*
X1008309Y454162D02*
X1013345D01*
X1008491Y455962D02*
X1013163D01*
X1008559Y455062D02*
X1013095D01*
X1011924Y495562D02*
X1012873D01*
X982845Y499162D02*
X1012729D01*
X1000600Y600862D02*
X1012448D01*
X994290Y597262D02*
X1012363D01*
X1010568Y496462D02*
X1012285D01*
X1007871Y478462D02*
X1012281D01*
X982336Y498262D02*
X1012228D01*
X980699Y497362D02*
X1012100D01*
X1000154Y599962D02*
X1011879D01*
X994709Y598162D02*
X1011845D01*
X932060Y479362D02*
X1011814D01*
X931367Y480262D02*
X1011709D01*
X998922Y599062D02*
X1011705D01*
X972366Y402862D02*
X1011519D01*
X969818Y555862D02*
X1011325D01*
X973814Y422662D02*
X1010986D01*
X1008304Y547762D02*
X1010490D01*
X970760Y554962D02*
X1010085D01*
X1001067Y551362D02*
X1010043D01*
X932665Y427162D02*
X1010011D01*
X976198Y407362D02*
X1009893D01*
X973453Y403762D02*
X1009800D01*
X1007256Y548662D02*
X1009796D01*
X996040Y552262D02*
X1009770D01*
X972813Y423562D02*
X1009706D01*
X971118Y554062D02*
X1009637D01*
X1002042Y550462D02*
X1009622D01*
X1007166Y563962D02*
X1009566D01*
X1002412Y549562D02*
X1009550D01*
X995237Y553162D02*
X1009546D01*
X930071Y481162D02*
X1009483D01*
X966967Y426262D02*
X1009368D01*
X975686Y406462D02*
X1009321D01*
X932417Y485662D02*
X1009319D01*
X974338Y404662D02*
X1009285D01*
X1007479Y559462D02*
X1009254D01*
X971558Y424462D02*
X1009249D01*
X969871Y425362D02*
X1009151D01*
X975072Y405562D02*
X1009146D01*
X1007515Y452362D02*
X1009139D01*
X932615Y496462D02*
X1009117D01*
X1007864Y441562D02*
X1008790D01*
X1008143Y563062D02*
X1008589D01*
X873105Y482062D02*
X1008560D01*
X931983Y484762D02*
X1008499D01*
X1008259Y560362D02*
X1008474D01*
X929762Y482962D02*
X1008209D01*
X931234Y483862D02*
X1008191D01*
X971164Y491962D02*
X1008010D01*
X969574Y538762D02*
X1007788D01*
X932381Y495562D02*
X1007761D01*
X1002395Y534262D02*
X1007486D01*
X971066Y492862D02*
X1007386D01*
X969323Y494662D02*
X1007289D01*
X970608Y493762D02*
X1007181D01*
X1001096Y537862D02*
X1006816D01*
X931002Y503662D02*
X1006801D01*
X1002652Y535162D02*
X1006704D01*
X1002183Y536962D02*
X1006446D01*
X1002590Y536062D02*
X1006413D01*
X932543Y508162D02*
X1006183D01*
X955208Y539662D02*
X1006136D01*
X932459Y478462D02*
X1005909D01*
X931850Y504562D02*
X1005698D01*
X932663Y507262D02*
X1005474D01*
X932342Y505462D02*
X1005287D01*
X932599Y506362D02*
X1005221D01*
X987453Y473962D02*
X1005153D01*
X1003713Y548662D02*
X1004948D01*
X1002215Y457762D02*
X1004850D01*
X932644Y477562D02*
X1004742D01*
X1000625Y563962D02*
X1004645D01*
X987087Y474862D02*
X1004472D01*
X932665Y437062D02*
X1004375D01*
X980612Y559462D02*
X1004332D01*
X932641Y476662D02*
X1004312D01*
X955156Y540562D02*
X1004298D01*
X986124Y475762D02*
X1004234D01*
X954707Y543262D02*
X1003805D01*
X1002864Y441562D02*
X1003790D01*
X954761Y541462D02*
X1003777D01*
X1003085Y456862D02*
X1003735D01*
X1000880Y563062D02*
X1003668D01*
X953715Y542362D02*
X1003634D01*
X999317Y560362D02*
X1003552D01*
X932586Y437962D02*
X1003445D01*
X979028Y440662D02*
X1003378D01*
X1000818Y562162D02*
X1003297D01*
X1000409Y561262D02*
X1003263D01*
X978042Y438862D02*
X1003092D01*
X978767Y439762D02*
X1003072D01*
X973798Y544162D02*
X1000914D01*
X934156Y584662D02*
X1000190D01*
X981059Y545062D02*
X1000178D01*
X999568Y576562D02*
X1000038D01*
X981865Y545962D02*
X999910D01*
X999340Y581062D02*
X999848D01*
X935173Y583762D02*
X999534D01*
X977630Y581962D02*
X999401D01*
X932619Y457762D02*
X999360D01*
X986869Y453262D02*
X999357D01*
X976650Y582862D02*
X999310D01*
X986888Y452362D02*
X999139D01*
X970547Y537862D02*
X998904D01*
X978971Y441562D02*
X998790D01*
X996339Y551362D02*
X998539D01*
X932658Y456862D02*
X998490D01*
X986516Y454162D02*
X998489D01*
X966479Y446962D02*
X998333D01*
X992807Y533362D02*
X998322D01*
X982165Y546862D02*
X998232D01*
X932510Y455962D02*
X998160D01*
X985588Y455062D02*
X998160D01*
X986582Y451462D02*
X998095D01*
X978569Y442462D02*
X997936D01*
X932536Y446062D02*
X997828D01*
X970916Y536962D02*
X997817D01*
X967055Y447862D02*
X997711D01*
X992542Y534262D02*
X997605D01*
X985766Y450562D02*
X997594D01*
X996315Y550462D02*
X997565D01*
X977500Y443362D02*
X997518D01*
X932207Y445162D02*
X997471D01*
X982142Y547762D02*
X997451D01*
X967232Y448762D02*
X997424D01*
X970949Y536062D02*
X997410D01*
X967095Y449662D02*
X997388D01*
X931618Y444262D02*
X997375D01*
X991810Y535162D02*
X997348D01*
X995955Y549562D02*
X997194D01*
X995010Y548662D02*
X997161D01*
X994780Y599062D02*
X997141D01*
X980520Y560362D02*
X997139D01*
X978002Y581062D02*
X996723D01*
X972084Y576562D02*
X996495D01*
X975838Y603562D02*
X996176D01*
X980072Y561262D02*
X996048D01*
X977603Y608962D02*
X995957D01*
X994534Y599962D02*
X995909D01*
X978036Y580162D02*
X995777D01*
X972137Y577462D02*
X995692D01*
X975254Y602662D02*
X995598D01*
X993837Y600862D02*
X995463D01*
X977748Y579262D02*
X995418D01*
X976970Y578362D02*
X995393D01*
X974555Y601762D02*
X995373D01*
X976324Y604462D02*
X994132D01*
X977484Y608062D02*
X994064D01*
X976725Y605362D02*
X993568D01*
X977300Y607162D02*
X993541D01*
X977048Y606262D02*
X993398D01*
X982411Y548662D02*
X992392D01*
X982638Y553162D02*
X992165D01*
X983357Y549562D02*
X991446D01*
X983441Y552262D02*
X991362D01*
X946570Y596362D02*
X991091D01*
X983716Y550462D02*
X991087D01*
X983741Y551362D02*
X991062D01*
X973716Y600862D02*
X990415D01*
X966370Y597262D02*
X989962D01*
X972692Y599962D02*
X989718D01*
X969646Y598162D02*
X989543D01*
X971402Y599062D02*
X989472D01*
X978830Y562162D02*
X989386D01*
X984327Y565762D02*
X989360D01*
X930908Y530662D02*
X989016D01*
X983054Y563062D02*
X988835D01*
X984313Y564862D02*
X988825D01*
X983966Y563962D02*
X988673D01*
X970659Y535162D02*
X988505D01*
X928298Y531562D02*
X987960D01*
X969876Y534262D02*
X987773D01*
X829256Y532462D02*
X987562D01*
X930578Y533362D02*
X987508D01*
X936315Y590962D02*
X986989D01*
X969826Y518062D02*
X986649D01*
X933939Y586462D02*
X986574D01*
X936293Y590062D02*
X985972D01*
X970763Y517162D02*
X985846D01*
X935054Y587362D02*
X985819D01*
X936099Y589162D02*
X985587D01*
X935707Y588262D02*
X985543D01*
X982841Y512662D02*
X985368D01*
X975136Y522562D02*
X985329D01*
X932267Y518962D02*
X985158D01*
X983574Y571162D02*
X985002D01*
X971119Y516262D02*
X984804D01*
X789208Y521662D02*
X984731D01*
X931721Y519862D02*
X984664D01*
X982324Y513562D02*
X984629D01*
X930771Y520762D02*
X984541D01*
X971141Y515362D02*
X984411D01*
X980587Y514462D02*
X984360D01*
X984015Y566662D02*
X984306D01*
X980435Y570262D02*
X983864D01*
X983186Y567562D02*
X983614D01*
X932451Y475762D02*
X983561D01*
X980617Y569362D02*
X983442D01*
X980486Y568462D02*
X983369D01*
X965899Y430762D02*
X982919D01*
X932156Y455062D02*
X982916D01*
X966583Y450562D02*
X982738D01*
X966084Y435262D02*
X982735D01*
X932045Y474862D02*
X982598D01*
X931340Y473962D02*
X982232D01*
X930010Y473062D02*
X982202D01*
X966830Y431662D02*
X981989D01*
X931531Y454162D02*
X981988D01*
X964907Y451462D02*
X981921D01*
X966898Y434362D02*
X981920D01*
X967183Y432562D02*
X981636D01*
X930410Y453262D02*
X981635D01*
X902805Y452362D02*
X981616D01*
X967203Y433462D02*
X981616D01*
X971689Y575662D02*
X980804D01*
X883005Y472162D02*
X980425D01*
X941628Y563062D02*
X980332D01*
X979851Y571162D02*
X980206D01*
X970839Y514462D02*
X980043D01*
X932659Y497362D02*
X979931D01*
X970642Y574762D02*
X979710D01*
X965572Y471262D02*
X979699D01*
X971142Y553162D02*
X979566D01*
X972496Y620662D02*
X979547D01*
X888209Y572062D02*
X979493D01*
X966248Y469462D02*
X979479D01*
X966101Y470362D02*
X979436D01*
X941373Y563962D02*
X979420D01*
X978392Y566662D02*
X979371D01*
X809185Y573862D02*
X979301D01*
X887473Y572962D02*
X979238D01*
X940659Y564862D02*
X979073D01*
X720432Y565762D02*
X979059D01*
X970841Y552262D02*
X978763D01*
X976248Y616162D02*
X978496D01*
X941331Y550462D02*
X978489D01*
X970036Y551362D02*
X978464D01*
X761129Y501862D02*
X978408D01*
X931640Y509962D02*
X978395D01*
X970030Y513562D02*
X978306D01*
X932517Y498262D02*
X978294D01*
X973557Y619762D02*
X978223D01*
X941619Y549562D02*
X978213D01*
X974713Y545062D02*
X977996D01*
X975746Y617062D02*
X977864D01*
X930457Y500962D02*
X977829D01*
X930621Y510862D02*
X977824D01*
X809612Y512662D02*
X977789D01*
X932170Y499162D02*
X977785D01*
X974424Y618862D02*
X977758D01*
X975144Y617962D02*
X977654D01*
X931555Y500062D02*
X977650D01*
X809752Y511762D02*
X977650D01*
X966082Y468562D02*
X977590D01*
X738657Y566662D02*
X977513D01*
X973937Y548662D02*
X977271D01*
X975060Y545962D02*
X977191D01*
X941566Y562162D02*
X977075D01*
X965525Y467662D02*
X977030D01*
X974765Y547762D02*
X976913D01*
X975075Y546862D02*
X976890D01*
X956529Y466762D02*
X976862D01*
X959162Y557662D02*
X976172D01*
X888476Y571162D02*
X976055D01*
X739512Y567562D02*
X975924D01*
X958384Y561262D02*
X975834D01*
X956588Y465862D02*
X975588D01*
X959509Y558562D02*
X975517D01*
X929547Y461362D02*
X975494D01*
X888423Y570262D02*
X975471D01*
X886979Y568462D02*
X975420D01*
X959212Y560362D02*
X975386D01*
X959524Y559462D02*
X975294D01*
X888027Y569362D02*
X975288D01*
X930578Y443362D02*
X975256D01*
X932311Y438862D02*
X974714D01*
X956327Y464962D02*
X974688D01*
X892905Y462262D02*
X974653D01*
X955605Y464062D02*
X974347D01*
X930223Y463162D02*
X974336D01*
X924191Y442462D02*
X974187D01*
X935780Y582862D02*
X974137D01*
X931797Y439762D02*
X973989D01*
X971870Y578362D02*
X973817D01*
X928298Y441562D02*
X973785D01*
X930908Y440662D02*
X973728D01*
X936139Y581962D02*
X973158D01*
X971133Y579262D02*
X973039D01*
X936307Y581062D02*
X972786D01*
X936304Y580162D02*
X972751D01*
X939627Y527062D02*
X972390D01*
X789847Y522562D02*
X971714D01*
X939278Y526162D02*
X971261D01*
X955259Y544162D02*
X971084D01*
X930732Y523462D02*
X971018D01*
X941584Y548662D02*
X970945D01*
X938361Y525262D02*
X970842D01*
X931700Y524362D02*
X970771D01*
X955421Y545062D02*
X970169D01*
X941213Y547762D02*
X970117D01*
X955271Y545962D02*
X969822D01*
X954736Y546862D02*
X969807D01*
X941063Y574762D02*
X968335D01*
X940924Y579262D02*
X967843D01*
X937827Y494662D02*
X967685D01*
X941890Y575662D02*
X967287D01*
X941470Y555862D02*
X967190D01*
X932565Y518062D02*
X967182D01*
X941839Y578362D02*
X967107D01*
X961897Y538762D02*
X967040D01*
X930872Y513562D02*
X966978D01*
X940552Y551362D02*
X966972D01*
X942201Y576562D02*
X966892D01*
X942186Y577462D02*
X966839D01*
X962199Y534262D02*
X966738D01*
X938810Y490162D02*
X966701D01*
X939112Y493762D02*
X966400D01*
X941641Y554962D02*
X966248D01*
X932665Y517162D02*
X966245D01*
X931777Y514462D02*
X966169D01*
X939164Y552262D02*
X966166D01*
X962870Y537862D02*
X966067D01*
X939452Y491062D02*
X966060D01*
X962981Y535162D02*
X965956D01*
X939569Y492862D02*
X965942D01*
X941500Y554062D02*
X965890D01*
X932581Y516262D02*
X965889D01*
X932300Y515362D02*
X965867D01*
X940979Y553162D02*
X965866D01*
X939668Y491962D02*
X965844D01*
X963239Y536962D02*
X965698D01*
X963272Y536062D02*
X965665D01*
X929168Y451462D02*
X964227D01*
X946214Y430762D02*
X963234D01*
X946399Y435262D02*
X963050D01*
X947280Y597262D02*
X962764D01*
X932662Y446962D02*
X962654D01*
X931035Y450562D02*
X962551D01*
X947145Y431662D02*
X962304D01*
X947213Y434362D02*
X962235D01*
X932581Y426262D02*
X962167D01*
X932604Y447862D02*
X962079D01*
X931869Y449662D02*
X962039D01*
X947498Y432562D02*
X961950D01*
X947518Y433462D02*
X961930D01*
X932353Y448762D02*
X961902D01*
X956126Y467662D02*
X961641D01*
X929834Y471262D02*
X961594D01*
X955052Y468562D02*
X961083D01*
X931264Y470362D02*
X961065D01*
X932000Y469462D02*
X960917D01*
X604831Y401062D02*
X960128D01*
X604831Y622462D02*
X959867D01*
X947534Y598162D02*
X959488D01*
X954940Y538762D02*
X959363D01*
X932300Y425362D02*
X959263D01*
X931618Y534262D02*
X959061D01*
X954203Y537862D02*
X958390D01*
X932207Y535162D02*
X958278D01*
X925881Y401962D02*
X958158D01*
X932662Y536962D02*
X958021D01*
X932536Y536062D02*
X957988D01*
X604831Y621562D02*
X957988D01*
X947470Y599062D02*
X957732D01*
X931777Y424462D02*
X957576D01*
X927396Y402862D02*
X956768D01*
X604831Y620662D02*
X956638D01*
X947059Y599962D02*
X956442D01*
X930872Y423562D02*
X956320D01*
X928195Y403762D02*
X955681D01*
X604831Y619762D02*
X955577D01*
X940904Y556762D02*
X955530D01*
X945961Y600862D02*
X955418D01*
X941157Y561262D02*
X955396D01*
X924516Y422662D02*
X955320D01*
X928682Y404662D02*
X954796D01*
X604831Y618862D02*
X954710D01*
X932665Y557662D02*
X954617D01*
X849100Y601762D02*
X954579D01*
X940065Y560362D02*
X954567D01*
X924516Y421762D02*
X954497D01*
X932665Y558562D02*
X954270D01*
X932665Y559462D02*
X954256D01*
X928952Y405562D02*
X954061D01*
X604831Y617962D02*
X953990D01*
X850621Y602662D02*
X953880D01*
X924516Y420862D02*
X953812D01*
X929043Y406462D02*
X953448D01*
X604831Y617062D02*
X953388D01*
X851422Y603562D02*
X953296D01*
X924516Y419962D02*
X953239D01*
X928965Y407362D02*
X952936D01*
X604831Y616162D02*
X952886D01*
X932426Y468562D02*
X952822D01*
X851909Y604462D02*
X952810D01*
X924363Y419062D02*
X952762D01*
X928709Y408262D02*
X952512D01*
X604831Y615262D02*
X952471D01*
X852180Y605362D02*
X952409D01*
X923470Y418162D02*
X952370D01*
X931438Y464062D02*
X952269D01*
X928241Y409162D02*
X952168D01*
X739747Y614362D02*
X952135D01*
X852272Y606262D02*
X952086D01*
X604831Y417262D02*
X952055D01*
X927471Y410062D02*
X951897D01*
X741068Y613462D02*
X951872D01*
X852194Y607162D02*
X951834D01*
X604831Y416362D02*
X951811D01*
X932633Y467662D02*
X951748D01*
X945992Y410962D02*
X951695D01*
X946183Y612562D02*
X951677D01*
X946424Y608062D02*
X951650D01*
X946553Y415462D02*
X951634D01*
X947069Y411862D02*
X951557D01*
X932102Y464962D02*
X951547D01*
X947134Y611662D02*
X951546D01*
X947223Y608962D02*
X951531D01*
X947273Y414562D02*
X951521D01*
X947473Y412762D02*
X951483D01*
X947495Y610762D02*
X951479D01*
X947521Y609862D02*
X951474D01*
X947533Y413662D02*
X951471D01*
X604831Y542362D02*
X951403D01*
X932650Y466762D02*
X951345D01*
X932482Y465862D02*
X951286D01*
X932604Y537862D02*
X950915D01*
X930410Y543262D02*
X950805D01*
X940234Y546862D02*
X950775D01*
X929168Y541462D02*
X950357D01*
X931531Y544162D02*
X950253D01*
X932510Y545962D02*
X950241D01*
X932353Y538762D02*
X950178D01*
X932156Y545062D02*
X950091D01*
X931035Y540562D02*
X949963D01*
X931869Y539662D02*
X949910D01*
X925677Y623362D02*
X944402D01*
X906366Y400162D02*
X944027D01*
X807958Y600862D02*
X943803D01*
X926053Y410962D02*
X943772D01*
X926498Y612562D02*
X943581D01*
X930771Y430762D02*
X943549D01*
X932255Y435262D02*
X943365D01*
X926739Y608062D02*
X943339D01*
X907183Y415462D02*
X943211D01*
X807761Y596362D02*
X943194D01*
X927231Y624262D02*
X942847D01*
X907625Y399262D02*
X942769D01*
X808247Y599962D02*
X942705D01*
X907699Y411862D02*
X942695D01*
X927449Y611662D02*
X942630D01*
X924516Y431662D02*
X942619D01*
X931700Y434362D02*
X942550D01*
X927538Y608962D02*
X942541D01*
X907903Y414562D02*
X942490D01*
X808137Y597262D02*
X942483D01*
X907951Y396562D02*
X942443D01*
X927676Y626962D02*
X942403D01*
X927732Y625162D02*
X942346D01*
X908077Y398362D02*
X942317D01*
X808368Y599062D02*
X942294D01*
X908103Y412762D02*
X942290D01*
X927810Y610762D02*
X942269D01*
X924516Y432562D02*
X942265D01*
X930732Y433462D02*
X942245D01*
X927836Y609862D02*
X942243D01*
X908163Y413662D02*
X942231D01*
X808333Y598162D02*
X942229D01*
X908171Y397462D02*
X942222D01*
X927861Y626062D02*
X942218D01*
X888263Y552262D02*
X938789D01*
X936129Y579262D02*
X938210D01*
X809340Y574762D02*
X938071D01*
X932662Y560362D02*
X937887D01*
X932658Y546862D02*
X937719D01*
X929547Y551362D02*
X937401D01*
X935762Y578362D02*
X937295D01*
X721236Y564862D02*
X937294D01*
X809337Y575662D02*
X937243D01*
X932665Y556762D02*
X937049D01*
X932375Y553162D02*
X936974D01*
X935143Y577462D02*
X936948D01*
X934102Y576562D02*
X936933D01*
X932205Y561262D02*
X936796D01*
X932619Y547762D02*
X936740D01*
X931153Y550462D02*
X936622D01*
X721536Y563962D02*
X936580D01*
X932665Y555862D02*
X936483D01*
X932665Y554062D02*
X936453D01*
X721153Y562162D02*
X936387D01*
X932391Y548662D02*
X936368D01*
X931937Y549562D02*
X936334D01*
X721512Y563062D02*
X936324D01*
X932665Y554962D02*
X936311D01*
X931919Y494662D02*
X936189D01*
X932255Y525262D02*
X935655D01*
X931797Y529762D02*
X935508D01*
X931464Y490162D02*
X935205D01*
X931122Y493762D02*
X934904D01*
X932559Y526162D02*
X934738D01*
X932311Y528862D02*
X934683D01*
X930276Y491062D02*
X934564D01*
X929457Y492862D02*
X934446D01*
X932665Y527062D02*
X934389D01*
X932586Y527962D02*
X934373D01*
X863205Y491962D02*
X934348D01*
X923939Y586462D02*
X929053D01*
X924102Y576562D02*
X928890D01*
X924156Y584662D02*
X928836D01*
X924302Y594562D02*
X928691D01*
X918298Y531562D02*
X928159D01*
X924511Y441562D02*
X928159D01*
X925054Y587362D02*
X927938D01*
X925143Y577462D02*
X927849D01*
X925173Y583762D02*
X927819D01*
X925256Y593662D02*
X927736D01*
X919033Y502762D02*
X927424D01*
X919168Y541462D02*
X927289D01*
X919168Y451462D02*
X927289D01*
X925707Y588262D02*
X927285D01*
X925762Y578362D02*
X927231D01*
X925780Y582862D02*
X927212D01*
X925831Y592762D02*
X927162D01*
X919457Y492862D02*
X927000D01*
X919547Y551362D02*
X926909D01*
X919547Y461362D02*
X926909D01*
X926099Y589162D02*
X926894D01*
X926129Y579262D02*
X926863D01*
X926139Y581962D02*
X926853D01*
X926167Y591862D02*
X926825D01*
X926293Y590062D02*
X926699D01*
X919762Y482962D02*
X926695D01*
X926304Y580162D02*
X926688D01*
X926307Y581062D02*
X926685D01*
X926315Y590962D02*
X926677D01*
X919834Y471262D02*
X926623D01*
X920010Y473062D02*
X926446D01*
X920071Y481162D02*
X926386D01*
X920223Y463162D02*
X926234D01*
X920276Y491062D02*
X926181D01*
X920410Y543262D02*
X926046D01*
X920410Y453262D02*
X926046D01*
X920457Y500962D02*
X925999D01*
X920578Y533362D02*
X925878D01*
X920604Y443362D02*
X925878D01*
X920621Y510862D02*
X925835D01*
X920732Y523462D02*
X925725D01*
X924516Y433462D02*
X925725D01*
X920771Y520762D02*
X925686D01*
X924516Y430762D02*
X925686D01*
X920872Y513562D02*
X925585D01*
X924516Y423562D02*
X925585D01*
X920908Y530662D02*
X925549D01*
X924516Y440662D02*
X925549D01*
X921002Y503662D02*
X925455D01*
X921035Y540562D02*
X925422D01*
X921035Y450562D02*
X925422D01*
X921122Y493762D02*
X925335D01*
X921153Y550462D02*
X925303D01*
X921153Y460462D02*
X925303D01*
X921234Y483862D02*
X925222D01*
X921264Y470362D02*
X925193D01*
X921340Y473962D02*
X925117D01*
X921367Y480262D02*
X925090D01*
X921438Y464062D02*
X925019D01*
X921464Y490162D02*
X924993D01*
X921531Y544162D02*
X924926D01*
X921531Y454162D02*
X924926D01*
X921555Y500062D02*
X924902D01*
X921618Y534262D02*
X924839D01*
X921618Y444262D02*
X924839D01*
X921640Y509962D02*
X924816D01*
X921700Y524362D02*
X924757D01*
X924516Y434362D02*
X924757D01*
X921721Y519862D02*
X924736D01*
X924516Y429862D02*
X924736D01*
X905992Y623362D02*
X924717D01*
X921777Y514462D02*
X924680D01*
X924558Y424462D02*
X924674D01*
X921797Y529762D02*
X924660D01*
X921850Y504562D02*
X924607D01*
X921869Y539662D02*
X924588D01*
X921869Y449662D02*
X924588D01*
X921919Y494662D02*
X924538D01*
X921937Y549562D02*
X924520D01*
X921937Y459562D02*
X924520D01*
X921983Y484762D02*
X924473D01*
X922000Y469462D02*
X924456D01*
X922045Y474862D02*
X924412D01*
X922060Y479362D02*
X924396D01*
X922102Y464962D02*
X924355D01*
X922117Y489262D02*
X924340D01*
X922156Y545062D02*
X924300D01*
X922156Y455062D02*
X924300D01*
X922170Y499162D02*
X924286D01*
X919834Y561262D02*
X924252D01*
X922207Y535162D02*
X924249D01*
X922207Y445162D02*
X924249D01*
X922220Y509062D02*
X924236D01*
X922255Y525262D02*
X924202D01*
X922267Y518962D02*
X924189D01*
X922300Y515362D02*
X924157D01*
X922311Y528862D02*
X924145D01*
X922342Y505462D02*
X924115D01*
X922353Y538762D02*
X924104D01*
X922353Y448762D02*
X924104D01*
X920223Y553162D02*
X924081D01*
X922381Y495562D02*
X924076D01*
X922391Y548662D02*
X924066D01*
X922391Y458662D02*
X924066D01*
X922417Y485662D02*
X924040D01*
X922426Y468562D02*
X924030D01*
X922451Y475762D02*
X924006D01*
X922459Y478462D02*
X923997D01*
X922482Y465862D02*
X923975D01*
X922490Y488362D02*
X923967D01*
X922510Y545962D02*
X923947D01*
X922510Y455962D02*
X923947D01*
X922517Y498262D02*
X923939D01*
X922536Y536062D02*
X923921D01*
X922536Y446062D02*
X923921D01*
X922543Y508162D02*
X923914D01*
X922559Y526162D02*
X923897D01*
X906813Y612562D02*
X923896D01*
X922565Y518062D02*
X923891D01*
X922581Y516262D02*
X923876D01*
X922586Y527962D02*
X923871D01*
X922599Y506362D02*
X923858D01*
X922604Y537862D02*
X923853D01*
X922604Y447862D02*
X923853D01*
X922615Y496462D02*
X923841D01*
X922619Y547762D02*
X923837D01*
X922619Y457762D02*
X923837D01*
X922629Y486562D02*
X923827D01*
X922633Y467662D02*
X923824D01*
X922641Y476662D02*
X923816D01*
X922644Y477562D02*
X923813D01*
X922650Y466762D02*
X923806D01*
X922653Y487462D02*
X923804D01*
X922658Y546862D02*
X923799D01*
X922658Y456862D02*
X923799D01*
X922659Y497362D02*
X923798D01*
X922662Y536962D02*
X923794D01*
X922662Y446962D02*
X923794D01*
X921264Y560362D02*
X923794D01*
X922663Y507262D02*
X923793D01*
X922665Y527062D02*
X923792D01*
X922665Y517162D02*
X923791D01*
X922000Y559462D02*
X923791D01*
X922426Y558562D02*
X923791D01*
X922633Y557662D02*
X923791D01*
X922650Y556762D02*
X923791D01*
X922482Y555862D02*
X923791D01*
X922102Y554962D02*
X923791D01*
X921438Y554062D02*
X923791D01*
X907054Y608062D02*
X923654D01*
X907546Y624262D02*
X923162D01*
X907763Y611662D02*
X922945D01*
X907853Y608962D02*
X922856D01*
X907991Y626962D02*
X922717D01*
X908047Y625162D02*
X922661D01*
X908125Y610762D02*
X922584D01*
X908151Y609862D02*
X922558D01*
X604831Y401962D02*
X922545D01*
X908176Y626062D02*
X922533D01*
X906622Y410962D02*
X922372D01*
X604831Y402862D02*
X921029D01*
X604831Y410062D02*
X920954D01*
X604831Y403762D02*
X920230D01*
X604831Y409162D02*
X920184D01*
X604831Y404662D02*
X919743D01*
X604831Y408262D02*
X919716D01*
X604831Y405562D02*
X919473D01*
X604831Y407362D02*
X919460D01*
X604831Y406462D02*
X919382D01*
X913939Y586462D02*
X919053D01*
X914102Y576562D02*
X918890D01*
X914156Y584662D02*
X918836D01*
X914302Y594562D02*
X918691D01*
X829436Y531562D02*
X918159D01*
X915054Y587362D02*
X917938D01*
X915143Y577462D02*
X917849D01*
X915173Y583762D02*
X917819D01*
X915256Y593662D02*
X917736D01*
X761086Y502762D02*
X917424D01*
X867793Y541462D02*
X917289D01*
X903705Y451462D02*
X917289D01*
X915707Y588262D02*
X917285D01*
X915762Y578362D02*
X917231D01*
X915780Y582862D02*
X917212D01*
X915831Y592762D02*
X917162D01*
X862305Y492862D02*
X917000D01*
X888486Y551362D02*
X916909D01*
X893805Y461362D02*
X916909D01*
X916099Y589162D02*
X916894D01*
X916129Y579262D02*
X916863D01*
X916139Y581962D02*
X916853D01*
X916167Y591862D02*
X916825D01*
X916293Y590062D02*
X916699D01*
X872205Y482962D02*
X916695D01*
X916304Y580162D02*
X916688D01*
X916307Y581062D02*
X916685D01*
X916315Y590962D02*
X916677D01*
X720209Y561262D02*
X916623D01*
X883905Y471262D02*
X916623D01*
X882105Y473062D02*
X916446D01*
X874005Y481162D02*
X916386D01*
X887610Y553162D02*
X916234D01*
X892005Y463162D02*
X916234D01*
X864105Y491062D02*
X916181D01*
X742889Y543262D02*
X916046D01*
X901905Y453262D02*
X916046D01*
X761059Y500962D02*
X915999D01*
X828674Y533362D02*
X915878D01*
X911805Y443362D02*
X915853D01*
X809577Y510862D02*
X915835D01*
X790062Y523462D02*
X915725D01*
X604831Y520762D02*
X915686D01*
X809096Y513562D02*
X915585D01*
X829303Y530662D02*
X915549D01*
X760928Y503662D02*
X915455D01*
X868526Y540562D02*
X915422D01*
X904605Y450562D02*
X915422D01*
X906858Y493762D02*
X915335D01*
X888393Y550462D02*
X915303D01*
X894705Y460462D02*
X915303D01*
X871305Y483862D02*
X915222D01*
X604831Y560362D02*
X915193D01*
X884805Y470362D02*
X915193D01*
X906639Y473962D02*
X915117D01*
X874905Y480262D02*
X915090D01*
X604831Y554062D02*
X915019D01*
X891105Y464062D02*
X915019D01*
X865005Y490162D02*
X914993D01*
X743564Y544162D02*
X914926D01*
X901005Y454162D02*
X914926D01*
X760873Y500062D02*
X914902D01*
X740700Y534262D02*
X914839D01*
X910905Y444262D02*
X914839D01*
X809007Y509962D02*
X914816D01*
X789962Y524362D02*
X914757D01*
X604831Y519862D02*
X914736D01*
X807359Y514462D02*
X914680D01*
X828796Y529762D02*
X914660D01*
X760646Y504562D02*
X914607D01*
X868791Y539662D02*
X914588D01*
X905505Y449662D02*
X914588D01*
X907780Y494662D02*
X914538D01*
X887944Y549562D02*
X914520D01*
X895605Y459562D02*
X914520D01*
X870405Y484762D02*
X914473D01*
X604831Y559462D02*
X914456D01*
X885705Y469462D02*
X914456D01*
X907704Y474862D02*
X914412D01*
X875805Y479362D02*
X914396D01*
X604831Y554962D02*
X914355D01*
X890205Y464962D02*
X914355D01*
X865905Y489262D02*
X914340D01*
X743799Y545062D02*
X914300D01*
X900105Y455062D02*
X914300D01*
X760560Y499162D02*
X914286D01*
X740421Y535162D02*
X914249D01*
X910005Y445162D02*
X914249D01*
X755126Y509062D02*
X914236D01*
X789502Y525262D02*
X914202D01*
X604831Y518962D02*
X914189D01*
X672356Y515362D02*
X914157D01*
X827182Y528862D02*
X914145D01*
X760224Y505462D02*
X914115D01*
X868737Y538762D02*
X914104D01*
X906405Y448762D02*
X914104D01*
X908130Y495562D02*
X914076D01*
X886699Y548662D02*
X914066D01*
X896505Y458662D02*
X914066D01*
X869505Y485662D02*
X914040D01*
X604831Y558562D02*
X914030D01*
X886605Y468562D02*
X914030D01*
X908105Y475762D02*
X914006D01*
X907173Y478462D02*
X913997D01*
X604831Y555862D02*
X913975D01*
X889305Y465862D02*
X913975D01*
X866805Y488362D02*
X913967D01*
X743717Y545962D02*
X913947D01*
X899205Y455962D02*
X913947D01*
X907017Y498262D02*
X913939D01*
X739887Y536062D02*
X913921D01*
X909105Y446062D02*
X913921D01*
X757594Y508162D02*
X913914D01*
X788208Y526162D02*
X913897D01*
X604831Y518062D02*
X913891D01*
X671759Y516262D02*
X913876D01*
X604831Y527962D02*
X913871D01*
X759632Y506362D02*
X913858D01*
X868340Y537862D02*
X913853D01*
X907305Y447862D02*
X913853D01*
X908147Y496462D02*
X913841D01*
X742101Y547762D02*
X913837D01*
X897405Y457762D02*
X913837D01*
X868605Y486562D02*
X913827D01*
X604831Y557662D02*
X913824D01*
X887505Y467662D02*
X913824D01*
X908162Y476662D02*
X913816D01*
X907900Y477562D02*
X913813D01*
X604831Y556762D02*
X913806D01*
X888405Y466762D02*
X913806D01*
X867705Y487462D02*
X913804D01*
X743283Y546862D02*
X913799D01*
X898305Y456862D02*
X913799D01*
X907839Y497362D02*
X913798D01*
X867285Y536962D02*
X913794D01*
X908205Y446962D02*
X913794D01*
X758807Y507262D02*
X913793D01*
X604831Y527062D02*
X913792D01*
X604831Y517162D02*
X913791D01*
X903939Y586462D02*
X909053D01*
X904102Y576562D02*
X908890D01*
X904156Y584662D02*
X908836D01*
X904302Y594562D02*
X908691D01*
X905054Y587362D02*
X907938D01*
X905143Y577462D02*
X907849D01*
X905173Y583762D02*
X907819D01*
X905256Y593662D02*
X907736D01*
X905707Y588262D02*
X907285D01*
X905762Y578362D02*
X907231D01*
X905780Y582862D02*
X907212D01*
X905831Y592762D02*
X907162D01*
X906099Y589162D02*
X906894D01*
X906129Y579262D02*
X906863D01*
X906139Y581962D02*
X906853D01*
X906167Y591862D02*
X906825D01*
X906293Y590062D02*
X906699D01*
X906304Y580162D02*
X906688D01*
X906307Y581062D02*
X906685D01*
X906315Y590962D02*
X906677D01*
X886307Y623362D02*
X905032D01*
X886681Y400162D02*
X904657D01*
X886937Y410962D02*
X904402D01*
X886954Y473962D02*
X904385D01*
X887128Y612562D02*
X904211D01*
X887173Y493762D02*
X904166D01*
X887332Y498262D02*
X904006D01*
X887369Y608062D02*
X903969D01*
X887488Y478462D02*
X903851D01*
X887498Y415462D02*
X903841D01*
X887861Y624262D02*
X903477D01*
X887940Y399262D02*
X903399D01*
X888014Y411862D02*
X903325D01*
X888019Y474862D02*
X903319D01*
X888078Y611662D02*
X903260D01*
X888095Y494662D02*
X903244D01*
X888154Y497362D02*
X903185D01*
X888168Y608962D02*
X903170D01*
X888214Y477562D02*
X903124D01*
X888218Y414562D02*
X903120D01*
X888266Y396562D02*
X903073D01*
X888306Y626962D02*
X903032D01*
X888362Y625162D02*
X902976D01*
X888392Y398362D02*
X902947D01*
X888418Y412762D02*
X902920D01*
X888420Y475762D02*
X902918D01*
X888440Y610762D02*
X902899D01*
X888445Y495562D02*
X902894D01*
X888462Y496462D02*
X902877D01*
X888466Y609862D02*
X902873D01*
X888477Y476662D02*
X902862D01*
X888478Y413662D02*
X902861D01*
X888486Y397462D02*
X902852D01*
X888491Y626062D02*
X902848D01*
X604831Y418162D02*
X902029D01*
X604831Y419062D02*
X900967D01*
X604831Y419962D02*
X900067D01*
X604831Y420862D02*
X899167D01*
X893939Y586462D02*
X899053D01*
X894102Y576562D02*
X898890D01*
X894156Y584662D02*
X898836D01*
X894302Y594562D02*
X898691D01*
X604831Y421762D02*
X898267D01*
X895054Y587362D02*
X897938D01*
X895143Y577462D02*
X897849D01*
X895173Y583762D02*
X897819D01*
X895256Y593662D02*
X897736D01*
X604831Y422662D02*
X897367D01*
X895707Y588262D02*
X897285D01*
X895762Y578362D02*
X897231D01*
X895780Y582862D02*
X897212D01*
X895831Y592762D02*
X897162D01*
X896099Y589162D02*
X896894D01*
X896129Y579262D02*
X896863D01*
X896139Y581962D02*
X896853D01*
X896167Y591862D02*
X896825D01*
X896293Y590062D02*
X896699D01*
X896304Y580162D02*
X896688D01*
X896307Y581062D02*
X896685D01*
X896315Y590962D02*
X896677D01*
X604831Y423562D02*
X896467D01*
X604831Y424462D02*
X895567D01*
X604831Y425362D02*
X894667D01*
X604831Y426262D02*
X893767D01*
X604831Y427162D02*
X892867D01*
X869281Y428062D02*
X891967D01*
X870343Y428962D02*
X891067D01*
X870958Y429862D02*
X890167D01*
X871314Y430762D02*
X889267D01*
X883939Y586462D02*
X889053D01*
X886215Y576562D02*
X888890D01*
X886230Y584662D02*
X888836D01*
X884302Y594562D02*
X888691D01*
X871471Y431662D02*
X888367D01*
X885054Y587362D02*
X887938D01*
X886327Y577462D02*
X887849D01*
X886327Y583762D02*
X887819D01*
X885256Y593662D02*
X887736D01*
X871451Y432562D02*
X887467D01*
X885707Y588262D02*
X887285D01*
X886327Y578362D02*
X887231D01*
X886327Y582862D02*
X887212D01*
X885831Y592762D02*
X887162D01*
X886099Y589162D02*
X886894D01*
X886327Y579262D02*
X886863D01*
X886327Y581962D02*
X886853D01*
X886167Y591862D02*
X886825D01*
X886293Y590062D02*
X886699D01*
X886327Y580162D02*
X886688D01*
X886327Y581062D02*
X886685D01*
X886315Y590962D02*
X886677D01*
X871250Y433462D02*
X886567D01*
X870841Y434362D02*
X885667D01*
X866622Y623362D02*
X885347D01*
X866996Y400162D02*
X884972D01*
X867014Y548662D02*
X884955D01*
X870149Y435262D02*
X884767D01*
X867251Y410962D02*
X884717D01*
X881205Y473962D02*
X884700D01*
X867294Y568462D02*
X884675D01*
X867443Y612562D02*
X884526D01*
X867488Y493762D02*
X884481D01*
X867647Y498262D02*
X884321D01*
X867684Y608062D02*
X884284D01*
X867788Y572962D02*
X884181D01*
X876705Y478462D02*
X884166D01*
X867813Y415462D02*
X884156D01*
X867925Y553162D02*
X884044D01*
X868903Y436162D02*
X883867D01*
X868176Y624262D02*
X883792D01*
X868255Y399262D02*
X883714D01*
X868259Y549562D02*
X883709D01*
X868329Y411862D02*
X883640D01*
X880305Y474862D02*
X883634D01*
X868342Y569362D02*
X883626D01*
X868393Y611662D02*
X883575D01*
X868409Y494662D02*
X883559D01*
X868469Y497362D02*
X883500D01*
X868483Y608962D02*
X883485D01*
X868524Y572062D02*
X883445D01*
X877605Y477562D02*
X883439D01*
X868533Y414562D02*
X883435D01*
X868578Y552262D02*
X883391D01*
X868581Y396562D02*
X883388D01*
X868621Y626962D02*
X883347D01*
X868677Y625162D02*
X883291D01*
X868707Y398362D02*
X883262D01*
X868708Y550462D02*
X883260D01*
X868733Y412762D02*
X883235D01*
X879405Y475762D02*
X883233D01*
X868738Y570262D02*
X883231D01*
X868755Y610762D02*
X883214D01*
X868760Y495562D02*
X883209D01*
X868777Y496462D02*
X883192D01*
X868781Y609862D02*
X883188D01*
X868791Y571162D02*
X883178D01*
X878505Y476662D02*
X883177D01*
X868793Y413662D02*
X883176D01*
X868801Y551362D02*
X883168D01*
X868801Y397462D02*
X883167D01*
X868806Y626062D02*
X883163D01*
X604831Y437062D02*
X882967D01*
X871278Y437962D02*
X882067D01*
X871484Y438862D02*
X881167D01*
X871484Y439762D02*
X880267D01*
X871484Y440662D02*
X879367D01*
X785933Y586462D02*
X879053D01*
X806179Y594562D02*
X878691D01*
X871484Y441562D02*
X878467D01*
X785933Y587362D02*
X877938D01*
X803990Y593662D02*
X877736D01*
X871484Y442462D02*
X877567D01*
X847823Y588262D02*
X877285D01*
X847945Y592762D02*
X877162D01*
X848732Y589162D02*
X876894D01*
X848777Y591862D02*
X876825D01*
X809177Y576562D02*
X876777D01*
X785933Y584662D02*
X876762D01*
X849077Y590062D02*
X876699D01*
X849090Y590962D02*
X876677D01*
X871484Y443362D02*
X876667D01*
X785933Y583762D02*
X876665D01*
X785929Y582862D02*
X876665D01*
X785814Y581962D02*
X876665D01*
X785532Y581062D02*
X876665D01*
X805758Y580162D02*
X876665D01*
X807415Y579262D02*
X876665D01*
X808290Y578362D02*
X876665D01*
X808841Y577462D02*
X876665D01*
X871484Y444262D02*
X875767D01*
X871484Y445162D02*
X874867D01*
X871272Y446062D02*
X873967D01*
X604831Y446962D02*
X873067D01*
X604831Y447862D02*
X872167D01*
X604831Y448762D02*
X871267D01*
X669770Y449662D02*
X870367D01*
X670379Y450562D02*
X869467D01*
X670576Y451462D02*
X868567D01*
X670460Y452362D02*
X867667D01*
X780586Y453262D02*
X866767D01*
X781699Y454162D02*
X865867D01*
X846937Y623362D02*
X865662D01*
X847311Y400162D02*
X865287D01*
X847329Y548662D02*
X865270D01*
X847566Y410962D02*
X865032D01*
X847600Y536962D02*
X864998D01*
X847608Y568462D02*
X864990D01*
X782113Y455062D02*
X864967D01*
X828073Y612562D02*
X864841D01*
X858903Y436162D02*
X864798D01*
X861405Y493762D02*
X864796D01*
X847962Y498262D02*
X864636D01*
X851938Y608062D02*
X864599D01*
X848103Y572962D02*
X864496D01*
X848108Y541462D02*
X864491D01*
X848128Y415462D02*
X864471D01*
X859281Y428062D02*
X864420D01*
X848240Y553162D02*
X864359D01*
X848491Y624262D02*
X864107D01*
X782181Y455962D02*
X864067D01*
X848570Y399262D02*
X864029D01*
X848574Y549562D02*
X864024D01*
X848644Y411862D02*
X863955D01*
X848655Y537862D02*
X863944D01*
X848657Y569362D02*
X863941D01*
X829023Y611662D02*
X863890D01*
X860505Y494662D02*
X863874D01*
X848784Y497362D02*
X863815D01*
X851471Y608962D02*
X863800D01*
X848839Y572062D02*
X863760D01*
X848840Y540562D02*
X863758D01*
X848848Y414562D02*
X863750D01*
X848893Y552262D02*
X863706D01*
X848896Y396562D02*
X863703D01*
X848936Y626962D02*
X863662D01*
X848992Y625162D02*
X863606D01*
X849022Y398362D02*
X863577D01*
X849023Y550462D02*
X863575D01*
X860149Y435262D02*
X863552D01*
X849048Y412762D02*
X863550D01*
X849052Y538762D02*
X863547D01*
X849053Y570262D02*
X863546D01*
X849289Y610762D02*
X863529D01*
X849075Y495562D02*
X863524D01*
X849092Y496462D02*
X863506D01*
X850703Y609862D02*
X863503D01*
X849106Y571162D02*
X863493D01*
X849106Y539662D02*
X863492D01*
X849108Y413662D02*
X863491D01*
X849116Y551362D02*
X863483D01*
X849116Y397462D02*
X863482D01*
X849121Y626062D02*
X863478D01*
X860343Y428962D02*
X863358D01*
X781930Y456862D02*
X863167D01*
X860841Y434362D02*
X862859D01*
X860958Y429862D02*
X862743D01*
X861250Y433462D02*
X862451D01*
X859094Y446062D02*
X862429D01*
X859110Y437962D02*
X862423D01*
X861314Y430762D02*
X862387D01*
X781226Y457762D02*
X862267D01*
X861451Y432562D02*
X862250D01*
X861471Y431662D02*
X862229D01*
X860245Y445162D02*
X862217D01*
X860899Y444262D02*
X862217D01*
X861282Y443362D02*
X862217D01*
X861462Y442462D02*
X862217D01*
X861463Y441562D02*
X862217D01*
X861285Y440662D02*
X862217D01*
X860904Y439762D02*
X862217D01*
X860253Y438862D02*
X862217D01*
X848903Y436162D02*
X854798D01*
X849094Y446062D02*
X854607D01*
X849110Y437962D02*
X854590D01*
X849281Y428062D02*
X854420D01*
X850149Y435262D02*
X853552D01*
X850245Y445162D02*
X853456D01*
X850253Y438862D02*
X853448D01*
X850343Y428962D02*
X853358D01*
X850841Y434362D02*
X852859D01*
X850899Y444262D02*
X852802D01*
X850904Y439762D02*
X852797D01*
X850958Y429862D02*
X852743D01*
X851250Y433462D02*
X852451D01*
X851282Y443362D02*
X852419D01*
X851285Y440662D02*
X852416D01*
X851314Y430762D02*
X852387D01*
X851451Y432562D02*
X852250D01*
X851462Y442462D02*
X852239D01*
X851463Y441562D02*
X852238D01*
X851471Y431662D02*
X852229D01*
X827252Y623362D02*
X845977D01*
X807466Y601762D02*
X845781D01*
X827626Y400162D02*
X845602D01*
X829385Y610762D02*
X845593D01*
X827644Y548662D02*
X845585D01*
X827881Y410962D02*
X845347D01*
X738932Y536962D02*
X845313D01*
X827923Y568462D02*
X845305D01*
X828138Y588262D02*
X845091D01*
X828260Y592762D02*
X844969D01*
X828277Y498262D02*
X844951D01*
X828418Y572962D02*
X844811D01*
X604831Y541462D02*
X844806D01*
X838903Y436162D02*
X844798D01*
X828443Y415462D02*
X844786D01*
X828554Y553162D02*
X844674D01*
X839094Y446062D02*
X844607D01*
X839110Y437962D02*
X844590D01*
X828806Y624262D02*
X844422D01*
X839281Y428062D02*
X844420D01*
X828885Y399262D02*
X844344D01*
X828889Y549562D02*
X844339D01*
X828959Y411862D02*
X844270D01*
X806688Y602662D02*
X844261D01*
X720000Y537862D02*
X844259D01*
X828972Y569362D02*
X844256D01*
X829047Y589162D02*
X844182D01*
X829411Y609862D02*
X844179D01*
X829092Y591862D02*
X844136D01*
X829099Y497362D02*
X844130D01*
X829153Y572062D02*
X844075D01*
X604831Y540562D02*
X844073D01*
X829163Y414562D02*
X844065D01*
X829208Y552262D02*
X844021D01*
X829210Y396562D02*
X844018D01*
X829251Y626962D02*
X843977D01*
X829307Y625162D02*
X843921D01*
X829337Y398362D02*
X843892D01*
X829338Y550462D02*
X843890D01*
X829363Y412762D02*
X843865D01*
X604831Y538762D02*
X843861D01*
X829368Y570262D02*
X843861D01*
X829390Y495562D02*
X843839D01*
X829392Y590062D02*
X843837D01*
X829405Y590962D02*
X843823D01*
X829407Y496462D02*
X843821D01*
X829421Y571162D02*
X843808D01*
X604831Y539662D02*
X843807D01*
X829423Y413662D02*
X843806D01*
X829431Y551362D02*
X843797D01*
X829431Y397462D02*
X843797D01*
X829436Y626062D02*
X843792D01*
X840149Y435262D02*
X843552D01*
X805339Y603562D02*
X843460D01*
X840245Y445162D02*
X843456D01*
X840253Y438862D02*
X843448D01*
X829113Y608962D02*
X843411D01*
X840343Y428962D02*
X843358D01*
X736557Y604462D02*
X842973D01*
X828314Y608062D02*
X842944D01*
X840841Y434362D02*
X842859D01*
X840899Y444262D02*
X842802D01*
X840904Y439762D02*
X842797D01*
X840958Y429862D02*
X842743D01*
X736003Y605362D02*
X842702D01*
X704673Y607162D02*
X842688D01*
X704673Y606262D02*
X842610D01*
X841250Y433462D02*
X842451D01*
X841282Y443362D02*
X842419D01*
X841285Y440662D02*
X842416D01*
X841314Y430762D02*
X842387D01*
X841451Y432562D02*
X842250D01*
X841462Y442462D02*
X842239D01*
X841463Y441562D02*
X842238D01*
X841471Y431662D02*
X842229D01*
X828903Y436162D02*
X834798D01*
X829094Y446062D02*
X834607D01*
X829110Y437962D02*
X834590D01*
X829281Y428062D02*
X834420D01*
X830149Y435262D02*
X833552D01*
X830245Y445162D02*
X833456D01*
X830253Y438862D02*
X833448D01*
X830343Y428962D02*
X833358D01*
X830841Y434362D02*
X832859D01*
X830899Y444262D02*
X832802D01*
X830904Y439762D02*
X832797D01*
X830958Y429862D02*
X832743D01*
X831250Y433462D02*
X832451D01*
X831282Y443362D02*
X832419D01*
X831285Y440662D02*
X832416D01*
X831314Y430762D02*
X832387D01*
X831451Y432562D02*
X832250D01*
X831462Y442462D02*
X832239D01*
X831463Y441562D02*
X832238D01*
X831471Y431662D02*
X832229D01*
X807497Y528862D02*
X826361D01*
X807567Y623362D02*
X826292D01*
X807941Y400162D02*
X825917D01*
X807959Y548662D02*
X825899D01*
X808196Y410962D02*
X825662D01*
X788553Y568462D02*
X825620D01*
X808388Y612562D02*
X825471D01*
X808453Y588262D02*
X825406D01*
X808575Y592762D02*
X825284D01*
X788907Y498262D02*
X825266D01*
X808629Y608062D02*
X825229D01*
X808856Y572962D02*
X825126D01*
X808757Y415462D02*
X825101D01*
X808869Y553162D02*
X824989D01*
X808989Y533362D02*
X824869D01*
X818903Y436162D02*
X824798D01*
X809111Y529762D02*
X824747D01*
X809121Y624262D02*
X824737D01*
X809200Y399262D02*
X824659D01*
X809204Y549562D02*
X824654D01*
X819094Y446062D02*
X824607D01*
X819110Y437962D02*
X824590D01*
X809274Y411862D02*
X824585D01*
X789602Y569362D02*
X824571D01*
X809338Y611662D02*
X824520D01*
X809362Y589162D02*
X824497D01*
X809407Y591862D02*
X824451D01*
X789729Y497362D02*
X824445D01*
X809428Y608962D02*
X824430D01*
X819281Y428062D02*
X824420D01*
X808314Y572062D02*
X824390D01*
X809478Y414562D02*
X824380D01*
X809523Y552262D02*
X824335D01*
X809525Y396562D02*
X824333D01*
X809566Y626962D02*
X824292D01*
X809571Y532462D02*
X824288D01*
X809618Y530662D02*
X824240D01*
X809622Y625162D02*
X824236D01*
X809652Y398362D02*
X824207D01*
X809653Y550462D02*
X824205D01*
X809678Y412762D02*
X824180D01*
X805850Y570262D02*
X824176D01*
X809700Y610762D02*
X824159D01*
X790020Y495562D02*
X824154D01*
X809707Y590062D02*
X824151D01*
X809720Y590962D02*
X824138D01*
X790037Y496462D02*
X824136D01*
X809726Y609862D02*
X824133D01*
X807453Y571162D02*
X824123D01*
X809738Y413662D02*
X824121D01*
X809746Y551362D02*
X824112D01*
X809746Y397462D02*
X824112D01*
X809751Y626062D02*
X824107D01*
X809751Y531562D02*
X824107D01*
X820149Y435262D02*
X823552D01*
X820245Y445162D02*
X823456D01*
X820253Y438862D02*
X823448D01*
X820343Y428962D02*
X823358D01*
X820841Y434362D02*
X822859D01*
X820899Y444262D02*
X822802D01*
X820904Y439762D02*
X822797D01*
X820958Y429862D02*
X822743D01*
X821250Y433462D02*
X822451D01*
X821282Y443362D02*
X822419D01*
X821285Y440662D02*
X822416D01*
X821314Y430762D02*
X822387D01*
X821451Y432562D02*
X822250D01*
X821462Y442462D02*
X822239D01*
X821463Y441562D02*
X822238D01*
X821471Y431662D02*
X822229D01*
X808903Y436162D02*
X814798D01*
X809094Y446062D02*
X814607D01*
X809110Y437962D02*
X814590D01*
X809281Y428062D02*
X814420D01*
X810149Y435262D02*
X813552D01*
X810245Y445162D02*
X813456D01*
X810253Y438862D02*
X813448D01*
X810343Y428962D02*
X813358D01*
X810841Y434362D02*
X812859D01*
X810899Y444262D02*
X812802D01*
X810904Y439762D02*
X812797D01*
X810958Y429862D02*
X812743D01*
X811250Y433462D02*
X812451D01*
X811282Y443362D02*
X812419D01*
X811285Y440662D02*
X812416D01*
X811314Y430762D02*
X812387D01*
X811451Y432562D02*
X812250D01*
X811462Y442462D02*
X812239D01*
X811463Y441562D02*
X812238D01*
X811471Y431662D02*
X812229D01*
X787674Y514462D02*
X806814D01*
X689387Y528862D02*
X806676D01*
X787882Y623362D02*
X806607D01*
X788256Y400162D02*
X806232D01*
X788274Y548662D02*
X806214D01*
X788511Y410962D02*
X805977D01*
X788703Y612562D02*
X805786D01*
X785933Y588262D02*
X805721D01*
X785607Y592762D02*
X805599D01*
X788944Y608062D02*
X805544D01*
X789072Y415462D02*
X805416D01*
X789184Y553162D02*
X805304D01*
X740774Y533362D02*
X805184D01*
X789322Y509962D02*
X805166D01*
X789411Y513562D02*
X805077D01*
X738603Y529762D02*
X805062D01*
X789436Y624262D02*
X805052D01*
X789515Y399262D02*
X804974D01*
X789519Y549562D02*
X804969D01*
X789589Y411862D02*
X804899D01*
X789653Y611662D02*
X804835D01*
X785933Y589162D02*
X804812D01*
X798903Y436162D02*
X804798D01*
X785852Y591862D02*
X804766D01*
X789743Y608962D02*
X804745D01*
X789793Y414562D02*
X804695D01*
X789838Y552262D02*
X804650D01*
X789840Y396562D02*
X804648D01*
X789881Y626962D02*
X804607D01*
X799094Y446062D02*
X804607D01*
X740655Y532462D02*
X804603D01*
X789892Y510862D02*
X804596D01*
X799110Y437962D02*
X804590D01*
X789927Y512662D02*
X804561D01*
X739718Y530662D02*
X804555D01*
X789937Y625162D02*
X804551D01*
X789967Y398362D02*
X804522D01*
X789968Y550462D02*
X804520D01*
X789993Y412762D02*
X804495D01*
X790014Y610762D02*
X804474D01*
X785933Y590062D02*
X804466D01*
X785933Y590962D02*
X804453D01*
X790041Y609862D02*
X804448D01*
X790053Y413662D02*
X804436D01*
X790061Y551362D02*
X804427D01*
X790061Y397462D02*
X804427D01*
X790066Y626062D02*
X804422D01*
X740325Y531562D02*
X804422D01*
X790067Y511762D02*
X804422D01*
X799281Y428062D02*
X804420D01*
X800149Y435262D02*
X803552D01*
X800245Y445162D02*
X803456D01*
X800253Y438862D02*
X803448D01*
X800343Y428962D02*
X803358D01*
X800841Y434362D02*
X802859D01*
X800899Y444262D02*
X802802D01*
X800904Y439762D02*
X802797D01*
X800958Y429862D02*
X802743D01*
X801250Y433462D02*
X802451D01*
X801282Y443362D02*
X802419D01*
X801285Y440662D02*
X802416D01*
X801314Y430762D02*
X802387D01*
X801451Y432562D02*
X802250D01*
X801462Y442462D02*
X802239D01*
X801463Y441562D02*
X802238D01*
X801471Y431662D02*
X802229D01*
X788903Y436162D02*
X794798D01*
X789094Y446062D02*
X794607D01*
X789110Y437962D02*
X794590D01*
X785171Y593662D02*
X794435D01*
X789281Y428062D02*
X794420D01*
X790149Y435262D02*
X793552D01*
X790245Y445162D02*
X793456D01*
X790253Y438862D02*
X793448D01*
X790343Y428962D02*
X793358D01*
X736720Y603562D02*
X793086D01*
X790841Y434362D02*
X792859D01*
X790899Y444262D02*
X792802D01*
X790904Y439762D02*
X792797D01*
X790958Y429862D02*
X792743D01*
X785049Y580162D02*
X792667D01*
X789998Y570262D02*
X792575D01*
X791250Y433462D02*
X792451D01*
X791282Y443362D02*
X792419D01*
X791285Y440662D02*
X792416D01*
X791314Y430762D02*
X792387D01*
X791451Y432562D02*
X792250D01*
X784478Y594562D02*
X792246D01*
X791462Y442462D02*
X792239D01*
X791463Y441562D02*
X792238D01*
X791471Y431662D02*
X792229D01*
X736571Y602662D02*
X791737D01*
X783333Y595462D02*
X791272D01*
X784285Y579262D02*
X791010D01*
X790050Y571162D02*
X790972D01*
X736038Y601762D02*
X790959D01*
X738328Y596362D02*
X790665D01*
X604831Y600862D02*
X790467D01*
X604831Y597262D02*
X790288D01*
X604831Y599962D02*
X790178D01*
X782973Y578362D02*
X790135D01*
X789783Y572062D02*
X790112D01*
X604831Y598162D02*
X790093D01*
X604831Y599062D02*
X790057D01*
X703127Y577462D02*
X789584D01*
X789048Y572962D02*
X789569D01*
X702324Y576562D02*
X789249D01*
X604831Y573862D02*
X789240D01*
X604831Y575662D02*
X789088D01*
X604831Y574762D02*
X789085D01*
X767989Y514462D02*
X787129D01*
X768197Y623362D02*
X786922D01*
X768523Y526162D02*
X786595D01*
X768571Y400162D02*
X786547D01*
X768589Y548662D02*
X786529D01*
X768826Y410962D02*
X786292D01*
X768868Y568462D02*
X786250D01*
X769018Y612562D02*
X786100D01*
X769222Y498262D02*
X785896D01*
X769259Y608062D02*
X785859D01*
X769363Y572962D02*
X785755D01*
X769387Y415462D02*
X785731D01*
X769499Y553162D02*
X785619D01*
X769523Y521662D02*
X785595D01*
X769637Y509962D02*
X785481D01*
X769726Y513562D02*
X785392D01*
X769751Y624262D02*
X785367D01*
X769817Y525262D02*
X785301D01*
X769830Y399262D02*
X785289D01*
X769834Y549562D02*
X785284D01*
X769904Y411862D02*
X785214D01*
X769917Y569362D02*
X785201D01*
X769968Y611662D02*
X785150D01*
X770044Y497362D02*
X785074D01*
X770058Y608962D02*
X785060D01*
X770098Y572062D02*
X785020D01*
X770108Y414562D02*
X785010D01*
X770153Y552262D02*
X784965D01*
X770155Y396562D02*
X784963D01*
X770162Y522562D02*
X784956D01*
X770196Y626962D02*
X784922D01*
X770207Y510862D02*
X784911D01*
X770242Y512662D02*
X784876D01*
X770252Y625162D02*
X784866D01*
X770277Y524362D02*
X784841D01*
X770282Y398362D02*
X784837D01*
X770283Y550462D02*
X784835D01*
X770308Y412762D02*
X784810D01*
X770313Y570262D02*
X784805D01*
X778903Y436162D02*
X784798D01*
X770329Y610762D02*
X784789D01*
X770334Y495562D02*
X784784D01*
X770352Y496462D02*
X784766D01*
X770356Y609862D02*
X784763D01*
X770365Y571162D02*
X784753D01*
X770368Y413662D02*
X784751D01*
X770376Y551362D02*
X784742D01*
X770376Y397462D02*
X784742D01*
X770377Y523462D02*
X784741D01*
X770381Y626062D02*
X784737D01*
X770381Y511762D02*
X784737D01*
X779094Y446062D02*
X784607D01*
X779110Y437962D02*
X784590D01*
X779281Y428062D02*
X784420D01*
X780149Y435262D02*
X783552D01*
X780245Y445162D02*
X783456D01*
X780253Y438862D02*
X783448D01*
X780343Y428962D02*
X783358D01*
X780841Y434362D02*
X782859D01*
X780899Y444262D02*
X782802D01*
X780904Y439762D02*
X782797D01*
X780958Y429862D02*
X782743D01*
X781250Y433462D02*
X782451D01*
X781282Y443362D02*
X782419D01*
X781285Y440662D02*
X782416D01*
X781314Y430762D02*
X782387D01*
X781451Y432562D02*
X782250D01*
X781462Y442462D02*
X782239D01*
X781463Y441562D02*
X782238D01*
X781471Y431662D02*
X782229D01*
X669976Y453262D02*
X778469D01*
X703426Y578362D02*
X778445D01*
X739588Y595462D02*
X778085D01*
X604831Y457762D02*
X777829D01*
X668552Y454162D02*
X777356D01*
X703401Y579262D02*
X777132D01*
X604831Y456862D02*
X777125D01*
X631257Y455062D02*
X776942D01*
X740251Y594562D02*
X776939D01*
X604831Y455962D02*
X776874D01*
X703042Y580162D02*
X776369D01*
X740619Y593662D02*
X776247D01*
X702095Y581062D02*
X775886D01*
X769205Y592762D02*
X775811D01*
X604831Y581962D02*
X775603D01*
X770037Y591862D02*
X775565D01*
X604831Y582862D02*
X775488D01*
X770350Y590962D02*
X775484D01*
X770337Y590062D02*
X775484D01*
X769992Y589162D02*
X775484D01*
X769083Y588262D02*
X775484D01*
X604831Y587362D02*
X775484D01*
X604831Y586462D02*
X775484D01*
X604831Y585562D02*
X775484D01*
X604831Y584662D02*
X775484D01*
X604831Y583762D02*
X775484D01*
X718640Y436162D02*
X774798D01*
X721309Y446062D02*
X774607D01*
X721579Y437962D02*
X774590D01*
X719771Y428062D02*
X774420D01*
X720139Y435262D02*
X773552D01*
X721681Y445162D02*
X773456D01*
X721681Y438862D02*
X773448D01*
X720702Y428962D02*
X773358D01*
X720915Y434362D02*
X772859D01*
X721681Y444262D02*
X772802D01*
X721681Y439762D02*
X772797D01*
X721252Y429862D02*
X772743D01*
X721377Y433462D02*
X772451D01*
X721681Y443362D02*
X772419D01*
X721681Y440662D02*
X772416D01*
X721561Y430762D02*
X772387D01*
X721620Y432562D02*
X772250D01*
X721681Y442462D02*
X772239D01*
X721681Y441562D02*
X772238D01*
X721679Y431662D02*
X772229D01*
X672546Y514462D02*
X767444D01*
X709141Y623362D02*
X767236D01*
X604831Y526162D02*
X766910D01*
X729201Y400162D02*
X766862D01*
X720997Y548662D02*
X766844D01*
X749141Y410962D02*
X766607D01*
X739834Y568462D02*
X766565D01*
X741534Y612562D02*
X766415D01*
X720341Y588262D02*
X766351D01*
X740769Y592762D02*
X766228D01*
X760102Y498262D02*
X766211D01*
X704673Y608062D02*
X766174D01*
X720045Y572962D02*
X766070D01*
X749702Y415462D02*
X766046D01*
X671074Y553162D02*
X765934D01*
X604831Y521662D02*
X765910D01*
X651526Y509962D02*
X765796D01*
X672422Y513562D02*
X765707D01*
X710696Y624262D02*
X765682D01*
X604831Y525262D02*
X765616D01*
X730459Y399262D02*
X765604D01*
X721169Y549562D02*
X765599D01*
X750219Y411862D02*
X765529D01*
X739829Y569362D02*
X765516D01*
X741638Y611662D02*
X765465D01*
X739125Y589162D02*
X765442D01*
X740724Y591862D02*
X765396D01*
X759462Y497362D02*
X765389D01*
X704673Y608962D02*
X765375D01*
X721234Y572062D02*
X765335D01*
X750423Y414562D02*
X765325D01*
X718725Y552262D02*
X765280D01*
X730785Y396562D02*
X765278D01*
X604831Y522562D02*
X765271D01*
X711141Y626962D02*
X765237D01*
X652097Y510862D02*
X765226D01*
X671928Y512662D02*
X765191D01*
X711197Y625162D02*
X765181D01*
X604831Y524362D02*
X765156D01*
X730911Y398362D02*
X765152D01*
X721028Y550462D02*
X765150D01*
X750623Y412762D02*
X765125D01*
X739494Y570262D02*
X765120D01*
X741427Y610762D02*
X765104D01*
X757211Y495562D02*
X765099D01*
X739991Y590062D02*
X765096D01*
X740479Y590962D02*
X765083D01*
X758565Y496462D02*
X765081D01*
X740795Y609862D02*
X765077D01*
X738610Y571162D02*
X765068D01*
X750682Y413662D02*
X765066D01*
X720509Y551362D02*
X765057D01*
X731006Y397462D02*
X765057D01*
X604831Y523462D02*
X765056D01*
X711326Y626062D02*
X765052D01*
X670434Y511762D02*
X765052D01*
X727567Y509062D02*
X752748D01*
X729652Y495562D02*
X750663D01*
X730035Y508162D02*
X750280D01*
X731006Y496462D02*
X749309D01*
X731247Y507262D02*
X749067D01*
X731903Y497362D02*
X748412D01*
X732073Y506362D02*
X748242D01*
X732543Y498262D02*
X747772D01*
X732665Y505462D02*
X747650D01*
X733001Y499162D02*
X747314D01*
X733087Y504562D02*
X747228D01*
X733314Y500062D02*
X747001D01*
X733369Y503662D02*
X746946D01*
X729456Y410962D02*
X746922D01*
X733500Y500962D02*
X746815D01*
X733527Y502762D02*
X746788D01*
X733570Y501862D02*
X746745D01*
X730017Y415462D02*
X746361D01*
X730534Y411862D02*
X745844D01*
X730738Y414562D02*
X745640D01*
X730938Y412762D02*
X745440D01*
X730997Y413662D02*
X745381D01*
X720429Y547762D02*
X740183D01*
X604831Y543262D02*
X739395D01*
X702400Y546862D02*
X739000D01*
X701448Y544162D02*
X738720D01*
X702452Y545962D02*
X738566D01*
X702184Y545062D02*
X738485D01*
X604831Y614362D02*
X738205D01*
X704673Y609862D02*
X737158D01*
X704115Y613462D02*
X736884D01*
X704673Y610762D02*
X736526D01*
X704663Y612562D02*
X736419D01*
X704673Y611662D02*
X736315D01*
X721669Y571162D02*
X735799D01*
X704469Y566662D02*
X735753D01*
X721752Y570262D02*
X734915D01*
X704621Y567562D02*
X734898D01*
X728328Y596362D02*
X734743D01*
X721518Y569362D02*
X734580D01*
X720845Y568462D02*
X734575D01*
X728603Y529762D02*
X734468D01*
X728932Y536962D02*
X734139D01*
X729125Y589162D02*
X733945D01*
X729588Y595462D02*
X733483D01*
X729718Y530662D02*
X733353D01*
X729887Y536062D02*
X733184D01*
X729991Y590062D02*
X733080D01*
X730251Y594562D02*
X732820D01*
X730325Y531562D02*
X732746D01*
X730421Y535162D02*
X732650D01*
X730479Y590962D02*
X732592D01*
X730619Y593662D02*
X732452D01*
X730655Y532462D02*
X732415D01*
X730700Y534262D02*
X732371D01*
X730724Y591862D02*
X732346D01*
X730769Y592762D02*
X732302D01*
X730774Y533362D02*
X732296D01*
X704626Y605362D02*
X732107D01*
X604831Y601762D02*
X732072D01*
X703709Y604462D02*
X731553D01*
X604831Y602662D02*
X731539D01*
X604831Y603562D02*
X731390D01*
X709516Y400162D02*
X727492D01*
X709771Y410962D02*
X727237D01*
X710332Y415462D02*
X726676D01*
X710774Y399262D02*
X726233D01*
X710849Y411862D02*
X726159D01*
X711053Y414562D02*
X725955D01*
X711100Y396562D02*
X725908D01*
X711226Y398362D02*
X725781D01*
X711253Y412762D02*
X725755D01*
X711312Y413662D02*
X725695D01*
X711321Y397462D02*
X725687D01*
X604831Y509062D02*
X725189D01*
X720770Y596362D02*
X724743D01*
X720848Y529762D02*
X724468D01*
X720924Y536962D02*
X724139D01*
X720956Y589162D02*
X723945D01*
X720972Y595462D02*
X723483D01*
X720972Y530662D02*
X723353D01*
X720972Y536062D02*
X723184D01*
X671576Y495562D02*
X723104D01*
X720972Y590062D02*
X723080D01*
X720972Y594562D02*
X722820D01*
X720972Y531562D02*
X722746D01*
X677402Y508162D02*
X722721D01*
X720972Y535162D02*
X722650D01*
X720972Y590962D02*
X722592D01*
X720972Y593662D02*
X722452D01*
X720972Y532462D02*
X722415D01*
X720972Y534262D02*
X722371D01*
X720972Y591862D02*
X722346D01*
X720972Y592762D02*
X722302D01*
X720972Y533362D02*
X722296D01*
X672164Y496462D02*
X721750D01*
X678278Y507262D02*
X721508D01*
X672349Y497362D02*
X720853D01*
X678610Y506362D02*
X720683D01*
X672221Y498262D02*
X720213D01*
X678613Y505462D02*
X720091D01*
X671720Y499162D02*
X719755D01*
X678287Y504562D02*
X719669D01*
X670167Y500062D02*
X719442D01*
X677424Y503662D02*
X719387D01*
X604831Y500962D02*
X719256D01*
X604831Y502762D02*
X719229D01*
X604831Y501862D02*
X719186D01*
X671727Y552262D02*
X718283D01*
X714730Y572962D02*
X718144D01*
X715288Y561262D02*
X717586D01*
X715510Y565762D02*
X717364D01*
X715530Y568462D02*
X717344D01*
X715919Y572062D02*
X716955D01*
X716203Y569362D02*
X716671D01*
X716232Y562162D02*
X716642D01*
X702005Y547762D02*
X716579D01*
X716314Y564862D02*
X716560D01*
X716371Y571162D02*
X716503D01*
X671951Y551362D02*
X716499D01*
X700957Y548662D02*
X716011D01*
X671858Y550462D02*
X715980D01*
X671409Y549562D02*
X715839D01*
X708640Y436162D02*
X715454D01*
X709771Y428062D02*
X714323D01*
X710139Y435262D02*
X713955D01*
X710702Y428962D02*
X713392D01*
X710915Y434362D02*
X713179D01*
X604831Y537862D02*
X713071D01*
X711252Y429862D02*
X712843D01*
X670937Y572962D02*
X712829D01*
X708891Y446062D02*
X712785D01*
X650972Y588262D02*
X712730D01*
X711377Y433462D02*
X712718D01*
X604831Y561262D02*
X712665D01*
X711561Y430762D02*
X712534D01*
X709628Y437962D02*
X712515D01*
X711620Y432562D02*
X712475D01*
X704129Y565762D02*
X712443D01*
X711679Y431662D02*
X712416D01*
X710247Y445162D02*
X712413D01*
X710980Y444262D02*
X712413D01*
X711414Y443362D02*
X712413D01*
X711635Y442462D02*
X712413D01*
X711674Y441562D02*
X712413D01*
X711537Y440662D02*
X712413D01*
X711204Y439762D02*
X712413D01*
X710622Y438862D02*
X712413D01*
X604831Y596362D02*
X712301D01*
X691001Y529762D02*
X712223D01*
X604831Y536962D02*
X712146D01*
X651881Y589162D02*
X712115D01*
X604831Y595462D02*
X712098D01*
X604831Y594562D02*
X712098D01*
X604831Y593662D02*
X712098D01*
X651094Y592762D02*
X712098D01*
X651927Y591862D02*
X712098D01*
X652240Y590962D02*
X712098D01*
X652226Y590062D02*
X712098D01*
X604831Y536062D02*
X712098D01*
X604831Y535162D02*
X712098D01*
X604831Y534262D02*
X712098D01*
X690879Y533362D02*
X712098D01*
X691460Y532462D02*
X712098D01*
X691641Y531562D02*
X712098D01*
X691508Y530662D02*
X712098D01*
X704603Y568462D02*
X712029D01*
X604831Y562162D02*
X711721D01*
X702277Y572062D02*
X711640D01*
X703549Y564862D02*
X711638D01*
X604831Y563062D02*
X711362D01*
X704411Y569362D02*
X711356D01*
X702583Y563962D02*
X711338D01*
X703378Y571162D02*
X711205D01*
X704024Y570262D02*
X711122D01*
X689456Y623362D02*
X708181D01*
X689831Y400162D02*
X707807D01*
X690086Y410962D02*
X707552D01*
X690647Y415462D02*
X706991D01*
X691011Y624262D02*
X706627D01*
X691089Y399262D02*
X706548D01*
X691164Y411862D02*
X706474D01*
X691368Y414562D02*
X706270D01*
X691415Y396562D02*
X706223D01*
X691456Y626962D02*
X706182D01*
X691512Y625162D02*
X706126D01*
X691541Y398362D02*
X706096D01*
X691568Y412762D02*
X706070D01*
X691627Y413662D02*
X706010D01*
X691636Y397462D02*
X706002D01*
X691641Y626062D02*
X705997D01*
X698640Y436162D02*
X705454D01*
X698891Y446062D02*
X705204D01*
X699628Y437962D02*
X704466D01*
X699771Y428062D02*
X704323D01*
X700139Y435262D02*
X703955D01*
X700247Y445162D02*
X703847D01*
X700622Y438862D02*
X703472D01*
X700702Y428962D02*
X703392D01*
X700915Y434362D02*
X703179D01*
X700980Y444262D02*
X703115D01*
X701204Y439762D02*
X702891D01*
X701252Y429862D02*
X702843D01*
X701377Y433462D02*
X702718D01*
X701414Y443362D02*
X702681D01*
X701537Y440662D02*
X702558D01*
X701561Y430762D02*
X702534D01*
X701620Y432562D02*
X702475D01*
X701635Y442462D02*
X702459D01*
X701674Y441562D02*
X702420D01*
X701679Y431662D02*
X702416D01*
X604831Y581062D02*
X699479D01*
X604831Y576562D02*
X699251D01*
X670164Y548662D02*
X698649D01*
X604831Y580162D02*
X698533D01*
X604831Y577462D02*
X698448D01*
X604831Y579262D02*
X698174D01*
X604831Y544162D02*
X698158D01*
X604831Y578362D02*
X698149D01*
X604831Y547762D02*
X697602D01*
X604831Y545062D02*
X697422D01*
X671673Y572062D02*
X697329D01*
X604831Y546862D02*
X697207D01*
X604831Y545962D02*
X697154D01*
X604831Y563962D02*
X697024D01*
X690656Y604462D02*
X696370D01*
X671940Y571162D02*
X696228D01*
X604831Y564862D02*
X696058D01*
X691470Y613462D02*
X695964D01*
X671887Y570262D02*
X695582D01*
X604831Y565762D02*
X695478D01*
X688640Y436162D02*
X695454D01*
X692839Y605362D02*
X695453D01*
X693068Y612562D02*
X695416D01*
X693870Y611662D02*
X695405D01*
X694347Y610762D02*
X695405D01*
X694602Y609862D02*
X695405D01*
X694672Y608962D02*
X695405D01*
X694566Y608062D02*
X695405D01*
X694269Y607162D02*
X695405D01*
X693737Y606262D02*
X695405D01*
X688891Y446062D02*
X695204D01*
X671492Y569362D02*
X695195D01*
X604831Y566662D02*
X695137D01*
X670443Y568462D02*
X695004D01*
X604831Y567562D02*
X694985D01*
X689628Y437962D02*
X694466D01*
X689771Y428062D02*
X694323D01*
X690139Y435262D02*
X693955D01*
X690247Y445162D02*
X693847D01*
X690622Y438862D02*
X693472D01*
X690702Y428962D02*
X693392D01*
X690915Y434362D02*
X693179D01*
X690980Y444262D02*
X693115D01*
X691204Y439762D02*
X692891D01*
X691252Y429862D02*
X692843D01*
X691377Y433462D02*
X692718D01*
X691414Y443362D02*
X692681D01*
X691537Y440662D02*
X692558D01*
X691561Y430762D02*
X692534D01*
X691620Y432562D02*
X692475D01*
X691635Y442462D02*
X692459D01*
X691674Y441562D02*
X692420D01*
X691679Y431662D02*
X692416D01*
X680656Y604462D02*
X689423D01*
X681470Y613462D02*
X688608D01*
X669702Y528862D02*
X688566D01*
X669771Y623362D02*
X688496D01*
X670146Y400162D02*
X688122D01*
X670401Y410962D02*
X687867D01*
X670962Y415462D02*
X687306D01*
X682839Y605362D02*
X687240D01*
X671194Y533362D02*
X687074D01*
X683068Y612562D02*
X687011D01*
X671316Y529762D02*
X686952D01*
X671326Y624262D02*
X686942D01*
X671404Y399262D02*
X686863D01*
X671478Y411862D02*
X686789D01*
X671683Y414562D02*
X686585D01*
X671730Y396562D02*
X686538D01*
X671771Y626962D02*
X686497D01*
X671775Y532462D02*
X686492D01*
X671823Y530662D02*
X686445D01*
X671827Y625162D02*
X686441D01*
X671856Y398362D02*
X686411D01*
X671883Y412762D02*
X686385D01*
X683737Y606262D02*
X686342D01*
X671942Y413662D02*
X686325D01*
X671951Y397462D02*
X686317D01*
X671956Y626062D02*
X686312D01*
X671956Y531562D02*
X686312D01*
X683870Y611662D02*
X686209D01*
X684269Y607162D02*
X685810D01*
X684347Y610762D02*
X685731D01*
X684566Y608062D02*
X685513D01*
X684602Y609862D02*
X685476D01*
X678640Y436162D02*
X685454D01*
X684672Y608962D02*
X685406D01*
X678891Y446062D02*
X685204D01*
X604831Y458662D02*
X684536D01*
X679628Y437962D02*
X684466D01*
X679771Y428062D02*
X684323D01*
X670151Y494662D02*
X684102D01*
X680139Y435262D02*
X683955D01*
X604831Y459562D02*
X683848D01*
X680247Y445162D02*
X683847D01*
X671395Y493762D02*
X683759D01*
X671853Y492862D02*
X683752D01*
X671952Y491962D02*
X683752D01*
X671735Y491062D02*
X683752D01*
X671094Y490162D02*
X683752D01*
X604831Y489262D02*
X683752D01*
X604831Y488362D02*
X683752D01*
X604831Y487462D02*
X683752D01*
X604831Y486562D02*
X683752D01*
X604831Y485662D02*
X683752D01*
X604831Y484762D02*
X683752D01*
X604831Y483862D02*
X683752D01*
X604831Y482962D02*
X683752D01*
X604831Y482062D02*
X683752D01*
X604831Y481162D02*
X683752D01*
X604831Y480262D02*
X683752D01*
X604831Y479362D02*
X683752D01*
X604831Y478462D02*
X683752D01*
X604831Y477562D02*
X683752D01*
X604831Y476662D02*
X683752D01*
X604831Y475762D02*
X683752D01*
X670405Y474862D02*
X683752D01*
X671480Y473962D02*
X683752D01*
X671883Y473062D02*
X683752D01*
X671942Y472162D02*
X683752D01*
X671682Y471262D02*
X683752D01*
X670960Y470362D02*
X683752D01*
X604831Y469462D02*
X683752D01*
X604831Y468562D02*
X683752D01*
X604831Y467662D02*
X683752D01*
X604831Y466762D02*
X683752D01*
X604831Y465862D02*
X683752D01*
X604831Y464962D02*
X683752D01*
X604831Y464062D02*
X683752D01*
X604831Y463162D02*
X683752D01*
X604831Y462262D02*
X683752D01*
X604831Y461362D02*
X683752D01*
X604831Y460462D02*
X683752D01*
X680622Y438862D02*
X683472D01*
X680702Y428962D02*
X683392D01*
X680915Y434362D02*
X683179D01*
X680980Y444262D02*
X683115D01*
X681204Y439762D02*
X682891D01*
X681252Y429862D02*
X682843D01*
X681377Y433462D02*
X682718D01*
X681414Y443362D02*
X682681D01*
X681537Y440662D02*
X682558D01*
X681561Y430762D02*
X682534D01*
X681620Y432562D02*
X682475D01*
X681635Y442462D02*
X682459D01*
X681674Y441562D02*
X682420D01*
X681679Y431662D02*
X682416D01*
X670656Y604462D02*
X679423D01*
X671470Y613462D02*
X678608D01*
X672839Y605362D02*
X677240D01*
X673068Y612562D02*
X677011D01*
X673737Y606262D02*
X676342D01*
X673870Y611662D02*
X676209D01*
X674269Y607162D02*
X675810D01*
X674347Y610762D02*
X675731D01*
X674566Y608062D02*
X675513D01*
X674602Y609862D02*
X675476D01*
X668640Y436162D02*
X675454D01*
X674672Y608962D02*
X675406D01*
X668891Y446062D02*
X675204D01*
X665668Y508162D02*
X674566D01*
X665049Y503662D02*
X674544D01*
X669628Y437962D02*
X674466D01*
X669771Y428062D02*
X674323D01*
X670139Y435262D02*
X673955D01*
X670247Y445162D02*
X673847D01*
X666376Y507262D02*
X673690D01*
X666152Y504562D02*
X673682D01*
X670622Y438862D02*
X673472D01*
X670702Y428962D02*
X673392D01*
X666629Y506362D02*
X673358D01*
X666564Y505462D02*
X673356D01*
X670915Y434362D02*
X673179D01*
X670980Y444262D02*
X673115D01*
X671204Y439762D02*
X672891D01*
X671252Y429862D02*
X672843D01*
X671377Y433462D02*
X672718D01*
X671414Y443362D02*
X672681D01*
X671537Y440662D02*
X672558D01*
X671561Y430762D02*
X672534D01*
X671620Y432562D02*
X672475D01*
X671635Y442462D02*
X672459D01*
X671674Y441562D02*
X672420D01*
X671679Y431662D02*
X672416D01*
X604831Y604462D02*
X669423D01*
X652271Y511762D02*
X669330D01*
X604831Y500062D02*
X669204D01*
X650017Y528862D02*
X668881D01*
X650086Y623362D02*
X668811D01*
X604831Y613462D02*
X668608D01*
X650425Y494662D02*
X668473D01*
X650461Y400162D02*
X668437D01*
X650478Y548662D02*
X668419D01*
X650716Y410962D02*
X668182D01*
X650720Y474862D02*
X668178D01*
X650758Y568462D02*
X668140D01*
X604831Y516262D02*
X668005D01*
X652132Y512662D02*
X667835D01*
X604831Y495562D02*
X667794D01*
X604831Y499162D02*
X667650D01*
X651252Y572962D02*
X667645D01*
X651275Y470362D02*
X667623D01*
X651277Y415462D02*
X667620D01*
X651389Y553162D02*
X667509D01*
X651409Y490162D02*
X667489D01*
X604831Y515362D02*
X667408D01*
X651509Y533362D02*
X667389D01*
X651615Y513562D02*
X667342D01*
X632185Y454162D02*
X667274D01*
X651631Y529762D02*
X667267D01*
X651641Y624262D02*
X667257D01*
X604831Y605362D02*
X667240D01*
X649878Y514462D02*
X667218D01*
X604831Y496462D02*
X667206D01*
X651710Y493762D02*
X667187D01*
X651719Y399262D02*
X667178D01*
X651724Y549562D02*
X667174D01*
X604831Y498262D02*
X667149D01*
X651793Y411862D02*
X667104D01*
X651795Y473962D02*
X667103D01*
X651807Y569362D02*
X667091D01*
X604831Y497362D02*
X667021D01*
X650907Y612562D02*
X667011D01*
X651988Y572062D02*
X666910D01*
X651997Y471262D02*
X666901D01*
X651998Y414562D02*
X666900D01*
X652042Y552262D02*
X666855D01*
X652045Y396562D02*
X666853D01*
X652050Y491062D02*
X666847D01*
X652086Y626962D02*
X666812D01*
X652090Y532462D02*
X666807D01*
X652138Y530662D02*
X666760D01*
X652142Y625162D02*
X666756D01*
X652168Y492862D02*
X666730D01*
X652171Y398362D02*
X666726D01*
X652173Y550462D02*
X666725D01*
X652198Y412762D02*
X666700D01*
X652198Y473062D02*
X666699D01*
X652202Y570262D02*
X666695D01*
X652255Y571162D02*
X666642D01*
X652257Y472162D02*
X666641D01*
X652257Y413662D02*
X666640D01*
X652265Y551362D02*
X666632D01*
X652266Y397462D02*
X666632D01*
X652267Y491962D02*
X666631D01*
X652271Y626062D02*
X666627D01*
X652271Y531562D02*
X666627D01*
X604831Y606262D02*
X666342D01*
X651858Y611662D02*
X666209D01*
X604831Y449662D02*
X666057D01*
X632538Y453262D02*
X665850D01*
X604831Y607162D02*
X665810D01*
X652219Y610762D02*
X665731D01*
X651149Y608062D02*
X665513D01*
X652245Y609862D02*
X665476D01*
X658640Y436162D02*
X665454D01*
X631436Y450562D02*
X665448D01*
X651948Y608962D02*
X665406D01*
X632557Y452362D02*
X665367D01*
X632252Y451462D02*
X665250D01*
X658891Y446062D02*
X665204D01*
X659628Y437962D02*
X664466D01*
X659771Y428062D02*
X664323D01*
X660139Y435262D02*
X663955D01*
X660247Y445162D02*
X663847D01*
X660622Y438862D02*
X663472D01*
X660702Y428962D02*
X663392D01*
X660915Y434362D02*
X663179D01*
X660980Y444262D02*
X663115D01*
X604831Y503662D02*
X662903D01*
X661204Y439762D02*
X662891D01*
X661252Y429862D02*
X662843D01*
X661377Y433462D02*
X662718D01*
X661414Y443362D02*
X662681D01*
X661537Y440662D02*
X662558D01*
X661561Y430762D02*
X662534D01*
X661620Y432562D02*
X662475D01*
X661635Y442462D02*
X662459D01*
X661674Y441562D02*
X662420D01*
X661679Y431662D02*
X662416D01*
X604831Y508162D02*
X662285D01*
X604831Y504562D02*
X661801D01*
X604831Y507262D02*
X661577D01*
X604831Y505462D02*
X661389D01*
X604831Y506362D02*
X661324D01*
X648640Y436162D02*
X655454D01*
X648891Y446062D02*
X655204D01*
X649628Y437962D02*
X654466D01*
X649771Y428062D02*
X654323D01*
X650139Y435262D02*
X653955D01*
X650247Y445162D02*
X653847D01*
X650622Y438862D02*
X653472D01*
X650702Y428962D02*
X653392D01*
X650915Y434362D02*
X653179D01*
X650980Y444262D02*
X653115D01*
X651204Y439762D02*
X652891D01*
X651252Y429862D02*
X652843D01*
X651377Y433462D02*
X652718D01*
X651414Y443362D02*
X652681D01*
X651537Y440662D02*
X652558D01*
X651561Y430762D02*
X652534D01*
X651620Y432562D02*
X652475D01*
X651635Y442462D02*
X652459D01*
X651674Y441562D02*
X652420D01*
X651679Y431662D02*
X652416D01*
X630193Y514462D02*
X649334D01*
X630332Y528862D02*
X649196D01*
X630401Y623362D02*
X649126D01*
X630740Y494662D02*
X648787D01*
X630776Y400162D02*
X648752D01*
X630793Y548662D02*
X648734D01*
X631031Y410962D02*
X648497D01*
X631035Y474862D02*
X648493D01*
X631073Y568462D02*
X648455D01*
X631222Y612562D02*
X648305D01*
X631287Y588262D02*
X648240D01*
X631409Y592762D02*
X648118D01*
X631464Y608062D02*
X648064D01*
X631567Y572962D02*
X647960D01*
X631590Y470362D02*
X647938D01*
X631592Y415462D02*
X647935D01*
X631704Y553162D02*
X647823D01*
X631724Y490162D02*
X647804D01*
X631824Y533362D02*
X647703D01*
X631841Y509962D02*
X647686D01*
X631930Y513562D02*
X647597D01*
X631946Y529762D02*
X647582D01*
X631956Y624262D02*
X647572D01*
X632025Y493762D02*
X647502D01*
X632034Y399262D02*
X647493D01*
X632039Y549562D02*
X647489D01*
X632108Y411862D02*
X647419D01*
X632110Y473962D02*
X647418D01*
X632122Y569362D02*
X647406D01*
X632173Y611662D02*
X647355D01*
X632196Y589162D02*
X647331D01*
X632242Y591862D02*
X647286D01*
X632263Y608962D02*
X647265D01*
X632303Y572062D02*
X647224D01*
X632312Y471262D02*
X647216D01*
X632313Y414562D02*
X647215D01*
X632357Y552262D02*
X647170D01*
X632360Y396562D02*
X647167D01*
X632365Y491062D02*
X647162D01*
X632401Y626962D02*
X647127D01*
X632405Y532462D02*
X647122D01*
X632412Y510862D02*
X647115D01*
X632447Y512662D02*
X647081D01*
X632453Y530662D02*
X647075D01*
X632457Y625162D02*
X647071D01*
X632483Y492862D02*
X647045D01*
X632486Y398362D02*
X647041D01*
X632488Y550462D02*
X647040D01*
X632513Y412762D02*
X647015D01*
X632513Y473062D02*
X647014D01*
X632517Y570262D02*
X647010D01*
X632534Y610762D02*
X646993D01*
X632541Y590062D02*
X646986D01*
X632555Y590962D02*
X646973D01*
X632560Y609862D02*
X646967D01*
X632570Y571162D02*
X646957D01*
X632572Y472162D02*
X646956D01*
X632572Y413662D02*
X646955D01*
X632580Y551362D02*
X646947D01*
X632581Y397462D02*
X646947D01*
X632582Y491962D02*
X646946D01*
X632585Y626062D02*
X646942D01*
X632586Y531562D02*
X646942D01*
X632586Y511762D02*
X646941D01*
X638640Y436162D02*
X645454D01*
X638891Y446062D02*
X645204D01*
X639628Y437962D02*
X644466D01*
X639771Y428062D02*
X644323D01*
X640139Y435262D02*
X643955D01*
X640247Y445162D02*
X643847D01*
X640622Y438862D02*
X643472D01*
X640702Y428962D02*
X643392D01*
X640915Y434362D02*
X643179D01*
X640980Y444262D02*
X643115D01*
X641204Y439762D02*
X642891D01*
X641252Y429862D02*
X642843D01*
X641377Y433462D02*
X642718D01*
X641414Y443362D02*
X642681D01*
X641537Y440662D02*
X642558D01*
X641561Y430762D02*
X642534D01*
X641620Y432562D02*
X642475D01*
X641635Y442462D02*
X642459D01*
X641674Y441562D02*
X642420D01*
X641679Y431662D02*
X642416D01*
X628640Y436162D02*
X635454D01*
X628891Y446062D02*
X635204D01*
X629628Y437962D02*
X634466D01*
X629771Y428062D02*
X634323D01*
X630139Y435262D02*
X633955D01*
X630247Y445162D02*
X633847D01*
X630622Y438862D02*
X633472D01*
X630702Y428962D02*
X633392D01*
X630915Y434362D02*
X633179D01*
X630980Y444262D02*
X633115D01*
X631204Y439762D02*
X632891D01*
X631252Y429862D02*
X632843D01*
X631377Y433462D02*
X632718D01*
X631414Y443362D02*
X632681D01*
X631537Y440662D02*
X632558D01*
X631561Y430762D02*
X632534D01*
X631620Y432562D02*
X632475D01*
X631635Y442462D02*
X632459D01*
X631674Y441562D02*
X632420D01*
X631679Y431662D02*
X632416D01*
X610508Y514462D02*
X629649D01*
X610647Y528862D02*
X629511D01*
X604831Y623362D02*
X629441D01*
X604831Y494662D02*
X629102D01*
X611091Y400162D02*
X629067D01*
X604831Y548662D02*
X629049D01*
X611346Y410962D02*
X628812D01*
X611350Y474862D02*
X628808D01*
X611388Y568462D02*
X628769D01*
X604831Y612562D02*
X628620D01*
X611572Y455062D02*
X628586D01*
X611602Y588262D02*
X628555D01*
X611724Y592762D02*
X628433D01*
X611751Y450562D02*
X628407D01*
X604831Y608062D02*
X628379D01*
X611882Y572962D02*
X628275D01*
X611905Y470362D02*
X628253D01*
X611907Y415462D02*
X628250D01*
X604831Y553162D02*
X628138D01*
X604831Y490162D02*
X628119D01*
X612139Y533362D02*
X628018D01*
X612156Y509962D02*
X628001D01*
X612245Y513562D02*
X627912D01*
X612261Y529762D02*
X627897D01*
X604831Y624262D02*
X627887D01*
X604831Y493762D02*
X627817D01*
X612349Y399262D02*
X627808D01*
X604831Y549562D02*
X627804D01*
X612423Y411862D02*
X627734D01*
X612425Y473962D02*
X627733D01*
X612437Y569362D02*
X627721D01*
X604831Y611662D02*
X627670D01*
X612500Y454162D02*
X627657D01*
X612511Y589162D02*
X627646D01*
X612557Y591862D02*
X627601D01*
X612567Y451462D02*
X627591D01*
X604831Y608962D02*
X627580D01*
X612618Y572062D02*
X627539D01*
X612627Y471262D02*
X627531D01*
X612628Y414562D02*
X627530D01*
X604831Y552262D02*
X627485D01*
X612675Y396562D02*
X627482D01*
X604831Y491062D02*
X627477D01*
X604831Y626962D02*
X627442D01*
X612720Y532462D02*
X627437D01*
X612727Y510862D02*
X627430D01*
X612762Y512662D02*
X627396D01*
X612768Y530662D02*
X627390D01*
X604831Y625162D02*
X627386D01*
X604831Y492862D02*
X627360D01*
X612801Y398362D02*
X627356D01*
X604831Y550462D02*
X627355D01*
X612828Y412762D02*
X627330D01*
X612828Y473062D02*
X627329D01*
X612832Y570262D02*
X627325D01*
X604831Y610762D02*
X627308D01*
X612853Y453262D02*
X627304D01*
X612856Y590062D02*
X627301D01*
X612870Y590962D02*
X627288D01*
X612872Y452362D02*
X627285D01*
X604831Y609862D02*
X627282D01*
X612885Y571162D02*
X627272D01*
X612887Y472162D02*
X627270D01*
X612887Y413662D02*
X627270D01*
X604831Y551362D02*
X627262D01*
X612896Y397462D02*
X627262D01*
X604831Y491962D02*
X627261D01*
X604831Y626062D02*
X627257D01*
X612901Y531562D02*
X627257D01*
X612901Y511762D02*
X627256D01*
X604831Y436162D02*
X625454D01*
X604831Y446062D02*
X625204D01*
X604831Y437962D02*
X624466D01*
X604831Y428062D02*
X624323D01*
X611753Y435262D02*
X623955D01*
X604831Y445162D02*
X623847D01*
X604831Y438862D02*
X623472D01*
X604831Y428962D02*
X623392D01*
X612568Y434362D02*
X623179D01*
X604831Y444262D02*
X623115D01*
X604831Y439762D02*
X622891D01*
X604831Y429862D02*
X622843D01*
X612873Y433462D02*
X622718D01*
X604831Y443362D02*
X622681D01*
X604831Y440662D02*
X622558D01*
X611569Y430762D02*
X622534D01*
X612853Y432562D02*
X622475D01*
X604831Y442462D02*
X622459D01*
X604831Y441562D02*
X622420D01*
X612499Y431662D02*
X622416D01*
X604831Y514462D02*
X609964D01*
X604831Y528862D02*
X609826D01*
X604831Y400162D02*
X609382D01*
X604831Y410962D02*
X609126D01*
X604831Y474862D02*
X609122D01*
X604831Y568462D02*
X609084D01*
X604831Y430762D02*
X608904D01*
X604831Y455062D02*
X608901D01*
X604831Y588262D02*
X608870D01*
X604831Y592762D02*
X608748D01*
X604831Y450562D02*
X608722D01*
X604831Y435262D02*
X608719D01*
X604831Y572962D02*
X608590D01*
X604831Y470362D02*
X608568D01*
X604831Y415462D02*
X608565D01*
X604831Y533362D02*
X608333D01*
X604831Y509962D02*
X608316D01*
X604831Y513562D02*
X608227D01*
X604831Y529762D02*
X608212D01*
X604831Y399262D02*
X608123D01*
X604831Y411862D02*
X608049D01*
X604831Y473962D02*
X608048D01*
X604831Y569362D02*
X608035D01*
X604831Y431662D02*
X607973D01*
X604831Y454162D02*
X607972D01*
X604831Y589162D02*
X607961D01*
X604831Y591862D02*
X607916D01*
X604831Y451462D02*
X607906D01*
X604831Y434362D02*
X607905D01*
X604831Y572062D02*
X607854D01*
X604831Y471262D02*
X607846D01*
X604831Y414562D02*
X607845D01*
X604831Y396562D02*
X607797D01*
X604831Y532462D02*
X607752D01*
X604831Y510862D02*
X607745D01*
X604831Y512662D02*
X607710D01*
X604831Y530662D02*
X607705D01*
X604831Y398362D02*
X607671D01*
X604831Y412762D02*
X607645D01*
X604831Y473062D02*
X607644D01*
X604831Y570262D02*
X607640D01*
X604831Y432562D02*
X607620D01*
X604831Y453262D02*
X607619D01*
X604831Y590062D02*
X607616D01*
X604831Y590962D02*
X607603D01*
X604831Y452362D02*
X607600D01*
X604831Y433462D02*
X607600D01*
X604831Y571162D02*
X607587D01*
X604831Y472162D02*
X607585D01*
X604831Y413662D02*
X607585D01*
X604831Y397462D02*
X607577D01*
X604831Y531562D02*
X607572D01*
X604831Y511762D02*
X607571D01*
X393701Y393701D02*
X1102362D01*
Y629921*
X393701*
Y393701*
G54D88*
G54D131*
X1025703Y624061D02*
X1026613Y623151D01*
X1025703Y618065D02*
X1026613Y618975D01*
X1031699Y618065D02*
X1030789Y618975D01*
X1031699Y624061D02*
X1030789Y623151D01*
X723537Y595518D02*
X724448Y594608D01*
X723537Y589521D02*
X724448Y590432D01*
X729534Y589521D02*
X728623Y590432D01*
X729534Y595518D02*
X728623Y594608D01*
X717047Y446445D02*
Y445157D01*
X712413Y441811D02*
X717047D01*
Y437177D02*
Y438465D01*
X721681Y441811D02*
X717047D01*
X881496Y575799D02*
Y577087D01*
X886327Y580630D02*
X881496D01*
Y585461D02*
Y584173D01*
X876665Y580630D02*
X881496D01*
X1023268Y441909D02*
X1022358Y442819D01*
X863574Y428731D02*
X864484Y429642D01*
X870127Y428731D02*
X869217Y429642D01*
X870127Y435285D02*
X869217Y434374D01*
X863574Y435285D02*
X864484Y434374D01*
X866850Y446642D02*
Y445354D01*
X862217Y442008D02*
X866850D01*
Y437374D02*
Y438661D01*
X871484Y442008D02*
X866850D01*
X915091Y560263D02*
X916001Y559353D01*
X915091Y553989D02*
X916001Y554899D01*
X921366Y553989D02*
X920455Y554899D01*
X921366Y560263D02*
X920455Y559353D01*
X713771Y428534D02*
X714681Y429445D01*
X720324Y428534D02*
X719414Y429445D01*
X720324Y435088D02*
X719414Y434177D01*
X713771Y435088D02*
X714681Y434177D01*
X915096Y440258D02*
X916001Y439353D01*
X915096Y433994D02*
X916001Y434899D01*
X921360Y433994D02*
X920455Y434899D01*
X921360Y440258D02*
X920455Y439353D01*
X915096Y430258D02*
X916001Y429353D01*
X915096Y423994D02*
X916001Y424899D01*
X921360Y423994D02*
X920455Y424899D01*
X921360Y430258D02*
X920455Y429353D01*
X1039281Y497942D02*
X1038376Y497037D01*
X1035522Y497942D02*
X1036427Y497037D01*
X1035522Y494184D02*
X1036427Y495089D01*
X1039281Y494184D02*
X1038376Y495089D01*
X1025895Y513887D02*
X1024990Y512982D01*
X1022137Y513887D02*
X1023041Y512982D01*
X1022137Y510129D02*
X1023041Y511034D01*
X1025895Y510129D02*
X1024990Y511034D01*
X1049911Y519596D02*
X1049006Y518691D01*
X1046152Y519596D02*
X1047057Y518691D01*
X1046152Y515837D02*
X1047057Y516742D01*
X1049911Y515837D02*
X1049006Y516742D01*
G54D132*
X1031496Y502953D02*
Y481890D01*
X1059843Y453543*
G54D134*
X444803Y419291D03*
G54D144*
X1020827Y449350D03*
G54D151*
X551181Y397638D03*
X531496D03*
X590551D03*
X570866D03*
X629921D03*
X610236D03*
X688976D03*
X669291D03*
X649606D03*
X708661D03*
X728346D03*
X767717D03*
X787402D03*
X807087D03*
X826772D03*
X846457D03*
X866142D03*
X885827D03*
X905512D03*
X944882D03*
X1066929D03*
X1082677D03*
X551181Y433071D03*
Y413386D03*
X531496Y433071D03*
Y413386D03*
X590551Y433071D03*
Y413386D03*
X570866D03*
Y433071D03*
X629921Y413386D03*
X610236D03*
Y433071D03*
X688976Y413386D03*
X669291D03*
X649606D03*
X728346D03*
X708661D03*
X767717D03*
X748031D03*
X807087D03*
X787402D03*
X846457D03*
X826772D03*
X885827D03*
X866142D03*
X905512D03*
X944882D03*
Y433071D03*
X964567D03*
X996260Y401772D03*
X1006102D03*
X984252Y433071D03*
X1039370Y414961D03*
Y423031D03*
X1023819Y401575D03*
X1033661D03*
X1039370Y409449D03*
X1011811Y405512D03*
Y425197D03*
X1066929D03*
X1082677D03*
X1094488Y421260D03*
X551181Y472441D03*
Y452756D03*
X531496Y472441D03*
Y456693D03*
X590551Y472441D03*
Y452756D03*
X570866D03*
Y472441D03*
X629921D03*
Y452756D03*
X610236D03*
Y472441D03*
X687008Y473425D03*
Y451772D03*
X669291Y472441D03*
X649606D03*
X667913Y451575D03*
X711614Y473425D03*
X704724D03*
X694882D03*
X696850Y451772D03*
X767717Y472441D03*
X779528Y455709D03*
X797244Y461811D03*
X826772Y472441D03*
X846457D03*
X885827Y476378D03*
X905512D03*
X963583Y469488D03*
X953937Y466142D03*
X959646Y457087D03*
X964567Y448819D03*
X1005906Y455315D03*
X1000787Y455512D03*
X982087Y470079D03*
X984843Y473425D03*
X979528Y466732D03*
X976969Y463583D03*
X984252Y452756D03*
X976378Y440945D03*
X1005709Y439370D03*
X1006890Y475984D03*
X1015748Y455315D03*
X1020866D03*
X1024409Y458071D03*
X1016339Y476772D03*
X1020866Y475000D03*
Y439370D03*
X1039370Y464567D03*
Y452756D03*
X1059843Y453543D03*
X1057283Y464567D03*
Y471457D03*
X1066929Y440945D03*
X1082677D03*
X1062992Y448819D03*
X1078346Y478543D03*
X1050197Y457677D03*
X1061024Y474409D03*
X1072441Y466535D03*
X1098425Y454724D03*
X551181Y511811D03*
Y492126D03*
X531496Y511811D03*
Y492126D03*
X590551Y511811D03*
X570866Y492126D03*
Y511811D03*
X629921D03*
Y492126D03*
X610236Y511811D03*
X687008Y480315D03*
Y486220D03*
X669291Y492126D03*
X649606D03*
Y511811D03*
X669685Y497441D03*
X669882Y514370D03*
X675984Y505906D03*
X663976Y506102D03*
X704724Y480315D03*
X694882Y486220D03*
Y480315D03*
X711614D03*
X704724Y486220D03*
X767717Y511811D03*
Y496063D03*
X787402Y511811D03*
Y496063D03*
X807087Y511811D03*
X826772Y496063D03*
X846457D03*
X866142D03*
X885827D03*
X905512D03*
X968504Y492126D03*
Y515748D03*
X937008Y492126D03*
X1007874Y506102D03*
X996457Y510827D03*
X980315Y500000D03*
Y511811D03*
X987008Y514764D03*
X1031496Y502953D03*
X1009843Y493898D03*
X1010827Y483465D03*
X1014370Y480118D03*
X1016732Y500984D03*
X1014764Y497441D03*
X1037402Y496063D03*
X1024016Y512008D03*
X1048031Y517717D03*
X1031496Y508858D03*
X1030709Y515748D03*
X1022638Y488189D03*
X1035039Y484055D03*
X1047244Y492126D03*
X1046457Y506890D03*
X1051181Y484252D03*
X1060827Y482283D03*
X1066339Y494094D03*
Y509646D03*
X1096654Y503937D03*
X1096457Y487992D03*
X1098425Y483268D03*
X551181Y551181D03*
Y531496D03*
X531496Y551181D03*
Y531496D03*
X590551D03*
X570866D03*
Y551181D03*
X629921D03*
Y531496D03*
X610236D03*
X688976D03*
X669291Y551181D03*
Y531496D03*
X649606D03*
Y551181D03*
X699803Y546260D03*
X718504Y549606D03*
X767717Y523622D03*
Y551181D03*
X741142Y545276D03*
X787402Y551181D03*
Y523622D03*
X807087Y531496D03*
Y551181D03*
X826772D03*
Y531496D03*
X846457Y551181D03*
Y539370D03*
X866142Y551181D03*
X885827D03*
X866142Y539370D03*
X968307Y530512D03*
X937008Y527559D03*
X952559Y539961D03*
X960630Y536417D03*
X968504Y553543D03*
X968307Y536417D03*
X938976Y549213D03*
Y554921D03*
X952756Y545079D03*
X1006299Y542323D03*
X1009055Y536417D03*
X1006102Y546260D03*
X1002559D03*
X999803Y549016D03*
X993701Y550984D03*
X990157Y533071D03*
X973425Y524606D03*
X1000000Y535433D03*
X981102Y550984D03*
X987205Y520669D03*
X979528Y547244D03*
X972441Y546457D03*
X1016339Y552953D03*
X1012205Y553346D03*
X1037008Y555118D03*
X1026575Y554134D03*
Y539567D03*
X1036811Y538386D03*
X1012205Y549803D03*
X1030709Y521654D03*
X1042323D03*
X1023622Y551181D03*
X1025394Y533465D03*
X1048228Y557087D03*
X1036417Y521654D03*
X1061417Y553740D03*
X1066339Y541339D03*
Y525591D03*
X1052165Y527559D03*
X1096457Y535236D03*
Y519488D03*
X1098425Y551181D03*
X551181Y590551D03*
Y570866D03*
X531496Y590551D03*
Y570866D03*
X590551Y590551D03*
Y570866D03*
X570866D03*
Y590551D03*
X629921D03*
Y570866D03*
X610236D03*
Y590551D03*
X669291Y570866D03*
X649606D03*
Y590551D03*
X700787Y578740D03*
X718898Y563583D03*
X713976D03*
X713780Y570472D03*
X719094D03*
X767717Y570866D03*
Y590551D03*
X737205Y568898D03*
X787402Y570866D03*
X807087Y590551D03*
X826772D03*
Y570866D03*
X846457D03*
Y590551D03*
X866142Y570866D03*
X885827D03*
X944882Y598425D03*
X956890Y559055D03*
X969488Y577165D03*
X939567Y576969D03*
X938976Y562795D03*
X994882Y563976D03*
X991339D03*
X998228Y562795D03*
X1005906Y561614D03*
X998031Y578740D03*
X1001575D03*
X988189Y582874D03*
X975394Y577165D03*
X977953Y559646D03*
X981693Y565354D03*
X977953Y569291D03*
X975394Y580512D03*
X981890Y573228D03*
X986024Y568701D03*
X1001969Y582677D03*
X988189Y588583D03*
X1021063Y589567D03*
X1017717Y568504D03*
X1010827Y561614D03*
X1046457Y598425D03*
X1040354Y576969D03*
X1011614Y578543D03*
X1031496Y574803D03*
X1026575Y565157D03*
X1047047Y582480D03*
X1048228Y590551D03*
X1044488Y566929D03*
X1051181Y570669D03*
X1054134Y577165D03*
X1062205Y590551D03*
X1084055Y581102D03*
X1069882Y579724D03*
X1098425Y588583D03*
Y561024D03*
X551181Y625984D03*
Y610236D03*
X531496D03*
Y625984D03*
X570866Y610236D03*
Y625984D03*
X629921D03*
Y610236D03*
X688976Y625984D03*
X669291D03*
X649606Y610236D03*
Y625984D03*
X708661D03*
X767717Y610236D03*
Y625984D03*
X734055Y603543D03*
X738976Y611811D03*
X787402Y625984D03*
Y610236D03*
X807087D03*
Y625984D03*
X826772D03*
Y610236D03*
X846457Y625984D03*
X866142D03*
X885827Y610236D03*
X866142D03*
X885827Y625984D03*
X905512Y610236D03*
Y625984D03*
X925197D03*
Y610236D03*
X944882D03*
Y625984D03*
X998031Y601575D03*
X996063Y606299D03*
X980315Y618110D03*
X992126Y598819D03*
X1014370Y599016D03*
X1021260Y603937D03*
X1028740Y611220D03*
X1055118Y600394D03*
X1070866Y614173D03*
X1086614D03*
X1068898Y603543D03*
X1088386D03*
G54D153*
X1049902Y492126D02*
G03X1049902I-2658J0D01*
G01X1049114Y506890D02*
G03X1049114I-2657J0D01*
G01X1050689Y517717D02*
G03X1050689I-2658J0D01*
G01X1040059Y496063D02*
G03X1040059I-2657J0D01*
G01X1034154Y508858D02*
G03X1034154I-2658J0D01*
G01X1026673Y512008D02*
G03X1026673I-2657J0D01*
G01X849114Y472441D02*
G03X849114I-2657J0D01*
G01X829429D02*
G03X829429I-2657J0D01*
G01X770374D02*
G03X770374I-2657J0D01*
G01X761122Y470472D02*
G03X761122I-7185J0D01*
G01X733563D02*
G03X733563I-7185J0D01*
G01X1057579Y487795D02*
Y524016D01*
G03X1057480Y524114I-99J-0*
G01X1049457*
G03X1049388Y524085I0J-98*
G01X1043511Y518209*
X1032128*
G03X1032078Y518026I0J-99*
G01X1029340D02*
G03X1032078I1369J-2278D01*
G01X1029340D02*
G03X1029289Y518209I-51J84D01*
G01X1016339*
G03X1016240Y518110I-0J-99*
G01Y505512*
G03X1016339Y505413I99J-0*
G01X1030473*
G03X1030510Y505420I0J99*
G01X1032482D02*
G03X1030510I-986J-2467D01*
G01X1032482D02*
G03X1032519Y505413I37J92D01*
G01X1033957*
Y503976*
G03X1033964Y503939I98J-0*
G01Y501966D02*
G03Y503939I-2468J987D01*
G01Y501966D02*
G03X1033957Y501930I91J-36D01*
G01Y487795*
G03X1034055Y487697I98J0*
G01X1057480*
G03X1057579Y487795I0J98*
G01X922736Y428153D02*
Y436098D01*
G03X922542Y436121I-98J0*
G01X916605Y441247D02*
G03X922542Y436121I1623J-4121D01*
G01X916605Y441247D02*
G03X916569Y441437I-36J92D01*
G01X911213*
X859077Y493574*
G03X859007Y493602I-70J-70*
G01X847480*
G03X847443Y493595I-0J-98*
G01X845470D02*
G03X847443I987J2468D01*
G01X845470D02*
G03X845434Y493602I-36J-91D01*
G01X827795*
G03X827758Y493595I-0J-98*
G01X825785D02*
G03X827758I987J2468D01*
G01X825785D02*
G03X825749Y493602I-36J-91D01*
G01X788424*
G03X788388Y493595I0J-98*
G01X786415D02*
G03X788388I987J2468D01*
G01X786415D02*
G03X786379Y493602I-36J-91D01*
G01X768739*
G03X768703Y493595I0J-98*
G01X766730D02*
G03X768703I987J2468D01*
G01X766730D02*
G03X766694Y493602I-36J-91D01*
G01X685630*
G03X685531Y493504I-0J-98*
G01Y460236*
G03X685630Y460138I99J0*
G01X794982*
G03X795063Y460292I0J98*
G01X799425D02*
G03X795063I-2181J1519D01*
G01X799425D02*
G03X799506Y460138I81J-56D01*
G01X862409*
X902734Y419812*
G03X902804Y419783I70J70*
G01X922638*
G03X922736Y419882I-0J99*
G01Y426098*
G03X922542Y426121I-98J0*
G01Y428131D02*
G03Y426121I-4314J-1005D01*
G01Y428131D02*
G03X922736Y428153I96J22D01*
G01Y438153D02*
Y441339D01*
G03X922638Y441437I-98J-0*
G01X919888*
G03X919851Y441247I-0J-98*
G01X922542Y438131D02*
G03X919851Y441247I-4314J-1005D01*
G01X922542Y438131D02*
G03X922736Y438153I96J22D01*
G01X1049902Y492126D02*
G03X1049902I-2658J0D01*
G01X1049114Y506890D02*
G03X1049114I-2657J0D01*
G01X1050689Y517717D02*
G03X1050689I-2658J0D01*
G01X1040059Y496063D02*
G03X1040059I-2657J0D01*
G01X1034154Y508858D02*
G03X1034154I-2658J0D01*
G01X1026673Y512008D02*
G03X1026673I-2657J0D01*
G01X849114Y472441D02*
G03X849114I-2657J0D01*
G01X829429D02*
G03X829429I-2657J0D01*
G01X770374D02*
G03X770374I-2657J0D01*
G01X761122Y470472D02*
G03X761122I-7185J0D01*
G01X733563D02*
G03X733563I-7185J0D01*
G01X1049317Y524014D02*
X1057579D01*
X1048431Y523129D02*
X1057579D01*
X1047545Y522243D02*
X1057579D01*
X1046659Y521357D02*
X1057579D01*
X1045773Y520471D02*
X1057579D01*
X1049921Y519585D02*
X1057579D01*
X1050501Y518699D02*
X1057579D01*
X1050687Y517814D02*
X1057579D01*
X1050569Y516928D02*
X1057579D01*
X1050095Y516042D02*
X1057579D01*
X1048743Y515156D02*
X1057579D01*
X1032917Y514270D02*
X1057579D01*
X1031924Y513385D02*
X1057579D01*
X1026628Y512499D02*
X1057579D01*
X1026644Y511613D02*
X1057579D01*
X1033386Y510727D02*
X1057579D01*
X1033965Y509841D02*
X1057579D01*
X1048129Y508955D02*
X1057579D01*
X1048838Y508070D02*
X1057579D01*
X1049098Y507184D02*
X1057579D01*
X1049047Y506298D02*
X1057579D01*
X1048665Y505412D02*
X1057579D01*
X1047672Y504526D02*
X1057579D01*
X1034063Y503640D02*
X1057579D01*
X1034146Y502755D02*
X1057579D01*
X1033957Y501869D02*
X1057579D01*
X1033957Y500983D02*
X1057579D01*
X1033957Y500097D02*
X1057579D01*
X1033957Y499211D02*
X1057579D01*
X1038796Y498325D02*
X1057579D01*
X1039675Y497440D02*
X1057579D01*
X1040013Y496554D02*
X1057579D01*
X1040030Y495668D02*
X1057579D01*
X1047328Y494782D02*
X1057579D01*
X1049226Y493896D02*
X1057579D01*
X1049750Y493010D02*
X1057579D01*
X1049902Y492125D02*
X1057579D01*
X1049749Y491239D02*
X1057579D01*
X1049224Y490353D02*
X1057579D01*
X1033957Y489467D02*
X1057579D01*
X1033957Y488581D02*
X1057579D01*
X1033299Y515156D02*
X1047320D01*
X1039730Y494782D02*
X1047160D01*
X1044888Y519585D02*
X1046142D01*
X1033350Y516042D02*
X1045968D01*
X1044002Y518699D02*
X1045562D01*
X1033090Y516928D02*
X1045494D01*
X1032381Y517814D02*
X1045376D01*
X1033957Y490353D02*
X1045264D01*
X1038940Y493896D02*
X1045262D01*
X1033957Y504526D02*
X1045242D01*
X1034152Y508955D02*
X1044785D01*
X1033957Y491239D02*
X1044739D01*
X1033957Y493010D02*
X1044738D01*
X1033957Y492125D02*
X1044587D01*
X1033957Y505412D02*
X1044248D01*
X1034034Y508070D02*
X1044075D01*
X1032208Y506298D02*
X1043866D01*
X1033560Y507184D02*
X1043816D01*
X1033957Y498325D02*
X1036007D01*
X1033957Y493896D02*
X1035863D01*
X1033957Y497440D02*
X1035128D01*
X1033957Y494782D02*
X1035073D01*
X1033957Y496554D02*
X1034790D01*
X1033957Y495668D02*
X1034774D01*
X1016240Y506298D02*
X1030784D01*
X1026344Y510727D02*
X1029607D01*
X1026289Y513385D02*
X1029494D01*
X1016240Y507184D02*
X1029433D01*
X1016240Y517814D02*
X1029037D01*
X1025555Y509841D02*
X1029027D01*
X1016240Y508070D02*
X1028958D01*
X1016240Y508955D02*
X1028840D01*
X1025410Y514270D02*
X1028500D01*
X1016240Y516928D02*
X1028327D01*
X1016240Y515156D02*
X1028118D01*
X1016240Y516042D02*
X1028067D01*
X1016240Y514270D02*
X1022622D01*
X1016240Y509841D02*
X1022477D01*
X1016240Y513385D02*
X1021743D01*
X1016240Y510727D02*
X1021687D01*
X1016240Y512499D02*
X1021404D01*
X1016240Y511613D02*
X1021388D01*
X920298Y441042D02*
X922736D01*
X921459Y440156D02*
X922736D01*
X922104Y439270D02*
X922736D01*
X922475Y438385D02*
X922736D01*
X922431Y435727D02*
X922736D01*
X922023Y434841D02*
X922736D01*
X921321Y433955D02*
X922736D01*
X920007Y433070D02*
X922736D01*
X890363Y432184D02*
X922736D01*
X919716Y431298D02*
X922736D01*
X921198Y430412D02*
X922736D01*
X921951Y429526D02*
X922736D01*
X922391Y428640D02*
X922736D01*
X922507Y425983D02*
X922736D01*
X922165Y425097D02*
X922736D01*
X921563Y424211D02*
X922736D01*
X920503Y423325D02*
X922736D01*
X900107Y422440D02*
X922736D01*
X900993Y421554D02*
X922736D01*
X901878Y420668D02*
X922736D01*
X891248Y431298D02*
X916741D01*
X889477Y433070D02*
X916450D01*
X881504Y441042D02*
X916159D01*
X899221Y423325D02*
X915954D01*
X892134Y430412D02*
X915259D01*
X888591Y433955D02*
X915136D01*
X882390Y440156D02*
X914998D01*
X898335Y424211D02*
X914893D01*
X893020Y429526D02*
X914506D01*
X887705Y434841D02*
X914434D01*
X883276Y439270D02*
X914353D01*
X897449Y425097D02*
X914291D01*
X893906Y428640D02*
X914066D01*
X886819Y435727D02*
X914026D01*
X884162Y438385D02*
X913982D01*
X896563Y425983D02*
X913949D01*
X894792Y427755D02*
X913844D01*
X885934Y436613D02*
X913829D01*
X885048Y437499D02*
X913815D01*
X895678Y426869D02*
X913807D01*
X880619Y441928D02*
X910723D01*
X879733Y442814D02*
X909837D01*
X878847Y443699D02*
X908951D01*
X877961Y444585D02*
X908065D01*
X877075Y445471D02*
X907179D01*
X876189Y446357D02*
X906294D01*
X875304Y447243D02*
X905408D01*
X874418Y448129D02*
X904522D01*
X873532Y449014D02*
X903636D01*
X872646Y449900D02*
X902750D01*
X871760Y450786D02*
X901864D01*
X870874Y451672D02*
X900979D01*
X869989Y452558D02*
X900093D01*
X869103Y453444D02*
X899207D01*
X868217Y454329D02*
X898321D01*
X867331Y455215D02*
X897435D01*
X866445Y456101D02*
X896549D01*
X865559Y456987D02*
X895664D01*
X864674Y457873D02*
X894778D01*
X863788Y458759D02*
X893892D01*
X862902Y459644D02*
X893006D01*
X799573Y460530D02*
X892120D01*
X799872Y461416D02*
X891234D01*
X799856Y462302D02*
X890349D01*
X799517Y463188D02*
X889463D01*
X798638Y464073D02*
X888577D01*
X758545Y464959D02*
X887691D01*
X759434Y465845D02*
X886805D01*
X760071Y466731D02*
X885920D01*
X760530Y467617D02*
X885034D01*
X760847Y468503D02*
X884148D01*
X761040Y469388D02*
X883262D01*
X847995Y470274D02*
X882376D01*
X848785Y471160D02*
X881490D01*
X849085Y472046D02*
X880605D01*
X849068Y472932D02*
X879719D01*
X848730Y473818D02*
X878833D01*
X847851Y474703D02*
X877947D01*
X758981Y475589D02*
X877061D01*
X757886Y476475D02*
X876175D01*
X755980Y477361D02*
X875290D01*
X685531Y478247D02*
X874404D01*
X685531Y479133D02*
X873518D01*
X685531Y480018D02*
X872632D01*
X685531Y480904D02*
X871746D01*
X685531Y481790D02*
X870860D01*
X685531Y482676D02*
X869975D01*
X685531Y483562D02*
X869089D01*
X685531Y484448D02*
X868203D01*
X685531Y485333D02*
X867317D01*
X685531Y486219D02*
X866431D01*
X685531Y487105D02*
X865546D01*
X685531Y487991D02*
X864660D01*
X685531Y488877D02*
X863774D01*
X685531Y489762D02*
X862888D01*
X685531Y490648D02*
X862002D01*
X685531Y491534D02*
X861116D01*
X685531Y492420D02*
X860231D01*
X685531Y493306D02*
X859345D01*
X828166Y474703D02*
X845063D01*
X828310Y470274D02*
X844918D01*
X829045Y473818D02*
X844184D01*
X829100Y471160D02*
X844128D01*
X829383Y472932D02*
X843845D01*
X829400Y472046D02*
X843829D01*
X769111Y474703D02*
X825378D01*
X769255Y470274D02*
X825233D01*
X769990Y473818D02*
X824499D01*
X770045Y471160D02*
X824443D01*
X770328Y472932D02*
X824160D01*
X770345Y472046D02*
X824144D01*
X757205Y464073D02*
X795850D01*
X685531Y463188D02*
X794971D01*
X685531Y460530D02*
X794916D01*
X685531Y462302D02*
X794632D01*
X685531Y461416D02*
X794616D01*
X759744Y474703D02*
X766322D01*
X761119Y470274D02*
X766178D01*
X760296Y473818D02*
X765443D01*
X761089Y471160D02*
X765388D01*
X760688Y472932D02*
X765105D01*
X760948Y472046D02*
X765089D01*
X728421Y477361D02*
X751894D01*
X729646Y464073D02*
X750669D01*
X730327Y476475D02*
X749988D01*
X730986Y464959D02*
X749329D01*
X731422Y475589D02*
X748893D01*
X731875Y465845D02*
X748440D01*
X732185Y474703D02*
X748130D01*
X732512Y466731D02*
X747803D01*
X732737Y473818D02*
X747578D01*
X732971Y467617D02*
X747344D01*
X733129Y472932D02*
X747186D01*
X733288Y468503D02*
X747027D01*
X733389Y472046D02*
X746926D01*
X733481Y469388D02*
X746834D01*
X733530Y471160D02*
X746785D01*
X733560Y470274D02*
X746755D01*
X685531Y477361D02*
X724335D01*
X685531Y464073D02*
X723110D01*
X685531Y476475D02*
X722429D01*
X685531Y464959D02*
X721770D01*
X685531Y475589D02*
X721334D01*
X685531Y465845D02*
X720881D01*
X685531Y474703D02*
X720571D01*
X685531Y466731D02*
X720244D01*
X685531Y473818D02*
X720019D01*
X685531Y467617D02*
X719785D01*
X685531Y472932D02*
X719627D01*
X685531Y468503D02*
X719468D01*
X685531Y472046D02*
X719367D01*
X685531Y469388D02*
X719275D01*
X685531Y471160D02*
X719226D01*
X685531Y470274D02*
X719196D01*
G54D155*
X1020827Y444350D03*
X1015827Y449350D03*
Y444350D03*
X1010827Y449350D03*
Y444350D03*
X1005827Y449350D03*
Y444350D03*
X1000827Y449350D03*
Y444350D03*
G54D159*
X753937Y470472D03*
Y501969D03*
X726378D03*
Y470472D03*
G54D162*
X704724Y486220D02*
X705709Y487205D01*
X853990*
X904069Y437126*
X918228*
G54D227*
X726535Y592520D03*
X736535D03*
X1028701Y621063D03*
X726535Y533465D03*
X736535D03*
G54D235*
X716535Y592520D03*
X1018701Y621063D03*
X716535Y533465D03*
X928228Y557126D03*
X481220Y507126D03*
G54D237*
X866850Y442008D03*
X717047Y441811D03*
X700039Y609055D03*
X462756D03*
G54D238*
X918228Y557126D03*
X928228Y547126D03*
X918228D03*
X928228Y537126D03*
X918228D03*
X928228Y527126D03*
X918228D03*
X928228Y517126D03*
X918228D03*
X928228Y507126D03*
X918228D03*
X928228Y497126D03*
X918228D03*
X928228Y487126D03*
X918228D03*
X928228Y477126D03*
X918228D03*
X928228Y467126D03*
X918228D03*
X928228Y457126D03*
X918228D03*
X928228Y447126D03*
X918228D03*
X928228Y437126D03*
X918228D03*
X928228Y427126D03*
X918228D03*
X491220Y507126D03*
X481220Y497126D03*
X491220D03*
X481220Y487126D03*
X491220D03*
X481220Y477126D03*
X491220D03*
G54D328*
X413386Y413386D03*
Y610236D03*
X964567D03*
Y413386D03*
G54D353*
X780709Y587008D03*
G54D354*
X799213Y598819D03*
G54D361*
X412598Y443937D03*
Y463937D03*
G54D366*
X881496Y580630D03*
G54D367*
Y590630D03*
X891496Y580630D03*
Y590630D03*
X901496Y580630D03*
Y590630D03*
X911496Y580630D03*
Y590630D03*
X921496Y580630D03*
Y590630D03*
X931496Y580630D03*
Y590630D03*
X414370Y493937D03*
Y513937D03*
X924213Y406496D03*
X542913Y618898D03*
X847441Y606299D03*
X1038780Y435630D03*
X1045276Y621063D03*
X699803Y567913D03*
G54D386*
X866850Y432008D03*
X856850Y442008D03*
Y432008D03*
X846850Y442008D03*
Y432008D03*
X836850Y442008D03*
Y432008D03*
X826850Y442008D03*
Y432008D03*
X816850Y442008D03*
Y432008D03*
X806850Y442008D03*
Y432008D03*
X796850Y442008D03*
Y432008D03*
X786850Y442008D03*
Y432008D03*
X776850Y442008D03*
Y432008D03*
X717047Y431811D03*
X707047Y441811D03*
Y431811D03*
X697047Y441811D03*
Y431811D03*
X687047Y441811D03*
Y431811D03*
X677047Y441811D03*
Y431811D03*
X667047Y441811D03*
Y431811D03*
X657047Y441811D03*
Y431811D03*
X647047Y441811D03*
Y431811D03*
X637047Y441811D03*
Y431811D03*
X627047Y441811D03*
Y431811D03*
X690039Y609055D03*
X680039D03*
X670039D03*
X452756D03*
X442756D03*
G54D509*
X799213Y575197D03*
G54D512*
X454803Y419291D03*
G54D513*
X1089606Y407874D03*
X1059606D03*
X1089606Y434252D03*
X1059606D03*
G54D526*
X410433Y542323D03*
X439961D03*
G54D529*
X1087795Y560433D03*
Y589173D03*
Y454134D03*
Y482874D03*
G74*
X0Y0D02*
M02*
