%FSLAX42Y42*%
%MOMM*%
G71*
G01*
G75*
%ADD10C,0.01*%
%ADD11R,1.30X1.80*%
%ADD12C,0.60*%
%ADD13C,0.25*%
%ADD14C,0.30*%
%ADD15C,1.20*%
%ADD16C,0.15*%
%ADD17O,2.00X1.20*%
%ADD18O,2.00X2.50*%
%ADD19C,2.00*%
%ADD20C,2.50*%
%ADD21C,0.80*%
%ADD22C,1.00*%
%ADD23R,1.45X1.65*%
%ADD24R,1.20X1.50*%
%ADD25C,6.00*%
%ADD26R,1.00X0.60*%
%ADD27R,3.60X1.40*%
%ADD28R,2.30X1.50*%
%ADD29O,2.30X1.50*%
%ADD30R,0.80X0.50*%
%ADD31R,0.50X0.80*%
%ADD32R,1.10X1.50*%
%ADD33R,0.80X1.00*%
%ADD34R,1.00X0.80*%
%ADD35R,1.00X0.70*%
%ADD36R,1.50X1.10*%
%ADD37R,3.60X2.00*%
%ADD38R,0.50X0.30*%
%ADD39R,1.75X3.10*%
%ADD40O,2.20X0.70*%
%ADD41R,2.20X0.70*%
%ADD42O,2.20X0.70*%
%ADD43R,1.52X2.30*%
%ADD44R,2.03X1.82*%
%ADD45R,0.75X1.38*%
%ADD46R,1.10X0.50*%
%ADD47R,2.00X3.50*%
%ADD48R,1.65X1.45*%
%ADD49R,1.80X1.30*%
%ADD50R,3.43X3.25*%
%ADD51R,1.20X4.90*%
%ADD52C,1.00*%
%ADD53C,0.80*%
%ADD54C,0.40*%
%ADD55C,0.10*%
%ADD56C,1.50*%
%ADD57R,1.92X3.83*%
%ADD58R,0.85X0.47*%
%ADD59R,3.10X1.50*%
%ADD60R,1.90X1.40*%
%ADD61R,1.65X1.65*%
%ADD62R,0.82X0.80*%
%ADD63R,0.49X0.38*%
%ADD64R,0.00X0.41*%
%ADD65R,0.80X0.57*%
%ADD66R,1.05X1.02*%
%ADD67R,0.82X0.41*%
%ADD68R,0.52X0.55*%
%ADD69R,1.20X1.65*%
%ADD70R,1.48X1.40*%
%ADD71R,2.88X1.10*%
%ADD72C,0.20*%
%ADD73C,0.13*%
%ADD74C,0.15*%
%ADD75R,1.50X2.00*%
%ADD76C,0.20*%
%ADD77O,2.20X1.40*%
%ADD78O,2.20X2.70*%
%ADD79C,2.20*%
%ADD80C,2.70*%
%ADD81C,1.00*%
%ADD82C,1.20*%
D13*
X21033Y17942D02*
X25123D01*
X26143D02*
X30233D01*
X21033D02*
X21185Y17993D01*
X21033Y17942D02*
X21185Y17891D01*
X30081Y17993D02*
X30233Y17942D01*
X30081Y17891D02*
X30233Y17942D01*
X21033Y17917D02*
Y17968D01*
X30233Y17917D02*
Y17968D01*
X20598Y18542D02*
Y20132D01*
Y21153D02*
Y22742D01*
X20547Y18695D02*
X20598Y18542D01*
X20649Y18695D01*
X20547Y22590D02*
X20598Y22742D01*
X20649Y22590D01*
X20573Y18542D02*
X20623D01*
X20573Y22742D02*
X20623D01*
X22982Y18242D02*
X25422D01*
X26442D02*
X28882D01*
X22982D02*
X23134Y18293D01*
X22982Y18242D02*
X23134Y18191D01*
X28730Y18293D02*
X28882Y18242D01*
X28730Y18191D02*
X28882Y18242D01*
X22982Y18217D02*
Y18268D01*
X28882Y18217D02*
Y18268D01*
X21033Y18242D02*
X21371D01*
X22645D02*
X22983D01*
X21033D02*
X21185Y18293D01*
X21033Y18242D02*
X21185Y18191D01*
X22831Y18293D02*
X22983Y18242D01*
X22831Y18191D02*
X22983Y18242D01*
X21033Y18217D02*
Y18268D01*
X22983Y18217D02*
Y18268D01*
D16*
X25148Y17876D02*
X25173Y17851D01*
X25224D01*
X25250Y17876D01*
Y17978D01*
X25224Y18003D01*
X25173D01*
X25148Y17978D01*
Y17952D01*
X25173Y17927D01*
X25250D01*
X25402Y17851D02*
X25300D01*
X25402Y17952D01*
Y17978D01*
X25377Y18003D01*
X25326D01*
X25300Y17978D01*
X25656Y17851D02*
X25605Y17902D01*
Y17952D01*
X25656Y18003D01*
X25732Y17851D02*
Y17952D01*
X25757D01*
X25783Y17927D01*
Y17851D01*
Y17927D01*
X25808Y17952D01*
X25834Y17927D01*
Y17851D01*
X25884D02*
Y17952D01*
X25910D01*
X25935Y17927D01*
Y17851D01*
Y17927D01*
X25961Y17952D01*
X25986Y17927D01*
Y17851D01*
X26037D02*
X26088Y17902D01*
Y17952D01*
X26037Y18003D01*
X20689Y20233D02*
X20537D01*
X20613Y20157D01*
Y20259D01*
X20689Y20411D02*
Y20310D01*
X20588Y20411D01*
X20562D01*
X20537Y20386D01*
Y20335D01*
X20562Y20310D01*
X20689Y20665D02*
X20639Y20614D01*
X20588D01*
X20537Y20665D01*
X20689Y20741D02*
X20588D01*
Y20767D01*
X20613Y20792D01*
X20689D01*
X20613D01*
X20588Y20817D01*
X20613Y20843D01*
X20689D01*
Y20894D02*
X20588D01*
Y20919D01*
X20613Y20944D01*
X20689D01*
X20613D01*
X20588Y20970D01*
X20613Y20995D01*
X20689D01*
Y21046D02*
X20639Y21097D01*
X20588D01*
X20537Y21046D01*
X25549Y18303D02*
X25447D01*
Y18227D01*
X25498Y18252D01*
X25523D01*
X25549Y18227D01*
Y18176D01*
X25523Y18151D01*
X25472D01*
X25447Y18176D01*
X25599D02*
X25625Y18151D01*
X25676D01*
X25701Y18176D01*
Y18278D01*
X25676Y18303D01*
X25625D01*
X25599Y18278D01*
Y18252D01*
X25625Y18227D01*
X25701D01*
X25955Y18151D02*
X25904Y18202D01*
Y18252D01*
X25955Y18303D01*
X26031Y18151D02*
Y18252D01*
X26056D01*
X26082Y18227D01*
Y18151D01*
Y18227D01*
X26107Y18252D01*
X26133Y18227D01*
Y18151D01*
X26183D02*
Y18252D01*
X26209D01*
X26234Y18227D01*
Y18151D01*
Y18227D01*
X26260Y18252D01*
X26285Y18227D01*
Y18151D01*
X26336D02*
X26387Y18202D01*
Y18252D01*
X26336Y18303D01*
X21396Y18151D02*
X21447D01*
X21421D01*
Y18303D01*
X21396Y18278D01*
X21523Y18176D02*
X21548Y18151D01*
X21599D01*
X21625Y18176D01*
Y18278D01*
X21599Y18303D01*
X21548D01*
X21523Y18278D01*
Y18252D01*
X21548Y18227D01*
X21625D01*
X21675Y18151D02*
Y18176D01*
X21701D01*
Y18151D01*
X21675D01*
X21904Y18303D02*
X21802D01*
Y18227D01*
X21853Y18252D01*
X21878D01*
X21904Y18227D01*
Y18176D01*
X21878Y18151D01*
X21828D01*
X21802Y18176D01*
X22158Y18151D02*
X22107Y18202D01*
Y18252D01*
X22158Y18303D01*
X22234Y18151D02*
Y18252D01*
X22259D01*
X22285Y18227D01*
Y18151D01*
Y18227D01*
X22310Y18252D01*
X22336Y18227D01*
Y18151D01*
X22386D02*
Y18252D01*
X22412D01*
X22437Y18227D01*
Y18151D01*
Y18227D01*
X22463Y18252D01*
X22488Y18227D01*
Y18151D01*
X22539D02*
X22589Y18202D01*
Y18252D01*
X22539Y18303D01*
D75*
X24515Y18880D02*
D03*
X24155D02*
D03*
X25415Y19142D02*
D03*
X25055D02*
D03*
X24875D02*
D03*
X24515D02*
D03*
X23973Y18880D02*
D03*
X23613D02*
D03*
D76*
X22976Y19038D02*
D03*
D77*
X28563Y20440D02*
D03*
Y20190D02*
D03*
X27790Y20292D02*
D03*
Y20042D02*
D03*
D78*
X28755Y19038D02*
D03*
X29009D02*
D03*
D79*
X21373Y19640D02*
D03*
X25884Y19962D02*
D03*
Y21012D02*
D03*
X26238Y18832D02*
D03*
X23554Y19838D02*
D03*
X23908Y19485D02*
D03*
X24730Y19962D02*
D03*
X25230D02*
D03*
X28018Y20745D02*
D03*
Y21245D02*
D03*
D80*
X21260Y21302D02*
D03*
D81*
X27708Y19332D02*
D03*
X27160Y19392D02*
D03*
X27275Y19197D02*
D03*
X28075Y19227D02*
D03*
X27708Y19440D02*
D03*
Y19535D02*
D03*
D82*
X27853Y21957D02*
D03*
X27018Y21512D02*
D03*
X27348Y21530D02*
D03*
X23995Y20625D02*
D03*
X26240Y21337D02*
D03*
X24748Y20362D02*
D03*
X24275D02*
D03*
X24373D02*
D03*
M02*
