%FSLAX42Y42*%
%MOMM*%
G71*
G01*
G75*
%ADD10C,0.01*%
%ADD11R,1.30X1.80*%
%ADD12C,0.60*%
%ADD13C,0.25*%
%ADD14C,0.30*%
%ADD15C,1.20*%
%ADD16C,0.15*%
%ADD17O,2.00X1.20*%
%ADD18O,2.00X2.50*%
%ADD19C,2.00*%
%ADD20C,2.50*%
%ADD21C,0.80*%
%ADD22C,1.00*%
%ADD23R,1.45X1.65*%
%ADD24R,1.20X1.50*%
%ADD25C,6.00*%
%ADD26R,1.00X0.60*%
%ADD27R,3.60X1.40*%
%ADD28R,2.30X1.50*%
%ADD29O,2.30X1.50*%
%ADD30R,0.80X0.50*%
%ADD31R,0.50X0.80*%
%ADD32R,1.10X1.50*%
%ADD33R,0.80X1.00*%
%ADD34R,1.00X0.80*%
%ADD35R,1.00X0.70*%
%ADD36R,1.50X1.10*%
%ADD37R,3.60X2.00*%
%ADD38R,0.50X0.30*%
%ADD39R,1.75X3.10*%
%ADD40O,2.20X0.70*%
%ADD41R,2.20X0.70*%
%ADD42O,2.20X0.70*%
%ADD43R,1.52X2.30*%
%ADD44R,2.03X1.82*%
%ADD45R,0.75X1.38*%
%ADD46R,1.10X0.50*%
%ADD47R,2.00X3.50*%
%ADD48R,1.65X1.45*%
%ADD49R,1.80X1.30*%
%ADD50R,3.43X3.25*%
%ADD51R,1.20X4.90*%
%ADD52C,1.00*%
%ADD53C,0.80*%
%ADD54C,0.40*%
%ADD55C,0.10*%
%ADD56C,1.50*%
%ADD57R,1.92X3.83*%
%ADD58R,0.85X0.47*%
%ADD59R,3.10X1.50*%
%ADD60R,1.90X1.40*%
%ADD61R,1.65X1.65*%
%ADD62R,0.82X0.80*%
%ADD63R,0.49X0.38*%
%ADD64R,0.00X0.41*%
%ADD65R,0.80X0.57*%
%ADD66R,1.05X1.02*%
%ADD67R,0.82X0.41*%
%ADD68R,0.52X0.55*%
%ADD69R,1.20X1.65*%
%ADD70R,1.48X1.40*%
%ADD71R,2.88X1.10*%
%ADD72C,0.20*%
%ADD73C,0.13*%
%ADD74C,0.15*%
D11*
X25780Y19452D02*
D03*
X26140D02*
D03*
D13*
X21033Y17942D02*
X25123D01*
X26143D02*
X30233D01*
X21033D02*
X21185Y17993D01*
X21033Y17942D02*
X21185Y17891D01*
X30081Y17993D02*
X30233Y17942D01*
X30081Y17891D02*
X30233Y17942D01*
X21033Y17917D02*
Y17968D01*
X30233Y17917D02*
Y17968D01*
X20598Y18542D02*
Y20132D01*
Y21153D02*
Y22742D01*
X20547Y18695D02*
X20598Y18542D01*
X20649Y18695D01*
X20547Y22590D02*
X20598Y22742D01*
X20649Y22590D01*
X20573Y18542D02*
X20623D01*
X20573Y22742D02*
X20623D01*
X22982Y18242D02*
X25422D01*
X26442D02*
X28882D01*
X22982D02*
X23134Y18293D01*
X22982Y18242D02*
X23134Y18191D01*
X28730Y18293D02*
X28882Y18242D01*
X28730Y18191D02*
X28882Y18242D01*
X22982Y18217D02*
Y18268D01*
X28882Y18217D02*
Y18268D01*
X21033Y18242D02*
X21371D01*
X22645D02*
X22983D01*
X21033D02*
X21185Y18293D01*
X21033Y18242D02*
X21185Y18191D01*
X22831Y18293D02*
X22983Y18242D01*
X22831Y18191D02*
X22983Y18242D01*
X21033Y18217D02*
Y18268D01*
X22983Y18217D02*
Y18268D01*
D16*
X25148Y17876D02*
X25173Y17851D01*
X25224D01*
X25250Y17876D01*
Y17978D01*
X25224Y18003D01*
X25173D01*
X25148Y17978D01*
Y17952D01*
X25173Y17927D01*
X25250D01*
X25402Y17851D02*
X25300D01*
X25402Y17952D01*
Y17978D01*
X25377Y18003D01*
X25326D01*
X25300Y17978D01*
X25656Y17851D02*
X25605Y17902D01*
Y17952D01*
X25656Y18003D01*
X25732Y17851D02*
Y17952D01*
X25757D01*
X25783Y17927D01*
Y17851D01*
Y17927D01*
X25808Y17952D01*
X25834Y17927D01*
Y17851D01*
X25884D02*
Y17952D01*
X25910D01*
X25935Y17927D01*
Y17851D01*
Y17927D01*
X25961Y17952D01*
X25986Y17927D01*
Y17851D01*
X26037D02*
X26088Y17902D01*
Y17952D01*
X26037Y18003D01*
X20689Y20233D02*
X20537D01*
X20613Y20157D01*
Y20259D01*
X20689Y20411D02*
Y20310D01*
X20588Y20411D01*
X20562D01*
X20537Y20386D01*
Y20335D01*
X20562Y20310D01*
X20689Y20665D02*
X20639Y20614D01*
X20588D01*
X20537Y20665D01*
X20689Y20741D02*
X20588D01*
Y20767D01*
X20613Y20792D01*
X20689D01*
X20613D01*
X20588Y20817D01*
X20613Y20843D01*
X20689D01*
Y20894D02*
X20588D01*
Y20919D01*
X20613Y20944D01*
X20689D01*
X20613D01*
X20588Y20970D01*
X20613Y20995D01*
X20689D01*
Y21046D02*
X20639Y21097D01*
X20588D01*
X20537Y21046D01*
X25549Y18303D02*
X25447D01*
Y18227D01*
X25498Y18252D01*
X25523D01*
X25549Y18227D01*
Y18176D01*
X25523Y18151D01*
X25472D01*
X25447Y18176D01*
X25599D02*
X25625Y18151D01*
X25676D01*
X25701Y18176D01*
Y18278D01*
X25676Y18303D01*
X25625D01*
X25599Y18278D01*
Y18252D01*
X25625Y18227D01*
X25701D01*
X25955Y18151D02*
X25904Y18202D01*
Y18252D01*
X25955Y18303D01*
X26031Y18151D02*
Y18252D01*
X26056D01*
X26082Y18227D01*
Y18151D01*
Y18227D01*
X26107Y18252D01*
X26133Y18227D01*
Y18151D01*
X26183D02*
Y18252D01*
X26209D01*
X26234Y18227D01*
Y18151D01*
Y18227D01*
X26260Y18252D01*
X26285Y18227D01*
Y18151D01*
X26336D02*
X26387Y18202D01*
Y18252D01*
X26336Y18303D01*
X21396Y18151D02*
X21447D01*
X21421D01*
Y18303D01*
X21396Y18278D01*
X21523Y18176D02*
X21548Y18151D01*
X21599D01*
X21625Y18176D01*
Y18278D01*
X21599Y18303D01*
X21548D01*
X21523Y18278D01*
Y18252D01*
X21548Y18227D01*
X21625D01*
X21675Y18151D02*
Y18176D01*
X21701D01*
Y18151D01*
X21675D01*
X21904Y18303D02*
X21802D01*
Y18227D01*
X21853Y18252D01*
X21878D01*
X21904Y18227D01*
Y18176D01*
X21878Y18151D01*
X21828D01*
X21802Y18176D01*
X22158Y18151D02*
X22107Y18202D01*
Y18252D01*
X22158Y18303D01*
X22234Y18151D02*
Y18252D01*
X22259D01*
X22285Y18227D01*
Y18151D01*
Y18227D01*
X22310Y18252D01*
X22336Y18227D01*
Y18151D01*
X22386D02*
Y18252D01*
X22412D01*
X22437Y18227D01*
Y18151D01*
Y18227D01*
X22463Y18252D01*
X22488Y18227D01*
Y18151D01*
X22539D02*
X22589Y18202D01*
Y18252D01*
X22539Y18303D01*
D17*
X28843Y21242D02*
D03*
Y20992D02*
D03*
D18*
X23230Y19038D02*
D03*
X22722D02*
D03*
X28501D02*
D03*
X29263D02*
D03*
D19*
X23428Y22035D02*
D03*
X27104Y20892D02*
D03*
Y20352D02*
D03*
Y20622D02*
D03*
Y20082D02*
D03*
X25884Y20662D02*
D03*
X25884Y20312D02*
D03*
X22428Y22485D02*
D03*
Y22035D02*
D03*
X23428Y22485D02*
D03*
X21873Y19640D02*
D03*
X26738Y18832D02*
D03*
D20*
X23510Y21302D02*
D03*
X22695Y19972D02*
D03*
Y19472D02*
D03*
D23*
X25610Y19180D02*
D03*
X25990D02*
D03*
X27668Y20487D02*
D03*
X27288D02*
D03*
D24*
X22928Y21847D02*
D03*
X22428D02*
D03*
Y20973D02*
D03*
X22928D02*
D03*
D25*
X29768Y22242D02*
D03*
X21498Y18942D02*
D03*
X29768D02*
D03*
X21498Y22242D02*
D03*
D26*
X29026Y19748D02*
D03*
Y19653D02*
D03*
Y19558D02*
D03*
X29313Y19748D02*
D03*
Y19558D02*
D03*
D27*
X28433Y21245D02*
D03*
Y20700D02*
D03*
D28*
X26893Y21887D02*
D03*
D29*
Y22141D02*
D03*
X26131Y21887D02*
D03*
Y22141D02*
D03*
D30*
X28039Y19311D02*
D03*
Y19431D02*
D03*
D31*
X28064Y19685D02*
D03*
X27950Y19546D02*
D03*
X28070D02*
D03*
X27703Y19685D02*
D03*
X27823D02*
D03*
X27944D02*
D03*
X27474D02*
D03*
X27594D02*
D03*
X27213Y19609D02*
D03*
X27333D02*
D03*
D32*
X28153Y19047D02*
D03*
X27903D02*
D03*
D33*
X28500Y19292D02*
D03*
X24740Y21335D02*
D03*
X29136Y19292D02*
D03*
X29316D02*
D03*
X24920Y21335D02*
D03*
X27150Y19317D02*
D03*
X27330D02*
D03*
Y19469D02*
D03*
X27150D02*
D03*
X27850Y21685D02*
D03*
X27670D02*
D03*
X28680Y19292D02*
D03*
X27528Y21837D02*
D03*
X27348D02*
D03*
X27853D02*
D03*
X27673D02*
D03*
X27348Y21685D02*
D03*
X27528D02*
D03*
X24538Y20752D02*
D03*
X24718D02*
D03*
X28822Y19292D02*
D03*
X29002D02*
D03*
X27850Y21537D02*
D03*
X27670D02*
D03*
X24538Y20900D02*
D03*
X24718D02*
D03*
X26233Y20665D02*
D03*
X26053D02*
D03*
D34*
X27172Y22194D02*
D03*
Y22014D02*
D03*
X27350Y22194D02*
D03*
Y22014D02*
D03*
X27172Y21877D02*
D03*
Y21697D02*
D03*
X24493Y21082D02*
D03*
X24148D02*
D03*
X28844Y19610D02*
D03*
Y19790D02*
D03*
D35*
X27788Y22097D02*
D03*
X27528Y22192D02*
D03*
Y22002D02*
D03*
D36*
X24148Y20625D02*
D03*
Y20875D02*
D03*
X24353Y20875D02*
D03*
Y20625D02*
D03*
D37*
X27569Y19088D02*
D03*
Y18748D02*
D03*
D38*
X27840Y19432D02*
D03*
Y19532D02*
D03*
Y19482D02*
D03*
Y19382D02*
D03*
Y19332D02*
D03*
X27575Y19532D02*
D03*
Y19482D02*
D03*
Y19432D02*
D03*
Y19382D02*
D03*
Y19332D02*
D03*
D39*
X27708Y19432D02*
D03*
D40*
X25569Y20265D02*
D03*
D41*
X24933D02*
D03*
D42*
Y20392D02*
D03*
Y20519D02*
D03*
Y20646D02*
D03*
Y20900D02*
D03*
Y21027D02*
D03*
Y21154D02*
D03*
X25569Y20392D02*
D03*
Y20519D02*
D03*
Y20646D02*
D03*
Y20773D02*
D03*
Y20900D02*
D03*
Y21027D02*
D03*
Y21154D02*
D03*
X24933Y20773D02*
D03*
D43*
X27370Y21245D02*
D03*
X27800D02*
D03*
D44*
X26233Y21070D02*
D03*
D45*
Y20839D02*
D03*
D46*
Y21185D02*
D03*
D47*
X25350Y19102D02*
D03*
X24450D02*
D03*
X22233Y20487D02*
D03*
X21333D02*
D03*
D48*
X25560Y19930D02*
D03*
Y19550D02*
D03*
D49*
X26370Y19655D02*
D03*
Y20015D02*
D03*
X26140Y19655D02*
D03*
Y20015D02*
D03*
D50*
X22203Y18752D02*
D03*
Y19692D02*
D03*
D51*
X23393Y20457D02*
D03*
X22955D02*
D03*
M02*
