%
T1C.01181F095S3
X05315Y039764
X05315Y041339
X055118Y041339
X055118Y039764
X057087Y039764
X057087Y041339
X059055Y039764
X059055Y041339
X061024Y039764
X061024Y041339
X062992Y039764
X062992Y041339
X064961Y039764
X064961Y041339
X066929Y039764
X066929Y041339
X068898Y039764
X068898Y041339
X070866Y039764
X070866Y041339
X072835Y039764
X072835Y041339
X074803Y041339
X076772Y039764
X076772Y041339
X07874Y039764
X07874Y041339
X080709Y039764
X080709Y041339
X082677Y039764
X082677Y041339
X084646Y039764
X084646Y041339
X086614Y039764
X086614Y041339
X088583Y039764
X088583Y041339
X090551Y039764
X090551Y041339
X094488Y039764
X094488Y041339
X099626Y040177
X10061Y040177
X101181Y040551
X102382Y040157
X103366Y040157
X103937Y041496
X103937Y040945
X106693Y039764
X108268Y039764
X109449Y042126
X109843Y045472
X108268Y04252
X108268Y044094
X107244Y046654
X106693Y04252
X106693Y044094
X106299Y044882
X105984Y045354
X105728Y046457
X105728Y047146
X10502Y045768
X103937Y046457
X103937Y045276
X103937Y042303
X102441Y045807
X102087Y045531
X102087Y043937
X101575Y045531
X101181Y04252
X100591Y045531
X100571Y043937
X100079Y045551
X098425Y045276
X098425Y043307
X098209Y047008
X097953Y046673
X097697Y046358
X097638Y044094
X096457Y044882
X096457Y043307
X096358Y046949
X095965Y045709
X095394Y046614
X094488Y043307
X084646Y047244
X082677Y047244
X079724Y046181
X077953Y045571
X076772Y047244
X069685Y045177
X068701Y045177
X066929Y047244
X066791Y045157
X064961Y047244
X062992Y045276
X062992Y047244
X061024Y043307
X061024Y045276
X061024Y047244
X059055Y045276
X059055Y047244
X059055Y043307
X057087Y047244
X057087Y045276
X057087Y043307
X055118Y043307
X055118Y047244
X055118Y045276
X05315Y047244
X05315Y045669
X05315Y043307
X05315Y049213
X055118Y049213
X057087Y049213
X062992Y049213
X064961Y049213
X066929Y049213
X066969Y049744
X068701Y047343
X068701Y048031
X068701Y048622
X069488Y047343
X069488Y048622
X069488Y048031
X070472Y047343
X070472Y048031
X070472Y048622
X071161Y047343
X071161Y048031
X076772Y049606
X07874Y049606
X082677Y049606
X084646Y049606
X086614Y049606
X088583Y047638
X088583Y049606
X090551Y047638
X090551Y049606
X093701Y049213
X09685Y049213
X098484Y047343
X100689Y047598
X100984Y04939
X101083Y048346
X101437Y048012
X101476Y049744
X101634Y047677
X102087Y0475
X102264Y048819
X103504Y048406
X10374Y049606
X104724Y049213
X105118Y048425
X106083Y048228
X106102Y047441
X106634Y049409
X107835Y047854
X109646Y048799
X109843Y048327
X109665Y050394
X109646Y051949
X106634Y050965
X104803Y051772
X104646Y050689
X104232Y052165
X103642Y052165
X10315Y050886
X10315Y050295
X103071Y051575
X103071Y052165
X102402Y051201
X101673Y050098
X100787Y05061
X099646Y051083
X09872Y052067
X098701Y051476
X098031Y051181
X098031Y05
X09685Y051575
X080709Y051181
X07874Y051181
X076772Y051181
X067598Y050591
X066988Y051437
X066398Y05061
X064961Y051181
X062992Y051181
X061024Y051181
X059055Y051181
X057087Y051181
X055118Y051181
X05315Y051181
X05315Y05315
X055118Y05315
X057087Y05315
X059055Y05315
X061024Y05315
X062992Y05315
X064961Y05315
X066929Y05315
X068898Y05315
X06998Y054626
X074114Y054528
X076772Y052362
X07874Y052362
X080709Y05315
X082677Y05315
X084646Y053937
X086614Y053937
X093701Y052756
X095256Y053996
X095276Y054508
X096063Y053642
X096831Y053051
X096831Y053642
X097244Y054646
X097343Y052461
X097953Y054724
X099016Y053307
X1Y053543
X100256Y054626
X10061Y054626
X10063Y054232
X100906Y053642
X102539Y053346
X102657Y053957
X103681Y053839
X105217Y052756
X106634Y052559
X106634Y054134
X109646Y053524
X109843Y055118
X109843Y056102
X106142Y055374
X105118Y057067
X104823Y055709
X104449Y056693
X103701Y055512
X102657Y055413
X102657Y056516
X102362Y055118
X101772Y05685
X101634Y055295
X10122Y05498
X10122Y055335
X101083Y056161
X100591Y056161
X09998Y054902
X099823Y05628
X099488Y056398
X09937Y055098
X099134Y056398
X098602Y05687
X098169Y056535
X09811Y055098
X097795Y055965
X097795Y056929
X09685Y055354
X095689Y055906
X093898Y05628
X093898Y055492
X093898Y054921
X088583Y057087
X088583Y055118
X086614Y057087
X086614Y055118
X084646Y057087
X084646Y055118
X082677Y057087
X082677Y055118
X080709Y055118
X07874Y057087
X07874Y055118
X076772Y057087
X076772Y055118
X07372Y05689
X071909Y057047
X07189Y056358
X07185Y054961
X071398Y056358
X071378Y057047
X066929Y055118
X066929Y057087
X064961Y057087
X064961Y055118
X062992Y055118
X062992Y057087
X061024Y057087
X059055Y057087
X057087Y057087
X057087Y055118
X055118Y055118
X055118Y057087
X05315Y055118
X05315Y057087
X05315Y059055
X055118Y059055
X057087Y059055
X059055Y059055
X061024Y059055
X062992Y059055
X064961Y059055
X070079Y057874
X076772Y059055
X080709Y059055
X082677Y059055
X084646Y059055
X093957Y057697
X096949Y057717
X097539Y057717
X097539Y058051
X098189Y057323
X098819Y058287
X098819Y058858
X099803Y057874
X100157Y057874
X100197Y058268
X101161Y057854
X102106Y058957
X10315Y05748
X104035Y057697
X104705Y058248
X104823Y059055
X105413Y057717
X10622Y059055
X106988Y057972
X108406Y05811
X109843Y058858
X108839Y060354
X108661Y061417
X107087Y061417
X10689Y060354
X105512Y060039
X104646Y059843
X102874Y061122
X102126Y060394
X101437Y059902
X099803Y060157
X099606Y06063
X099213Y059882
X098031Y061811
X094488Y061024
X094488Y059843
X09252Y061024
X090551Y061024
X088583Y061024
X086614Y061024
X082677Y061024
X080709Y061024
X07874Y061024
X076772Y061024
X073898Y061181
X073406Y060354
X064961Y061024
X062992Y061024
X057087Y061024
X055118Y061024
X05315Y061024
X05315Y062598
X055118Y062598
X057087Y062598
X062992Y062598
X064961Y062598
X066929Y062598
X068898Y062598
X070866Y062598
X076772Y062598
X07874Y062598
X080709Y062598
X082677Y062598
X084646Y062598
X086614Y062598
X088583Y062598
X090551Y062598
X09252Y062598
X094488Y062598
T2C.02362F197S55
X04448Y041929
X04548Y041929
T3C.02559F197S55
X100083Y044435
X100083Y044935
X100583Y044435
X100583Y044935
X101083Y044435
X101083Y044935
X101583Y044435
X101583Y044935
X102083Y044435
X102083Y044935
T4C.02756F197S55
X109272Y056043G85X108287Y056043
X109272Y058917G85X108287Y058917
X109272Y045413G85X108287Y045413
X109272Y048287G85X108287Y048287
T5C.03543F197S55
X062705Y044181
X062705Y043181
X063705Y044181
X063705Y043181
X064705Y044181
X064705Y043181
X065705Y044181
X065705Y043181
X066705Y044181
X066705Y043181
X067705Y044181
X067705Y043181
X068705Y044181
X068705Y043181
X069705Y044181
X069705Y043181
X070705Y044181
X070705Y043181
X071705Y044181
X071705Y043181
X077685Y044201
X077685Y043201
X078685Y044201
X078685Y043201
X079685Y044201
X079685Y043201
X080685Y044201
X080685Y043201
X081685Y044201
X081685Y043201
X082685Y044201
X082685Y043201
X083685Y044201
X083685Y043201
X084685Y044201
X084685Y043201
X085685Y044201
X085685Y043201
X086685Y044201
X086685Y043201
X105961Y040787
X105961Y043425
X108961Y043425
X108961Y040787
T6C.03937F197S55
X091823Y044713
X091823Y043713
X091823Y042713
X091823Y046713
X091823Y045713
X092421Y04065
X092823Y042713
X092823Y046713
X092823Y043713
X092823Y045713
X092823Y044713
X103878Y043563
X092823Y049713
X092823Y048713
X092823Y047713
X092823Y051713
X092823Y050713
X091823Y047713
X091823Y048713
X091823Y051713
X091823Y049713
X091823Y050713
X049122Y048713
X049122Y047713
X049122Y050713
X049122Y049713
X048122Y050713
X048122Y047713
X048122Y049713
X048122Y048713
X041437Y049394
X041437Y051394
X06998Y056791
X071654Y053346
X071654Y059252
X072654Y053346
X072654Y059252
X073654Y053346
X073654Y059252
X091823Y055713
X091823Y053713
X091823Y052713
X091823Y054713
X092823Y054713
X092823Y055713
X092823Y052713
X092823Y053713
X104528Y062106
X10287Y062106
X10187Y062106
X084744Y06063
X054291Y06189
X080413Y05752G85X079429Y05752
X080315Y059882G85X079528Y059882
X078071Y059094G85X078071Y058307
T7C.04016F139S55
X08815Y058063
X08815Y059063
X08915Y058063
X08915Y059063
X09015Y058063
X09015Y059063
X09115Y058063
X09115Y059063
X09215Y058063
X09215Y059063
X09315Y058063
X09315Y059063
T8C.04331F139S55
X044276Y060906
X045276Y060906
X046276Y060906
X067004Y060906
X068004Y060906
X069004Y060906
X070004Y060906
T9C.04724F139S55
X041043Y054232
X043996Y054232
T10C.05118F107S55
X04126Y044394
X04126Y046394
T11C.07874F081S55
X072638Y047047
X072638Y050197
X075394Y047047
X075394Y050197
T12C.12598F035S794
X041339Y041339
X041339Y061024
X096457Y061024
X096457Y041339
M30
