*
*
G04 PADS9.1 Build Number: 384028 generated Gerber (RS-274-X) file*
G04 PC Version=2.1*
*
%IN "PLC_Eval_MotherBoard_CJ"*%
*
%MOIN*%
*
%FSLAX35Y35*%
*
*
*
*
G04 PC Standard Apertures*
*
*
G04 Thermal Relief Aperture macro.*
%AMTER*
1,1,$1,0,0*
1,0,$1-$2,0,0*
21,0,$3,$4,0,0,45*
21,0,$3,$4,0,0,135*
%
*
*
G04 Annular Aperture macro.*
%AMANN*
1,1,$1,0,0*
1,0,$2,0,0*
%
*
*
G04 Odd Aperture macro.*
%AMODD*
1,1,$1,0,0*
1,0,$1-0.005,0,0*
%
*
*
G04 PC Custom Aperture Macros*
*
*
*
*
*
*
G04 PC Aperture Table*
*
%ADD082C,0.01*%
%ADD088C,0.001*%
%ADD134R,0.05118X0.05118*%
%ADD161R,0.05512X0.05512*%
%ADD162C,0.07874*%
%ADD231R,0.07874X0.07874*%
%ADD234R,0.11024X0.11024*%
%ADD237R,0.06693X0.06693*%
%ADD346C,0.05512*%
%ADD358R,0.01575X0.05118*%
%ADD361C,0.09843*%
%ADD366R,0.07087X0.07087*%
%ADD367C,0.07087*%
%ADD386C,0.06693*%
%ADD512C,0.05118*%
%ADD521R,0.1063X0.1063*%
%ADD532C,0.0748*%
%ADD534R,0.03543X0.03543*%
%ADD538R,0.06299X0.09843*%
%ADD539R,0.05394X0.05394*%
%ADD540R,0.04331X0.01575*%
%ADD541O,0.1811X0.08268*%
%ADD542O,0.16142X0.08268*%
%ADD543O,0.08268X0.16142*%
%ADD544C,0.1063*%
%ADD547C,0.24016*%
%ADD548C,0.08268*%
%ADD549R,0.05094X0.03994*%
%ADD550R,0.03994X0.05094*%
%ADD551C,0.06496*%
%ADD555R,0.04331X0.0315*%
%ADD559R,0.05118X0.01575*%
%ADD562R,0.02756X0.09055*%
%ADD564O,0.03346X0.01575*%
%ADD565R,0.03346X0.01575*%
%ADD566O,0.01575X0.03346*%
%ADD567R,0.01575X0.03346*%
%ADD569R,0.04921X0.05906*%
%ADD571R,0.05906X0.03937*%
%ADD575R,0.0748X0.0748*%
%ADD578R,0.0748X0.06693*%
%ADD581R,0.05906X0.02362*%
%ADD582O,0.14567X0.04724*%
%ADD596R,0.02756X0.02559*%
%ADD597C,0.12992*%
%ADD600R,0.08268X0.05118*%
%ADD601R,0.01575X0.06102*%
%ADD602R,0.08268X0.08268*%
%ADD603R,0.09055X0.02756*%
*
*
*
*
G04 PC Circuitry*
G04 Layer Name PLC_Eval_MotherBoard_CJ - circuitry*
%LPD*%
*
*
G04 PC Custom Flashes*
G04 Layer Name PLC_Eval_MotherBoard_CJ - flashes*
%LPD*%
*
*
G04 PC Circuitry*
G04 Layer Name PLC_Eval_MotherBoard_CJ - circuitry*
%LPD*%
*
G54D82*
G01X1160662Y541089D02*
X1160208Y541714D01*
X1159526Y542026*
X1158617*
X1157935Y541714*
X1157480Y541089*
Y540464*
X1157708Y539839*
X1157935Y539526*
X1158389Y539214*
X1159753Y538589*
X1160208Y538276*
X1160435Y537964*
X1160662Y537339*
Y536401*
X1160208Y535776*
X1159526Y535464*
X1158617*
X1157935Y535776*
X1157480Y536401*
X1164071Y542026D02*
X1163617Y541714D01*
X1163162Y541089*
X1162935Y540464*
X1162708Y539526*
Y537964*
X1162935Y537026*
X1163162Y536401*
X1163617Y535776*
X1164071Y535464*
X1164980*
X1165435Y535776*
X1165889Y536401*
X1166117Y537026*
X1166344Y537964*
Y539526*
X1166117Y540464*
X1165889Y541089*
X1165435Y541714*
X1164980Y542026*
X1164071*
X1168389D02*
Y535464D01*
X1171117*
X1173162Y542026D02*
Y535464D01*
Y542026D02*
X1174753D01*
X1175435Y541714*
X1175889Y541089*
X1176117Y540464*
X1176344Y539526*
Y537964*
X1176117Y537026*
X1175889Y536401*
X1175435Y535776*
X1174753Y535464*
X1173162*
X1178389Y542026D02*
Y535464D01*
Y542026D02*
X1181344D01*
X1178389Y538901D02*
X1180208D01*
X1178389Y535464D02*
X1181344D01*
X1183389Y542026D02*
Y535464D01*
Y542026D02*
X1185435D01*
X1186117Y541714*
X1186344Y541401*
X1186571Y540776*
Y540151*
X1186344Y539526*
X1186117Y539214*
X1185435Y538901*
X1183389*
X1184980D02*
X1186571Y535464D01*
X1193844Y542026D02*
Y535464D01*
Y542026D02*
X1195662Y535464D01*
X1197480Y542026D02*
X1195662Y535464D01*
X1197480Y542026D02*
Y535464D01*
X1201344Y542026D02*
X1199526Y535464D01*
X1201344Y542026D02*
X1203162Y535464D01*
X1200208Y537651D02*
X1202480D01*
X1208389Y541089D02*
X1207935Y541714D01*
X1207253Y542026*
X1206344*
X1205662Y541714*
X1205208Y541089*
Y540464*
X1205435Y539839*
X1205662Y539526*
X1206117Y539214*
X1207480Y538589*
X1207935Y538276*
X1208162Y537964*
X1208389Y537339*
Y536401*
X1207935Y535776*
X1207253Y535464*
X1206344*
X1205662Y535776*
X1205208Y536401*
X1210435Y542026D02*
Y535464D01*
X1213617Y542026D02*
X1210435Y537651D01*
X1211571Y539214D02*
X1213617Y535464D01*
X1222480Y542026D02*
Y535464D01*
X1220889Y542026D02*
X1224071D01*
X1227480D02*
X1227026Y541714D01*
X1226571Y541089*
X1226344Y540464*
X1226117Y539526*
Y537964*
X1226344Y537026*
X1226571Y536401*
X1227026Y535776*
X1227480Y535464*
X1228389*
X1228844Y535776*
X1229298Y536401*
X1229526Y537026*
X1229753Y537964*
Y539526*
X1229526Y540464*
X1229298Y541089*
X1228844Y541714*
X1228389Y542026*
X1227480*
X1231798D02*
Y535464D01*
Y542026D02*
X1233844D01*
X1234526Y541714*
X1234753Y541401*
X1234980Y540776*
Y539839*
X1234753Y539214*
X1234526Y538901*
X1233844Y538589*
X1231798*
X687021Y378641D02*
Y372078D01*
Y378641D02*
X689975D01*
X687021Y375516D02*
X688839D01*
X687021Y372078D02*
X689975D01*
X692021Y378641D02*
X693839Y372078D01*
X695657Y378641D02*
X693839Y372078D01*
X699521Y378641D02*
X697703Y372078D01*
X699521Y378641D02*
X701339Y372078D01*
X698384Y374266D02*
X700657D01*
X703384Y378641D02*
Y372078D01*
X706112*
X711339Y377703D02*
X710884Y378328D01*
X710203Y378641*
X709293*
X708612Y378328*
X708157Y377703*
Y377078*
X708384Y376453*
X708612Y376141*
X709066Y375828*
X710430Y375203*
X710884Y374891*
X710884D02*
X711112Y374578D01*
X711339Y373953*
Y373016*
X711339D02*
X710884Y372391D01*
X710884D02*
X710203Y372078D01*
X709293*
X708612Y372391*
X708612D02*
X708157Y373016D01*
X714975Y378641D02*
Y372078D01*
X713384Y378641D02*
X716566D01*
X718612Y374891D02*
X722703D01*
X724748Y378641D02*
Y372078D01*
Y378641D02*
X726793D01*
X727475Y378328*
X727703Y378016*
X727930Y377391*
Y376453*
X727703Y375828*
X727475Y375516*
X727475D02*
X726793Y375203D01*
X724748*
X729975Y378641D02*
Y372078D01*
X732703*
X738157Y377078D02*
X737930Y377703D01*
X737475Y378328*
X737021Y378641*
X736112*
X735657Y378328*
X735203Y377703*
X734975Y377078*
X734748Y376141*
Y374578*
X734975Y373641*
X734975D02*
X735203Y373016D01*
X735203D02*
X735657Y372391D01*
X735657D02*
X736112Y372078D01*
X737021*
X737475Y372391*
X737475D02*
X737930Y373016D01*
X737930D02*
X738157Y373641D01*
X740203Y378641D02*
Y372078D01*
Y378641D02*
X742021Y372078D01*
X743839Y378641D02*
X742021Y372078D01*
X743839Y378641D02*
Y372078D01*
X745884Y378641D02*
Y372078D01*
Y378641D02*
X747930D01*
X748612Y378328*
X748839Y378016*
X749066Y377391*
Y376766*
X748839Y376141*
X748612Y375828*
X747930Y375516*
X745884D02*
X747930D01*
X747930D02*
X748612Y375203D01*
X748839Y374891*
X748839D02*
X749066Y374266D01*
X749066D02*
Y373328D01*
X748839Y372703*
X748612Y372391*
X748612D02*
X747930Y372078D01*
X745884*
X751112Y377391D02*
X751566Y377703D01*
X752248Y378641*
Y372078*
X759521Y374891D02*
X763612D01*
X774293Y377078D02*
X774066Y377703D01*
X773612Y378328*
X773157Y378641*
X772248*
X771793Y378328*
X771339Y377703*
X771112Y377078*
X770884Y376141*
Y374578*
X771112Y373641*
X771112D02*
X771339Y373016D01*
X771339D02*
X771793Y372391D01*
X771793D02*
X772248Y372078D01*
X773157*
X773612Y372391*
X773612D02*
X774066Y373016D01*
X774066D02*
X774293Y373641D01*
X778612Y378641D02*
Y373641D01*
X778612D02*
X778384Y372703D01*
X778157Y372391*
X778157D02*
X777703Y372078D01*
X777248*
X776793Y372391*
X776793D02*
X776566Y372703D01*
X776339Y373641*
X776339D02*
Y374266D01*
X785884Y374891D02*
X789975D01*
X797248Y376453D02*
Y372078D01*
Y374578D02*
X797475Y375516D01*
X797475D02*
X797930Y376141D01*
X798384Y376453*
X799066*
X801112Y374578D02*
X803839D01*
Y375203*
X803612Y375828*
X803384Y376141*
X802930Y376453*
X802248*
X801793Y376141*
X801339Y375516*
X801339D02*
X801112Y374578D01*
Y373953*
X801339Y373016*
X801339D02*
X801793Y372391D01*
X801793D02*
X802248Y372078D01*
X802930*
X803384Y372391*
X803384D02*
X803839Y373016D01*
X805884Y376453D02*
X807248Y372078D01*
X808612Y376453D02*
X807248Y372078D01*
X810884Y377078D02*
Y377391D01*
X811112Y378016*
X811339Y378328*
X811793Y378641*
X812703*
X813157Y378328*
X813384Y378016*
X813612Y377391*
Y376766*
X813384Y376141*
X812930Y375203*
X810657Y372078*
X813839*
G54D88*
G54D134*
X1020827Y449350D03*
G54D161*
X444803Y419291D03*
G54D162*
X866850Y432008D03*
X856850Y442008D03*
Y432008D03*
X846850Y442008D03*
Y432008D03*
X836850Y442008D03*
Y432008D03*
X826850Y442008D03*
Y432008D03*
X816850Y442008D03*
Y432008D03*
X806850Y442008D03*
Y432008D03*
X796850Y442008D03*
Y432008D03*
X786850Y442008D03*
Y432008D03*
X776850Y442008D03*
Y432008D03*
X717047Y431811D03*
X707047Y441811D03*
Y431811D03*
X697047Y441811D03*
Y431811D03*
X687047Y441811D03*
Y431811D03*
X677047Y441811D03*
Y431811D03*
X667047Y441811D03*
Y431811D03*
X657047Y441811D03*
Y431811D03*
X647047Y441811D03*
Y431811D03*
X637047Y441811D03*
Y431811D03*
X627047Y441811D03*
Y431811D03*
G54D231*
X866850Y442008D03*
X717047Y441811D03*
G54D234*
X1022638Y488189D03*
G54D237*
X928228Y557126D03*
G54D346*
X454803Y419291D03*
G54D358*
X994094Y528543D03*
X996063D03*
X998031D03*
X1000000D03*
X1001969D03*
X1003937D03*
X1005906D03*
X1007874D03*
X1009843D03*
X1011811D03*
X1013780D03*
X1015748D03*
X1017717D03*
X1019685D03*
X1021654D03*
X1023622D03*
Y573819D03*
X1021654D03*
X1019685D03*
X1017717D03*
X1015748D03*
X1013780D03*
X1011811D03*
X1009843D03*
X1007874D03*
X1005906D03*
X1003937D03*
X1001969D03*
X1000000D03*
X998031D03*
X996063D03*
X994094D03*
G54D361*
X410433Y542323D03*
X439961D03*
G54D366*
X716535Y592520D03*
X1018701Y621063D03*
X716535Y533465D03*
X700039Y609055D03*
X462756D03*
G54D367*
X726535Y592520D03*
X736535D03*
X1028701Y621063D03*
X726535Y533465D03*
X736535D03*
X690039Y609055D03*
X680039D03*
X670039D03*
X452756D03*
X442756D03*
G54D386*
X918228Y557126D03*
X928228Y547126D03*
X918228D03*
X928228Y537126D03*
X918228D03*
X928228Y527126D03*
X918228D03*
X928228Y517126D03*
X918228D03*
X928228Y507126D03*
X918228D03*
X928228Y497126D03*
X918228D03*
X928228Y487126D03*
X918228D03*
X928228Y477126D03*
X918228D03*
X928228Y467126D03*
X918228D03*
X928228Y457126D03*
X918228D03*
X928228Y447126D03*
X918228D03*
X928228Y437126D03*
X918228D03*
X928228Y427126D03*
X918228D03*
G54D512*
X1020827Y444350D03*
X1015827Y449350D03*
Y444350D03*
X1010827Y449350D03*
Y444350D03*
X1005827Y449350D03*
Y444350D03*
X1000827Y449350D03*
Y444350D03*
G54D521*
X412598Y443937D03*
G54D532*
X900591Y557087D03*
X987205Y620079D03*
X1000984D03*
X1066929Y560039D03*
X892717Y438976D03*
X900591Y446850D03*
Y456693D03*
X1023622Y468504D03*
X900591Y547244D03*
Y537402D03*
X491220Y507126D03*
X481220Y497126D03*
X491220D03*
X481220Y487126D03*
X491220D03*
X481220Y477126D03*
X491220D03*
G54D534*
X967572Y563976D03*
X973372D03*
X973425Y551234D03*
Y557034D03*
X942966Y555118D03*
X948766D03*
X942966Y563976D03*
X948766D03*
X942966Y549213D03*
X948766D03*
X942966Y573819D03*
X948766D03*
X975341Y572835D03*
X969541D03*
X700840Y451772D03*
X706640D03*
X733268Y574750D03*
Y568950D03*
X751969Y606352D03*
Y612152D03*
X737152Y545276D03*
X731352D03*
X718557D03*
X724357D03*
X699803Y551234D03*
Y557034D03*
X664317Y451772D03*
X658517D03*
X646706D03*
X652506D03*
X683018D03*
X677218D03*
X972494Y530512D03*
X978294D03*
Y536417D03*
X972494D03*
X978294Y542323D03*
X972494D03*
X1035433Y503006D03*
Y508806D03*
X1052165Y517769D03*
Y523569D03*
X1036470Y517717D03*
X1042270D03*
X1005958Y582677D03*
X1011758D03*
X1040354Y572782D03*
Y566982D03*
X1070813Y474409D03*
X1065013D03*
X1027559Y503006D03*
Y508806D03*
X1020669D03*
Y503006D03*
X947782Y451772D03*
X941982D03*
X947782Y461614D03*
X941982D03*
X1006890Y486168D03*
Y480368D03*
X996994Y514764D03*
X991194D03*
X996994Y520669D03*
X991194D03*
X941982Y511811D03*
X947782D03*
Y521654D03*
X941982D03*
X947782Y502953D03*
X941982D03*
Y497047D03*
X947782D03*
X997979Y594488D03*
X992179D03*
X1037454Y492126D03*
X1043254D03*
X1019685Y401628D03*
Y407428D03*
X1029528Y401628D03*
Y407428D03*
X1001969Y401628D03*
Y407428D03*
X992126Y401628D03*
Y407428D03*
X1058018Y590551D03*
X1052218D03*
X1058018Y557087D03*
X1052218D03*
X941982Y467520D03*
X947782D03*
X953793Y461614D03*
X959593D03*
X947782Y473425D03*
X941982D03*
Y479331D03*
X947782D03*
Y485236D03*
X941982D03*
X997979Y588583D03*
X992179D03*
X1055118Y610183D03*
Y604383D03*
Y615210D03*
Y621010D03*
X1018754Y611220D03*
X1024554D03*
X1042270Y598425D03*
X1036470D03*
X992179Y582677D03*
X997979D03*
X1020669Y521601D03*
Y515801D03*
X1026575Y521601D03*
Y515801D03*
X797244Y451824D03*
Y457624D03*
X1069882Y589514D03*
Y583714D03*
X1096457Y492179D03*
Y497979D03*
Y507927D03*
Y513727D03*
Y523675D03*
Y529475D03*
Y539423D03*
Y545223D03*
X1054187Y457677D03*
X1059987D03*
X941982Y537402D03*
X947782D03*
X1070813Y482283D03*
X1065013D03*
Y457677D03*
X1070813D03*
X1049160Y414961D03*
X1043360D03*
X1049160Y423228D03*
X1043360D03*
G54D538*
X688534Y505906D03*
X669734D03*
G54D539*
X743898Y621063D03*
X752165D03*
X1019685Y423425D03*
Y415157D03*
X1029528Y423425D03*
Y415157D03*
X1001969Y423425D03*
Y415157D03*
X992126Y423425D03*
Y415157D03*
X1080512Y545276D03*
X1088780D03*
X1080512Y529528D03*
X1088780D03*
X1080512Y513780D03*
X1088780D03*
X1080512Y498031D03*
X1088780D03*
G54D540*
X1068130Y464567D03*
Y466535D03*
Y468504D03*
X1061791D03*
Y466535D03*
Y464567D03*
G54D541*
X799213Y575197D03*
G54D542*
Y598819D03*
G54D543*
X780709Y587008D03*
G54D544*
X412598Y463937D03*
G54D547*
X413386Y413386D03*
Y610236D03*
X964567D03*
Y413386D03*
G54D548*
X1046260Y403543D03*
X881496Y590630D03*
X891496Y580630D03*
Y590630D03*
X901496Y580630D03*
Y590630D03*
X911496Y580630D03*
Y590630D03*
X921496Y580630D03*
Y590630D03*
X931496Y580630D03*
Y590630D03*
X433071Y403543D03*
X403543Y588583D03*
X414370Y493937D03*
Y513937D03*
X924213Y406496D03*
X542913Y618898D03*
X847441Y606299D03*
X1038780Y435630D03*
X1045276Y621063D03*
X699803Y567913D03*
G54D549*
X1061545Y533528D03*
Y525528D03*
X1070345Y529528D03*
X1061545Y517780D03*
Y509780D03*
X1070345Y513780D03*
X1061545Y502031D03*
Y494031D03*
X1070345Y498031D03*
X1061545Y549276D03*
Y541276D03*
X1070345Y545276D03*
G54D550*
X726315Y611742D03*
X734315D03*
X730315Y620542D03*
G54D551*
X1089606Y407874D03*
X1059606D03*
X1089606Y434252D03*
X1059606D03*
G54D555*
X1042126Y510630D03*
Y506890D03*
Y503150D03*
X1052362D03*
Y510630D03*
G54D559*
X986220Y565945D03*
Y563976D03*
Y562008D03*
Y560039D03*
Y558071D03*
Y556102D03*
Y554134D03*
Y552165D03*
Y550197D03*
Y548228D03*
Y546260D03*
Y544291D03*
Y542323D03*
Y540354D03*
Y538386D03*
Y536417D03*
X1031496D03*
Y538386D03*
Y540354D03*
Y542323D03*
Y544291D03*
Y546260D03*
Y548228D03*
Y550197D03*
Y552165D03*
Y554134D03*
Y556102D03*
Y558071D03*
Y560039D03*
Y562008D03*
Y563976D03*
Y565945D03*
G54D562*
X724035Y577165D03*
X719035D03*
X714035D03*
X709035D03*
Y556693D03*
X714035D03*
X719035D03*
X724035D03*
G54D564*
X1030512Y483268D03*
Y493110D03*
X1014764D03*
Y483268D03*
G54D565*
X1030512Y485236D03*
Y487205D03*
Y489173D03*
Y491142D03*
X1014764D03*
Y489173D03*
Y487205D03*
Y485236D03*
G54D566*
X1027559Y496063D03*
X1017716D03*
Y480315D03*
X1027559D03*
G54D567*
X1025591Y496063D03*
X1023622D03*
X1021654D03*
X1019685D03*
Y480315D03*
X1021654D03*
X1023622D03*
X1025591D03*
G54D569*
X963780Y544882D03*
Y553543D03*
X957480D03*
Y544882D03*
G54D571*
X704724Y506102D03*
Y493110D03*
X454724Y468110D03*
Y455118D03*
Y447441D03*
Y434449D03*
G54D575*
X481220Y507126D03*
G54D578*
X1094488Y603346D03*
Y621063D03*
X1062992Y603346D03*
Y621063D03*
G54D581*
X1078346Y568504D03*
Y571654D03*
Y574803D03*
Y577953D03*
Y581102D03*
Y462205D03*
Y465354D03*
Y468504D03*
Y471654D03*
Y474803D03*
G54D582*
X1087795Y560433D03*
Y589173D03*
Y454134D03*
Y482874D03*
G54D596*
X730217Y603346D03*
X726476D03*
G54D597*
X753937Y470472D03*
Y501969D03*
X726378D03*
Y470472D03*
G54D600*
X958661Y563976D03*
Y573819D03*
G54D601*
X1058071Y582480D03*
X1056102D03*
X1054134D03*
X1052165D03*
X1050197D03*
Y565157D03*
X1052165D03*
X1054134D03*
X1056102D03*
X1058071D03*
G54D602*
X881496Y580630D03*
G54D603*
X1027953Y588957D03*
Y593957D03*
Y598957D03*
Y603957D03*
X1007480D03*
Y598957D03*
Y593957D03*
Y588957D03*
X0Y0D02*
M02*
