%FSLAX42Y42*%
%MOMM*%
G71*
G01*
G75*
%ADD10C,0.01*%
%ADD11R,1.30X1.80*%
%ADD12C,0.60*%
%ADD13C,0.25*%
%ADD14C,0.30*%
%ADD15C,1.20*%
%ADD16C,0.15*%
%ADD17O,2.00X1.20*%
%ADD18O,2.00X2.50*%
%ADD19C,2.00*%
%ADD20C,2.50*%
%ADD21C,0.80*%
%ADD22C,1.00*%
%ADD23R,1.45X1.65*%
%ADD24R,1.20X1.50*%
%ADD25C,6.00*%
%ADD26R,1.00X0.60*%
%ADD27R,3.60X1.40*%
%ADD28R,2.30X1.50*%
%ADD29O,2.30X1.50*%
%ADD30R,0.80X0.50*%
%ADD31R,0.50X0.80*%
%ADD32R,1.10X1.50*%
%ADD33R,0.80X1.00*%
%ADD34R,1.00X0.80*%
%ADD35R,1.00X0.70*%
%ADD36R,1.50X1.10*%
%ADD37R,3.60X2.00*%
%ADD38R,0.50X0.30*%
%ADD39R,1.75X3.10*%
%ADD40O,2.20X0.70*%
%ADD41R,2.20X0.70*%
%ADD42O,2.20X0.70*%
%ADD43R,1.52X2.30*%
%ADD44R,2.03X1.82*%
%ADD45R,0.75X1.38*%
%ADD46R,1.10X0.50*%
%ADD47R,2.00X3.50*%
%ADD48R,1.65X1.45*%
%ADD49R,1.80X1.30*%
%ADD50R,3.43X3.25*%
%ADD51R,1.20X4.90*%
%ADD52C,1.00*%
%ADD53C,0.80*%
%ADD54C,0.40*%
%ADD55C,0.10*%
%ADD56C,1.50*%
%ADD57R,1.92X3.83*%
%ADD58R,0.85X0.47*%
%ADD59R,3.10X1.50*%
%ADD60R,1.90X1.40*%
%ADD61R,1.65X1.65*%
%ADD62R,0.82X0.80*%
%ADD63R,0.49X0.38*%
%ADD64R,0.00X0.41*%
%ADD65R,0.80X0.57*%
%ADD66R,1.05X1.02*%
%ADD67R,0.82X0.41*%
%ADD68R,0.52X0.55*%
%ADD69R,1.20X1.65*%
%ADD70R,1.48X1.40*%
%ADD71R,2.88X1.10*%
%ADD72C,0.20*%
%ADD73C,0.13*%
%ADD74C,0.15*%
%ADD75R,1.50X2.00*%
%ADD76C,0.20*%
%ADD77O,2.20X1.40*%
%ADD78O,2.20X2.70*%
%ADD79C,2.20*%
%ADD80C,2.70*%
%ADD81C,1.00*%
%ADD82C,1.20*%
%ADD83R,1.65X1.85*%
%ADD84R,1.40X1.70*%
%ADD85C,6.20*%
%ADD86R,1.20X0.80*%
%ADD87R,3.80X1.60*%
%ADD88R,2.50X1.70*%
%ADD89O,2.50X1.70*%
%ADD90R,1.00X0.70*%
%ADD91R,0.70X1.00*%
%ADD92R,1.30X1.70*%
%ADD93R,1.00X1.20*%
%ADD94R,1.20X1.00*%
%ADD95R,1.20X0.90*%
%ADD96R,1.70X1.30*%
%ADD97R,3.80X2.20*%
%ADD98R,0.70X0.50*%
%ADD99R,1.95X3.30*%
%ADD100O,2.40X0.90*%
%ADD101R,2.40X0.90*%
%ADD102O,2.40X0.90*%
%ADD103R,1.72X2.50*%
%ADD104R,2.23X2.02*%
%ADD105R,0.95X1.58*%
%ADD106R,1.30X0.70*%
%ADD107R,2.20X3.70*%
%ADD108R,1.85X1.65*%
%ADD109R,2.00X1.50*%
%ADD110R,3.63X3.45*%
%ADD111R,1.40X5.10*%
%ADD112C,0.17*%
D10*
X22925Y18987D02*
Y19088D01*
X23027D01*
Y18987D01*
X22925D01*
X28704D02*
Y19088D01*
X28805D01*
Y18987D01*
X28704D01*
X28958D02*
Y19088D01*
X29059D01*
Y18987D01*
X28958D01*
X21373Y19589D02*
X21322Y19691D01*
X21424D01*
X21373Y19589D01*
X25833Y19911D02*
Y20013D01*
X25934D01*
Y19911D01*
X25833D01*
Y20961D02*
Y21063D01*
X25934D01*
Y20961D01*
X25833D01*
X26238Y18781D02*
X26187Y18883D01*
X26289D01*
X26238Y18781D01*
X21260Y21251D02*
X21210Y21353D01*
X21311D01*
X21260Y21251D01*
X23908Y19434D02*
X23933Y19459D01*
X23959D01*
X23933Y19485D01*
X23959Y19510D01*
X23933D01*
X23908Y19536D01*
X23883Y19510D01*
X23857D01*
X23883Y19485D01*
X23857Y19459D01*
X23883D01*
X23908Y19434D01*
X25230Y19911D02*
X25256Y19937D01*
X25281D01*
X25256Y19962D01*
X25281Y19988D01*
X25256D01*
X25230Y20013D01*
X25205Y19988D01*
X25180D01*
X25205Y19962D01*
X25180Y19937D01*
X25205D01*
X25230Y19911D01*
X27657Y19281D02*
X27683Y19332D01*
X27657Y19383D01*
X27708Y19358D01*
X27759Y19383D01*
X27733Y19332D01*
X27759Y19281D01*
X27708Y19307D01*
X27657Y19281D01*
X27828Y21932D02*
Y21906D01*
X27878D01*
Y21932D01*
X27904D01*
Y21983D01*
X27878D01*
Y22008D01*
X27828D01*
Y21983D01*
X27802D01*
Y21932D01*
X27828D01*
X26993Y21487D02*
Y21461D01*
X27043D01*
Y21487D01*
X27069D01*
Y21538D01*
X27043D01*
Y21563D01*
X26993D01*
Y21538D01*
X26967D01*
Y21487D01*
X26993D01*
X27323Y21504D02*
Y21479D01*
X27373D01*
Y21504D01*
X27399D01*
Y21555D01*
X27373D01*
Y21581D01*
X27323D01*
Y21555D01*
X27297D01*
Y21504D01*
X27323D01*
X23970Y20599D02*
Y20574D01*
X24021D01*
Y20599D01*
X24046D01*
Y20650D01*
X24021D01*
Y20676D01*
X23970D01*
Y20650D01*
X23945D01*
Y20599D01*
X23970D01*
X26215Y21312D02*
Y21286D01*
X26266D01*
Y21312D01*
X26291D01*
Y21363D01*
X26266D01*
Y21388D01*
X26215D01*
Y21363D01*
X26190D01*
Y21312D01*
X26215D01*
X24723Y20337D02*
Y20311D01*
X24773D01*
Y20337D01*
X24799D01*
Y20388D01*
X24773D01*
Y20413D01*
X24723D01*
Y20388D01*
X24697D01*
Y20337D01*
X24723D01*
X27110Y19341D02*
X27135Y19392D01*
X27110Y19443D01*
X27160Y19418D01*
X27211Y19443D01*
X27186Y19392D01*
X27211Y19341D01*
X27160Y19367D01*
X27110Y19341D01*
X27225Y19146D02*
X27250Y19197D01*
X27225Y19248D01*
X27275Y19223D01*
X27326Y19248D01*
X27301Y19197D01*
X27326Y19146D01*
X27275Y19172D01*
X27225Y19146D01*
X28025Y19176D02*
X28050Y19227D01*
X28025Y19278D01*
X28075Y19253D01*
X28126Y19278D01*
X28101Y19227D01*
X28126Y19176D01*
X28075Y19202D01*
X28025Y19176D01*
X27657Y19389D02*
X27683Y19440D01*
X27657Y19491D01*
X27708Y19465D01*
X27759Y19491D01*
X27733Y19440D01*
X27759Y19389D01*
X27708Y19414D01*
X27657Y19389D01*
X24250Y20337D02*
Y20311D01*
X24301D01*
Y20337D01*
X24326D01*
Y20388D01*
X24301D01*
Y20413D01*
X24250D01*
Y20388D01*
X24225D01*
Y20337D01*
X24250D01*
X24348D02*
Y20311D01*
X24398D01*
Y20337D01*
X24424D01*
Y20388D01*
X24398D01*
Y20413D01*
X24348D01*
Y20388D01*
X24322D01*
Y20337D01*
X24348D01*
X27657Y19484D02*
X27683Y19535D01*
X27657Y19586D01*
X27708Y19560D01*
X27759Y19586D01*
X27733Y19535D01*
X27759Y19484D01*
X27708Y19509D01*
X27657Y19484D01*
D13*
X21033Y17942D02*
X25123D01*
X26143D02*
X30233D01*
X21033D02*
X21185Y17993D01*
X21033Y17942D02*
X21185Y17891D01*
X30081Y17993D02*
X30233Y17942D01*
X30081Y17891D02*
X30233Y17942D01*
X21033Y17917D02*
Y17968D01*
X30233Y17917D02*
Y17968D01*
X20598Y18542D02*
Y20132D01*
Y21153D02*
Y22742D01*
X20547Y18695D02*
X20598Y18542D01*
X20649Y18695D01*
X20547Y22590D02*
X20598Y22742D01*
X20649Y22590D01*
X20573Y18542D02*
X20623D01*
X20573Y22742D02*
X20623D01*
X22982Y18242D02*
X25422D01*
X26442D02*
X28882D01*
X22982D02*
X23134Y18293D01*
X22982Y18242D02*
X23134Y18191D01*
X28730Y18293D02*
X28882Y18242D01*
X28730Y18191D02*
X28882Y18242D01*
X22982Y18217D02*
Y18268D01*
X28882Y18217D02*
Y18268D01*
X21033Y18242D02*
X21371D01*
X22645D02*
X22983D01*
X21033D02*
X21185Y18293D01*
X21033Y18242D02*
X21185Y18191D01*
X22831Y18293D02*
X22983Y18242D01*
X22831Y18191D02*
X22983Y18242D01*
X21033Y18217D02*
Y18268D01*
X22983Y18217D02*
Y18268D01*
D16*
X25148Y17876D02*
X25173Y17851D01*
X25224D01*
X25250Y17876D01*
Y17978D01*
X25224Y18003D01*
X25173D01*
X25148Y17978D01*
Y17952D01*
X25173Y17927D01*
X25250D01*
X25402Y17851D02*
X25300D01*
X25402Y17952D01*
Y17978D01*
X25377Y18003D01*
X25326D01*
X25300Y17978D01*
X25656Y17851D02*
X25605Y17902D01*
Y17952D01*
X25656Y18003D01*
X25732Y17851D02*
Y17952D01*
X25757D01*
X25783Y17927D01*
Y17851D01*
Y17927D01*
X25808Y17952D01*
X25834Y17927D01*
Y17851D01*
X25884D02*
Y17952D01*
X25910D01*
X25935Y17927D01*
Y17851D01*
Y17927D01*
X25961Y17952D01*
X25986Y17927D01*
Y17851D01*
X26037D02*
X26088Y17902D01*
Y17952D01*
X26037Y18003D01*
X20689Y20233D02*
X20537D01*
X20613Y20157D01*
Y20259D01*
X20689Y20411D02*
Y20310D01*
X20588Y20411D01*
X20562D01*
X20537Y20386D01*
Y20335D01*
X20562Y20310D01*
X20689Y20665D02*
X20639Y20614D01*
X20588D01*
X20537Y20665D01*
X20689Y20741D02*
X20588D01*
Y20767D01*
X20613Y20792D01*
X20689D01*
X20613D01*
X20588Y20817D01*
X20613Y20843D01*
X20689D01*
Y20894D02*
X20588D01*
Y20919D01*
X20613Y20944D01*
X20689D01*
X20613D01*
X20588Y20970D01*
X20613Y20995D01*
X20689D01*
Y21046D02*
X20639Y21097D01*
X20588D01*
X20537Y21046D01*
X25549Y18303D02*
X25447D01*
Y18227D01*
X25498Y18252D01*
X25523D01*
X25549Y18227D01*
Y18176D01*
X25523Y18151D01*
X25472D01*
X25447Y18176D01*
X25599D02*
X25625Y18151D01*
X25676D01*
X25701Y18176D01*
Y18278D01*
X25676Y18303D01*
X25625D01*
X25599Y18278D01*
Y18252D01*
X25625Y18227D01*
X25701D01*
X25955Y18151D02*
X25904Y18202D01*
Y18252D01*
X25955Y18303D01*
X26031Y18151D02*
Y18252D01*
X26056D01*
X26082Y18227D01*
Y18151D01*
Y18227D01*
X26107Y18252D01*
X26133Y18227D01*
Y18151D01*
X26183D02*
Y18252D01*
X26209D01*
X26234Y18227D01*
Y18151D01*
Y18227D01*
X26260Y18252D01*
X26285Y18227D01*
Y18151D01*
X26336D02*
X26387Y18202D01*
Y18252D01*
X26336Y18303D01*
X21396Y18151D02*
X21447D01*
X21421D01*
Y18303D01*
X21396Y18278D01*
X21523Y18176D02*
X21548Y18151D01*
X21599D01*
X21625Y18176D01*
Y18278D01*
X21599Y18303D01*
X21548D01*
X21523Y18278D01*
Y18252D01*
X21548Y18227D01*
X21625D01*
X21675Y18151D02*
Y18176D01*
X21701D01*
Y18151D01*
X21675D01*
X21904Y18303D02*
X21802D01*
Y18227D01*
X21853Y18252D01*
X21878D01*
X21904Y18227D01*
Y18176D01*
X21878Y18151D01*
X21828D01*
X21802Y18176D01*
X22158Y18151D02*
X22107Y18202D01*
Y18252D01*
X22158Y18303D01*
X22234Y18151D02*
Y18252D01*
X22259D01*
X22285Y18227D01*
Y18151D01*
Y18227D01*
X22310Y18252D01*
X22336Y18227D01*
Y18151D01*
X22386D02*
Y18252D01*
X22412D01*
X22437Y18227D01*
Y18151D01*
Y18227D01*
X22463Y18252D01*
X22488Y18227D01*
Y18151D01*
X22539D02*
X22589Y18202D01*
Y18252D01*
X22539Y18303D01*
D112*
X28614Y20440D02*
X28608Y20463D01*
X28592Y20482D01*
X28569Y20490D01*
X28545Y20487D01*
X28525Y20473D01*
X28514Y20452D01*
Y20428D01*
X28525Y20406D01*
X28545Y20392D01*
X28569Y20389D01*
X28592Y20398D01*
X28608Y20416D01*
X28614Y20440D01*
Y20190D02*
X28608Y20213D01*
X28592Y20232D01*
X28569Y20240D01*
X28545Y20237D01*
X28525Y20223D01*
X28514Y20202D01*
Y20178D01*
X28525Y20156D01*
X28545Y20142D01*
X28569Y20139D01*
X28592Y20148D01*
X28608Y20166D01*
X28614Y20190D01*
X23605Y19838D02*
X23599Y19862D01*
X23583Y19880D01*
X23561Y19889D01*
X23536Y19886D01*
X23516Y19872D01*
X23505Y19850D01*
Y19826D01*
X23516Y19805D01*
X23536Y19791D01*
X23561Y19788D01*
X23583Y19797D01*
X23599Y19815D01*
X23605Y19838D01*
X24781Y19962D02*
X24775Y19986D01*
X24759Y20004D01*
X24737Y20013D01*
X24712Y20010D01*
X24692Y19996D01*
X24681Y19974D01*
Y19950D01*
X24692Y19929D01*
X24712Y19915D01*
X24737Y19912D01*
X24759Y19920D01*
X24775Y19939D01*
X24781Y19962D01*
X28069Y20745D02*
X28063Y20768D01*
X28047Y20787D01*
X28024Y20795D01*
X28000Y20792D01*
X27980Y20778D01*
X27969Y20757D01*
Y20733D01*
X27980Y20711D01*
X28000Y20697D01*
X28024Y20694D01*
X28047Y20703D01*
X28063Y20721D01*
X28069Y20745D01*
Y21245D02*
X28063Y21268D01*
X28047Y21287D01*
X28024Y21295D01*
X28000Y21292D01*
X27980Y21278D01*
X27969Y21257D01*
Y21233D01*
X27980Y21211D01*
X28000Y21197D01*
X28024Y21194D01*
X28047Y21203D01*
X28063Y21221D01*
X28069Y21245D01*
X27841Y20292D02*
X27835Y20316D01*
X27819Y20334D01*
X27797Y20343D01*
X27772Y20340D01*
X27752Y20326D01*
X27741Y20304D01*
Y20280D01*
X27752Y20259D01*
X27772Y20245D01*
X27797Y20242D01*
X27819Y20250D01*
X27835Y20269D01*
X27841Y20292D01*
Y20042D02*
X27835Y20066D01*
X27819Y20084D01*
X27797Y20093D01*
X27772Y20090D01*
X27752Y20076D01*
X27741Y20054D01*
Y20030D01*
X27752Y20009D01*
X27772Y19995D01*
X27797Y19992D01*
X27819Y20000D01*
X27835Y20019D01*
X27841Y20042D01*
M02*
