M71
M48
T1F00S00C0.30
T2F00S00C0.50
T3F00S00C0.60
T4F00S00C0.70
T5F00S00C0.80
T6F00S00C1.00
T7F00S00C1.10
T8F00S00C3.00
%
T01
X006242Y000655
X006127Y00085
X006675Y000898
Y000993
Y00079
X007043Y000685
T02
X002962Y002083
X003242Y00182
X00334
X003715
X005208Y002795
X005985Y00297
X006315Y002988
X00682Y003415
T03
X005098Y003345
Y003599
X00586
Y003345
T04
X006757Y0015
Y00175
X006985Y002203
X00753Y001898
Y001648
X00781Y00245
X003698Y00142
X002521Y001296
X006985Y002702
X00781Y0027
T05
X002875Y000943
X004197Y00142
X001395Y003492
Y003942
X002395
Y003492
T06
X005205Y00029
X005705
X001662Y00093
Y00143
X00084Y001098
X00034
X000228Y00276
X002477
T07
X006071Y00127
Y00154
Y00181
Y00208
Y00235
X007468Y000495
X007722
X007976
X00823
X004851Y00142
Y00177
X004851Y00212
X004851Y00247
X002197Y000495
X001943
X001689
X006071Y00262
T08
X008735Y0004
X000465
Y0037
X008735
M30
