%FSLAX42Y42*%
%MOMM*%
G71*
G01*
G75*
%ADD10C,0.01*%
%ADD11R,1.30X1.80*%
%ADD12C,0.60*%
%ADD13C,0.25*%
%ADD14C,0.30*%
%ADD15C,1.20*%
%ADD16C,0.15*%
%ADD17O,2.00X1.20*%
%ADD18O,2.00X2.50*%
%ADD19C,2.00*%
%ADD20C,2.50*%
%ADD21C,0.80*%
%ADD22C,1.00*%
%ADD23R,1.45X1.65*%
%ADD24R,1.20X1.50*%
%ADD25C,6.00*%
%ADD26R,1.00X0.60*%
%ADD27R,3.60X1.40*%
%ADD28R,2.30X1.50*%
%ADD29O,2.30X1.50*%
%ADD30R,0.80X0.50*%
%ADD31R,0.50X0.80*%
%ADD32R,1.10X1.50*%
%ADD33R,0.80X1.00*%
%ADD34R,1.00X0.80*%
%ADD35R,1.00X0.70*%
%ADD36R,1.50X1.10*%
%ADD37R,3.60X2.00*%
%ADD38R,0.50X0.30*%
%ADD39R,1.75X3.10*%
%ADD40O,2.20X0.70*%
%ADD41R,2.20X0.70*%
%ADD42O,2.20X0.70*%
%ADD43R,1.52X2.30*%
%ADD44R,2.03X1.82*%
%ADD45R,0.75X1.38*%
%ADD46R,1.10X0.50*%
%ADD47R,2.00X3.50*%
%ADD48R,1.65X1.45*%
%ADD49R,1.80X1.30*%
%ADD50R,3.43X3.25*%
%ADD51R,1.20X4.90*%
%ADD52C,1.00*%
%ADD53C,0.80*%
%ADD54C,0.40*%
%ADD55C,0.10*%
%ADD56C,1.50*%
%ADD57R,1.92X3.83*%
%ADD58R,0.85X0.47*%
%ADD59R,3.10X1.50*%
%ADD60R,1.90X1.40*%
%ADD61R,1.65X1.65*%
%ADD62R,0.82X0.80*%
%ADD63R,0.49X0.38*%
%ADD64R,0.00X0.41*%
%ADD65R,0.80X0.57*%
%ADD66R,1.05X1.02*%
%ADD67R,0.82X0.41*%
%ADD68R,0.52X0.55*%
%ADD69R,1.20X1.65*%
%ADD70R,1.48X1.40*%
%ADD71R,2.88X1.10*%
%ADD72C,0.20*%
%ADD73C,0.13*%
%ADD74C,0.15*%
D13*
X24529Y22156D02*
X24520Y22179D01*
X24499Y22192D01*
X24474Y22188D01*
X24457Y22168D01*
Y22143D01*
X24474Y22124D01*
X24499Y22119D01*
X24520Y22132D01*
X24529Y22156D01*
X24527Y22112D02*
X24520Y22136D01*
X24501Y22153D01*
X24476Y22156D01*
X24453Y22146D01*
X24440Y22125D01*
Y22099D01*
X24453Y22078D01*
X24476Y22068D01*
X24501Y22071D01*
X24520Y22088D01*
X24527Y22112D01*
X25416Y22008D02*
X25412Y22033D01*
X25403Y22057D01*
X25388Y22078D01*
X25368Y22094D01*
X25345Y22105D01*
X25319Y22110D01*
X25294Y22108D01*
X25269Y22100D01*
X25248Y22087D01*
X25230Y22068D01*
X25218Y22045D01*
X25211Y22020D01*
Y21995D01*
X25218Y21970D01*
X25230Y21947D01*
X25248Y21928D01*
X25269Y21915D01*
X25294Y21907D01*
X25319Y21905D01*
X25345Y21910D01*
X25368Y21921D01*
X25388Y21937D01*
X25403Y21958D01*
X25412Y21982D01*
X25416Y22008D01*
X30118Y22242D02*
X30117Y22268D01*
X30114Y22293D01*
X30110Y22317D01*
X30103Y22342D01*
X30095Y22366D01*
X30086Y22389D01*
X30074Y22412D01*
X30061Y22433D01*
X30047Y22454D01*
X30031Y22474D01*
X30013Y22492D01*
X29995Y22509D01*
X29975Y22525D01*
X29954Y22539D01*
X29932Y22551D01*
X29909Y22563D01*
X29886Y22572D01*
X29862Y22579D01*
X29837Y22585D01*
X29812Y22589D01*
X29787Y22592D01*
X29762Y22592D01*
X29736Y22591D01*
X29711Y22588D01*
X29687Y22583D01*
X29662Y22576D01*
X29638Y22567D01*
X29615Y22557D01*
X29593Y22545D01*
X29572Y22532D01*
X29551Y22517D01*
X29532Y22501D01*
X29514Y22483D01*
X29497Y22464D01*
X29482Y22444D01*
X29468Y22423D01*
X29456Y22401D01*
X29445Y22378D01*
X29436Y22354D01*
X29429Y22330D01*
X29424Y22305D01*
X29420Y22280D01*
X29418Y22255D01*
Y22230D01*
X29420Y22204D01*
X29424Y22179D01*
X29429Y22155D01*
X29436Y22131D01*
X29445Y22107D01*
X29456Y22084D01*
X29468Y22062D01*
X29482Y22041D01*
X29497Y22021D01*
X29514Y22002D01*
X29532Y21984D01*
X29551Y21967D01*
X29572Y21953D01*
X29593Y21939D01*
X29615Y21927D01*
X29638Y21917D01*
X29662Y21909D01*
X29687Y21902D01*
X29711Y21897D01*
X29736Y21894D01*
X29762Y21892D01*
X29787Y21893D01*
X29812Y21895D01*
X29837Y21899D01*
X29862Y21905D01*
X29886Y21913D01*
X29909Y21922D01*
X29932Y21933D01*
X29954Y21946D01*
X29975Y21960D01*
X29995Y21975D01*
X30013Y21993D01*
X30031Y22011D01*
X30047Y22030D01*
X30061Y22051D01*
X30074Y22073D01*
X30086Y22095D01*
X30095Y22119D01*
X30103Y22143D01*
X30110Y22167D01*
X30114Y22192D01*
X30117Y22217D01*
X30118Y22242D01*
X21848Y18942D02*
X21847Y18968D01*
X21844Y18993D01*
X21840Y19017D01*
X21833Y19042D01*
X21825Y19066D01*
X21816Y19089D01*
X21804Y19112D01*
X21791Y19133D01*
X21777Y19154D01*
X21761Y19174D01*
X21743Y19192D01*
X21725Y19209D01*
X21705Y19225D01*
X21684Y19239D01*
X21662Y19251D01*
X21639Y19263D01*
X21616Y19272D01*
X21592Y19279D01*
X21567Y19285D01*
X21542Y19289D01*
X21517Y19292D01*
X21492Y19292D01*
X21466Y19291D01*
X21441Y19288D01*
X21417Y19283D01*
X21392Y19276D01*
X21368Y19267D01*
X21345Y19257D01*
X21323Y19245D01*
X21302Y19232D01*
X21281Y19217D01*
X21262Y19201D01*
X21244Y19183D01*
X21227Y19164D01*
X21212Y19144D01*
X21198Y19123D01*
X21186Y19101D01*
X21175Y19078D01*
X21166Y19054D01*
X21159Y19030D01*
X21154Y19005D01*
X21150Y18980D01*
X21148Y18955D01*
Y18930D01*
X21150Y18904D01*
X21154Y18879D01*
X21159Y18855D01*
X21166Y18831D01*
X21175Y18807D01*
X21186Y18784D01*
X21198Y18762D01*
X21212Y18741D01*
X21227Y18721D01*
X21244Y18702D01*
X21262Y18684D01*
X21281Y18667D01*
X21302Y18653D01*
X21323Y18639D01*
X21345Y18627D01*
X21368Y18617D01*
X21392Y18609D01*
X21417Y18602D01*
X21441Y18597D01*
X21466Y18594D01*
X21492Y18592D01*
X21517Y18593D01*
X21542Y18595D01*
X21567Y18599D01*
X21592Y18605D01*
X21616Y18613D01*
X21639Y18622D01*
X21662Y18633D01*
X21684Y18646D01*
X21705Y18660D01*
X21725Y18675D01*
X21743Y18693D01*
X21761Y18711D01*
X21777Y18730D01*
X21791Y18751D01*
X21804Y18773D01*
X21816Y18795D01*
X21825Y18819D01*
X21833Y18843D01*
X21840Y18867D01*
X21844Y18892D01*
X21847Y18917D01*
X21848Y18942D01*
X30118D02*
X30117Y18968D01*
X30114Y18993D01*
X30110Y19017D01*
X30103Y19042D01*
X30095Y19066D01*
X30086Y19089D01*
X30074Y19112D01*
X30061Y19133D01*
X30047Y19154D01*
X30031Y19174D01*
X30013Y19192D01*
X29995Y19209D01*
X29975Y19225D01*
X29954Y19239D01*
X29932Y19251D01*
X29909Y19263D01*
X29886Y19272D01*
X29862Y19279D01*
X29837Y19285D01*
X29812Y19289D01*
X29787Y19292D01*
X29762Y19292D01*
X29736Y19291D01*
X29711Y19288D01*
X29687Y19283D01*
X29662Y19276D01*
X29638Y19267D01*
X29615Y19257D01*
X29593Y19245D01*
X29572Y19232D01*
X29551Y19217D01*
X29532Y19201D01*
X29514Y19183D01*
X29497Y19164D01*
X29482Y19144D01*
X29468Y19123D01*
X29456Y19101D01*
X29445Y19078D01*
X29436Y19054D01*
X29429Y19030D01*
X29424Y19005D01*
X29420Y18980D01*
X29418Y18955D01*
Y18930D01*
X29420Y18904D01*
X29424Y18879D01*
X29429Y18855D01*
X29436Y18831D01*
X29445Y18807D01*
X29456Y18784D01*
X29468Y18762D01*
X29482Y18741D01*
X29497Y18721D01*
X29514Y18702D01*
X29532Y18684D01*
X29551Y18667D01*
X29572Y18653D01*
X29593Y18639D01*
X29615Y18627D01*
X29638Y18617D01*
X29662Y18609D01*
X29687Y18602D01*
X29711Y18597D01*
X29736Y18594D01*
X29762Y18592D01*
X29787Y18593D01*
X29812Y18595D01*
X29837Y18599D01*
X29862Y18605D01*
X29886Y18613D01*
X29909Y18622D01*
X29932Y18633D01*
X29954Y18646D01*
X29975Y18660D01*
X29995Y18675D01*
X30013Y18693D01*
X30031Y18711D01*
X30047Y18730D01*
X30061Y18751D01*
X30074Y18773D01*
X30086Y18795D01*
X30095Y18819D01*
X30103Y18843D01*
X30110Y18867D01*
X30114Y18892D01*
X30117Y18917D01*
X30118Y18942D01*
X21848Y22242D02*
X21847Y22268D01*
X21844Y22293D01*
X21840Y22317D01*
X21833Y22342D01*
X21825Y22366D01*
X21816Y22389D01*
X21804Y22412D01*
X21791Y22433D01*
X21777Y22454D01*
X21761Y22474D01*
X21743Y22492D01*
X21725Y22509D01*
X21705Y22525D01*
X21684Y22539D01*
X21662Y22551D01*
X21639Y22563D01*
X21616Y22572D01*
X21592Y22579D01*
X21567Y22585D01*
X21542Y22589D01*
X21517Y22592D01*
X21492Y22592D01*
X21466Y22591D01*
X21441Y22588D01*
X21417Y22583D01*
X21392Y22576D01*
X21368Y22567D01*
X21345Y22557D01*
X21323Y22545D01*
X21302Y22532D01*
X21281Y22517D01*
X21262Y22501D01*
X21244Y22483D01*
X21227Y22464D01*
X21212Y22444D01*
X21198Y22423D01*
X21186Y22401D01*
X21175Y22378D01*
X21166Y22354D01*
X21159Y22330D01*
X21154Y22305D01*
X21150Y22280D01*
X21148Y22255D01*
Y22230D01*
X21150Y22204D01*
X21154Y22179D01*
X21159Y22155D01*
X21166Y22131D01*
X21175Y22107D01*
X21186Y22084D01*
X21198Y22062D01*
X21212Y22041D01*
X21227Y22021D01*
X21244Y22002D01*
X21262Y21984D01*
X21281Y21967D01*
X21302Y21953D01*
X21323Y21939D01*
X21345Y21927D01*
X21368Y21917D01*
X21392Y21909D01*
X21417Y21902D01*
X21441Y21897D01*
X21466Y21894D01*
X21492Y21892D01*
X21517Y21893D01*
X21542Y21895D01*
X21567Y21899D01*
X21592Y21905D01*
X21616Y21913D01*
X21639Y21922D01*
X21662Y21933D01*
X21684Y21946D01*
X21705Y21960D01*
X21725Y21975D01*
X21743Y21993D01*
X21761Y22011D01*
X21777Y22030D01*
X21791Y22051D01*
X21804Y22073D01*
X21816Y22095D01*
X21825Y22119D01*
X21833Y22143D01*
X21840Y22167D01*
X21844Y22192D01*
X21847Y22217D01*
X21848Y22242D01*
X24655Y22489D02*
X25350D01*
X24438Y22116D02*
X24650D01*
X24430Y22094D02*
X24678D01*
X24978Y21914D02*
X25113D01*
X24978D02*
X24993Y21929D01*
X25118D01*
Y21946D01*
X25125Y21954D01*
X25115D02*
X25125D01*
X25108Y21946D02*
X25115Y21954D01*
X24993Y21946D02*
X25108D01*
X24993D02*
X25003Y21956D01*
X25125D01*
X25133Y21964D01*
Y21971D01*
X25128Y21976D02*
X25133Y21971D01*
X25003Y21976D02*
X25128D01*
X25003D02*
X25020Y21994D01*
Y22001D01*
X25033Y21989D01*
X25143D01*
X25150Y21996D01*
Y22004D01*
X25143Y22011D02*
X25150Y22004D01*
X25028Y22011D02*
X25143D01*
X25028D02*
X25033Y22016D01*
Y22031D01*
X25040Y22024D01*
X25155D01*
X25163Y22031D01*
Y22041D01*
X25160Y22044D02*
X25163Y22041D01*
X25038Y22044D02*
X25160D01*
X25038D02*
X25050Y22056D01*
Y22066D01*
X25060Y22056D01*
X25165D01*
X25178Y22069D01*
Y22071D01*
X25175Y22074D02*
X25178Y22071D01*
X25055Y22074D02*
X25175D01*
X25055D02*
X25063Y22081D01*
Y22094D01*
X25070Y22086D01*
X25185D01*
X25188Y22089D01*
Y22111D01*
X25183Y22106D02*
X25188Y22111D01*
X25065Y22106D02*
X25183D01*
X25065D02*
X25075Y22116D01*
Y22126D01*
X25085Y22116D01*
X25200D01*
Y22141D01*
X25198Y22139D02*
X25200Y22141D01*
X25080Y22139D02*
X25198D01*
X25080D02*
X25093Y22151D01*
Y22161D01*
X25105Y22149D01*
X25210D01*
X25218Y22156D01*
Y22184D01*
X25208Y22174D02*
X25218Y22184D01*
X25208Y22169D02*
Y22174D01*
X25205Y22171D02*
X25208Y22169D01*
X25100Y22171D02*
X25205D01*
X25100D02*
X25105Y22176D01*
Y22194D01*
X25113Y22186D01*
X25228D01*
X25235Y22194D01*
Y22204D01*
X25113D02*
X25235D01*
X25113D02*
X25120Y22211D01*
Y22221D01*
X25123Y22219D01*
X25248D01*
Y22236D01*
X25245Y22239D02*
X25248Y22236D01*
X25123Y22239D02*
X25245D01*
X25123D02*
X25135Y22251D01*
X25258D01*
Y22264D01*
X25265Y22271D01*
X25143D02*
X25265D01*
X25138Y22266D02*
X25143Y22271D01*
X25138Y22266D02*
Y22276D01*
X25153Y22291D01*
X25263D01*
X25273Y22281D01*
Y22294D01*
X25283Y22304D01*
X25155D02*
X25283D01*
X25153Y22306D02*
X25155Y22304D01*
X24698Y22309D02*
X25008D01*
X24678Y22289D02*
X24698Y22309D01*
X24678Y22289D02*
X24995D01*
X24983Y22276D02*
X24995Y22289D01*
X24983Y22269D02*
Y22276D01*
X24978Y22274D02*
X24983Y22269D01*
X24685Y22274D02*
X24978D01*
X24685D02*
X24698Y22261D01*
X24703Y22256D01*
X24978D01*
X24975Y22254D02*
X24978Y22256D01*
X24975Y22239D02*
Y22254D01*
X24973Y22241D02*
X24975Y22239D01*
X24720Y22241D02*
X24973D01*
X24720D02*
X24735Y22226D01*
Y22224D02*
Y22226D01*
Y22224D02*
X24738Y22221D01*
X24958Y22214D02*
X24965Y22221D01*
X24958Y22201D02*
Y22214D01*
X24955Y22204D02*
X24958Y22201D01*
X24760Y22204D02*
X24955D01*
X24750Y22214D02*
X24760Y22204D01*
X24750Y22214D02*
X24755D01*
X24780Y22189D01*
X24948D01*
X24943Y22184D02*
X24948Y22189D01*
X24943Y22171D02*
Y22184D01*
X24798Y22171D02*
X24820Y22149D01*
X24823Y22151D01*
X24938D01*
X24920Y22134D02*
X24938Y22151D01*
X24920Y22124D02*
Y22134D01*
X24915Y22129D02*
X24920Y22124D01*
X24885Y22129D02*
X24915D01*
X24880Y22134D02*
X24885Y22129D01*
X24835Y22134D02*
X24880D01*
X24835D02*
X24848Y22121D01*
Y22114D02*
Y22121D01*
Y22114D02*
X24915D01*
X24913Y22111D02*
X24915Y22114D01*
X24913Y22099D02*
Y22111D01*
X24910Y22096D02*
X24913Y22099D01*
X24858Y22096D02*
X24910D01*
X24858D02*
X24863Y22091D01*
Y22069D02*
Y22091D01*
Y22069D02*
X24870Y22076D01*
X24905D01*
X24890Y22061D02*
X24905Y22076D01*
X24890Y22056D02*
Y22061D01*
X24870Y22056D02*
X24890D01*
X24863Y22049D02*
X24870Y22056D01*
X24863Y22036D02*
Y22049D01*
Y22036D02*
X24865Y22039D01*
X24888D01*
X24880Y22031D02*
X24888Y22039D01*
X24880Y22016D02*
Y22031D01*
X24878Y22019D02*
X24880Y22016D01*
X24865Y22019D02*
X24878D01*
X24858Y22011D02*
X24865Y22019D01*
X24858Y22011D02*
X24870Y21999D01*
Y21991D02*
Y21999D01*
X24863Y21984D02*
X24870Y21991D01*
X24863Y21984D02*
Y21989D01*
X24860Y21991D02*
X24863Y21989D01*
X24860Y21984D02*
Y21991D01*
X24850Y21974D02*
X24860Y21984D01*
X24850Y21974D02*
X24858Y21966D01*
X24853D02*
X24858D01*
X24840Y21954D02*
X24853Y21966D01*
X24840Y21954D02*
X24843D01*
X24848Y21949D01*
X24838D02*
X24848D01*
X24828Y21939D02*
X24838Y21949D01*
X24823Y21939D02*
X24828D01*
X24823D02*
X24828Y21934D01*
X24840D01*
X24838Y21931D02*
X24840Y21934D01*
X24838Y21921D02*
Y21931D01*
X24835Y21919D02*
X24838Y21921D01*
X24818Y21919D02*
X24835D01*
X24815D02*
X24818D01*
X24813Y21921D02*
X24815Y21919D01*
X24810Y21921D02*
X24813D01*
X24808Y21919D02*
X24810Y21921D01*
X24808Y21919D02*
Y21924D01*
X24800Y21916D02*
X24808Y21924D01*
X24790Y21916D02*
X24800D01*
X24398Y22031D02*
X24705D01*
X24723Y22049D01*
X24690D02*
X24723D01*
X24408D02*
X24690D01*
X24408D02*
X24418Y22059D01*
Y22066D01*
X24423Y22061D01*
X24713D01*
X24703Y22071D02*
X24713Y22061D01*
X24698Y22071D02*
X24703D01*
X24690Y22079D02*
X24698Y22071D01*
X24420Y22079D02*
Y22084D01*
X24430Y22094D01*
X24678D02*
X24685Y22086D01*
X24680D02*
X24685D01*
X24650Y22116D02*
X24680Y22086D01*
X24428Y22106D02*
X24438Y22116D01*
X24448Y22139D02*
X24630D01*
X24645Y22124D01*
X24640D02*
X24645D01*
X24603Y22161D02*
X24640Y22124D01*
X24458Y22161D02*
X24603D01*
X24450Y22154D02*
X24458Y22161D01*
X24450Y22154D02*
Y22156D01*
X24473Y22179D01*
X24585D01*
X24590Y22174D01*
X24593D01*
X24575Y22191D02*
X24593Y22174D01*
X24470Y22191D02*
X24575D01*
X24470D02*
X24478Y22199D01*
Y22214D01*
X24483Y22209D01*
X24565D01*
X24555Y22219D02*
X24565Y22209D01*
X24555Y22219D02*
Y22229D01*
X24550Y22224D02*
X24555Y22229D01*
X24485Y22224D02*
X24550D01*
X24485D02*
X24493Y22231D01*
Y22244D01*
X24550D01*
X24545Y22249D02*
X24550Y22244D01*
X24545Y22249D02*
Y22271D01*
X24535Y22261D02*
X24545Y22271D01*
X24503Y22261D02*
X24535D01*
X24503D02*
Y22264D01*
Y22271D01*
X24513Y22281D01*
X24543D01*
X24545Y22284D01*
Y22299D01*
X24543Y22296D02*
X24545Y22299D01*
X24518Y22296D02*
X24543D01*
X24518D02*
X24520Y22299D01*
Y22316D01*
X24543D01*
X24553Y22326D01*
Y22336D01*
X24550Y22334D02*
X24553Y22336D01*
X24530Y22334D02*
X24550D01*
X24530D02*
X24538Y22341D01*
Y22354D01*
X24555D01*
X24565Y22364D01*
Y22371D01*
X24563Y22374D02*
X24565Y22371D01*
X24545Y22374D02*
X24563D01*
X24545D02*
X24555Y22384D01*
Y22399D01*
X24570Y22384D01*
X24575D01*
X24588Y22396D01*
X24590D01*
X24578Y22409D02*
X24590Y22396D01*
X24565Y22409D02*
X24578D01*
X24565D02*
X24573Y22416D01*
Y22431D01*
X24598Y22406D01*
X24603D01*
X24613Y22416D01*
X24618D01*
X24598Y22436D02*
X24618Y22416D01*
X24590Y22436D02*
X24598D01*
X24578Y22449D02*
X24590Y22436D01*
X24578Y22449D02*
Y22454D01*
X24590Y22466D01*
Y22464D02*
Y22466D01*
Y22464D02*
X24630Y22424D01*
X24633D01*
X24645Y22436D01*
X24655D01*
X24645Y22446D02*
X24655Y22436D01*
X24625Y22446D02*
X24645D01*
X24610Y22461D02*
X24625Y22446D01*
X24610Y22461D02*
Y22464D01*
X24595Y22479D02*
X24610Y22464D01*
X24595Y22479D02*
Y22496D01*
X24600Y22501D01*
X24605D01*
X24623Y22484D01*
Y22471D02*
Y22484D01*
X24620Y22474D02*
X24623Y22471D01*
X24620Y22474D02*
Y22484D01*
X24623Y22486D01*
Y22501D01*
X24625Y22504D01*
X24648D01*
X24643Y22499D02*
X24648Y22504D01*
X24643Y22466D02*
Y22499D01*
Y22466D02*
X24670Y22439D01*
X25338D01*
X25343Y22444D01*
Y22459D01*
X25340Y22456D02*
X25343Y22459D01*
X24660Y22456D02*
X25340D01*
X24640D02*
X24660D01*
X24630Y22466D02*
X24640Y22456D01*
X24630Y22466D02*
X24650D01*
X24658Y22474D01*
X24775D01*
X25353D01*
Y22491D01*
X25350Y22489D02*
X25353Y22491D01*
X24653D02*
X24655Y22489D01*
X24653Y22491D02*
Y22504D01*
X24655Y22501D01*
X25365D01*
X25370Y22506D01*
X24420Y22079D02*
X24690D01*
X24738Y22221D02*
X24965D01*
X24798Y22171D02*
X24943D01*
X24049Y19626D02*
X24191Y19768D01*
X24049D02*
X24191Y19626D01*
X25230Y20162D02*
Y20362D01*
X25130Y20262D02*
X25330D01*
X27690Y21245D02*
X27840D01*
X27765Y21170D02*
Y21320D01*
X21033Y17942D02*
X25123D01*
X26143D02*
X30233D01*
X21033D02*
X21185Y17993D01*
X21033Y17942D02*
X21185Y17891D01*
X30081Y17993D02*
X30233Y17942D01*
X30081Y17891D02*
X30233Y17942D01*
X21033Y17917D02*
Y17968D01*
X30233Y17917D02*
Y17968D01*
X20598Y18542D02*
Y20132D01*
Y21153D02*
Y22742D01*
X20547Y18695D02*
X20598Y18542D01*
X20649Y18695D01*
X20547Y22590D02*
X20598Y22742D01*
X20649Y22590D01*
X20573Y18542D02*
X20623D01*
X20573Y22742D02*
X20623D01*
X22982Y18242D02*
X25422D01*
X26442D02*
X28882D01*
X22982D02*
X23134Y18293D01*
X22982Y18242D02*
X23134Y18191D01*
X28730Y18293D02*
X28882Y18242D01*
X28730Y18191D02*
X28882Y18242D01*
X22982Y18217D02*
Y18268D01*
X28882Y18217D02*
Y18268D01*
X21033Y18242D02*
X21371D01*
X22645D02*
X22983D01*
X21033D02*
X21185Y18293D01*
X21033Y18242D02*
X21185Y18191D01*
X22831Y18293D02*
X22983Y18242D01*
X22831Y18191D02*
X22983Y18242D01*
X21033Y18217D02*
Y18268D01*
X22983Y18217D02*
Y18268D01*
D16*
X25148Y17876D02*
X25173Y17851D01*
X25224D01*
X25250Y17876D01*
Y17978D01*
X25224Y18003D01*
X25173D01*
X25148Y17978D01*
Y17952D01*
X25173Y17927D01*
X25250D01*
X25402Y17851D02*
X25300D01*
X25402Y17952D01*
Y17978D01*
X25377Y18003D01*
X25326D01*
X25300Y17978D01*
X25656Y17851D02*
X25605Y17902D01*
Y17952D01*
X25656Y18003D01*
X25732Y17851D02*
Y17952D01*
X25757D01*
X25783Y17927D01*
Y17851D01*
Y17927D01*
X25808Y17952D01*
X25834Y17927D01*
Y17851D01*
X25884D02*
Y17952D01*
X25910D01*
X25935Y17927D01*
Y17851D01*
Y17927D01*
X25961Y17952D01*
X25986Y17927D01*
Y17851D01*
X26037D02*
X26088Y17902D01*
Y17952D01*
X26037Y18003D01*
X20689Y20233D02*
X20537D01*
X20613Y20157D01*
Y20259D01*
X20689Y20411D02*
Y20310D01*
X20588Y20411D01*
X20562D01*
X20537Y20386D01*
Y20335D01*
X20562Y20310D01*
X20689Y20665D02*
X20639Y20614D01*
X20588D01*
X20537Y20665D01*
X20689Y20741D02*
X20588D01*
Y20767D01*
X20613Y20792D01*
X20689D01*
X20613D01*
X20588Y20817D01*
X20613Y20843D01*
X20689D01*
Y20894D02*
X20588D01*
Y20919D01*
X20613Y20944D01*
X20689D01*
X20613D01*
X20588Y20970D01*
X20613Y20995D01*
X20689D01*
Y21046D02*
X20639Y21097D01*
X20588D01*
X20537Y21046D01*
X25549Y18303D02*
X25447D01*
Y18227D01*
X25498Y18252D01*
X25523D01*
X25549Y18227D01*
Y18176D01*
X25523Y18151D01*
X25472D01*
X25447Y18176D01*
X25599D02*
X25625Y18151D01*
X25676D01*
X25701Y18176D01*
Y18278D01*
X25676Y18303D01*
X25625D01*
X25599Y18278D01*
Y18252D01*
X25625Y18227D01*
X25701D01*
X25955Y18151D02*
X25904Y18202D01*
Y18252D01*
X25955Y18303D01*
X26031Y18151D02*
Y18252D01*
X26056D01*
X26082Y18227D01*
Y18151D01*
Y18227D01*
X26107Y18252D01*
X26133Y18227D01*
Y18151D01*
X26183D02*
Y18252D01*
X26209D01*
X26234Y18227D01*
Y18151D01*
Y18227D01*
X26260Y18252D01*
X26285Y18227D01*
Y18151D01*
X26336D02*
X26387Y18202D01*
Y18252D01*
X26336Y18303D01*
X21396Y18151D02*
X21447D01*
X21421D01*
Y18303D01*
X21396Y18278D01*
X21523Y18176D02*
X21548Y18151D01*
X21599D01*
X21625Y18176D01*
Y18278D01*
X21599Y18303D01*
X21548D01*
X21523Y18278D01*
Y18252D01*
X21548Y18227D01*
X21625D01*
X21675Y18151D02*
Y18176D01*
X21701D01*
Y18151D01*
X21675D01*
X21904Y18303D02*
X21802D01*
Y18227D01*
X21853Y18252D01*
X21878D01*
X21904Y18227D01*
Y18176D01*
X21878Y18151D01*
X21828D01*
X21802Y18176D01*
X22158Y18151D02*
X22107Y18202D01*
Y18252D01*
X22158Y18303D01*
X22234Y18151D02*
Y18252D01*
X22259D01*
X22285Y18227D01*
Y18151D01*
Y18227D01*
X22310Y18252D01*
X22336Y18227D01*
Y18151D01*
X22386D02*
Y18252D01*
X22412D01*
X22437Y18227D01*
Y18151D01*
Y18227D01*
X22463Y18252D01*
X22488Y18227D01*
Y18151D01*
X22539D02*
X22589Y18202D01*
Y18252D01*
X22539Y18303D01*
D55*
X28878Y20315D02*
X28877Y20340D01*
X28874Y20365D01*
X28869Y20390D01*
X28862Y20415D01*
X28853Y20438D01*
X28842Y20461D01*
X28829Y20483D01*
X28815Y20504D01*
X28799Y20524D01*
X28781Y20542D01*
X28762Y20559D01*
X28742Y20574D01*
X28720Y20588D01*
X28698Y20599D01*
X28675Y20609D01*
X28651Y20617D01*
X28626Y20623D01*
X28601Y20627D01*
X28576Y20629D01*
X28550D01*
X28525Y20627D01*
X28500Y20623D01*
X28475Y20617D01*
X28451Y20609D01*
X28428Y20599D01*
X28405Y20588D01*
X28384Y20574D01*
X28364Y20559D01*
X28345Y20542D01*
X28327Y20524D01*
X28311Y20504D01*
X28297Y20483D01*
X28284Y20461D01*
X28273Y20438D01*
X28264Y20415D01*
X28257Y20390D01*
X28252Y20365D01*
X28249Y20340D01*
X28248Y20315D01*
X28249Y20289D01*
X28252Y20264D01*
X28257Y20239D01*
X28264Y20215D01*
X28273Y20191D01*
X28284Y20168D01*
X28297Y20146D01*
X28311Y20126D01*
X28327Y20106D01*
X28345Y20088D01*
X28364Y20071D01*
X28384Y20056D01*
X28405Y20042D01*
X28428Y20030D01*
X28451Y20020D01*
X28475Y20012D01*
X28500Y20006D01*
X28525Y20002D01*
X28550Y20000D01*
X28576D01*
X28601Y20002D01*
X28626Y20006D01*
X28651Y20012D01*
X28675Y20020D01*
X28698Y20030D01*
X28720Y20042D01*
X28742Y20056D01*
X28762Y20071D01*
X28781Y20088D01*
X28799Y20106D01*
X28815Y20126D01*
X28829Y20146D01*
X28842Y20168D01*
X28853Y20191D01*
X28862Y20215D01*
X28869Y20239D01*
X28874Y20264D01*
X28877Y20289D01*
X28878Y20315D01*
X28518Y20995D02*
X28517Y21020D01*
X28515Y21045D01*
X28512Y21070D01*
X28508Y21095D01*
X28502Y21120D01*
X28495Y21144D01*
X28487Y21168D01*
X28477Y21192D01*
X28467Y21215D01*
X28455Y21237D01*
X28442Y21259D01*
X28428Y21280D01*
X28413Y21301D01*
X28397Y21320D01*
X28380Y21339D01*
X28362Y21357D01*
X28344Y21374D01*
X28324Y21390D01*
X28304Y21405D01*
X28282Y21419D01*
X28261Y21432D01*
X28238Y21444D01*
X28215Y21454D01*
X28192Y21464D01*
X28168Y21472D01*
X28143Y21479D01*
X28119Y21485D01*
X28094Y21489D01*
X28069Y21492D01*
X28043Y21494D01*
X28018Y21495D01*
X27993Y21494D01*
X27967Y21492D01*
X27942Y21489D01*
X27917Y21485D01*
X27893Y21479D01*
X27868Y21472D01*
X27844Y21464D01*
X27821Y21454D01*
X27798Y21444D01*
X27775Y21432D01*
X27754Y21419D01*
X27732Y21405D01*
X27712Y21390D01*
X27692Y21374D01*
X27674Y21357D01*
X27656Y21339D01*
X27639Y21320D01*
X27623Y21301D01*
X27608Y21280D01*
X27594Y21259D01*
X27581Y21237D01*
X27569Y21215D01*
X27559Y21192D01*
X27549Y21168D01*
X27541Y21144D01*
X27534Y21120D01*
X27528Y21095D01*
X27524Y21070D01*
X27521Y21045D01*
X27519Y21020D01*
X27518Y20995D01*
X27519Y20969D01*
X27521Y20944D01*
X27524Y20919D01*
X27528Y20894D01*
X27534Y20869D01*
X27541Y20845D01*
X27549Y20821D01*
X27559Y20798D01*
X27569Y20775D01*
X27581Y20752D01*
X27594Y20730D01*
X27608Y20709D01*
X27623Y20689D01*
X27639Y20669D01*
X27656Y20650D01*
X27674Y20632D01*
X27692Y20615D01*
X27712Y20599D01*
X27732Y20584D01*
X27754Y20570D01*
X27775Y20558D01*
X27798Y20546D01*
X27821Y20535D01*
X27844Y20526D01*
X27868Y20518D01*
X27893Y20511D01*
X27917Y20505D01*
X27942Y20501D01*
X27967Y20497D01*
X27993Y20495D01*
X28018Y20495D01*
X28043Y20495D01*
X28069Y20497D01*
X28094Y20501D01*
X28119Y20505D01*
X28143Y20511D01*
X28168Y20518D01*
X28192Y20526D01*
X28215Y20535D01*
X28238Y20546D01*
X28261Y20558D01*
X28282Y20570D01*
X28304Y20584D01*
X28324Y20599D01*
X28344Y20615D01*
X28362Y20632D01*
X28380Y20650D01*
X28397Y20669D01*
X28413Y20689D01*
X28428Y20709D01*
X28442Y20730D01*
X28455Y20752D01*
X28467Y20775D01*
X28477Y20798D01*
X28487Y20821D01*
X28495Y20845D01*
X28502Y20869D01*
X28508Y20894D01*
X28512Y20919D01*
X28515Y20944D01*
X28517Y20969D01*
X28518Y20995D01*
X28105Y20167D02*
X28104Y20193D01*
X28101Y20218D01*
X28096Y20243D01*
X28089Y20267D01*
X28080Y20291D01*
X28069Y20314D01*
X28057Y20336D01*
X28042Y20356D01*
X28026Y20376D01*
X28009Y20394D01*
X27990Y20411D01*
X27969Y20426D01*
X27948Y20440D01*
X27926Y20452D01*
X27902Y20462D01*
X27878Y20470D01*
X27854Y20476D01*
X27828Y20480D01*
X27803Y20482D01*
X27778D01*
X27753Y20480D01*
X27727Y20476D01*
X27703Y20470D01*
X27679Y20462D01*
X27655Y20452D01*
X27633Y20440D01*
X27612Y20426D01*
X27591Y20411D01*
X27572Y20394D01*
X27555Y20376D01*
X27539Y20356D01*
X27524Y20336D01*
X27512Y20314D01*
X27501Y20291D01*
X27492Y20267D01*
X27485Y20243D01*
X27480Y20218D01*
X27477Y20193D01*
X27475Y20167D01*
X27477Y20142D01*
X27480Y20117D01*
X27485Y20092D01*
X27492Y20068D01*
X27501Y20044D01*
X27512Y20021D01*
X27524Y19999D01*
X27539Y19978D01*
X27555Y19958D01*
X27572Y19940D01*
X27591Y19923D01*
X27612Y19908D01*
X27633Y19894D01*
X27655Y19883D01*
X27679Y19873D01*
X27703Y19865D01*
X27727Y19859D01*
X27753Y19855D01*
X27778Y19853D01*
X27803D01*
X27828Y19855D01*
X27854Y19859D01*
X27878Y19865D01*
X27902Y19873D01*
X27926Y19883D01*
X27948Y19894D01*
X27969Y19908D01*
X27990Y19923D01*
X28009Y19940D01*
X28026Y19958D01*
X28042Y19978D01*
X28057Y19999D01*
X28069Y20021D01*
X28080Y20044D01*
X28089Y20068D01*
X28096Y20092D01*
X28101Y20117D01*
X28104Y20142D01*
X28105Y20167D01*
X29158Y21117D02*
X29157Y21143D01*
X29154Y21168D01*
X29149Y21193D01*
X29142Y21217D01*
X29133Y21241D01*
X29122Y21264D01*
X29109Y21286D01*
X29095Y21306D01*
X29079Y21326D01*
X29061Y21344D01*
X29042Y21361D01*
X29022Y21376D01*
X29000Y21390D01*
X28978Y21402D01*
X28955Y21412D01*
X28931Y21420D01*
X28906Y21426D01*
X28881Y21430D01*
X28856Y21432D01*
X28830D01*
X28805Y21430D01*
X28780Y21426D01*
X28755Y21420D01*
X28731Y21412D01*
X28708Y21402D01*
X28685Y21390D01*
X28664Y21376D01*
X28644Y21361D01*
X28625Y21344D01*
X28607Y21326D01*
X28591Y21306D01*
X28577Y21286D01*
X28564Y21264D01*
X28553Y21241D01*
X28544Y21217D01*
X28537Y21193D01*
X28532Y21168D01*
X28529Y21143D01*
X28528Y21117D01*
X28529Y21092D01*
X28532Y21067D01*
X28537Y21042D01*
X28544Y21018D01*
X28553Y20994D01*
X28564Y20971D01*
X28577Y20949D01*
X28591Y20928D01*
X28607Y20908D01*
X28625Y20890D01*
X28644Y20873D01*
X28664Y20858D01*
X28685Y20844D01*
X28708Y20833D01*
X28731Y20823D01*
X28755Y20815D01*
X28780Y20809D01*
X28805Y20805D01*
X28830Y20803D01*
X28856D01*
X28881Y20805D01*
X28906Y20809D01*
X28931Y20815D01*
X28955Y20823D01*
X28978Y20833D01*
X29000Y20844D01*
X29022Y20858D01*
X29042Y20873D01*
X29061Y20890D01*
X29079Y20908D01*
X29095Y20928D01*
X29109Y20949D01*
X29122Y20971D01*
X29133Y20994D01*
X29142Y21018D01*
X29149Y21042D01*
X29154Y21067D01*
X29157Y21092D01*
X29158Y21117D01*
X24595Y18775D02*
Y18985D01*
X24075Y18775D02*
Y18985D01*
X24595D01*
X24075Y18775D02*
X24595D01*
X25495Y19037D02*
Y19247D01*
X24975Y19037D02*
Y19247D01*
X25495D01*
X24975Y19037D02*
X25495D01*
X24955D02*
Y19247D01*
X24435Y19037D02*
Y19247D01*
X24955D01*
X24435Y19037D02*
X24955D01*
X24053Y18775D02*
Y18985D01*
X23533Y18775D02*
Y18985D01*
X24053D01*
X23533Y18775D02*
X24053D01*
X26438Y22410D02*
X26411D01*
X26398Y22396D01*
Y22343D01*
X26411Y22330D01*
X26438D01*
X26451Y22343D01*
Y22396D01*
X26438Y22410D01*
X26478Y22330D02*
Y22410D01*
X26518D01*
X26531Y22396D01*
Y22370D01*
X26518Y22356D01*
X26478D01*
X26558Y22410D02*
X26611D01*
X26585D01*
Y22330D01*
X26678Y22410D02*
X26651D01*
X26638Y22396D01*
Y22343D01*
X26651Y22330D01*
X26678D01*
X26691Y22343D01*
Y22396D01*
X26678Y22410D01*
X23851Y21431D02*
X23838Y21445D01*
X23811D01*
X23798Y21431D01*
Y21378D01*
X23811Y21365D01*
X23838D01*
X23851Y21378D01*
X23878Y21365D02*
X23905D01*
X23891D01*
Y21445D01*
X23878Y21431D01*
X24019Y20381D02*
X24005Y20395D01*
X23979D01*
X23965Y20381D01*
Y20328D01*
X23979Y20315D01*
X24005D01*
X24019Y20328D01*
X24085Y20315D02*
Y20395D01*
X24045Y20355D01*
X24099D01*
X25139Y20681D02*
X25125Y20695D01*
X25099D01*
X25085Y20681D01*
Y20628D01*
X25099Y20615D01*
X25125D01*
X25139Y20628D01*
X25165Y20681D02*
X25179Y20695D01*
X25205D01*
X25219Y20681D01*
Y20668D01*
X25205Y20655D01*
X25192D01*
X25205D01*
X25219Y20641D01*
Y20628D01*
X25205Y20615D01*
X25179D01*
X25165Y20628D01*
X28199Y21566D02*
X28185Y21580D01*
X28159D01*
X28145Y21566D01*
Y21513D01*
X28159Y21500D01*
X28185D01*
X28199Y21513D01*
X28225Y21500D02*
X28252D01*
X28239D01*
Y21580D01*
X28225Y21566D01*
X28292D02*
X28305Y21580D01*
X28332D01*
X28345Y21566D01*
Y21513D01*
X28332Y21500D01*
X28305D01*
X28292Y21513D01*
Y21566D01*
X28866Y20626D02*
X28853Y20640D01*
X28826D01*
X28813Y20626D01*
Y20573D01*
X28826Y20560D01*
X28853D01*
X28866Y20573D01*
X28893Y20560D02*
X28920D01*
X28906D01*
Y20640D01*
X28893Y20626D01*
X28960Y20560D02*
X28986D01*
X28973D01*
Y20640D01*
X28960Y20626D01*
X28141Y19975D02*
X28128Y19989D01*
X28101D01*
X28088Y19975D01*
Y19922D01*
X28101Y19909D01*
X28128D01*
X28141Y19922D01*
X28168Y19909D02*
X28194D01*
X28181D01*
Y19989D01*
X28168Y19975D01*
X28288Y19909D02*
X28234D01*
X28288Y19962D01*
Y19975D01*
X28274Y19989D01*
X28248D01*
X28234Y19975D01*
X23854Y22254D02*
X23840Y22267D01*
X23814D01*
X23800Y22254D01*
Y22201D01*
X23814Y22187D01*
X23840D01*
X23854Y22201D01*
X23880Y22187D02*
Y22267D01*
X23907Y22241D01*
X23934Y22267D01*
Y22187D01*
X22320Y19690D02*
X22241D01*
X22320Y19743D01*
X22241D01*
Y19770D02*
Y19823D01*
Y19796D01*
X22320D01*
X22254Y19903D02*
X22241Y19890D01*
Y19863D01*
X22254Y19850D01*
X22307D01*
X22320Y19863D01*
Y19890D01*
X22307Y19903D01*
X22320Y19983D02*
Y19930D01*
X22267Y19983D01*
X22254D01*
X22241Y19970D01*
Y19943D01*
X22254Y19930D01*
X26470Y21495D02*
X26524D01*
X26497D01*
Y21415D01*
X26550D02*
X26577D01*
X26564D01*
Y21495D01*
X26550Y21481D01*
X28948Y18795D02*
X28921D01*
X28908Y18782D01*
Y18728D01*
X28921Y18715D01*
X28948D01*
X28961Y18728D01*
Y18782D01*
X28948Y18795D01*
X28988D02*
Y18728D01*
X29001Y18715D01*
X29028D01*
X29041Y18728D01*
Y18795D01*
X29068D02*
X29121D01*
X29094D01*
Y18715D01*
X29623Y19468D02*
X29637Y19455D01*
X29663D01*
X29677Y19468D01*
Y19521D01*
X29663Y19535D01*
X29637D01*
X29623Y19521D01*
X29543Y19535D02*
X29597D01*
X29543Y19481D01*
Y19468D01*
X29557Y19455D01*
X29583D01*
X29597Y19468D01*
X29463Y19535D02*
X29517D01*
X29463Y19481D01*
Y19468D01*
X29477Y19455D01*
X29503D01*
X29517Y19468D01*
X26436Y19209D02*
X26423Y19222D01*
X26396D01*
X26383Y19209D01*
Y19156D01*
X26396Y19142D01*
X26423D01*
X26436Y19156D01*
X26516Y19142D02*
X26463D01*
X26516Y19196D01*
Y19209D01*
X26503Y19222D01*
X26476D01*
X26463Y19209D01*
X26543D02*
X26556Y19222D01*
X26583D01*
X26596Y19209D01*
Y19196D01*
X26583Y19182D01*
X26570D01*
X26583D01*
X26596Y19169D01*
Y19156D01*
X26583Y19142D01*
X26556D01*
X26543Y19156D01*
X28864Y21564D02*
X28850Y21577D01*
X28824D01*
X28810Y21564D01*
Y21511D01*
X28824Y21497D01*
X28850D01*
X28864Y21511D01*
X28944Y21497D02*
X28890D01*
X28944Y21551D01*
Y21564D01*
X28930Y21577D01*
X28904D01*
X28890Y21564D01*
X29024Y21577D02*
X28970D01*
Y21537D01*
X28997Y21551D01*
X29010D01*
X29024Y21537D01*
Y21511D01*
X29010Y21497D01*
X28984D01*
X28970Y21511D01*
X21590Y20035D02*
Y20115D01*
X21644Y20035D01*
Y20115D01*
X21670D02*
X21724D01*
X21697D01*
Y20035D01*
X21804Y20101D02*
X21790Y20115D01*
X21764D01*
X21750Y20101D01*
Y20048D01*
X21764Y20035D01*
X21790D01*
X21804Y20048D01*
X21830Y20035D02*
X21857D01*
X21844D01*
Y20115D01*
X21830Y20101D01*
X24997Y19582D02*
Y19662D01*
X25037D01*
X25050Y19648D01*
Y19622D01*
X25037Y19608D01*
X24997D01*
X25024D02*
X25050Y19582D01*
X25077D02*
X25104D01*
X25090D01*
Y19662D01*
X25077Y19648D01*
X24457Y19582D02*
Y19662D01*
X24497D01*
X24510Y19648D01*
Y19622D01*
X24497Y19608D01*
X24457D01*
X24484D02*
X24510Y19582D01*
X24590D02*
X24537D01*
X24590Y19635D01*
Y19648D01*
X24577Y19662D01*
X24550D01*
X24537Y19648D01*
X23738Y19137D02*
Y19217D01*
X23778D01*
X23791Y19204D01*
Y19177D01*
X23778Y19164D01*
X23738D01*
X23765D02*
X23791Y19137D01*
X23858D02*
Y19217D01*
X23818Y19177D01*
X23871D01*
X29008Y19170D02*
Y19250D01*
X28968Y19210D02*
X29048D01*
X29068Y19290D02*
Y19330D01*
Y19310D01*
X28948D01*
X28968Y19290D01*
X28948Y19470D02*
Y19390D01*
X29008D01*
X28988Y19430D01*
Y19450D01*
X29008Y19470D01*
X29048D01*
X29068Y19450D01*
Y19410D01*
X29048Y19390D01*
X28948Y19510D02*
X29028D01*
X29068Y19550D01*
X29028Y19590D01*
X28948D01*
X29256Y19190D02*
Y19270D01*
X29216Y19230D02*
X29296D01*
X29196Y19390D02*
Y19310D01*
X29256D01*
X29236Y19350D01*
Y19370D01*
X29256Y19390D01*
X29296D01*
X29316Y19370D01*
Y19330D01*
X29296Y19310D01*
X29196Y19430D02*
X29276D01*
X29316Y19470D01*
X29276Y19510D01*
X29196D01*
X23400Y18945D02*
Y19065D01*
X23480Y18945D01*
Y19065D01*
X28711Y19260D02*
X28691Y19240D01*
Y19200D01*
X28711Y19180D01*
X28790D01*
X28810Y19200D01*
Y19240D01*
X28790Y19260D01*
X28751D01*
Y19220D01*
X28810Y19300D02*
X28691D01*
X28810Y19380D01*
X28691D01*
Y19420D02*
X28810D01*
Y19480D01*
X28790Y19500D01*
X28711D01*
X28691Y19480D01*
Y19420D01*
X28498Y19145D02*
Y19225D01*
X28458Y19185D02*
X28538D01*
X28458Y19265D02*
X28438Y19285D01*
Y19325D01*
X28458Y19345D01*
X28478D01*
X28498Y19325D01*
Y19305D01*
Y19325D01*
X28518Y19345D01*
X28538D01*
X28558Y19325D01*
Y19285D01*
X28538Y19265D01*
X28558Y19385D02*
X28538D01*
Y19405D01*
X28558D01*
Y19385D01*
X28458Y19485D02*
X28438Y19505D01*
Y19545D01*
X28458Y19565D01*
X28478D01*
X28498Y19545D01*
Y19525D01*
Y19545D01*
X28518Y19565D01*
X28538D01*
X28558Y19545D01*
Y19505D01*
X28538Y19485D01*
X28438Y19605D02*
X28518D01*
X28558Y19645D01*
X28518Y19685D01*
X28438D01*
X22453Y19112D02*
Y18992D01*
X22533D01*
D72*
X22395Y19446D02*
X22397Y19421D01*
X22400Y19396D01*
X22405Y19371D01*
X22413Y19346D01*
X22422Y19323D01*
X22434Y19300D01*
X22447Y19278D01*
X22462Y19258D01*
X22479Y19239D01*
X22497Y19221D01*
X22517Y19205D01*
X22538Y19191D01*
X22560Y19178D01*
X22584Y19168D01*
X22608Y19159D01*
X22632Y19153D01*
X22657Y19149D01*
X22683Y19147D01*
X22708D01*
X22734Y19149D01*
X22759Y19153D01*
X22783Y19159D01*
X22807Y19168D01*
X22831Y19178D01*
X22853Y19191D01*
X22874Y19205D01*
X22894Y19221D01*
X22912Y19239D01*
X22929Y19258D01*
X22944Y19278D01*
X22957Y19300D01*
X22969Y19323D01*
X22978Y19346D01*
X22986Y19371D01*
X22991Y19396D01*
X22994Y19421D01*
X22995Y19446D01*
Y19996D02*
X22994Y20022D01*
X22991Y20047D01*
X22986Y20072D01*
X22978Y20096D01*
X22969Y20120D01*
X22957Y20143D01*
X22944Y20164D01*
X22929Y20185D01*
X22912Y20204D01*
X22894Y20221D01*
X22874Y20237D01*
X22853Y20252D01*
X22831Y20264D01*
X22807Y20275D01*
X22783Y20283D01*
X22759Y20290D01*
X22734Y20294D01*
X22708Y20296D01*
X22683D01*
X22657Y20294D01*
X22632Y20290D01*
X22608Y20283D01*
X22584Y20275D01*
X22560Y20264D01*
X22538Y20252D01*
X22517Y20237D01*
X22497Y20221D01*
X22479Y20204D01*
X22462Y20185D01*
X22447Y20164D01*
X22434Y20143D01*
X22422Y20120D01*
X22413Y20096D01*
X22405Y20072D01*
X22400Y20047D01*
X22397Y20022D01*
X22395Y19996D01*
X26575Y21760D02*
X26570Y21785D01*
X26557Y21805D01*
X26536Y21819D01*
X26512Y21824D01*
X26487Y21819D01*
X26467Y21805D01*
X26453Y21785D01*
X26448Y21760D01*
X21899Y19340D02*
X21924Y19341D01*
X21950Y19344D01*
X21975Y19349D01*
X21999Y19357D01*
X22023Y19366D01*
X22045Y19378D01*
X22067Y19391D01*
X22087Y19406D01*
X22107Y19423D01*
X22124Y19442D01*
X22140Y19461D01*
X22154Y19482D01*
X22167Y19505D01*
X22177Y19528D01*
X22186Y19552D01*
X22192Y19577D01*
X22197Y19602D01*
X22199Y19627D01*
Y19652D01*
X22197Y19678D01*
X22192Y19703D01*
X22186Y19728D01*
X22177Y19752D01*
X22167Y19775D01*
X22154Y19797D01*
X22140Y19818D01*
X22124Y19838D01*
X22107Y19856D01*
X22087Y19873D01*
X22067Y19888D01*
X22045Y19902D01*
X22023Y19913D01*
X21999Y19923D01*
X21975Y19930D01*
X21950Y19935D01*
X21924Y19939D01*
X21899Y19940D01*
X21349D02*
X21324Y19939D01*
X21298Y19935D01*
X21273Y19930D01*
X21249Y19923D01*
X21225Y19913D01*
X21203Y19902D01*
X21181Y19888D01*
X21161Y19873D01*
X21141Y19856D01*
X21124Y19838D01*
X21108Y19818D01*
X21094Y19797D01*
X21081Y19775D01*
X21071Y19752D01*
X21062Y19728D01*
X21056Y19703D01*
X21051Y19678D01*
X21049Y19652D01*
Y19627D01*
X21051Y19602D01*
X21056Y19577D01*
X21062Y19552D01*
X21071Y19528D01*
X21081Y19505D01*
X21094Y19482D01*
X21108Y19461D01*
X21124Y19442D01*
X21141Y19423D01*
X21161Y19406D01*
X21181Y19391D01*
X21203Y19378D01*
X21225Y19366D01*
X21249Y19357D01*
X21273Y19349D01*
X21298Y19344D01*
X21324Y19341D01*
X21349Y19340D01*
X26648Y18582D02*
X26673Y18584D01*
X26698Y18587D01*
X26723Y18594D01*
X26747Y18603D01*
X26769Y18614D01*
X26791Y18627D01*
X26811Y18643D01*
X26829Y18660D01*
X26846Y18679D01*
X26860Y18700D01*
X26872Y18722D01*
X26882Y18745D01*
X26890Y18770D01*
X26895Y18794D01*
X26898Y18820D01*
Y18845D01*
X26895Y18870D01*
X26890Y18895D01*
X26882Y18919D01*
X26872Y18942D01*
X26860Y18964D01*
X26846Y18985D01*
X26829Y19004D01*
X26811Y19022D01*
X26791Y19037D01*
X26769Y19051D01*
X26747Y19062D01*
X26723Y19071D01*
X26698Y19077D01*
X26673Y19081D01*
X26648Y19082D01*
X26328D02*
X26303Y19081D01*
X26278Y19077D01*
X26253Y19071D01*
X26229Y19062D01*
X26207Y19051D01*
X26185Y19037D01*
X26165Y19022D01*
X26147Y19004D01*
X26130Y18985D01*
X26116Y18964D01*
X26104Y18942D01*
X26094Y18919D01*
X26086Y18895D01*
X26081Y18870D01*
X26078Y18845D01*
Y18820D01*
X26081Y18794D01*
X26086Y18770D01*
X26094Y18745D01*
X26104Y18722D01*
X26116Y18700D01*
X26130Y18679D01*
X26147Y18660D01*
X26165Y18643D01*
X26185Y18627D01*
X26207Y18614D01*
X26229Y18603D01*
X26253Y18594D01*
X26278Y18587D01*
X26303Y18584D01*
X26328Y18582D01*
X24356Y19662D02*
X24356Y19687D01*
X24354Y19712D01*
X24352Y19737D01*
X24348Y19762D01*
X24343Y19787D01*
X24338Y19812D01*
X24331Y19837D01*
X24324Y19861D01*
X24315Y19885D01*
X24306Y19908D01*
X24295Y19931D01*
X24284Y19954D01*
X24271Y19976D01*
X24258Y19997D01*
X24244Y20019D01*
X24229Y20039D01*
X24214Y20059D01*
X24197Y20078D01*
X24180Y20097D01*
X24162Y20115D01*
X24143Y20132D01*
X24124Y20148D01*
X24104Y20163D01*
X24083Y20178D01*
X24062Y20192D01*
X24040Y20205D01*
X24018Y20217D01*
X23995Y20228D01*
X23972Y20238D01*
X23948Y20248D01*
X23924Y20256D01*
X23900Y20263D01*
X23876Y20270D01*
X23851Y20275D01*
X23826Y20279D01*
X23801Y20283D01*
X23776Y20285D01*
X23750Y20286D01*
X23725Y20286D01*
X23700Y20286D01*
X23674Y20284D01*
X23649Y20281D01*
X23624Y20277D01*
X23599Y20272D01*
X23575Y20267D01*
X23550Y20260D01*
X23526Y20252D01*
X23502Y20243D01*
X23479Y20233D01*
X23456Y20223D01*
X23433Y20211D01*
X23411Y20199D01*
X23390Y20185D01*
X23369Y20171D01*
X23349Y20156D01*
X23329Y20140D01*
X23310Y20123D01*
X23292Y20106D01*
X23274Y20088D01*
X23257Y20069D01*
X23241Y20049D01*
X23226Y20029D01*
X23211Y20008D01*
X23197Y19987D01*
X23185Y19965D01*
X23173Y19942D01*
X23162Y19920D01*
X23152Y19896D01*
X23143Y19873D01*
X23135Y19849D01*
X23128Y19824D01*
X23122Y19800D01*
X23117Y19775D01*
X23112Y19750D01*
X23109Y19725D01*
X23107Y19700D01*
X23106Y19674D01*
Y19649D01*
X23107Y19624D01*
X23109Y19598D01*
X23112Y19573D01*
X23117Y19548D01*
X23122Y19523D01*
X23128Y19499D01*
X23135Y19474D01*
X23143Y19450D01*
X23152Y19427D01*
X23162Y19403D01*
X23173Y19381D01*
X23185Y19358D01*
X23197Y19336D01*
X23211Y19315D01*
X23226Y19294D01*
X23241Y19274D01*
X23257Y19254D01*
X23274Y19236D01*
X23292Y19217D01*
X23310Y19200D01*
X23329Y19183D01*
X23349Y19167D01*
X23369Y19152D01*
X23390Y19138D01*
X23411Y19125D01*
X23433Y19112D01*
X23456Y19100D01*
X23479Y19090D01*
X23502Y19080D01*
X23526Y19071D01*
X23550Y19063D01*
X23575Y19056D01*
X23599Y19051D01*
X23624Y19046D01*
X23649Y19042D01*
X23674Y19039D01*
X23700Y19037D01*
X23725Y19037D01*
X23750Y19037D01*
X23776Y19038D01*
X23801Y19040D01*
X23826Y19044D01*
X23851Y19048D01*
X23876Y19053D01*
X23900Y19060D01*
X23924Y19067D01*
X23948Y19075D01*
X23972Y19085D01*
X23995Y19095D01*
X24018Y19106D01*
X24040Y19118D01*
X24062Y19131D01*
X24083Y19145D01*
X24104Y19160D01*
X24124Y19175D01*
X24143Y19191D01*
X24162Y19209D01*
X24180Y19226D01*
X24197Y19245D01*
X24214Y19264D01*
X24229Y19284D01*
X24244Y19304D01*
X24258Y19326D01*
X24271Y19347D01*
X24284Y19369D01*
X24295Y19392D01*
X24306Y19415D01*
X24315Y19439D01*
X24324Y19462D01*
X24331Y19487D01*
X24338Y19511D01*
X24343Y19536D01*
X24348Y19561D01*
X24352Y19586D01*
X24354Y19611D01*
X24356Y19636D01*
X24356Y19662D01*
X25605Y19962D02*
X25605Y19988D01*
X25603Y20013D01*
X25601Y20038D01*
X25597Y20063D01*
X25593Y20088D01*
X25587Y20113D01*
X25581Y20137D01*
X25573Y20161D01*
X25564Y20185D01*
X25555Y20209D01*
X25544Y20232D01*
X25533Y20254D01*
X25521Y20277D01*
X25508Y20298D01*
X25493Y20319D01*
X25479Y20340D01*
X25463Y20360D01*
X25446Y20379D01*
X25429Y20397D01*
X25411Y20415D01*
X25392Y20432D01*
X25373Y20449D01*
X25353Y20464D01*
X25332Y20479D01*
X25311Y20493D01*
X25289Y20506D01*
X25267Y20518D01*
X25244Y20529D01*
X25221Y20539D01*
X25198Y20548D01*
X25174Y20557D01*
X25149Y20564D01*
X25125Y20570D01*
X25100Y20576D01*
X25075Y20580D01*
X25050Y20583D01*
X25025Y20586D01*
X24999Y20587D01*
X24974Y20587D01*
X24949Y20586D01*
X24924Y20585D01*
X24898Y20582D01*
X24873Y20578D01*
X24848Y20573D01*
X24824Y20567D01*
X24799Y20560D01*
X24775Y20553D01*
X24752Y20544D01*
X24728Y20534D01*
X24705Y20523D01*
X24683Y20512D01*
X24661Y20499D01*
X24639Y20486D01*
X24618Y20472D01*
X24598Y20456D01*
X24578Y20441D01*
X24559Y20424D01*
X24541Y20406D01*
X24523Y20388D01*
X24506Y20369D01*
X24490Y20350D01*
X24475Y20330D01*
X24460Y20309D01*
X24447Y20287D01*
X24434Y20266D01*
X24422Y20243D01*
X24411Y20220D01*
X24401Y20197D01*
X24392Y20173D01*
X24384Y20149D01*
X24377Y20125D01*
X24371Y20100D01*
X24366Y20076D01*
X24362Y20051D01*
X24359Y20025D01*
X24357Y20000D01*
X24356Y19975D01*
Y19950D01*
X24357Y19924D01*
X24359Y19899D01*
X24362Y19874D01*
X24366Y19849D01*
X24371Y19824D01*
X24377Y19799D01*
X24384Y19775D01*
X24392Y19751D01*
X24401Y19727D01*
X24411Y19704D01*
X24422Y19681D01*
X24434Y19659D01*
X24447Y19637D01*
X24460Y19616D01*
X24475Y19595D01*
X24490Y19575D01*
X24506Y19555D01*
X24523Y19536D01*
X24541Y19518D01*
X24559Y19501D01*
X24578Y19484D01*
X24598Y19468D01*
X24618Y19453D01*
X24639Y19439D01*
X24661Y19425D01*
X24683Y19413D01*
X24705Y19401D01*
X24728Y19390D01*
X24752Y19381D01*
X24775Y19372D01*
X24799Y19364D01*
X24824Y19357D01*
X24848Y19351D01*
X24873Y19347D01*
X24898Y19343D01*
X24924Y19340D01*
X24949Y19338D01*
X24974Y19337D01*
X24999Y19338D01*
X25025Y19339D01*
X25050Y19341D01*
X25075Y19344D01*
X25100Y19349D01*
X25125Y19354D01*
X25149Y19361D01*
X25174Y19368D01*
X25198Y19376D01*
X25221Y19385D01*
X25244Y19396D01*
X25267Y19407D01*
X25289Y19419D01*
X25311Y19432D01*
X25332Y19446D01*
X25353Y19460D01*
X25373Y19476D01*
X25392Y19492D01*
X25411Y19509D01*
X25429Y19527D01*
X25446Y19546D01*
X25463Y19565D01*
X25479Y19585D01*
X25493Y19605D01*
X25508Y19626D01*
X25521Y19648D01*
X25533Y19670D01*
X25544Y19693D01*
X25555Y19716D01*
X25564Y19739D01*
X25573Y19763D01*
X25580Y19787D01*
X25587Y19812D01*
X25593Y19836D01*
X25597Y19861D01*
X25601Y19886D01*
X25603Y19912D01*
X25605Y19937D01*
X25605Y19962D01*
X22599Y18508D02*
X23355D01*
X23355Y18328D02*
Y19118D01*
X22599Y18328D02*
Y19118D01*
X22599D02*
X23355D01*
X22599Y18328D02*
X23355D01*
X22395Y19446D02*
Y19996D01*
X22995Y19446D02*
Y19996D01*
X28715Y20415D02*
Y20516D01*
X28665Y20466D02*
X28766D01*
X26575Y21760D02*
X26766D01*
X26258D02*
X26448D01*
X26258D02*
Y22268D01*
X26766D01*
Y21760D02*
Y22268D01*
X28378Y18508D02*
X29388D01*
Y18328D02*
Y19118D01*
X28378Y18328D02*
Y19118D01*
X29388D01*
X28378Y18328D02*
X29388D01*
X21349Y19340D02*
X21899D01*
X21349Y19940D02*
X21899D01*
X25669Y21387D02*
X27319D01*
Y19537D02*
Y21387D01*
X25669Y19537D02*
X27319D01*
X25669D02*
Y21387D01*
X26328Y19082D02*
X26648D01*
X26328Y18582D02*
X26648D01*
X21085Y20752D02*
Y21852D01*
X23685D01*
X23685Y20752D02*
Y21852D01*
X21085Y20752D02*
X23685D01*
X22175Y21885D02*
Y22635D01*
X23675Y21885D02*
Y22635D01*
X22175Y21885D02*
X23675D01*
X22175Y22635D02*
X23675D01*
X27943Y20267D02*
Y20369D01*
X27892Y20318D02*
X27994D01*
X28995Y21217D02*
Y21319D01*
X28945Y21268D02*
X29046D01*
X25278Y21950D02*
Y22070D01*
X25338D01*
X25358Y22050D01*
Y22010D01*
X25338Y21990D01*
X25278D01*
X25318D02*
X25358Y21950D01*
D73*
X24844Y21907D02*
X25019Y22316D01*
X24767Y21907D02*
X24844D01*
X24767D02*
Y21916D01*
X24772D01*
X24776Y21918D01*
X24779Y21920D01*
X24782Y21922D01*
X24785Y21924D01*
X24788Y21925D01*
X24791Y21928D01*
X24794Y21929D01*
X24797Y21932D01*
X24803Y21936D01*
X24805Y21938D01*
X24808Y21941D01*
X24820Y21953D01*
X24822Y21956D01*
X24824Y21958D01*
X24828Y21964D01*
X24830Y21967D01*
X24832Y21970D01*
X24834Y21973D01*
X24836Y21976D01*
X24844Y21991D01*
X24844Y21995D01*
X24846Y21998D01*
X24847Y22001D01*
X24848Y22005D01*
X24849Y22008D01*
X24850Y22012D01*
X24850Y22015D01*
X24851Y22019D01*
X24852Y22022D01*
Y22026D01*
X24853Y22029D01*
Y22032D01*
X24853Y22036D01*
Y22053D01*
X24853Y22056D02*
X24853Y22053D01*
X24853Y22056D02*
Y22060D01*
X24852Y22063D02*
X24853Y22060D01*
X24852Y22063D02*
Y22066D01*
X24851Y22070D02*
X24852Y22066D01*
X24850Y22073D02*
X24851Y22070D01*
X24850Y22076D02*
X24850Y22073D01*
X24849Y22080D02*
X24850Y22076D01*
X24848Y22083D02*
X24849Y22080D01*
X24847Y22087D02*
X24848Y22083D01*
X24846Y22090D02*
X24847Y22087D01*
X24844Y22093D02*
X24846Y22090D01*
X24843Y22097D02*
X24844Y22093D01*
X24842Y22100D02*
X24843Y22097D01*
X24839Y22106D02*
X24842Y22100D01*
X24837Y22110D02*
X24839Y22106D01*
X24836Y22113D02*
X24837Y22110D01*
X24834Y22116D02*
X24836Y22113D01*
X24832Y22119D02*
X24834Y22116D01*
X24830Y22121D02*
X24832Y22119D01*
X24828Y22124D02*
X24830Y22121D01*
X24824Y22130D02*
X24828Y22124D01*
X24822Y22132D02*
X24824Y22130D01*
X24819Y22135D02*
X24822Y22132D01*
X24817Y22138D02*
X24819Y22135D01*
X24815Y22141D02*
X24817Y22138D01*
X24810Y22145D02*
X24815Y22141D01*
X24807Y22148D02*
X24810Y22145D01*
X24803Y22152D02*
X24807Y22148D01*
X24803Y22152D02*
Y22153D01*
X24678Y22263D02*
X24803Y22153D01*
X24678Y22263D02*
Y22264D01*
X24676Y22266D02*
X24678Y22264D01*
X24675Y22266D02*
X24676D01*
X24675D02*
Y22267D01*
X24674Y22267D02*
X24675Y22267D01*
X24674Y22267D02*
Y22268D01*
X24674D02*
X24674D01*
X24673Y22269D02*
X24674Y22268D01*
X24673Y22269D02*
Y22270D01*
X24672Y22270D02*
X24673Y22270D01*
X24672Y22270D02*
Y22271D01*
X24671Y22273D02*
X24672Y22271D01*
X24671Y22273D02*
Y22274D01*
X24670Y22275D02*
X24671Y22274D01*
X24670Y22275D02*
Y22276D01*
X24669Y22277D02*
X24670Y22276D01*
X24669Y22277D02*
Y22279D01*
X24668Y22280D02*
X24669Y22279D01*
X24668Y22280D02*
Y22283D01*
X24668Y22283D02*
X24668Y22283D01*
X24668Y22283D02*
Y22288D01*
X24668Y22289D01*
Y22292D01*
X24669Y22293D01*
Y22295D01*
X24670Y22296D01*
Y22297D01*
X24671Y22298D01*
Y22298D01*
X24671Y22299D01*
Y22300D01*
X24672Y22301D01*
Y22301D01*
X24673Y22302D01*
Y22303D01*
X24674D01*
Y22304D01*
X24677Y22307D01*
Y22308D01*
X24678D01*
X24680Y22310D01*
X24681D01*
X24681Y22311D01*
X24682D01*
Y22311D01*
X24683D01*
X24684Y22312D01*
X24684D01*
X24685Y22313D01*
X24686D01*
X24687Y22314D01*
X24688D01*
Y22314D01*
X24690D01*
X24691Y22315D01*
X24694D01*
X24695Y22316D01*
X24695Y22323D02*
X25019D01*
X24382Y22020D02*
X24708D01*
X24382D02*
X24594Y22513D01*
X25383D01*
X25345Y22430D02*
X25383Y22513D01*
X24696Y22430D02*
X25345D01*
X24696D02*
X24697Y22429D01*
X24690D02*
X24697D01*
X24687Y22428D02*
X24690Y22429D01*
X24683Y22428D02*
X24687D01*
X24680Y22427D02*
X24683Y22428D01*
X24676Y22427D02*
X24680D01*
X24673Y22427D02*
X24676Y22427D01*
X24665Y22425D02*
X24673Y22427D01*
X24662Y22424D02*
X24665Y22425D01*
X24659Y22424D02*
X24662Y22424D01*
X24656Y22422D02*
X24659Y22424D01*
X24652Y22421D02*
X24656Y22422D01*
X24646Y22418D02*
X24652Y22421D01*
X24642Y22417D02*
X24646Y22418D01*
X24633Y22413D02*
X24642Y22417D01*
X24630Y22411D02*
X24633Y22413D01*
X24624Y22408D02*
X24630Y22411D01*
X24621Y22405D02*
X24624Y22408D01*
X24618Y22404D02*
X24621Y22405D01*
X24612Y22399D02*
X24618Y22404D01*
X24609Y22397D02*
X24612Y22399D01*
X24603Y22392D02*
X24609Y22397D01*
X24599Y22388D02*
X24603Y22392D01*
X24596Y22386D02*
X24599Y22388D01*
X24593Y22383D02*
X24596Y22386D01*
X24591Y22380D02*
X24593Y22383D01*
X24589Y22377D02*
X24591Y22380D01*
X24587Y22375D02*
X24589Y22377D01*
X24582Y22369D02*
X24587Y22375D01*
X24580Y22366D02*
X24582Y22369D01*
X24578Y22363D02*
X24580Y22366D01*
X24577Y22361D02*
X24578Y22363D01*
X24574Y22358D02*
X24577Y22361D01*
X24573Y22354D02*
X24574Y22358D01*
X24567Y22342D02*
X24573Y22354D01*
X24565Y22338D02*
X24567Y22342D01*
X24564Y22335D02*
X24565Y22338D01*
X24563Y22332D02*
X24564Y22335D01*
X24562Y22328D02*
X24563Y22332D01*
X24561Y22325D02*
X24562Y22328D01*
X24560Y22321D02*
X24561Y22325D01*
X24559Y22318D02*
X24560Y22321D01*
X24558Y22311D02*
X24559Y22318D01*
X24557Y22308D02*
X24558Y22311D01*
X24557Y22304D02*
Y22308D01*
X24556Y22301D02*
X24557Y22304D01*
X24556Y22297D02*
Y22301D01*
X24555Y22293D02*
X24556Y22297D01*
X24555Y22276D02*
Y22293D01*
Y22276D02*
X24556Y22273D01*
Y22270D02*
Y22273D01*
Y22270D02*
X24558Y22262D01*
Y22259D02*
Y22262D01*
Y22259D02*
X24558Y22255D01*
X24559Y22252D01*
X24561Y22248D01*
X24562Y22245D01*
X24562Y22242D01*
X24564Y22239D01*
X24565Y22236D01*
X24566Y22232D01*
X24569Y22226D01*
X24571Y22222D01*
X24574Y22216D01*
X24576Y22213D01*
X24577Y22210D01*
X24580Y22207D01*
X24581Y22204D01*
X24584Y22201D01*
X24588Y22195D01*
X24590Y22193D01*
X24593Y22190D01*
X24595Y22188D01*
X24597Y22185D01*
X24600Y22182D01*
X24602Y22179D01*
X24727Y22066D01*
Y22065D02*
Y22066D01*
Y22065D02*
X24728Y22064D01*
X24728D01*
Y22063D02*
Y22064D01*
Y22063D02*
X24730Y22062D01*
Y22061D02*
Y22062D01*
Y22061D02*
X24731D01*
Y22060D02*
Y22061D01*
Y22060D02*
X24731Y22060D01*
Y22059D02*
Y22060D01*
Y22059D02*
X24732Y22058D01*
Y22057D02*
Y22058D01*
Y22057D02*
X24733Y22056D01*
Y22055D02*
Y22056D01*
Y22055D02*
X24734Y22054D01*
Y22052D02*
Y22054D01*
Y22052D02*
X24734Y22051D01*
Y22044D02*
Y22051D01*
X24734Y22043D02*
X24734Y22044D01*
X24734Y22040D02*
Y22043D01*
X24733Y22039D02*
X24734Y22040D01*
X24733Y22038D02*
Y22039D01*
X24732Y22038D02*
X24733Y22038D01*
X24732Y22036D02*
Y22038D01*
X24731Y22036D02*
X24732D01*
X24731Y22035D02*
Y22036D01*
X24730Y22033D02*
X24731Y22035D01*
X24730Y22032D02*
Y22033D01*
X24728Y22031D02*
X24730Y22032D01*
X24728Y22030D02*
Y22031D01*
X24728Y22030D02*
X24728D01*
X24728Y22029D02*
Y22030D01*
X24727Y22029D02*
X24728Y22029D01*
X24726Y22029D02*
X24727D01*
X24726Y22028D02*
Y22029D01*
X24725Y22028D02*
X24726D01*
X24724Y22026D02*
X24725Y22028D01*
X24723Y22026D02*
X24724D01*
X24723Y22026D02*
Y22026D01*
X24722Y22026D02*
X24723D01*
X24721Y22025D02*
X24722Y22026D01*
X24721Y22025D02*
X24721D01*
X24721Y22024D02*
Y22025D01*
X24720Y22024D02*
X24721D01*
X24719Y22023D02*
X24720Y22024D01*
X24718Y22023D02*
X24719D01*
X24718Y22022D02*
X24718Y22023D01*
X24715Y22022D02*
X24718D01*
X24715Y22022D02*
X24715Y22022D01*
X24712Y22022D02*
X24715D01*
X24712Y22021D02*
X24712Y22022D01*
X24709Y22021D02*
X24712D01*
X24708Y22020D02*
X24709Y22021D01*
X24966Y21907D02*
X25117D01*
X24966D02*
X25148Y22316D01*
X25299D01*
X25117Y21907D02*
X25299Y22316D01*
D74*
X24148Y21645D02*
Y21795D01*
X24223D01*
X24248Y21770D01*
Y21720D01*
X24223Y21695D01*
X24148D01*
X24398Y21770D02*
X24373Y21795D01*
X24323D01*
X24298Y21770D01*
Y21670D01*
X24323Y21645D01*
X24373D01*
X24398Y21670D01*
X24448Y21795D02*
Y21645D01*
X24523D01*
X24548Y21670D01*
Y21695D01*
X24523Y21720D01*
X24448D01*
X24523D01*
X24548Y21745D01*
Y21770D01*
X24523Y21795D01*
X24448D01*
X24598D02*
Y21645D01*
Y21720D01*
X24698D01*
Y21795D01*
Y21645D01*
X24748Y21795D02*
Y21695D01*
X24798Y21645D01*
X24848Y21695D01*
Y21795D01*
X24898Y21720D02*
X24998D01*
X25048Y21645D02*
Y21795D01*
X25123D01*
X25148Y21770D01*
Y21720D01*
X25123Y21695D01*
X25048D01*
X25098D02*
X25148Y21645D01*
X25298Y21795D02*
X25198D01*
Y21645D01*
X25298D01*
X25198Y21720D02*
X25248D01*
X25348Y21795D02*
Y21695D01*
X25398Y21645D01*
X25448Y21695D01*
Y21795D01*
X25498Y21645D02*
X25548D01*
X25523D01*
Y21795D01*
X25498Y21770D01*
M02*
