%FSLAX42Y42*%
%MOMM*%
G71*
G01*
G75*
%ADD10C,0.01*%
%ADD11R,1.30X1.80*%
%ADD12C,0.60*%
%ADD13C,0.25*%
%ADD14C,0.30*%
%ADD15C,1.20*%
%ADD16C,0.15*%
%ADD17O,2.00X1.20*%
%ADD18O,2.00X2.50*%
%ADD19C,2.00*%
%ADD20C,2.50*%
%ADD21C,0.80*%
%ADD22C,1.00*%
%ADD23R,1.45X1.65*%
%ADD24R,1.20X1.50*%
%ADD25C,6.00*%
%ADD26R,1.00X0.60*%
%ADD27R,3.60X1.40*%
%ADD28R,2.30X1.50*%
%ADD29O,2.30X1.50*%
%ADD30R,0.80X0.50*%
%ADD31R,0.50X0.80*%
%ADD32R,1.10X1.50*%
%ADD33R,0.80X1.00*%
%ADD34R,1.00X0.80*%
%ADD35R,1.00X0.70*%
%ADD36R,1.50X1.10*%
%ADD37R,3.60X2.00*%
%ADD38R,0.50X0.30*%
%ADD39R,1.75X3.10*%
%ADD40O,2.20X0.70*%
%ADD41R,2.20X0.70*%
%ADD42O,2.20X0.70*%
%ADD43R,1.52X2.30*%
%ADD44R,2.03X1.82*%
%ADD45R,0.75X1.38*%
%ADD46R,1.10X0.50*%
%ADD47R,2.00X3.50*%
%ADD48R,1.65X1.45*%
%ADD49R,1.80X1.30*%
%ADD50R,3.43X3.25*%
%ADD51R,1.20X4.90*%
%ADD52C,1.00*%
%ADD53C,0.80*%
%ADD54C,0.40*%
%ADD55C,0.10*%
%ADD56C,1.50*%
%ADD57R,1.92X3.83*%
%ADD58R,0.85X0.47*%
%ADD59R,3.10X1.50*%
%ADD60R,1.90X1.40*%
%ADD61R,1.65X1.65*%
%ADD62R,0.82X0.80*%
%ADD63R,0.49X0.38*%
%ADD64R,0.00X0.41*%
%ADD65R,0.80X0.57*%
%ADD66R,1.05X1.02*%
%ADD67R,0.82X0.41*%
%ADD68R,0.52X0.55*%
%ADD69R,1.20X1.65*%
%ADD70R,1.48X1.40*%
%ADD71R,2.88X1.10*%
%ADD72C,0.20*%
%ADD73C,0.13*%
%ADD74C,0.15*%
D13*
X29044Y20342D02*
X29040Y20368D01*
X29031Y20392D01*
X29016Y20412D01*
X28996Y20429D01*
X28973Y20440D01*
X28948Y20445D01*
X28922Y20443D01*
X28897Y20435D01*
X28876Y20421D01*
X28858Y20403D01*
X28846Y20380D01*
X28839Y20355D01*
Y20329D01*
X28846Y20304D01*
X28858Y20282D01*
X28876Y20263D01*
X28897Y20249D01*
X28922Y20241D01*
X28948Y20240D01*
X28973Y20245D01*
X28996Y20256D01*
X29016Y20272D01*
X29031Y20293D01*
X29040Y20317D01*
X29044Y20342D01*
X29813Y20498D02*
X29804Y20522D01*
X29782Y20535D01*
X29757Y20530D01*
X29741Y20511D01*
Y20485D01*
X29757Y20466D01*
X29782Y20462D01*
X29804Y20474D01*
X29813Y20498D01*
X29830Y20454D02*
X29823Y20479D01*
X29804Y20495D01*
X29779Y20499D01*
X29756Y20488D01*
X29743Y20467D01*
Y20442D01*
X29756Y20421D01*
X29779Y20410D01*
X29804Y20414D01*
X29823Y20430D01*
X29830Y20454D01*
X29325Y20514D02*
X29470D01*
X29303Y20564D02*
X29530D01*
X29578Y20421D02*
X29848D01*
X28898Y20849D02*
X28903Y20844D01*
X29613D01*
X29615Y20846D01*
Y20834D02*
Y20846D01*
X29613Y20831D02*
X29615Y20834D01*
X28915D02*
X28918Y20831D01*
X28915Y20816D02*
Y20834D01*
Y20816D02*
X29493D01*
X29610D01*
X29618Y20809D01*
X29638D01*
X29628Y20799D02*
X29638Y20809D01*
X29608Y20799D02*
X29628D01*
X28928D02*
X29608D01*
X28925Y20801D02*
X28928Y20799D01*
X28925Y20786D02*
Y20801D01*
Y20786D02*
X28930Y20781D01*
X29598D01*
X29625Y20809D01*
Y20841D01*
X29620Y20846D02*
X29625Y20841D01*
X29620Y20846D02*
X29643D01*
X29645Y20844D01*
Y20829D02*
Y20844D01*
Y20829D02*
X29648Y20826D01*
Y20816D02*
Y20826D01*
X29645Y20814D02*
X29648Y20816D01*
X29645Y20814D02*
Y20826D01*
X29663Y20844D01*
X29668D01*
X29673Y20839D01*
Y20821D02*
Y20839D01*
X29658Y20806D02*
X29673Y20821D01*
X29658Y20804D02*
Y20806D01*
X29643Y20789D02*
X29658Y20804D01*
X29623Y20789D02*
X29643D01*
X29613Y20779D02*
X29623Y20789D01*
X29613Y20779D02*
X29623D01*
X29635Y20766D01*
X29638D01*
X29678Y20806D01*
Y20809D01*
X29690Y20796D01*
Y20791D02*
Y20796D01*
X29678Y20779D02*
X29690Y20791D01*
X29670Y20779D02*
X29678D01*
X29650Y20759D02*
X29670Y20779D01*
X29650Y20759D02*
X29655D01*
X29665Y20749D01*
X29670D01*
X29695Y20774D01*
Y20759D02*
Y20774D01*
Y20759D02*
X29703Y20751D01*
X29690D02*
X29703D01*
X29678Y20739D02*
X29690Y20751D01*
X29678Y20739D02*
X29680D01*
X29693Y20726D01*
X29698D01*
X29713Y20741D01*
Y20726D02*
Y20741D01*
Y20726D02*
X29723Y20716D01*
X29705D02*
X29723D01*
X29703Y20714D02*
X29705Y20716D01*
X29703Y20706D02*
Y20714D01*
Y20706D02*
X29713Y20696D01*
X29730D01*
Y20684D02*
Y20696D01*
Y20684D02*
X29738Y20676D01*
X29718D02*
X29738D01*
X29715Y20679D02*
X29718Y20676D01*
X29715Y20669D02*
Y20679D01*
Y20669D02*
X29725Y20659D01*
X29748D01*
Y20641D02*
Y20659D01*
Y20641D02*
X29750Y20639D01*
X29725D02*
X29750D01*
X29723Y20641D02*
X29725Y20639D01*
X29723Y20626D02*
Y20641D01*
Y20626D02*
X29725Y20624D01*
X29755D01*
X29765Y20614D01*
Y20606D02*
Y20614D01*
Y20604D02*
Y20606D01*
X29733Y20604D02*
X29765D01*
X29723Y20614D02*
X29733Y20604D01*
X29723Y20591D02*
Y20614D01*
X29718Y20586D02*
X29723Y20591D01*
X29718Y20586D02*
X29775D01*
Y20574D02*
Y20586D01*
Y20574D02*
X29783Y20566D01*
X29718D02*
X29783D01*
X29713Y20571D02*
X29718Y20566D01*
X29713Y20561D02*
Y20571D01*
X29703Y20551D02*
X29713Y20561D01*
X29703Y20551D02*
X29785D01*
X29790Y20556D01*
Y20541D02*
Y20556D01*
Y20541D02*
X29798Y20534D01*
X29693D02*
X29798D01*
X29675Y20516D02*
X29693Y20534D01*
X29675Y20516D02*
X29678D01*
X29683Y20521D01*
X29795D01*
X29818Y20496D02*
Y20499D01*
X29810Y20504D02*
X29818Y20496D01*
X29665Y20504D02*
X29810D01*
X29628Y20466D02*
X29665Y20504D01*
X29623Y20466D02*
X29628D01*
X29623D02*
X29638Y20481D01*
X29820D01*
X29830Y20459D02*
X29840Y20449D01*
X29588Y20429D02*
X29618Y20459D01*
X29583Y20429D02*
X29588D01*
X29583D02*
X29590Y20436D01*
X29838D02*
X29848Y20426D01*
Y20421D02*
Y20426D01*
X29570Y20414D02*
X29578Y20421D01*
X29565Y20414D02*
X29570D01*
X29555Y20404D02*
X29565Y20414D01*
X29555Y20404D02*
X29845D01*
X29850Y20409D01*
Y20401D02*
Y20409D01*
Y20401D02*
X29860Y20391D01*
X29578D02*
X29860D01*
X29545D02*
X29578D01*
X29545D02*
X29563Y20374D01*
X29870D01*
X29468Y20259D02*
X29478D01*
X29460Y20266D02*
X29468Y20259D01*
X29460Y20261D02*
Y20266D01*
X29458Y20264D02*
X29460Y20261D01*
X29455Y20264D02*
X29458D01*
X29453Y20261D02*
X29455Y20264D01*
X29450Y20261D02*
X29453D01*
X29433D02*
X29450D01*
X29430Y20264D02*
X29433Y20261D01*
X29430Y20264D02*
Y20274D01*
X29428Y20276D02*
X29430Y20274D01*
X29428Y20276D02*
X29440D01*
X29445Y20281D01*
X29440D02*
X29445D01*
X29430Y20291D02*
X29440Y20281D01*
X29420Y20291D02*
X29430D01*
X29425Y20296D02*
X29428D01*
X29415Y20309D02*
X29428Y20296D01*
X29410Y20309D02*
X29415D01*
X29410D02*
X29418Y20316D01*
X29408Y20326D02*
X29418Y20316D01*
X29408Y20326D02*
Y20334D01*
X29405Y20331D02*
X29408Y20334D01*
X29405Y20326D02*
Y20331D01*
X29398Y20334D02*
X29405Y20326D01*
X29398Y20334D02*
Y20341D01*
X29410Y20354D01*
X29403Y20361D02*
X29410Y20354D01*
X29390Y20361D02*
X29403D01*
X29388Y20359D02*
X29390Y20361D01*
X29388Y20359D02*
Y20374D01*
X29380Y20381D02*
X29388Y20374D01*
X29380Y20381D02*
X29403D01*
X29405Y20379D01*
Y20391D01*
X29398Y20399D02*
X29405Y20391D01*
X29378Y20399D02*
X29398D01*
X29378D02*
Y20404D01*
X29363Y20419D02*
X29378Y20404D01*
X29363Y20419D02*
X29398D01*
X29405Y20411D01*
Y20434D01*
X29410Y20439D01*
X29358D02*
X29410D01*
X29355Y20441D02*
X29358Y20439D01*
X29355Y20441D02*
Y20454D01*
X29353Y20456D02*
X29355Y20454D01*
X29353Y20456D02*
X29420D01*
Y20464D01*
X29433Y20476D01*
X29388D02*
X29433D01*
X29383Y20471D02*
X29388Y20476D01*
X29353Y20471D02*
X29383D01*
X29348Y20466D02*
X29353Y20471D01*
X29348Y20466D02*
Y20476D01*
X29330Y20494D02*
X29348Y20476D01*
X29330Y20494D02*
X29445D01*
X29448Y20491D01*
X29470Y20514D01*
X29325D02*
Y20526D01*
X29320Y20531D02*
X29325Y20526D01*
X29320Y20531D02*
X29488D01*
X29513Y20556D01*
X29518D01*
X29508Y20546D02*
X29518Y20556D01*
X29313Y20546D02*
X29508D01*
X29310Y20544D02*
X29313Y20546D01*
X29310Y20544D02*
Y20556D01*
X29303Y20564D02*
X29310Y20556D01*
X29530Y20564D02*
X29533Y20566D01*
Y20569D01*
X29548Y20584D01*
X29295D02*
X29548D01*
X29293Y20581D02*
X29295Y20584D01*
X29293Y20581D02*
Y20596D01*
X29290Y20599D02*
X29293Y20596D01*
X29290Y20599D02*
X29565D01*
X29570Y20604D01*
X29583Y20616D01*
X29290D02*
X29583D01*
X29285Y20611D02*
X29290Y20616D01*
X29285Y20611D02*
Y20619D01*
X29273Y20631D02*
X29285Y20619D01*
X29273Y20631D02*
X29590D01*
X29570Y20651D02*
X29590Y20631D01*
X29260Y20651D02*
X29570D01*
X29113Y20646D02*
X29115Y20649D01*
X28985Y20646D02*
X29113D01*
X28985D02*
X28995Y20636D01*
Y20624D02*
Y20636D01*
Y20624D02*
X29005Y20634D01*
X29115D01*
X29130Y20619D01*
Y20609D02*
Y20619D01*
X29125Y20614D02*
X29130Y20609D01*
X29003Y20614D02*
X29125D01*
X29003D02*
X29010Y20606D01*
Y20594D02*
Y20606D01*
Y20594D02*
X29133D01*
X29145Y20581D01*
X29023D02*
X29145D01*
X29020Y20579D02*
X29023Y20581D01*
X29020Y20561D02*
Y20579D01*
Y20561D02*
X29145D01*
X29148Y20564D01*
Y20554D02*
Y20564D01*
Y20554D02*
X29155Y20546D01*
X29033D02*
X29155D01*
X29033Y20536D02*
Y20546D01*
Y20536D02*
X29040Y20529D01*
X29155D01*
X29163Y20536D01*
Y20519D02*
Y20536D01*
Y20519D02*
X29168Y20514D01*
X29063D02*
X29168D01*
X29060Y20511D02*
X29063Y20514D01*
X29060Y20511D02*
Y20516D01*
X29050Y20526D02*
X29060Y20516D01*
X29050Y20499D02*
Y20526D01*
Y20499D02*
X29058Y20491D01*
X29163D01*
X29175Y20504D01*
Y20494D02*
Y20504D01*
Y20494D02*
X29188Y20481D01*
X29070D02*
X29188D01*
X29068Y20484D02*
X29070Y20481D01*
X29068Y20459D02*
Y20484D01*
Y20459D02*
X29183D01*
X29193Y20469D01*
Y20459D02*
Y20469D01*
Y20459D02*
X29203Y20449D01*
X29085D02*
X29203D01*
X29080Y20454D02*
X29085Y20449D01*
X29080Y20431D02*
Y20454D01*
Y20431D02*
X29083Y20429D01*
X29198D01*
X29205Y20436D01*
Y20424D02*
Y20436D01*
Y20424D02*
X29213Y20416D01*
X29093D02*
X29213D01*
X29090Y20414D02*
X29093Y20416D01*
X29090Y20411D02*
Y20414D01*
Y20411D02*
X29103Y20399D01*
X29208D01*
X29218Y20409D01*
Y20399D02*
Y20409D01*
Y20399D02*
X29230Y20386D01*
X29108D02*
X29230D01*
X29105Y20384D02*
X29108Y20386D01*
X29105Y20374D02*
Y20384D01*
Y20374D02*
X29113Y20366D01*
X29228D01*
X29235Y20374D01*
Y20359D02*
Y20374D01*
Y20359D02*
X29240Y20354D01*
X29125D02*
X29240D01*
X29118Y20346D02*
X29125Y20354D01*
X29118Y20339D02*
Y20346D01*
Y20339D02*
X29125Y20331D01*
X29235D01*
X29248Y20344D01*
Y20336D02*
Y20344D01*
Y20336D02*
X29265Y20319D01*
X29140D02*
X29265D01*
X29135Y20314D02*
X29140Y20319D01*
X29135Y20306D02*
Y20314D01*
Y20306D02*
X29143Y20299D01*
X29265D01*
X29275Y20289D01*
X29160D02*
X29275D01*
X29153Y20296D02*
X29160Y20289D01*
X29143Y20296D02*
X29153D01*
X29143D02*
X29150Y20289D01*
Y20271D02*
Y20289D01*
Y20271D02*
X29275D01*
X29290Y20256D01*
X29155D02*
X29290D01*
X29590Y20436D02*
X29838D01*
X29618Y20459D02*
X29830D01*
X28918Y20831D02*
X29613D01*
X29420Y20291D02*
X29425Y20296D01*
X29795Y20521D02*
X29818Y20499D01*
X21033Y17942D02*
X25123D01*
X26143D02*
X30233D01*
X21033D02*
X21185Y17993D01*
X21033Y17942D02*
X21185Y17891D01*
X30081Y17993D02*
X30233Y17942D01*
X30081Y17891D02*
X30233Y17942D01*
X21033Y17917D02*
Y17968D01*
X30233Y17917D02*
Y17968D01*
X20598Y18542D02*
Y20132D01*
Y21153D02*
Y22742D01*
X20547Y18695D02*
X20598Y18542D01*
X20649Y18695D01*
X20547Y22590D02*
X20598Y22742D01*
X20649Y22590D01*
X20573Y18542D02*
X20623D01*
X20573Y22742D02*
X20623D01*
X22982Y18242D02*
X25422D01*
X26442D02*
X28882D01*
X22982D02*
X23134Y18293D01*
X22982Y18242D02*
X23134Y18191D01*
X28730Y18293D02*
X28882Y18242D01*
X28730Y18191D02*
X28882Y18242D01*
X22982Y18217D02*
Y18268D01*
X28882Y18217D02*
Y18268D01*
X21033Y18242D02*
X21371D01*
X22645D02*
X22983D01*
X21033D02*
X21185Y18293D01*
X21033Y18242D02*
X21185Y18191D01*
X22831Y18293D02*
X22983Y18242D01*
X22831Y18191D02*
X22983Y18242D01*
X21033Y18217D02*
Y18268D01*
X22983Y18217D02*
Y18268D01*
D16*
X25148Y17876D02*
X25173Y17851D01*
X25224D01*
X25250Y17876D01*
Y17978D01*
X25224Y18003D01*
X25173D01*
X25148Y17978D01*
Y17952D01*
X25173Y17927D01*
X25250D01*
X25402Y17851D02*
X25300D01*
X25402Y17952D01*
Y17978D01*
X25377Y18003D01*
X25326D01*
X25300Y17978D01*
X25656Y17851D02*
X25605Y17902D01*
Y17952D01*
X25656Y18003D01*
X25732Y17851D02*
Y17952D01*
X25757D01*
X25783Y17927D01*
Y17851D01*
Y17927D01*
X25808Y17952D01*
X25834Y17927D01*
Y17851D01*
X25884D02*
Y17952D01*
X25910D01*
X25935Y17927D01*
Y17851D01*
Y17927D01*
X25961Y17952D01*
X25986Y17927D01*
Y17851D01*
X26037D02*
X26088Y17902D01*
Y17952D01*
X26037Y18003D01*
X20689Y20233D02*
X20537D01*
X20613Y20157D01*
Y20259D01*
X20689Y20411D02*
Y20310D01*
X20588Y20411D01*
X20562D01*
X20537Y20386D01*
Y20335D01*
X20562Y20310D01*
X20689Y20665D02*
X20639Y20614D01*
X20588D01*
X20537Y20665D01*
X20689Y20741D02*
X20588D01*
Y20767D01*
X20613Y20792D01*
X20689D01*
X20613D01*
X20588Y20817D01*
X20613Y20843D01*
X20689D01*
Y20894D02*
X20588D01*
Y20919D01*
X20613Y20944D01*
X20689D01*
X20613D01*
X20588Y20970D01*
X20613Y20995D01*
X20689D01*
Y21046D02*
X20639Y21097D01*
X20588D01*
X20537Y21046D01*
X25549Y18303D02*
X25447D01*
Y18227D01*
X25498Y18252D01*
X25523D01*
X25549Y18227D01*
Y18176D01*
X25523Y18151D01*
X25472D01*
X25447Y18176D01*
X25599D02*
X25625Y18151D01*
X25676D01*
X25701Y18176D01*
Y18278D01*
X25676Y18303D01*
X25625D01*
X25599Y18278D01*
Y18252D01*
X25625Y18227D01*
X25701D01*
X25955Y18151D02*
X25904Y18202D01*
Y18252D01*
X25955Y18303D01*
X26031Y18151D02*
Y18252D01*
X26056D01*
X26082Y18227D01*
Y18151D01*
Y18227D01*
X26107Y18252D01*
X26133Y18227D01*
Y18151D01*
X26183D02*
Y18252D01*
X26209D01*
X26234Y18227D01*
Y18151D01*
Y18227D01*
X26260Y18252D01*
X26285Y18227D01*
Y18151D01*
X26336D02*
X26387Y18202D01*
Y18252D01*
X26336Y18303D01*
X21396Y18151D02*
X21447D01*
X21421D01*
Y18303D01*
X21396Y18278D01*
X21523Y18176D02*
X21548Y18151D01*
X21599D01*
X21625Y18176D01*
Y18278D01*
X21599Y18303D01*
X21548D01*
X21523Y18278D01*
Y18252D01*
X21548Y18227D01*
X21625D01*
X21675Y18151D02*
Y18176D01*
X21701D01*
Y18151D01*
X21675D01*
X21904Y18303D02*
X21802D01*
Y18227D01*
X21853Y18252D01*
X21878D01*
X21904Y18227D01*
Y18176D01*
X21878Y18151D01*
X21828D01*
X21802Y18176D01*
X22158Y18151D02*
X22107Y18202D01*
Y18252D01*
X22158Y18303D01*
X22234Y18151D02*
Y18252D01*
X22259D01*
X22285Y18227D01*
Y18151D01*
Y18227D01*
X22310Y18252D01*
X22336Y18227D01*
Y18151D01*
X22386D02*
Y18252D01*
X22412D01*
X22437Y18227D01*
Y18151D01*
Y18227D01*
X22463Y18252D01*
X22488Y18227D01*
Y18151D01*
X22539D02*
X22589Y18202D01*
Y18252D01*
X22539Y18303D01*
D55*
X22428Y21647D02*
X22420Y21671D01*
X22400Y21685D01*
X22376D01*
X22356Y21671D01*
X22348Y21647D01*
X22428Y21647D02*
X22436Y21624D01*
X22456Y21609D01*
X22480D01*
X22500Y21624D01*
X22508Y21647D01*
X22928Y21652D02*
X22936Y21629D01*
X22956Y21614D01*
X22980D01*
X23000Y21629D01*
X23008Y21652D01*
X22928Y21652D02*
X22920Y21676D01*
X22900Y21690D01*
X22876D01*
X22856Y21676D01*
X22848Y21652D01*
X26085Y19075D02*
Y19285D01*
X25515Y19075D02*
Y19285D01*
X25895Y19080D02*
Y19280D01*
X25515Y19285D02*
X26085D01*
X25515Y19075D02*
X26085D01*
X28308Y22277D02*
X28718D01*
X28163Y21907D02*
X28718D01*
X28163D02*
Y22277D01*
X28308D01*
X28718Y21907D02*
Y22277D01*
X27984Y19271D02*
Y19471D01*
X28094D01*
X27984Y19271D02*
X28094D01*
Y19471D01*
X27833Y19137D02*
X28223D01*
X27833Y18957D02*
X28223D01*
Y19137D01*
X27833Y18957D02*
Y19137D01*
X27910Y19601D02*
X28110D01*
Y19491D02*
Y19601D01*
X27910Y19491D02*
Y19601D01*
Y19491D02*
X28110D01*
X27107Y22249D02*
X27237D01*
X27107Y21959D02*
Y22249D01*
X27237Y21959D02*
Y22249D01*
X27107Y21959D02*
X27237D01*
X27285Y22249D02*
X27415D01*
X27285Y21959D02*
Y22249D01*
X27415Y21959D02*
Y22249D01*
X27285Y21959D02*
X27415D01*
X27107Y21932D02*
X27237D01*
X27107Y21642D02*
Y21932D01*
X27237Y21642D02*
Y21932D01*
X27107Y21642D02*
X27237D01*
X25700Y19557D02*
X26220D01*
X25700Y19347D02*
X26220D01*
X25700D02*
Y19557D01*
X26220Y19347D02*
Y19557D01*
X24058Y20945D02*
X24238D01*
X24058Y20555D02*
X24238D01*
X24058D02*
Y20945D01*
X24238Y20555D02*
Y20945D01*
X29081Y19227D02*
Y19357D01*
Y19227D02*
X29371D01*
X29081Y19357D02*
X29371D01*
Y19227D02*
Y19357D01*
X24975Y21270D02*
Y21400D01*
X24685D02*
X24975D01*
X24685Y21270D02*
X24975D01*
X24685D02*
Y21400D01*
X27095Y19252D02*
Y19382D01*
Y19252D02*
X27385D01*
X27095Y19382D02*
X27385D01*
Y19252D02*
Y19382D01*
X27663Y19740D02*
X27863D01*
Y19630D02*
Y19740D01*
X27663Y19630D02*
Y19740D01*
Y19630D02*
X27863D01*
X27904D02*
X28104D01*
X27904D02*
Y19740D01*
X28104Y19630D02*
Y19740D01*
X27904D02*
X28104D01*
X27434D02*
X27634D01*
Y19630D02*
Y19740D01*
X27434Y19630D02*
Y19740D01*
Y19630D02*
X27634D01*
X27385Y19404D02*
Y19534D01*
X27095D02*
X27385D01*
X27095Y19404D02*
X27385D01*
X27095D02*
Y19534D01*
X27173Y19664D02*
X27373D01*
Y19554D02*
Y19664D01*
X27173Y19554D02*
Y19664D01*
Y19554D02*
X27373D01*
X27905Y21620D02*
Y21750D01*
X27615D02*
X27905D01*
X27615Y21620D02*
X27905D01*
X27615D02*
Y21750D01*
X27533Y19260D02*
X27883D01*
X27533D02*
Y19605D01*
X27883D01*
X27843D02*
X27883Y19565D01*
Y19260D02*
Y19605D01*
X28735Y19227D02*
Y19357D01*
X28445D02*
X28735D01*
X28445Y19227D02*
X28735D01*
X28445D02*
Y19357D01*
X27583Y21772D02*
Y21902D01*
X27293D02*
X27583D01*
X27293Y21772D02*
X27583D01*
X27293D02*
Y21902D01*
X27908Y21772D02*
Y21902D01*
X27618D02*
X27908D01*
X27618Y21772D02*
X27908D01*
X27618D02*
Y21902D01*
X27293Y21620D02*
Y21750D01*
Y21620D02*
X27583D01*
X27293Y21750D02*
X27583D01*
Y21620D02*
Y21750D01*
X24483Y20687D02*
Y20817D01*
Y20687D02*
X24773D01*
X24483Y20817D02*
X24773D01*
Y20687D02*
Y20817D01*
X24263Y20555D02*
X24443D01*
X24263Y20945D02*
X24443D01*
Y20555D02*
Y20945D01*
X24263Y20555D02*
Y20945D01*
X28767Y19227D02*
Y19357D01*
Y19227D02*
X29057D01*
X28767Y19357D02*
X29057D01*
Y19227D02*
Y19357D01*
X27193Y20382D02*
X27763D01*
X27193Y20592D02*
X27763D01*
X27573Y20387D02*
Y20587D01*
X27193Y20382D02*
Y20592D01*
X27763Y20382D02*
Y20592D01*
X26265Y19575D02*
Y20095D01*
X26475Y19575D02*
Y20095D01*
X26265Y19575D02*
X26475D01*
X26265Y20095D02*
X26475D01*
X26035Y19575D02*
X26245D01*
X26035Y20095D02*
X26245D01*
X26035Y19575D02*
Y20095D01*
X26245Y19575D02*
Y20095D01*
X27905Y21472D02*
Y21602D01*
X27615D02*
X27905D01*
X27615Y21472D02*
X27905D01*
X27615D02*
Y21602D01*
X28779Y19555D02*
X28909D01*
Y19845D01*
X28779Y19555D02*
Y19845D01*
X28909D01*
X22013Y18572D02*
Y19872D01*
X22393Y18572D02*
Y19872D01*
X22013Y18572D02*
X22393D01*
X22013Y19872D02*
X22393D01*
X23469Y20196D02*
Y20718D01*
X22879Y20196D02*
X23469D01*
X22879Y20718D02*
X23469D01*
X22879Y20196D02*
Y20718D01*
X24483Y20835D02*
Y20965D01*
Y20835D02*
X24773D01*
X24483Y20965D02*
X24773D01*
Y20835D02*
Y20965D01*
X26288Y20600D02*
Y20730D01*
X25998D02*
X26288D01*
X25998Y20600D02*
X26288D01*
X25998D02*
Y20730D01*
X27938Y21792D02*
X28163Y22017D01*
X25835Y19047D02*
Y18967D01*
X25796D01*
X25782Y18981D01*
Y19034D01*
X25796Y19047D01*
X25835D01*
X25702D02*
X25729Y19034D01*
X25756Y19007D01*
Y18981D01*
X25742Y18967D01*
X25716D01*
X25702Y18981D01*
Y18994D01*
X25716Y19007D01*
X25756D01*
X27698Y22317D02*
Y22397D01*
X27658D01*
X27645Y22384D01*
Y22357D01*
X27658Y22344D01*
X27698D01*
X27671D02*
X27645Y22317D01*
X27565Y22397D02*
X27618D01*
Y22317D01*
X27565D01*
X27618Y22357D02*
X27591D01*
X27485Y22397D02*
X27538D01*
Y22357D01*
X27511D01*
X27538D01*
Y22317D01*
X27143Y22282D02*
X27223D01*
Y22322D01*
X27210Y22336D01*
X27183D01*
X27170Y22322D01*
Y22282D01*
Y22309D02*
X27143Y22336D01*
Y22362D02*
Y22389D01*
Y22376D01*
X27223D01*
X27210Y22362D01*
X27143Y22469D02*
X27223D01*
X27183Y22429D01*
Y22482D01*
X24021Y20781D02*
Y20861D01*
X23981D01*
X23967Y20848D01*
Y20821D01*
X23981Y20808D01*
X24021D01*
X23994D02*
X23967Y20781D01*
X23941Y20861D02*
X23887D01*
Y20848D01*
X23941Y20795D01*
Y20781D01*
X28678Y22160D02*
Y22240D01*
X28638D01*
X28625Y22226D01*
Y22200D01*
X28638Y22186D01*
X28678D01*
X28651D02*
X28625Y22160D01*
X28598D02*
X28571D01*
X28585D01*
Y22240D01*
X28598Y22226D01*
X28531D02*
X28518Y22240D01*
X28491D01*
X28478Y22226D01*
Y22213D01*
X28491Y22200D01*
X28505D01*
X28491D01*
X28478Y22186D01*
Y22173D01*
X28491Y22160D01*
X28518D01*
X28531Y22173D01*
X28403Y22047D02*
Y22127D01*
X28363D01*
X28350Y22114D01*
Y22087D01*
X28363Y22074D01*
X28403D01*
X28376D02*
X28350Y22047D01*
X28323D02*
X28296D01*
X28310D01*
Y22127D01*
X28323Y22114D01*
X28203Y22047D02*
X28256D01*
X28203Y22101D01*
Y22114D01*
X28216Y22127D01*
X28243D01*
X28256Y22114D01*
X28680Y22047D02*
Y22127D01*
X28641D01*
X28627Y22114D01*
Y22087D01*
X28641Y22074D01*
X28680D01*
X28654D02*
X28627Y22047D01*
X28601D02*
X28574D01*
X28587D01*
Y22127D01*
X28601Y22114D01*
X28534Y22047D02*
X28507D01*
X28521D01*
Y22127D01*
X28534Y22114D01*
X27320Y22285D02*
X27400D01*
Y22325D01*
X27387Y22338D01*
X27360D01*
X27347Y22325D01*
Y22285D01*
Y22311D02*
X27320Y22338D01*
Y22365D02*
Y22391D01*
Y22378D01*
X27400D01*
X27387Y22365D01*
Y22431D02*
X27400Y22445D01*
Y22471D01*
X27387Y22485D01*
X27334D01*
X27320Y22471D01*
Y22445D01*
X27334Y22431D01*
X27387D01*
X24398Y21280D02*
Y21200D01*
X24358D01*
X24345Y21213D01*
Y21266D01*
X24358Y21280D01*
X24398D01*
X24265D02*
X24318D01*
Y21240D01*
X24291Y21253D01*
X24278D01*
X24265Y21240D01*
Y21213D01*
X24278Y21200D01*
X24305D01*
X24318Y21213D01*
X23305Y21545D02*
Y21465D01*
X23266D01*
X23252Y21478D01*
Y21491D01*
X23266Y21505D01*
X23305D01*
X23266D01*
X23252Y21518D01*
Y21531D01*
X23266Y21545D01*
X23305D01*
X23226Y21465D02*
Y21545D01*
X23186D01*
X23172Y21531D01*
Y21505D01*
X23186Y21491D01*
X23226D01*
X23199D02*
X23172Y21465D01*
X24377Y20521D02*
X24391Y20535D01*
X24417D01*
X24430Y20521D01*
Y20468D01*
X24417Y20455D01*
X24391D01*
X24377Y20468D01*
X24351Y20535D02*
X24297D01*
Y20521D01*
X24351Y20468D01*
Y20455D01*
X28350Y22226D02*
X28363Y22240D01*
X28390D01*
X28403Y22226D01*
Y22173D01*
X28390Y22160D01*
X28363D01*
X28350Y22173D01*
X28323Y22160D02*
X28296D01*
X28310D01*
Y22240D01*
X28323Y22226D01*
X28216Y22160D02*
Y22240D01*
X28256Y22200D01*
X28203D01*
X24850Y21514D02*
X24863Y21527D01*
X24890D01*
X24903Y21514D01*
Y21461D01*
X24890Y21447D01*
X24863D01*
X24850Y21461D01*
X24823D02*
X24810Y21447D01*
X24783D01*
X24770Y21461D01*
Y21514D01*
X24783Y21527D01*
X24810D01*
X24823Y21514D01*
Y21501D01*
X24810Y21487D01*
X24770D01*
X24672Y20996D02*
X24686Y20982D01*
X24712D01*
X24725Y20996D01*
Y21049D01*
X24712Y21062D01*
X24686D01*
X24672Y21049D01*
X24646Y20996D02*
X24632Y20982D01*
X24606D01*
X24592Y20996D01*
Y21009D01*
X24606Y21022D01*
X24592Y21036D01*
Y21049D01*
X24606Y21062D01*
X24632D01*
X24646Y21049D01*
Y21036D01*
X24632Y21022D01*
X24646Y21009D01*
Y20996D01*
X24632Y21022D02*
X24606D01*
X29262Y19451D02*
X29276Y19465D01*
X29302D01*
X29315Y19451D01*
Y19398D01*
X29302Y19385D01*
X29276D01*
X29262Y19398D01*
X29236Y19385D02*
X29209D01*
X29222D01*
Y19465D01*
X29236Y19451D01*
X29169D02*
X29156Y19465D01*
X29129D01*
X29116Y19451D01*
Y19438D01*
X29129Y19425D01*
X29142D01*
X29129D01*
X29116Y19411D01*
Y19398D01*
X29129Y19385D01*
X29156D01*
X29169Y19398D01*
X25344Y20005D02*
X25424D01*
Y19965D01*
X25410Y19952D01*
X25357D01*
X25344Y19965D01*
Y20005D01*
X25424Y19925D02*
Y19899D01*
Y19912D01*
X25344D01*
X25357Y19925D01*
X26530Y21140D02*
Y21060D01*
X26491D01*
X26477Y21073D01*
Y21126D01*
X26491Y21140D01*
X26530D01*
X26397Y21060D02*
X26451D01*
X26397Y21113D01*
Y21126D01*
X26411Y21140D01*
X26437D01*
X26451Y21126D01*
X27595Y21097D02*
Y21017D01*
X27556D01*
X27542Y21031D01*
Y21084D01*
X27556Y21097D01*
X27595D01*
X27516Y21084D02*
X27502Y21097D01*
X27476D01*
X27462Y21084D01*
Y21071D01*
X27476Y21057D01*
X27489D01*
X27476D01*
X27462Y21044D01*
Y21031D01*
X27476Y21017D01*
X27502D01*
X27516Y21031D01*
X27515Y20687D02*
Y20607D01*
X27476D01*
X27462Y20621D01*
Y20674D01*
X27476Y20687D01*
X27515D01*
X27396Y20607D02*
Y20687D01*
X27436Y20647D01*
X27382D01*
X21872Y19347D02*
X21925D01*
Y19307D01*
X21899D01*
X21925D01*
Y19267D01*
X21846D02*
X21819D01*
X21832D01*
Y19347D01*
X21846Y19334D01*
X25365Y21385D02*
X25339D01*
X25352D01*
Y21305D01*
X25365D01*
X25339D01*
X25246Y21371D02*
X25259Y21385D01*
X25286D01*
X25299Y21371D01*
Y21318D01*
X25286Y21305D01*
X25259D01*
X25246Y21318D01*
X25219Y21305D02*
X25192D01*
X25206D01*
Y21385D01*
X25219Y21371D01*
X29093Y19930D02*
X29066D01*
X29080D01*
Y19850D01*
X29093D01*
X29066D01*
X28973Y19916D02*
X28986Y19930D01*
X29013D01*
X29026Y19916D01*
Y19863D01*
X29013Y19850D01*
X28986D01*
X28973Y19863D01*
X28893Y19850D02*
X28946D01*
X28893Y19903D01*
Y19916D01*
X28906Y19930D01*
X28933D01*
X28946Y19916D01*
X25598Y18807D02*
Y18727D01*
X25545D01*
X25465D02*
X25518D01*
X25465Y18781D01*
Y18794D01*
X25478Y18807D01*
X25505D01*
X25518Y18794D01*
X28505Y21482D02*
Y21402D01*
X28452D01*
X28426Y21469D02*
X28412Y21482D01*
X28386D01*
X28372Y21469D01*
Y21456D01*
X28386Y21442D01*
X28399D01*
X28386D01*
X28372Y21429D01*
Y21416D01*
X28386Y21402D01*
X28412D01*
X28426Y21416D01*
X25888Y19592D02*
Y19672D01*
X25848D01*
X25835Y19659D01*
Y19632D01*
X25848Y19619D01*
X25888D01*
X25861D02*
X25835Y19592D01*
X25755Y19672D02*
X25781Y19659D01*
X25808Y19632D01*
Y19606D01*
X25795Y19592D01*
X25768D01*
X25755Y19606D01*
Y19619D01*
X25768Y19632D01*
X25808D01*
X24315Y18680D02*
Y18760D01*
X24276D01*
X24262Y18746D01*
Y18720D01*
X24276Y18706D01*
X24315D01*
X24289D02*
X24262Y18680D01*
X24236Y18746D02*
X24222Y18760D01*
X24196D01*
X24182Y18746D01*
Y18733D01*
X24196Y18720D01*
X24209D01*
X24196D01*
X24182Y18706D01*
Y18693D01*
X24196Y18680D01*
X24222D01*
X24236Y18693D01*
X28605Y19454D02*
X28618Y19467D01*
X28645D01*
X28658Y19454D01*
Y19401D01*
X28645Y19387D01*
X28618D01*
X28605Y19401D01*
X28525Y19387D02*
X28578D01*
X28525Y19441D01*
Y19454D01*
X28538Y19467D01*
X28565D01*
X28578Y19454D01*
X28498Y19387D02*
X28471D01*
X28485D01*
Y19467D01*
X28498Y19454D01*
X24622Y20637D02*
X24635Y20650D01*
X24662D01*
X24675Y20637D01*
Y20583D01*
X24662Y20570D01*
X24635D01*
X24622Y20583D01*
X24542Y20650D02*
X24569Y20637D01*
X24595Y20610D01*
Y20583D01*
X24582Y20570D01*
X24555D01*
X24542Y20583D01*
Y20597D01*
X24555Y20610D01*
X24595D01*
X27148Y21495D02*
X27228D01*
Y21535D01*
X27215Y21548D01*
X27188D01*
X27175Y21535D01*
Y21495D01*
Y21521D02*
X27148Y21548D01*
X27161Y21575D02*
X27148Y21588D01*
Y21615D01*
X27161Y21628D01*
X27215D01*
X27228Y21615D01*
Y21588D01*
X27215Y21575D01*
X27201D01*
X27188Y21588D01*
Y21628D01*
X27032Y19324D02*
X27046Y19337D01*
X27072D01*
X27085Y19324D01*
Y19271D01*
X27072Y19257D01*
X27046D01*
X27032Y19271D01*
X27006Y19257D02*
X26979D01*
X26992D01*
Y19337D01*
X27006Y19324D01*
X26886Y19337D02*
X26939D01*
Y19297D01*
X26912Y19311D01*
X26899D01*
X26886Y19297D01*
Y19271D01*
X26899Y19257D01*
X26926D01*
X26939Y19271D01*
X27860Y19768D02*
Y19848D01*
X27821D01*
X27807Y19835D01*
Y19808D01*
X27821Y19795D01*
X27860D01*
X27834D02*
X27807Y19768D01*
X27781D02*
X27754D01*
X27767D01*
Y19848D01*
X27781Y19835D01*
X27714D02*
X27701Y19848D01*
X27674D01*
X27661Y19835D01*
Y19821D01*
X27674Y19808D01*
X27661Y19795D01*
Y19781D01*
X27674Y19768D01*
X27701D01*
X27714Y19781D01*
Y19795D01*
X27701Y19808D01*
X27714Y19821D01*
Y19835D01*
X27701Y19808D02*
X27674D01*
X28110Y19762D02*
Y19842D01*
X28071D01*
X28057Y19829D01*
Y19802D01*
X28071Y19789D01*
X28110D01*
X28084D02*
X28057Y19762D01*
X28031D02*
X28004D01*
X28017D01*
Y19842D01*
X28031Y19829D01*
X27964Y19842D02*
X27911D01*
Y19829D01*
X27964Y19776D01*
Y19762D01*
X28300Y19327D02*
Y19407D01*
X28261D01*
X28247Y19394D01*
Y19367D01*
X28261Y19354D01*
X28300D01*
X28274D02*
X28247Y19327D01*
X28221D02*
X28194D01*
X28207D01*
Y19407D01*
X28221Y19394D01*
X28101Y19407D02*
X28127Y19394D01*
X28154Y19367D01*
Y19341D01*
X28141Y19327D01*
X28114D01*
X28101Y19341D01*
Y19354D01*
X28114Y19367D01*
X28154D01*
X27300Y18955D02*
Y18875D01*
X27247D01*
X27181D02*
Y18955D01*
X27221Y18915D01*
X27167D01*
X27423Y19527D02*
Y19501D01*
Y19514D01*
X27503D01*
Y19527D01*
Y19501D01*
X27436Y19407D02*
X27423Y19421D01*
Y19447D01*
X27436Y19461D01*
X27490D01*
X27503Y19447D01*
Y19421D01*
X27490Y19407D01*
X27436Y19381D02*
X27423Y19367D01*
Y19341D01*
X27436Y19327D01*
X27450D01*
X27463Y19341D01*
Y19354D01*
Y19341D01*
X27476Y19327D01*
X27490D01*
X27503Y19341D01*
Y19367D01*
X27490Y19381D01*
X28077Y18916D02*
X28091Y18930D01*
X28117D01*
X28130Y18916D01*
Y18863D01*
X28117Y18850D01*
X28091D01*
X28077Y18863D01*
X27997Y18850D02*
X28051D01*
X27997Y18903D01*
Y18916D01*
X28011Y18930D01*
X28037D01*
X28051Y18916D01*
X27971D02*
X27957Y18930D01*
X27931D01*
X27917Y18916D01*
Y18863D01*
X27931Y18850D01*
X27957D01*
X27971Y18863D01*
Y18916D01*
X28295Y19574D02*
X28308Y19587D01*
X28335D01*
X28348Y19574D01*
Y19521D01*
X28335Y19507D01*
X28308D01*
X28295Y19521D01*
X28268Y19507D02*
X28241D01*
X28255D01*
Y19587D01*
X28268Y19574D01*
X28201D02*
X28188Y19587D01*
X28161D01*
X28148Y19574D01*
Y19561D01*
X28161Y19547D01*
X28148Y19534D01*
Y19521D01*
X28161Y19507D01*
X28188D01*
X28201Y19521D01*
Y19534D01*
X28188Y19547D01*
X28201Y19561D01*
Y19574D01*
X28188Y19547D02*
X28161D01*
X27572Y19841D02*
X27586Y19855D01*
X27612D01*
X27625Y19841D01*
Y19788D01*
X27612Y19775D01*
X27586D01*
X27572Y19788D01*
X27546Y19775D02*
X27519D01*
X27532D01*
Y19855D01*
X27546Y19841D01*
X27479Y19855D02*
X27426D01*
Y19841D01*
X27479Y19788D01*
Y19775D01*
X26997Y19489D02*
X27011Y19502D01*
X27037D01*
X27050Y19489D01*
Y19436D01*
X27037Y19422D01*
X27011D01*
X26997Y19436D01*
X26971Y19422D02*
X26944D01*
X26957D01*
Y19502D01*
X26971Y19489D01*
X26851Y19502D02*
X26877Y19489D01*
X26904Y19462D01*
Y19436D01*
X26891Y19422D01*
X26864D01*
X26851Y19436D01*
Y19449D01*
X26864Y19462D01*
X26904D01*
X27322Y19761D02*
X27336Y19775D01*
X27362D01*
X27375Y19761D01*
Y19708D01*
X27362Y19695D01*
X27336D01*
X27322Y19708D01*
X27296Y19695D02*
X27269D01*
X27282D01*
Y19775D01*
X27296Y19761D01*
X27229Y19708D02*
X27216Y19695D01*
X27189D01*
X27176Y19708D01*
Y19761D01*
X27189Y19775D01*
X27216D01*
X27229Y19761D01*
Y19748D01*
X27216Y19735D01*
X27176D01*
X23590Y20611D02*
X23603Y20625D01*
X23630D01*
X23643Y20611D01*
Y20558D01*
X23630Y20545D01*
X23603D01*
X23590Y20558D01*
X23510Y20545D02*
X23563D01*
X23510Y20598D01*
Y20611D01*
X23523Y20625D01*
X23550D01*
X23563Y20611D01*
X28685Y19719D02*
X28671Y19732D01*
Y19759D01*
X28685Y19772D01*
X28738D01*
X28751Y19759D01*
Y19732D01*
X28738Y19719D01*
X28751Y19639D02*
Y19692D01*
X28698Y19639D01*
X28685D01*
X28671Y19652D01*
Y19679D01*
X28685Y19692D01*
X28751Y19572D02*
X28671D01*
X28711Y19612D01*
Y19559D01*
X28683Y21937D02*
Y22017D01*
X28643D01*
X28630Y22004D01*
Y21977D01*
X28643Y21964D01*
X28683D01*
X28656D02*
X28630Y21937D01*
X28603D02*
X28576D01*
X28590D01*
Y22017D01*
X28603Y22004D01*
X28483Y22017D02*
X28536D01*
Y21977D01*
X28510Y21991D01*
X28496D01*
X28483Y21977D01*
Y21951D01*
X28496Y21937D01*
X28523D01*
X28536Y21951D01*
X26205Y20480D02*
Y20560D01*
X26166D01*
X26152Y20546D01*
Y20520D01*
X26166Y20506D01*
X26205D01*
X26179D02*
X26152Y20480D01*
X26126Y20546D02*
X26112Y20560D01*
X26086D01*
X26072Y20546D01*
Y20533D01*
X26086Y20520D01*
X26072Y20506D01*
Y20493D01*
X26086Y20480D01*
X26112D01*
X26126Y20493D01*
Y20506D01*
X26112Y20520D01*
X26126Y20533D01*
Y20546D01*
X26112Y20520D02*
X26086D01*
X26428Y20142D02*
Y20222D01*
X26388D01*
X26375Y20209D01*
Y20182D01*
X26388Y20169D01*
X26428D01*
X26401D02*
X26375Y20142D01*
X26295Y20222D02*
X26348D01*
Y20182D01*
X26321Y20196D01*
X26308D01*
X26295Y20182D01*
Y20156D01*
X26308Y20142D01*
X26335D01*
X26348Y20156D01*
X26146Y20216D02*
X26159Y20229D01*
X26186D01*
X26199Y20216D01*
Y20162D01*
X26186Y20149D01*
X26159D01*
X26146Y20162D01*
X26066Y20229D02*
X26119D01*
Y20189D01*
X26092Y20202D01*
X26079D01*
X26066Y20189D01*
Y20162D01*
X26079Y20149D01*
X26106D01*
X26119Y20162D01*
X21198Y20105D02*
Y20025D01*
X21145D01*
X21118D02*
X21091D01*
X21105D01*
Y20105D01*
X21118Y20091D01*
D72*
X25314Y20172D02*
X25310Y20197D01*
X25296Y20217D01*
X25276Y20231D01*
X25251Y20236D01*
X25227Y20230D01*
X25207Y20216D01*
X25194Y20194D01*
X25191Y20170D01*
X28953Y19503D02*
Y19803D01*
X29383D01*
Y19503D02*
Y19803D01*
X28953Y19503D02*
X29383D01*
X28655Y20605D02*
Y21340D01*
X28205Y20605D02*
X28655D01*
X28205Y21340D02*
X28655D01*
X28205Y20605D02*
Y21340D01*
X27758Y22155D02*
Y22247D01*
Y21945D02*
Y22040D01*
X27455Y21945D02*
X27558D01*
X27455D02*
Y22060D01*
X27455Y22135D02*
Y22250D01*
X27558D01*
X27758Y22155D02*
X27860D01*
Y22040D02*
Y22155D01*
X27758Y22040D02*
X27860D01*
X27558Y21945D02*
X27758D01*
X27558Y22250D02*
X27758D01*
X27455Y22060D02*
Y22135D01*
X24458Y21142D02*
Y21162D01*
Y21142D02*
X24558D01*
Y21022D02*
Y21142D01*
X24463Y21022D02*
X24558D01*
X24458Y21002D02*
Y21022D01*
X24178Y21002D02*
Y21022D01*
X24078D02*
X24178D01*
X24078D02*
Y21142D01*
X24173D01*
X24258Y21002D02*
Y21162D01*
X24178Y21002D02*
X24458D01*
X24178Y21142D02*
Y21162D01*
Y21162D02*
X24458D01*
X27364Y18623D02*
Y19213D01*
X27774Y18623D02*
Y19213D01*
X27364D02*
X27774D01*
X27364Y18623D02*
X27774D01*
X25314Y20172D02*
X25451D01*
Y21243D01*
X25060Y21243D02*
X25451D01*
X25057Y20170D02*
Y21239D01*
Y20170D02*
X25191D01*
X27270Y21055D02*
Y21435D01*
X27700Y21055D02*
Y21435D01*
X27270D02*
X27900D01*
Y21055D02*
Y21435D01*
X27270Y21055D02*
X27900D01*
X26110Y21237D02*
X26355D01*
Y20947D02*
Y21237D01*
X26110Y20947D02*
X26168D01*
Y20747D02*
Y20947D01*
X26298D02*
X26355D01*
X26298Y20747D02*
Y20947D01*
X26168Y20747D02*
X26298D01*
X26110Y20947D02*
Y21237D01*
X24400Y18602D02*
X25400D01*
X24400Y19602D02*
X25400D01*
X24400Y19302D02*
Y19602D01*
X24328Y18902D02*
Y19302D01*
X24400D01*
X24328Y18902D02*
X24400D01*
Y18602D02*
Y18902D01*
X25400Y18602D02*
Y18902D01*
X25473D02*
Y19302D01*
X25400Y18902D02*
X25473D01*
X25400Y19302D02*
X25473D01*
X25400D02*
Y19602D01*
X25665Y19455D02*
Y20025D01*
X25455Y19455D02*
X25665D01*
X25455Y20025D02*
X25665D01*
X25460Y19645D02*
X25660D01*
X25455Y19455D02*
Y20025D01*
X21283Y19987D02*
Y20287D01*
X21210D02*
X21283D01*
X21210Y20687D02*
X21283D01*
X21210Y20287D02*
Y20687D01*
X21283D02*
Y20987D01*
X22283Y20687D02*
Y20987D01*
Y20687D02*
X22355D01*
X22283Y20287D02*
X22355D01*
Y20687D01*
X22283Y19987D02*
Y20287D01*
X21283Y19987D02*
X22283D01*
X21283Y20987D02*
X22283D01*
X23103Y21087D02*
Y21737D01*
X22253Y21087D02*
X23103D01*
X22253D02*
Y21737D01*
X22253D02*
X23103D01*
X28983Y20275D02*
Y20395D01*
X28923D01*
X28903Y20375D01*
Y20335D01*
X28923Y20315D01*
X28983D01*
X28943D02*
X28903Y20275D01*
X22463Y21152D02*
X22383D01*
X22968Y21160D02*
X22888D01*
X22928Y21120D02*
Y21200D01*
D73*
X28969Y20658D02*
X29151Y20249D01*
X28969Y20658D02*
X29120D01*
X29302Y20249D01*
X29151D02*
X29302D01*
X29559Y20363D02*
X29560Y20363D01*
X29556Y20363D02*
X29559D01*
X29556Y20364D02*
X29556Y20363D01*
X29553Y20364D02*
X29556D01*
X29553Y20365D02*
X29553Y20364D01*
X29550Y20365D02*
X29553D01*
X29550Y20366D02*
X29550Y20365D01*
X29549Y20366D02*
X29550D01*
X29548Y20367D02*
X29549Y20366D01*
X29547Y20367D02*
X29548D01*
X29547D02*
Y20367D01*
X29547D02*
X29547D01*
X29546Y20368D02*
X29547Y20367D01*
X29545Y20368D02*
X29546D01*
X29545D02*
Y20369D01*
X29544D02*
X29545D01*
X29543Y20370D02*
X29544Y20369D01*
X29542Y20370D02*
X29543D01*
X29542D02*
Y20371D01*
X29541D02*
X29542D01*
X29540Y20372D02*
X29541Y20371D01*
X29540Y20372D02*
Y20373D01*
X29540D02*
X29540D01*
X29540D02*
Y20373D01*
X29538Y20375D02*
X29540Y20373D01*
X29538Y20375D02*
Y20376D01*
X29537Y20377D02*
X29538Y20376D01*
X29537Y20377D02*
Y20379D01*
X29536D02*
X29537D01*
X29536D02*
Y20380D01*
X29535Y20381D02*
X29536Y20380D01*
X29535Y20381D02*
Y20382D01*
X29534Y20382D02*
X29535Y20382D01*
X29534Y20382D02*
Y20385D01*
X29534Y20386D02*
X29534Y20385D01*
X29534Y20386D02*
Y20394D01*
X29534Y20395D01*
Y20397D01*
X29535Y20398D01*
Y20398D01*
X29536Y20399D01*
Y20401D01*
X29537Y20401D01*
Y20402D01*
X29537Y20403D01*
Y20404D01*
X29538D01*
Y20404D01*
X29540Y20406D01*
Y20407D01*
X29540D01*
X29541Y20407D01*
Y20408D01*
X29666Y20522D01*
X29668Y20525D01*
X29671Y20527D01*
X29673Y20530D01*
X29675Y20533D01*
X29678Y20536D01*
X29680Y20538D01*
X29685Y20544D01*
X29687Y20546D01*
X29688Y20549D01*
X29691Y20552D01*
X29692Y20555D01*
X29694Y20558D01*
X29697Y20564D01*
X29699Y20568D01*
X29702Y20574D01*
X29703Y20578D01*
X29704Y20581D01*
X29706Y20584D01*
X29707Y20588D01*
X29707Y20591D01*
X29709Y20595D01*
X29710Y20598D01*
X29710Y20602D01*
Y20605D01*
X29712Y20612D01*
Y20615D01*
X29713Y20619D01*
Y20636D01*
X29712Y20639D02*
X29713Y20636D01*
X29712Y20639D02*
Y20643D01*
X29711Y20646D02*
X29712Y20643D01*
X29711Y20646D02*
Y20650D01*
X29710Y20653D02*
X29711Y20650D01*
X29709Y20661D02*
X29710Y20653D01*
X29708Y20664D02*
X29709Y20661D01*
X29707Y20668D02*
X29708Y20664D01*
X29707Y20671D02*
X29707Y20668D01*
X29705Y20674D02*
X29707Y20671D01*
X29704Y20677D02*
X29705Y20674D01*
X29703Y20680D02*
X29704Y20677D01*
X29701Y20684D02*
X29703Y20680D01*
X29695Y20696D02*
X29701Y20684D01*
X29694Y20700D02*
X29695Y20696D01*
X29691Y20703D02*
X29694Y20700D01*
X29690Y20705D02*
X29691Y20703D01*
X29688Y20708D02*
X29690Y20705D01*
X29686Y20711D02*
X29688Y20708D01*
X29681Y20718D02*
X29686Y20711D01*
X29679Y20720D02*
X29681Y20718D01*
X29677Y20723D02*
X29679Y20720D01*
X29675Y20725D02*
X29677Y20723D01*
X29672Y20728D02*
X29675Y20725D01*
X29669Y20730D02*
X29672Y20728D01*
X29665Y20735D02*
X29669Y20730D01*
X29659Y20740D02*
X29665Y20735D01*
X29656Y20742D02*
X29659Y20740D01*
X29650Y20746D02*
X29656Y20742D01*
X29647Y20748D02*
X29650Y20746D01*
X29644Y20750D02*
X29647Y20748D01*
X29638Y20753D02*
X29644Y20750D01*
X29635Y20755D02*
X29638Y20753D01*
X29626Y20760D02*
X29635Y20755D01*
X29622Y20761D02*
X29626Y20760D01*
X29616Y20764D02*
X29622Y20761D01*
X29612Y20765D02*
X29616Y20764D01*
X29609Y20766D02*
X29612Y20765D01*
X29606Y20767D02*
X29609Y20766D01*
X29603Y20768D02*
X29606Y20767D01*
X29595Y20769D02*
X29603Y20768D01*
X29592Y20770D02*
X29595Y20769D01*
X29588Y20770D02*
X29592D01*
X29585Y20771D02*
X29588Y20770D01*
X29581Y20771D02*
X29585D01*
X29578Y20771D02*
X29581Y20771D01*
X29571Y20771D02*
X29578D01*
X29571D02*
X29572Y20772D01*
X28923D02*
X29572D01*
X28885Y20856D02*
X28923Y20772D01*
X28885Y20856D02*
X29674D01*
X29886Y20363D01*
X29560D02*
X29886D01*
X29249Y20665D02*
X29573D01*
X29573Y20658D02*
X29574Y20658D01*
X29577D01*
X29578Y20657D01*
X29580D01*
Y20656D02*
Y20657D01*
Y20656D02*
X29581D01*
X29582Y20655D01*
X29583D01*
X29584Y20655D01*
X29584D01*
X29585Y20654D01*
X29586D01*
Y20653D02*
Y20654D01*
Y20653D02*
X29587D01*
X29587Y20652D01*
X29588D01*
X29591Y20650D01*
X29591D01*
Y20649D02*
Y20650D01*
Y20649D02*
X29594Y20646D01*
Y20646D02*
Y20646D01*
Y20646D02*
X29595D01*
Y20645D02*
Y20646D01*
Y20645D02*
X29596Y20644D01*
Y20643D02*
Y20644D01*
Y20643D02*
X29597Y20642D01*
Y20642D02*
Y20642D01*
Y20642D02*
X29597Y20641D01*
Y20640D02*
Y20641D01*
Y20640D02*
X29598Y20639D01*
Y20639D02*
Y20639D01*
Y20639D02*
X29599Y20638D01*
Y20636D02*
Y20638D01*
Y20636D02*
X29600Y20635D01*
Y20631D02*
Y20635D01*
Y20631D02*
X29600Y20630D01*
Y20626D02*
Y20630D01*
X29600Y20625D02*
X29600Y20626D01*
X29600Y20622D02*
Y20625D01*
X29599Y20621D02*
X29600Y20622D01*
X29599Y20620D02*
Y20621D01*
X29598Y20619D02*
X29599Y20620D01*
X29598Y20617D02*
Y20619D01*
X29597Y20617D02*
X29598Y20617D01*
X29597Y20615D02*
Y20617D01*
X29596Y20614D02*
X29597Y20615D01*
X29596Y20613D02*
Y20614D01*
X29595Y20612D02*
X29596Y20613D01*
X29595Y20611D02*
Y20612D01*
X29594Y20611D02*
X29595Y20611D01*
X29594Y20611D02*
X29594D01*
X29594Y20610D02*
Y20611D01*
X29593Y20609D02*
X29594Y20610D01*
X29593Y20608D02*
Y20609D01*
X29592Y20608D02*
X29593D01*
X29591Y20607D02*
X29592Y20608D01*
X29591Y20605D02*
Y20607D01*
X29465Y20495D02*
X29591Y20605D01*
X29465Y20495D02*
Y20495D01*
X29461Y20490D02*
X29465Y20495D01*
X29458Y20488D02*
X29461Y20490D01*
X29453Y20483D02*
X29458Y20488D01*
X29451Y20480D02*
X29453Y20483D01*
X29449Y20478D02*
X29451Y20480D01*
X29446Y20475D02*
X29449Y20478D01*
X29444Y20473D02*
X29446Y20475D01*
X29440Y20467D02*
X29444Y20473D01*
X29438Y20464D02*
X29440Y20467D01*
X29436Y20461D02*
X29438Y20464D01*
X29434Y20458D02*
X29436Y20461D01*
X29432Y20455D02*
X29434Y20458D01*
X29431Y20452D02*
X29432Y20455D01*
X29429Y20448D02*
X29431Y20452D01*
X29426Y20442D02*
X29429Y20448D01*
X29425Y20439D02*
X29426Y20442D01*
X29424Y20436D02*
X29425Y20439D01*
X29422Y20432D02*
X29424Y20436D01*
X29421Y20429D02*
X29422Y20432D01*
X29420Y20426D02*
X29421Y20429D01*
X29419Y20423D02*
X29420Y20426D01*
X29418Y20419D02*
X29419Y20423D01*
X29418Y20416D02*
X29418Y20419D01*
X29417Y20412D02*
X29418Y20416D01*
X29416Y20409D02*
X29417Y20412D01*
X29416Y20405D02*
Y20409D01*
X29415Y20402D02*
X29416Y20405D01*
X29415Y20398D02*
Y20402D01*
X29415Y20395D02*
X29415Y20398D01*
X29415Y20379D02*
Y20395D01*
Y20379D02*
X29415Y20375D01*
Y20371D02*
Y20375D01*
Y20371D02*
X29416Y20368D01*
Y20364D02*
Y20368D01*
Y20364D02*
X29417Y20361D01*
X29418Y20357D01*
X29418Y20354D01*
X29419Y20351D01*
X29420Y20348D01*
X29421Y20344D01*
X29422Y20341D01*
X29424Y20338D01*
X29424Y20334D01*
X29432Y20319D01*
X29434Y20316D01*
X29436Y20313D01*
X29438Y20310D01*
X29440Y20307D01*
X29444Y20301D01*
X29446Y20298D01*
X29448Y20295D01*
X29460Y20283D01*
X29463Y20281D01*
X29465Y20279D01*
X29471Y20274D01*
X29474Y20272D01*
X29477Y20270D01*
X29480Y20268D01*
X29483Y20266D01*
X29486Y20264D01*
X29489Y20263D01*
X29492Y20260D01*
X29497Y20258D01*
X29501D01*
Y20249D02*
Y20258D01*
X29424Y20249D02*
X29501D01*
X29249Y20658D02*
X29424Y20249D01*
D74*
X30125Y20027D02*
Y20177D01*
X30051D01*
X30026Y20152D01*
Y20102D01*
X30051Y20077D01*
X30125D01*
X29876Y20152D02*
X29901Y20177D01*
X29951D01*
X29976Y20152D01*
Y20052D01*
X29951Y20027D01*
X29901D01*
X29876Y20052D01*
X29826Y20177D02*
Y20027D01*
X29751D01*
X29726Y20052D01*
Y20077D01*
X29751Y20102D01*
X29826D01*
X29751D01*
X29726Y20127D01*
Y20152D01*
X29751Y20177D01*
X29826D01*
X29676D02*
Y20027D01*
Y20102D01*
X29576D01*
Y20177D01*
Y20027D01*
X29526Y20177D02*
Y20077D01*
X29476Y20027D01*
X29426Y20077D01*
Y20177D01*
X29376Y20102D02*
X29276D01*
X29226Y20027D02*
Y20177D01*
X29151D01*
X29126Y20152D01*
Y20102D01*
X29151Y20077D01*
X29226D01*
X29176D02*
X29126Y20027D01*
X28976Y20177D02*
X29076D01*
Y20027D01*
X28976D01*
X29076Y20102D02*
X29026D01*
X28926Y20177D02*
Y20077D01*
X28876Y20027D01*
X28826Y20077D01*
Y20177D01*
X28776Y20027D02*
X28726D01*
X28751D01*
Y20177D01*
X28776Y20152D01*
M02*
